<svg width="34" height="83" viewBox="0 0 34 83" fill="none" xmlns="http://www.w3.org/2000/svg">
<path d="M12.4336 4.75831C17.8829 4.75831 24.432 2.10363 29.8476 2.00145C35.5954 1.893 30.1478 7.88333 28.4309 10.272C27.7139 11.2696 23.5823 18.6178 23.2235 15.7474C22.6093 10.8341 16.0914 6.9623 12.2344 4.75831" stroke="white" stroke-width="3" stroke-linecap="round"/>
<path d="M13.9336 4.75713C16.873 4.75713 16.0173 3.55341 18.8503 5.70769C21.5491 7.76002 21.1006 5.35398 22.9336 7.6088C24.8943 10.0207 25.1714 6.27928 25.6003 6.47341C28.4462 7.7616 26.853 6.84221 28.9336 6.18297" stroke="white" stroke-width="2" stroke-linecap="round"/>
<path d="M14.3019 15.0938C12.2936 15.0938 10.6164 17.5358 9.63054 18.9227C3.93337 26.9374 1.8279 37.0609 2.01089 46.7593C2.32379 63.3428 12.3121 71.906 24.6401 81.2583" stroke="white" stroke-width="3" stroke-linecap="round"/>
</svg>
