<svg width="32" height="81" viewBox="0 0 32 81" fill="none" xmlns="http://www.w3.org/2000/svg">
<path d="M12.6792 1.26879C18.1285 1.26879 23.4984 0.681759 28.914 0.579578C34.6618 0.471129 29.2142 6.46145 27.4973 8.85015C26.7803 9.84768 22.6487 17.196 22.2899 14.3256C21.6758 9.41222 15.1578 5.54043 11.3008 3.33644" stroke="white" stroke-linecap="round"/>
<path d="M12.6797 1.95492C15.3809 1.95492 14.5946 0.209371 17.1979 3.33335C19.678 6.30949 19.2658 2.82042 20.9503 6.0902C22.7521 9.58783 23.0067 4.16222 23.4008 4.44375C26.016 6.31178 24.552 4.97855 26.464 4.02256" stroke="white" stroke-linecap="round"/>
<path d="M13.3683 13.6719C11.36 13.6719 9.68279 16.114 8.69695 17.5008C2.99977 25.5155 0.894309 35.639 1.0773 45.3374C1.39019 61.9209 11.3785 70.4841 23.7065 79.8364" stroke="white" stroke-linecap="round"/>
</svg>
