<svg width="332" height="280" viewBox="0 0 332 280" fill="none" xmlns="http://www.w3.org/2000/svg">
<path d="M41.2032 169.191C40.8551 169.585 41.0592 170.197 40.7241 172.073C40.1898 175.063 39.7624 178.037 40.9189 180.902C41.8858 183.297 44.3738 183.343 46.2712 181.987" stroke="#F1F1F1" stroke-linecap="round"/>
<path d="M57.7392 174.651C57.51 177.031 56.6955 177.207 54.8554 178.845C53.2246 180.296 51.8089 180.996 49.8458 181.804C48.7614 182.251 47.6487 182.082 46.5549 182.618" stroke="#F1F1F1" stroke-linecap="round"/>
<path d="M46.8052 182.283C46.3286 182.264 45.2192 182.836 44.7515 183C43.6648 183.382 42.6234 183.717 42.1057 184.808C41.7347 185.589 41.6549 186.084 41.5699 186.858C41.5437 187.096 41.6471 188.357 41.9802 187.899" stroke="#F1F1F1" stroke-linecap="round"/>
<path d="M47.1548 182.527C48.5133 181.672 52.4216 180.71 53.7264 181.87C54.9525 182.961 55.273 184.005 55.01 185.585" stroke="#F1F1F1" stroke-linecap="round"/>
<path d="M42.0775 188.491C40.4907 188.227 38.3251 190.275 37.5954 191.528C36.8731 192.768 36.1884 195.204 37.0463 196.515C37.4253 197.095 39.136 197.925 38.666 198.471C36.4712 201.021 37.7591 204.707 40.1224 206.537C40.7381 207.014 40.1099 207.19 39.909 207.819M42.0031 214.942C45.7389 216.919 49.6511 213.881 54.4977 213.468C56.0284 213.338 57.5404 212.656 59.0732 212.533C60.1655 212.445 61.2099 212.217 62.2117 211.791C63.9547 211.05 63.9271 209.903 64.8256 208.422" stroke="#F1F1F1" stroke-linecap="round"/>
<path d="M55.7656 184.547C55.4098 186.685 56.0224 189.082 56.2088 191.234M60.3103 205.345C60.6035 206.297 60.9599 206.229 63.1315 208.337C64.654 209.814 65.6028 211.925 67.4436 213.139C68.4694 213.816 68.9995 214.278 70.3004 214.09C72.5132 213.771 75.1632 212.142 76.3701 210.345" stroke="#F1F1F1" stroke-linecap="round"/>
<path d="M56.0193 185.36L55.8301 185.328" stroke="#F1F1F1" stroke-linecap="round"/>
<path d="M54.6621 185.331C54.8584 184.152 56.382 183.121 57.2025 182.404C58.8678 180.95 60.8589 179.481 63.0865 179.061C70.6593 177.632 72.2123 187.774 73.8498 192.761C74.7452 195.488 75.6227 197.915 76.8413 200.499C77.5557 202.014 78.9726 203.54 79.259 205.192C79.5265 206.733 78.3107 208.464 77.1133 209.384C76.4096 209.925 74.9316 211.974 75.0773 211.098" stroke="#F1F1F1" stroke-linecap="round"/>
<path d="M58.7938 182.715C57.982 182.682 58.7434 186.125 58.8192 186.198C59.8291 187.179 62.1247 186.679 63.4511 186.807C64.5506 186.913 65.4021 187.408 65.9224 188.386C67.3571 191.081 68.4239 192.583 71.351 193.752C72.1724 194.08 73.0987 194.706 73.7207 195.357C74.1627 195.82 74.3556 196.372 74.9478 196.685" stroke="#F1F1F1" stroke-linecap="round"/>
<path d="M76.3058 203.728C75.9346 203.666 75.3833 203.671 75.265 204.138C74.8556 205.754 74.7216 207.482 73.7046 208.838C73.2561 209.437 68.8747 213.113 70.157 213.792" stroke="#F1F1F1" stroke-linecap="round"/>
<path d="M69.0832 207.38C69.1676 205.301 67.5806 211.41 67.765 213.483C67.9447 215.502 67.6085 217.283 68.2869 219.308C68.7974 220.832 69.811 223.541 71.3373 224.484C74.7704 226.604 74.7026 218.014 74.5653 216.451C74.3723 214.255 74.1812 211.787 73.0619 209.836C72.7753 209.337 71.6218 208.003 70.8745 208.305C69.4807 208.868 70.4102 213.398 70.5604 214.348C71.0015 217.137 71.4445 220.176 72.5251 222.801C72.9214 223.763 73.4796 224.33 74.0708 222.994C75.5906 219.559 74.2362 214.44 73.1813 211.066C72.8262 209.931 72.1007 208.737 71.1162 208.021C69.8402 207.094 70.0141 213.262 70.0696 213.791C70.4359 217.277 70.0865 220.833 70.5452 224.309C70.7811 226.096 71.3506 227.681 72.2883 229.224C73.6533 231.469 74.7125 233.603 75.588 236.084" stroke="#F1F1F1" stroke-linecap="round"/>
<path d="M50.8781 188.202C50.4192 188.183 51.1871 188.827 51.3515 188.864C52.4067 189.104 53.9731 189.42 54.8531 190.03C55.3527 190.377 55.5628 191.651 56.1959 191.572C57.4992 191.411 58.5887 191.464 59.4802 192.551C59.9464 193.119 60.2127 193.783 60.5479 194.382C60.8459 194.915 62.4365 195.114 62.9648 195.314C64.4479 195.876 65.2387 198.176 64.4448 199.602C63.9018 200.578 62.1495 201.447 62.1287 202.35C62.0837 204.305 59.5912 206.247 57.7766 206.619C57.4746 206.681 56.5508 206.651 56.3677 206.903C55.7403 207.766 55.8856 208.864 54.9734 209.697C54.4054 210.215 52.1396 212.227 51.1849 211.163C50.5948 210.505 50.2447 211.76 49.7761 212.095C49.0851 212.589 47.8381 212.837 47.0038 212.65C45.4321 212.297 44.2459 209.616 43.7362 208.324C43.2013 206.967 44.0863 204.55 45.4948 204.186C46.0046 204.054 46.9293 204.546 46.8791 203.789C46.8208 202.91 47.2812 201.779 48.0264 201.246C48.597 200.838 49.5542 200.822 50.0135 200.41C50.6442 199.844 51.5038 199.079 52.4911 198.898C53.704 198.677 53.4817 198.786 52.7944 199.414C52.0675 200.077 50.7022 200.215 49.7909 200.319C47.9212 200.532 46.1709 199.615 46.9951 197.573C47.3006 196.816 46.3171 197.066 45.7085 196.473C44.8923 195.677 44.7105 194.872 44.886 193.818" stroke="#F1F1F1" stroke-linecap="round"/>
<path d="M51.227 195.464C51.7321 195.061 52.122 194.778 52.7409 194.549" stroke="#F1F1F1" stroke-linecap="round"/>
<path d="M56.3679 198.454C56.361 198.624 57.8864 197.926 58.2289 197.791" stroke="#F1F1F1" stroke-linecap="round"/>
<path d="M54.0039 203.312C54.4125 203.953 54.7459 204.499 55.2661 205.079" stroke="#F1F1F1" stroke-linecap="round"/>
<path d="M49.5266 206.852C49.4214 206.835 50.7102 208.583 50.9466 208.839" stroke="#F1F1F1" stroke-linecap="round"/>
<path d="M43.0586 208.302C42.189 208.849 40.1428 207.816 39.2731 207.672C37.8782 207.439 36.4436 207.819 35.7581 209.183C35.516 209.665 35.6758 210.294 35.7935 210.788C35.9089 211.273 35.2943 211.466 35.0103 211.728C34.2445 212.434 34.3954 214.147 34.9532 214.928C38.0366 219.242 43.0211 213.998 45.7408 212.055" stroke="#F1F1F1" stroke-linecap="round"/>
<path d="M18.7969 189.286C18.251 189.123 18.9724 188.605 19.128 188.465C19.559 188.079 21.5171 188.018 21.9652 188.365C22.5736 188.836 23.2077 189.665 23.0715 190.483C23.0013 190.905 24.7523 190.143 25.2515 190.176C27.6001 190.329 28.0167 192.326 27.6814 194.341C27.5748 194.981 28.702 193.494 29.3162 193.284C30.275 192.957 30.7365 194.381 30.8658 195.076C30.9042 195.283 31.257 196.324 31.1429 196.009C30.9141 195.377 30.6119 194.457 30.9285 193.79C31.4031 192.79 31.8895 190.804 33.5358 191.89C34.6337 192.614 34.7574 191.221 35.705 190.543C36.6844 189.844 38.6362 188.855 39.7425 189.659" stroke="#F1F1F1" stroke-linecap="round"/>
<path d="M17.2829 192.538C16.2076 192.359 16.4473 194.635 16.8419 195.187C17.2874 195.811 17.605 196.092 18.3773 196.221C18.8823 196.305 20.0834 196.083 20.1982 196.643C20.5361 198.291 21.0855 200.79 23.2747 200.689C23.7467 200.667 24.4759 199.932 24.7783 200.355C25.2891 201.07 25.7249 201.861 26.3209 202.514C26.9749 203.23 28.6172 204.39 29.6666 203.449C30.4669 202.731 31.5502 203.591 32.525 204.065C33.125 204.357 33.405 204.312 33.9129 203.907C34.2412 203.646 34.6627 201.893 34.7133 201.89C35.3337 201.857 36.0482 202.758 36.7814 202.774C37.1406 202.783 37.8597 202.21 37.9783 202.595" stroke="#F1F1F1" stroke-linecap="round"/>
<path d="M22.2363 193.164C22.8132 193.327 22.3873 194.147 22.5837 194.583" stroke="#F1F1F1" stroke-linecap="round"/>
<path d="M27.1891 197.29C27.2106 197.161 26.4671 198.144 26.8109 198.394" stroke="#F1F1F1" stroke-linecap="round"/>
<path d="M30.5332 195.906C30.3944 196.741 31.1162 197.947 31.4486 198.587" stroke="#F1F1F1" stroke-linecap="round"/>
<path d="M31.3535 195.656C31.3296 196.244 31.9816 197.326 32.1426 197.927" stroke="#F1F1F1" stroke-linecap="round"/>
<path d="M32.1738 195.406L31.6383 198.624" stroke="#F1F1F1" stroke-linecap="round"/>
<path d="M34.7285 195.242C35.14 195.365 36.0204 197.682 36.2117 198.018" stroke="#F1F1F1" stroke-linecap="round"/>
<path d="M17.2201 192.919C17.0457 193.505 16.0121 193.301 15.6009 193.233C13.8809 192.947 12.4972 192.844 11.4121 191.325C10.3369 189.821 8.17379 184.586 10.888 183.306C13.2473 182.194 15.7039 182.74 16.7696 185.106C17.1361 185.92 17.5106 186.897 17.7762 187.759C18.0645 188.696 18.7677 189.435 19.2068 190.332" stroke="#F1F1F1" stroke-linecap="round"/>
<path d="M43.9776 215.651C44.0206 214.59 40.7907 216.112 40.5797 216.263C39.2859 217.188 38.214 219.464 37.2913 220.762C34.3101 224.959 32.19 228.963 31.7496 234.126C31.3265 239.087 36.771 237.988 39.8821 238.505C44.153 239.216 48.2459 241.262 52.3185 242.672C55.0437 243.615 58.2731 245.472 59.7768 242.011C60.2716 240.872 61.7712 237.515 60.2172 236.638C58.7635 235.818 57.5982 234.345 55.9055 233.975C54.3896 233.644 53.7318 232.105 52.2984 231.624C50.1502 230.904 47.911 230.821 45.6669 230.953C44.8491 231.001 43.9835 231.346 43.1715 231.272C42.9604 231.253 42.0764 231.285 42.7194 231.392" stroke="#F1F1F1" stroke-linecap="round"/>
<path d="M48.2711 230.753C49.7623 231.001 51.0405 229.941 52.2453 229.08C54.9269 227.164 57.9299 224.377 60.0508 221.918C62.2104 219.414 62.558 216.203 63.0613 213.179" stroke="#F1F1F1" stroke-linecap="round"/>
<path d="M56.0595 227.19C57.0517 227.355 57.6783 228.629 58.4994 229.152C60.3835 230.352 62.4931 232.54 64.7355 232.913C67.7436 233.413 70.1198 230.484 72.2211 228.907C73.9197 227.632 75.4095 226.085 76.9518 224.637C78.5448 223.141 80.2528 222.181 81.2496 220.111C82.2223 218.091 81.8366 214.751 79.1155 214.298C78.4537 214.188 78.1738 213.999 77.3805 214.204C76.3779 214.464 75.1064 215.526 74.3737 216.232C73.1102 217.45 71.8906 218.686 70.5998 219.884C69.7915 220.634 69.2555 221.713 68.4834 222.406C67.7006 223.108 68.1878 222.926 67.6825 222.219C67.0384 221.317 66.5661 219.908 65.5876 219.287C64.6052 218.664 61.8353 216.536 62.7762 217.22" stroke="#F1F1F1" stroke-linecap="round"/>
<path d="M79.1792 213.338C78.9114 214.237 78.6144 213.482 79.2772 213.008C80.3297 212.256 81.3104 211.192 82.5608 210.55C85.101 209.247 86.3816 209.84 88.2075 211.685C89.8244 213.318 91.1515 215.139 92.3638 217.099C92.9947 218.119 92.8176 219.897 91.2832 220.02C90.3172 220.098 89.3543 220.043 88.6263 219.297C88.3757 219.04 87.8715 218.383 87.5904 218.25C86.6879 217.821 86.6857 217.849 85.5243 218.392C84.3081 218.961 82.9566 218.932 81.8618 219.425" stroke="#F1F1F1" stroke-linecap="round"/>
<path d="M59.4087 243.308C61.4022 243.64 59.2335 247.997 59.049 249.105C58.9341 249.796 58.7934 251.047 59.0058 251.702C59.5332 253.33 62.0986 253.527 63.3293 252.476C64.8185 251.205 66.0707 248.759 66.7348 246.948C67.3663 245.226 68.8923 243.593 68.7192 241.648C68.5347 239.576 67.4758 238.67 66.0264 237.504C65.0373 236.709 62.0555 235.892 61.0476 236.967" stroke="#F1F1F1" stroke-linecap="round"/>
<path d="M44.632 188.332C46.6499 188.668 48.854 188.097 50.6567 187.195" stroke="#F1F1F1" stroke-linecap="round"/>
<path d="M41.4162 198.301C41.5313 197.61 43.3583 197.508 43.908 197.355" stroke="#F1F1F1" stroke-linecap="round"/>
<path d="M41.7978 206.531C42.6745 206.676 43.1899 206.467 44.0058 206.12" stroke="#F1F1F1" stroke-linecap="round"/>
<path d="M42.3252 164.8C41.0365 164.586 39.7956 166.774 39.6762 167.861C39.5033 169.434 44.0008 170.009 45.0744 170.423C46.6162 171.018 48.1729 171.692 49.5962 172.537C51.6836 173.777 56.77 178.238 58.5413 174.891" stroke="#F1F1F1" stroke-linecap="round"/>
<path d="M43.0176 164.141C44.0745 164.317 45.203 165.092 46.1057 165.584C47.8961 166.56 49.804 167.368 51.6196 168.295C53.9356 169.479 56.6331 172.3 57.5935 174.736" stroke="#F1F1F1" stroke-linecap="round"/>
<path d="M40.6215 169.187C40.4544 170.191 38.0127 173.011 40.3211 173.395C41.0355 173.514 41.8317 173.3 42.5537 173.421C43.2984 173.545 44.0187 173.837 44.7759 173.963C45.928 174.155 45.6892 173.274 46.2688 172.656" stroke="#F1F1F1" stroke-linecap="round"/>
<path d="M46.8983 173.538C46.304 172.593 48.3882 173.272 48.854 173.474" stroke="#F1F1F1" stroke-linecap="round"/>
<path d="M40.402 177.515C44.3391 178.17 48.9079 177.424 52.7992 178.995" stroke="#F1F1F1" stroke-linecap="round"/>
<path d="M41.4756 178.078C41.0727 178.011 40.4921 177.764 40.063 177.606C39.2657 177.312 38.1644 177.52 39.1835 178.475C40.3889 179.605 41.6896 180.299 41.3802 182.158C41.1744 183.395 41.5638 183.686 41.7295 184.734" stroke="#F1F1F1" stroke-linecap="round"/>
<path d="M41.9177 178.931C42.0957 178.939 42.0533 178.891 42.1385 178.774" stroke="#F1F1F1" stroke-linecap="round"/>
<path d="M42.1703 178.578C42.35 177.498 41.4872 180.663 41.2563 181.733" stroke="#F1F1F1" stroke-linecap="round"/>
<path d="M44.4704 178.774C44.7711 178.863 43.6948 181.436 43.5878 181.739" stroke="#F1F1F1" stroke-linecap="round"/>
<path d="M46.0481 178.649C45.8876 179.614 45.1444 180.637 44.787 181.552" stroke="#F1F1F1" stroke-linecap="round"/>
<path d="M47.7864 178.743C47.1614 179.643 46.8693 180.613 46.5253 181.646" stroke="#F1F1F1" stroke-linecap="round"/>
<path d="M48.1962 180.951L49.3313 178.806" stroke="#F1F1F1" stroke-linecap="round"/>
<path d="M50.497 179.97C49.9253 180.472 49.5332 181.286 49.0148 181.863" stroke="#F1F1F1" stroke-linecap="round"/>
<path d="M43.5563 178.422C43.3836 179.46 42.8682 180.508 42.6422 181.577" stroke="#F1F1F1" stroke-linecap="round"/>
<path d="M42.7503 163.739C43.0673 163.752 43.5717 162.341 43.7871 162.079C44.5495 161.153 45.4905 160.312 46.7376 160.261C48.2785 160.199 49.7484 160.655 51.3053 160.563C52.4432 160.497 53.6114 160.612 54.6487 161.12C57.0533 162.297 58.3522 165.018 59.1925 167.401C59.5459 168.404 60.3315 169.569 60.3002 170.655C60.2427 172.653 57.948 173.83 57.129 175.451" stroke="#F1F1F1" stroke-linecap="round"/>
<path d="M44.4941 230.218C46.1185 229.718 47.7958 229.472 49.4738 229.225" stroke="#F1F1F1" stroke-linecap="round"/>
<path d="M46.3514 228.444C47.6714 228.552 49.1734 228.128 50.4661 227.958" stroke="#F1F1F1" stroke-linecap="round"/>
<path d="M48.8615 227.43C50.3754 227.309 51.8723 227.083 53.3771 226.881" stroke="#F1F1F1" stroke-linecap="round"/>
<path d="M50.7608 226.183C50.8325 226.018 51.1196 226.075 51.266 226.058C52.6634 225.893 54.0561 225.621 55.4452 225.402" stroke="#F1F1F1" stroke-linecap="round"/>
<path d="M58.4606 226.036C58.2464 225.972 58.1031 225.224 58.2331 225.405C58.6576 225.999 58.6895 226.97 58.8408 227.661" stroke="#F1F1F1" stroke-linecap="round"/>
<path d="M58.7773 223.359C59.4322 224.869 59.6353 226.795 60.0235 228.381" stroke="#F1F1F1" stroke-linecap="round"/>
<path d="M60.1895 222.688C60.5986 224.724 61.0507 226.739 61.5203 228.764" stroke="#F1F1F1" stroke-linecap="round"/>
<path d="M61.543 221.602C62.0826 224.695 62.7177 227.771 63.2543 230.865" stroke="#F1F1F1" stroke-linecap="round"/>
<path d="M63.7793 223.797C64.2092 226.081 64.7879 228.326 65.3846 230.57" stroke="#F1F1F1" stroke-linecap="round"/>
<path d="M65.4688 225.375C66.3066 227.744 67.0948 230.108 67.7916 232.528" stroke="#F1F1F1" stroke-linecap="round"/>
<path d="M57.4734 235.886C57.6191 235.397 57.4048 236.2 57.4583 236.411C57.7042 237.384 58.2449 238.268 58.4683 239.247C58.5515 239.611 58.5938 239.988 58.6081 240.362C58.6402 241.205 59.1923 241.692 59.6484 242.364" stroke="#F1F1F1" stroke-linecap="round"/>
<path d="M42.1937 227.617C42.7309 227.652 43.3502 227.242 43.7692 227.012C46.2532 225.644 48.3451 224.099 50.2743 222.065" stroke="#F1F1F1" stroke-linecap="round"/>
<path d="M43.6941 231.123C43.1236 230.569 41.9488 230.572 41.204 230.448" stroke="#F1F1F1" stroke-linecap="round"/>
<path d="M43.4177 231.989C42.506 232.64 41.6269 233.333 40.7383 234.015" stroke="#F1F1F1" stroke-linecap="round"/>
<path d="M67.0288 223.819C66.9913 223.674 66.8969 223.259 66.9724 223.116C67.0496 222.97 67.1772 223.381 67.2351 223.536C67.5238 224.306 67.4412 225.046 67.4724 225.845" stroke="#F1F1F1" stroke-linecap="round"/>
<path d="M68.3164 222.344C68.2316 223.475 68.08 224.546 67.8951 225.657" stroke="#F1F1F1" stroke-linecap="round"/>
<path d="M76.7327 216.325C76.2245 216.305 77.2086 217.605 77.2359 217.645C78.0396 218.828 78.0598 219.388 77.6833 220.777" stroke="#F1F1F1" stroke-linecap="round"/>
<path d="M48.1259 238.112C48.2122 237.822 50.4655 238.278 50.6394 238.299C51.3633 238.388 51.6159 238.676 52.1143 239.166C52.6514 239.695 53.3386 240.029 53.9926 240.39" stroke="#F1F1F1" stroke-linecap="round"/>
<path d="M58.7402 236.875C58.7334 237.435 58.8222 238.022 58.8461 238.584" stroke="#F1F1F1" stroke-linecap="round"/>
<path d="M59.373 236.984C59.5165 237.639 59.4092 238.407 59.4157 239.073" stroke="#F1F1F1" stroke-linecap="round"/>
<path d="M59.8574 237.977C59.9421 238.552 60.0099 239.131 60.0899 239.707" stroke="#F1F1F1" stroke-linecap="round"/>
<path d="M61.4625 246.307C60.5209 246.151 62.1816 246.297 62.4965 246.349" stroke="#F1F1F1" stroke-linecap="round"/>
<path d="M59.9004 247.875C60.2558 248.236 61.0315 248.364 61.4832 248.529" stroke="#F1F1F1" stroke-linecap="round"/>
<path d="M59.8398 249.812L60.4729 249.918" stroke="#F1F1F1" stroke-linecap="round"/>
<path d="M85.9768 217.861C85.7739 217.852 86.9969 217.175 87.2849 217.037" stroke="#F1F1F1" stroke-linecap="round"/>
<path d="M87.2842 219.379C87.9623 218.894 88.6948 218.554 89.4363 218.175" stroke="#F1F1F1" stroke-linecap="round"/>
<path d="M36.0939 223.617C37.3876 222.692 38.8993 221.982 40.2714 221.189" stroke="#F1F1F1" stroke-linecap="round"/>
<path d="M55.6041 187.692C55.614 187.448 55.2288 187.247 55.0342 187.207C53.4213 186.872 51.9632 186.643 50.3286 187.074C47.6197 187.789 44.6921 190.036 43.7685 192.698C43.2562 194.174 42.8375 195.262 42.9547 196.849C43.0493 198.132 43.1153 199.559 43.8125 200.686C44.5076 201.81 45.8313 202.391 46.7662 203.267" stroke="#F1F1F1" stroke-linecap="round"/>
<path d="M55.5414 189.64C54.2409 189.423 52.9596 189.091 51.6118 189.535C49.5829 190.203 47.3667 191.951 46.4453 193.909C46.0083 194.837 45.4337 195.639 45.4448 196.706C45.4562 197.814 45.6691 198.936 46.0739 199.963C46.397 200.783 46.8399 201.836 47.568 202.366" stroke="#F1F1F1" stroke-linecap="round"/>
<path d="M43.5156 199.344C44.1713 200.175 45.1192 200.826 45.8795 201.559" stroke="#F1F1F1" stroke-linecap="round"/>
<path d="M159.207 198.164C160.093 198.312 160.905 199.509 161.486 200.105" stroke="#F1F1F1" stroke-linecap="round"/>
<path d="M43.0508 195.883C43.9867 196.093 44.7376 197.277 45.3091 197.95" stroke="#F1F1F1" stroke-linecap="round"/>
<path d="M43.8092 193.672C43.8513 193.539 45.6504 195.486 45.7087 195.55" stroke="#F1F1F1" stroke-linecap="round"/>
<path d="M44.5059 191.836C45.0724 192.386 45.5023 193.067 46.0256 193.65" stroke="#F1F1F1" stroke-linecap="round"/>
<path d="M45.5605 190.18C46.1719 190.281 46.8437 191.144 47.2912 191.509" stroke="#F1F1F1" stroke-linecap="round"/>
<path d="M47.332 188.922C47.8706 189.126 48.4026 189.838 48.8094 190.209" stroke="#F1F1F1" stroke-linecap="round"/>
<path d="M49.1895 187.148C49.6217 187.684 49.9667 188.3 50.3293 188.9" stroke="#F1F1F1" stroke-linecap="round"/>
<path d="M50.623 187.125L51.6785 188.602" stroke="#F1F1F1" stroke-linecap="round"/>
<path d="M52.2285 186.867C52.597 187.383 53.0208 187.863 53.4105 188.365" stroke="#F1F1F1" stroke-linecap="round"/>
<path d="M54.3379 187.484C54.8147 187.619 55.2701 188.39 55.5621 188.729" stroke="#F1F1F1" stroke-linecap="round"/>
<path d="M19.0158 189.408C19.0342 188.955 19.103 189.537 19.1777 189.826C19.275 190.202 19.3478 190.541 19.2799 190.949C19.1327 191.834 17.9279 192.747 17.1175 192.996" stroke="#F1F1F1" stroke-linecap="round"/>
<path d="M365.312 47.5297C365.046 45.4034 361.839 41.8925 360.669 40.0532C358.168 36.1225 354.361 32.9583 352.012 29.114C348.929 24.0687 342.53 19.6049 337.335 16.7187C333.332 14.4951 327.568 30.5383 324.782 32.6554C321.225 35.3584 317.552 40.8576 314.669 44.3817C311.233 48.5819 306.714 50.8834 302.589 54.2585C296.503 59.2374 287.164 60.5144 281.379 66.2996C271.078 76.6002 272.496 94.6663 265.285 106.869C260.842 114.389 254.907 117.582 248.443 122.609C244.973 125.308 238.325 125.684 236.048 129.732C231.386 138.02 232.48 140.815 228.133 149.28" stroke="#F1F1F1" stroke-linecap="round"/>
<path d="M329.905 24.2656C329.333 24.2656 328.943 24.6015 328.522 24.9938C327.093 26.3236 325.619 27.1432 323.771 27.7243C321.817 28.3384 319.946 28.9705 318.091 29.8359C316.24 30.6996 314.24 30.6794 312.284 31.1466C306.323 32.5701 298.864 31.9249 293.225 29.5082C287.884 27.2191 281.236 26.0321 275.513 27.5423C272.955 28.2173 269.021 30.7825 268.65 33.7496C268.353 36.1275 268.915 37.3221 269.87 39.3381C270.859 41.4253 259.653 48.1832 257.601 49.35C250.317 53.492 243.136 57.796 236.885 63.4213C234.056 65.9682 231.687 69.11 229.331 72.0862C227.222 74.7502 225.235 77.5317 224.543 80.9513C223.835 84.4518 223.993 89.4593 226.546 92.2557C228.259 94.1321 231.348 95.2976 233.9 95.3685C236.406 95.4381 238.641 95.0743 240.453 97.1888C243.025 100.19 242.253 104.977 241.109 108.475C240.186 111.295 240.126 114.081 240.126 117.012C240.126 120.104 246.562 124.428 249.3 122.237" stroke="#F1F1F1" stroke-linecap="round"/>
<path d="M304.021 45.5626C303.846 42.5918 299.251 41.2045 296.885 40.6477C291.789 39.4487 286.317 39.0979 281.23 40.5748C273.618 42.7847 264.284 47.4834 263.736 56.5211C263.43 61.5688 264.709 67.0299 269.288 69.9735C270.683 70.8703 271.964 71.7666 273.566 72.2671C274.588 72.5865 275.954 72.5062 276.825 73.0863" stroke="#F1F1F1" stroke-linecap="round"/>
<path d="M305.986 45.2382C303.923 44.9804 303.693 44.1936 303.693 46.8766C303.693 48.3297 303.435 53.4298 301.727 53.4298" stroke="#F1F1F1" stroke-linecap="round"/>
<path d="M327.939 34.75C327.939 36.5931 328.121 38.5354 327.611 40.3203C326.728 43.4123 324.419 44.748 321.805 46.4913C319.504 48.0252 317.427 49.9954 315.16 51.6246C313.138 53.0782 311.113 54.5255 309.918 56.7762C308.37 59.6887 308.905 63.5374 308.935 66.7153C308.976 71.05 309.918 75.2895 309.918 79.658C309.918 89.278 305.265 95.1288 295.501 95.9501C289.753 96.4336 282.394 93.6143 282.394 86.8484C282.394 85.1584 281.504 79.5728 283.377 78.402C285.255 77.2284 280.809 78.6568 280.082 78.6568C277.064 78.6568 276.496 77.5647 276.496 74.3972" stroke="#F1F1F1" stroke-linecap="round"/>
<path d="M304.019 102.242C304.019 109.943 305.431 118.103 303.181 125.67C302.295 128.65 300.121 129.262 297.538 130.421C293.782 132.106 291.606 134.124 290.912 138.285C290.24 142.319 291.084 146.45 289.911 150.409C288.698 154.502 286.291 158.232 282.684 160.584C274.435 165.964 264.713 165.91 256.398 161.076C252.242 158.659 249.432 152.625 251.265 148.042C251.817 146.662 252.755 145.766 251.265 145.02C249.766 144.271 248.316 142.935 246.987 141.871C245.18 140.425 241.243 138.247 241.107 135.664C240.992 133.466 241.455 131.418 242.418 129.438C243.644 126.917 244.793 124.56 247.988 124.851" stroke="#F1F1F1" stroke-linecap="round"/>
<path d="M256.838 23.9291C249.203 23.0809 238.33 29.2986 237.178 37.3633" stroke="#F1F1F1" stroke-linecap="round"/>
<path d="M237.178 37.3672C237.178 39.6535 239.596 39.8211 241.437 39.9885" stroke="#F1F1F1" stroke-linecap="round"/>
<path d="M240.127 40.6423C239.503 40.7204 241.504 41.3849 242.093 41.2977C245.176 40.8409 247.534 38.862 249.975 37.1837C254.257 34.24 256.282 28.6914 260.114 25.2422" stroke="#F1F1F1" stroke-linecap="round"/>
<path d="M165.825 141.669C162.995 141.669 161.406 145.83 160.51 147.968C159.863 149.511 158.307 157.695 162.549 155.686C167.65 153.269 166.757 144.21 168.447 139.703" stroke="#F1F1F1" stroke-linecap="round"/>
<path d="M319.748 75.7031C319.451 78.3763 318.548 86.4252 322.77 86.3704C325.803 86.331 326.471 81.7482 325.828 79.5259C324.54 75.0749 321.68 79.941 320.731 81.6011" stroke="#F1F1F1" stroke-linecap="round"/>
<path d="M266.012 56.044C265.507 56.5494 264.547 58.1209 264.374 57.4275C264.094 56.3063 270.795 50.6421 271.51 49.9276C273.958 47.4795 276.474 45.1642 279.119 42.9375" stroke="#F1F1F1" stroke-linecap="round"/>
<path d="M266.012 60.953C266.008 60.9845 271.298 56.3936 272.055 55.7286C275.462 52.7367 278.758 49.5889 282.358 46.8271C283.391 46.0353 284.051 45.3586 284.689 44.2422" stroke="#F1F1F1" stroke-linecap="round"/>
<path d="M271.584 61.9438C270.281 61.9438 269.377 63.2952 268.635 64.3103C267.146 66.3473 269.938 63.2623 270.292 62.9086C273.247 59.9536 276.209 57.0062 279.157 54.0435C280.431 52.7629 282.001 50.7393 283.38 49.8203" stroke="#F1F1F1" stroke-linecap="round"/>
<path d="M272.564 66.5278C278.951 60.141 283.072 51.5993 289.603 45.4118C290.627 44.4412 294.052 42.7033 292.552 41.9531" stroke="#F1F1F1" stroke-linecap="round"/>
<path d="M279.445 65.8725C280.14 65.7567 280.441 65.3239 280.902 64.8167C284.008 61.3953 287.306 58.1488 290.495 54.8048C292.51 52.6919 295.425 50.3467 296.484 47.5234" stroke="#F1F1F1" stroke-linecap="round"/>
<path d="M216.527 81.0055C215.806 80.9254 214.91 80.2253 214.376 79.7403C211.962 77.5453 207.731 76.7508 204.571 76.1978C195.102 74.5408 183.271 78.4936 178.445 87.2683C173.451 96.3481 174.839 106.548 178.508 115.925C180.805 121.794 184.985 126.132 191.476 124.149C201.111 121.205 200.4 102.379 202.578 95.2706C204.606 88.6528 207.534 78.1589 215.958 78.1589" stroke="#F1F1F1" stroke-linecap="round"/>
<path d="M224.944 157.922C223.608 158.089 222.381 159.883 221.464 160.705C217.447 164.308 213.58 168.647 211.311 173.61C208.303 180.191 210.603 186.178 214.126 192.051C217.072 196.96 220.706 196.811 225.829 195.941C230.292 195.183 234.207 197.88 238.355 199.357C243.921 201.34 250.993 203.143 256.89 203.437C264.095 203.798 271.808 201.897 277.355 197.143C286.213 189.55 294.191 179.693 301.235 170.447" stroke="#F1F1F1" stroke-linecap="round"/>
<path d="M206.512 153.086C205.848 158.399 193.109 161.155 189.274 162.944C180.852 166.875 171.389 169.34 162.415 171.681C157.126 173.061 150.799 173.908 145.945 176.463C140.178 179.498 138.976 184.554 137.179 190.306C136.048 193.925 135.841 198.068 133.932 201.463C131.235 206.257 123.296 207.746 119.321 211.351C115.636 214.694 112.704 208.721 108.637 208.871C102.657 209.093 98.3562 213.739 95.5019 218.139C91.0002 225.079 84.9362 231.641 79.3271 237.738C75.3071 242.108 71.4774 246.979 66.9009 250.843C61.0071 255.82 56.2348 259.393 48.4238 261.882C41.2441 264.17 33.8539 264.767 26.7 266.811C23.3392 267.771 17.0317 275.511 17.9042 279.001" stroke="#F1F1F1" stroke-linecap="round"/>
<path d="M146.477 188.68C146.477 188.084 148.227 189.705 148.631 190.009C149.988 191.027 152.402 192.931 154.18 192.931C156.495 192.931 158.904 189.664 159.877 187.913C161.887 184.295 164.704 180.848 167.197 177.523" stroke="#F1F1F1" stroke-linecap="round"/>
<path d="M148.602 185.492C149.123 185.557 149.848 190.467 150.195 191.336" stroke="#F1F1F1" stroke-linecap="round"/>
<path d="M152.852 187.086C152.782 186.53 152.447 192.057 153.383 193.461" stroke="#F1F1F1" stroke-linecap="round"/>
<path d="M154.976 184.961C153.709 186.387 154.445 190.153 154.445 191.868" stroke="#F1F1F1" stroke-linecap="round"/>
<path d="M157.102 184.43V190.805" stroke="#F1F1F1" stroke-linecap="round"/>
<path d="M159.758 183.367C159.578 184.982 159.227 186.433 159.227 188.149" stroke="#F1F1F1" stroke-linecap="round"/>
<path d="M146.916 235.4C146.916 232.603 147.48 229.946 148.392 227.313C149.377 224.466 150.686 224.561 153.291 225.719C156.552 227.168 157.124 213.617 160.73 213.617C162.78 213.617 164.882 216.515 166.574 217.454C169.145 218.883 171.482 222.359 172.418 225.01C174.046 229.622 170.979 226.391 170.824 230.736C170.782 231.922 171.684 238.486 170.824 238.057" stroke="#F1F1F1" stroke-linecap="round"/>
<path d="M101.317 220.023C101.317 224.456 106.489 229.748 109.05 233.04C112.173 237.056 112.99 241.605 114.038 246.322C114.278 247.401 110.754 249.723 110.083 250.543C108.854 252.045 108.038 253.774 106.748 255.207C105.393 256.712 104.909 258.372 102.675 258.778C100.213 259.226 97.819 260.151 95.4727 260.933" stroke="#F1F1F1" stroke-linecap="round"/>
<path d="M197.48 197.711C197.48 201.62 199.993 207.661 202.793 210.462C204.533 212.201 207.159 211.459 209.198 212.351C210.386 212.87 213.954 214.71 215.013 214.181" stroke="#F1F1F1" stroke-linecap="round"/>
<path d="M310.459 217.148C309.861 217.148 309.21 216.884 308.748 216.478C307.282 215.186 304.491 214.742 302.57 214.587C298.173 214.233 292.922 215.489 292.922 220.786C292.922 226.083 297.279 224.701 300.716 223.275C307.778 220.346 312.502 217.317 320.298 219.733" stroke="#F1F1F1" stroke-linecap="round"/>
<path d="M272.867 208.141C272.867 211.302 267.827 214.562 271.369 218.055C274.809 221.447 279.441 221.921 283.134 224.782C285.155 226.348 285.806 228.961 286.224 231.345C286.862 234.982 288.744 237.181 290.835 240.111C291.766 241.416 293.729 242.635 293.83 244.424C293.878 245.285 293.402 247.448 293.402 247.377" stroke="#F1F1F1" stroke-linecap="round"/>
<path d="M263.72 215.551C263.72 214.903 263.121 217.436 263.083 217.613C262.87 218.608 261.3 223.658 262.139 223.658" stroke="#F1F1F1" stroke-linecap="round"/>
<path d="M266.456 210.875C266.025 215.754 264.768 220.729 263.719 225.475" stroke="#F1F1F1" stroke-linecap="round"/>
<path d="M269.195 210.875C268.183 212.105 268.23 214.814 268.021 216.278C267.456 220.248 266.917 224.232 266.457 228.213" stroke="#F1F1F1" stroke-linecap="round"/>
<path d="M271.02 220.914C270.069 223.833 269.667 227.036 269.195 230.039" stroke="#F1F1F1" stroke-linecap="round"/>
<path d="M274.67 221.828C273.879 224.231 273.758 227.449 273.758 230.041" stroke="#F1F1F1" stroke-linecap="round"/>
<path d="M279.233 223.648C279.233 226.216 277.962 229.674 278.42 231.861" stroke="#F1F1F1" stroke-linecap="round"/>
<path d="M281.971 226.398C281.971 228.91 281.419 231.264 281.059 233.699" stroke="#F1F1F1" stroke-linecap="round"/>
<path d="M283.795 230.039C283.795 232.809 283.795 235.533 283.795 238.252" stroke="#F1F1F1" stroke-linecap="round"/>
<path d="M287.891 236.43C289.052 237.663 287.715 240.548 287.445 241.905" stroke="#F1F1F1" stroke-linecap="round"/>
<path d="M275.582 225.484C275.346 227.936 274.797 230.28 274.67 232.785" stroke="#F1F1F1" stroke-linecap="round"/>
<path d="M216.607 167.43C216.607 170.228 216.997 173.073 219.028 175.104C221.065 177.141 224.324 177.803 226.436 179.915C227.983 181.461 228.648 183.541 229.624 185.494C231.237 188.719 234.808 190.013 237.328 192.4C238.704 193.704 238.876 194.868 239.718 196.385C240.243 197.33 238.793 199.371 239.984 198.776" stroke="#F1F1F1" stroke-linecap="round"/>
<path d="M212.887 175.398C212.887 177.587 210.79 181.802 212.356 183.368" stroke="#F1F1F1" stroke-linecap="round"/>
<path d="M216.076 174.336C216.076 178.404 213.699 182.614 215.013 186.556" stroke="#F1F1F1" stroke-linecap="round"/>
<path d="M218.733 175.398C218.733 180.511 217.139 185.609 217.139 190.806" stroke="#F1F1F1" stroke-linecap="round"/>
<path d="M221.921 178.586C219.468 181.346 219.796 188.423 219.796 191.868" stroke="#F1F1F1" stroke-linecap="round"/>
<path d="M225.64 181.242C225.362 183.744 222.746 188.974 224.578 190.805" stroke="#F1F1F1" stroke-linecap="round"/>
<path d="M228.827 183.898C228.827 186.437 227.973 188.761 228.295 191.336" stroke="#F1F1F1" stroke-linecap="round"/>
<path d="M232.543 190.805V195.055" stroke="#F1F1F1" stroke-linecap="round"/>
<path d="M185.461 81.9844C185.738 84.476 187.959 85.7025 187.557 88.714C187.058 92.4557 185.124 95.4026 184.281 98.9856C183.453 102.503 185.796 105.961 184.664 109.582C184.335 110.636 180.953 116.534 180.148 114.924" stroke="#F1F1F1" stroke-linecap="round"/>
<path d="M178.555 90.4844V104.298" stroke="#F1F1F1" stroke-linecap="round"/>
<path d="M180.679 90.4828C180.679 84.6359 178.596 102.786 181.21 108.015" stroke="#F1F1F1" stroke-linecap="round"/>
<path d="M184.398 86.2344C184.398 89.9649 183.336 93.6231 183.336 97.3915" stroke="#F1F1F1" stroke-linecap="round"/>
<path d="M332.025 3.09109C331.361 -2.22209 309.631 3.34115 310.272 11.3556C311.534 27.1374 329.586 4.25817 334.681 2.55985" stroke="#F1F1F1" stroke-linecap="round"/>
<path d="M205.408 154.334C205.408 150.021 207.353 145.225 207.584 140.845C207.734 137.997 208.669 136.496 210.63 134.754C212.621 132.984 214.396 130.85 216.286 128.904C218.692 126.428 220.271 123.178 222.717 120.733C224.513 118.937 225.816 119.089 228.373 119.089C231.227 119.089 233.983 120.83 236.737 120.83C237.845 120.83 242.377 119.49 242.829 120.395" stroke="#F1F1F1" stroke-linecap="round"/>
<path d="M231.977 151.159C231.84 150.062 225.249 148.962 224.251 149.405C222.823 150.04 221.827 150.547 220.556 151.421C219.705 152.006 219.153 155.479 220.052 156.198C221.153 157.078 222.795 156.862 224.065 157.224C225.163 157.538 226.428 158.631 227.461 159.221C228.312 159.707 229.505 161.237 230.465 161.237C232.876 161.237 233.591 158.571 235.672 157.878" stroke="#F1F1F1" stroke-linecap="round"/>
<path d="M244.526 104.83C244.36 103.502 243.772 104.573 243.772 105.395C243.772 108.904 242.468 112.658 241.889 116.132" stroke="#F1F1F1" stroke-linecap="round"/>
<path d="M245.281 105.586C245.281 109.474 244.473 113.389 244.15 117.265" stroke="#F1F1F1" stroke-linecap="round"/>
<path d="M248.669 107.094C248.669 111.409 247.774 115.996 247.162 120.279" stroke="#F1F1F1" stroke-linecap="round"/>
<path d="M253.567 105.586C253.567 109.294 252.953 113.318 252.061 116.888" stroke="#F1F1F1" stroke-linecap="round"/>
<path d="M258.464 104.828C257.835 107.662 257.654 110.614 257.334 113.493" stroke="#F1F1F1" stroke-linecap="round"/>
<path d="M263.74 105.211C263.603 106.991 263.041 108.76 262.609 110.485" stroke="#F1F1F1" stroke-linecap="round"/>
<path d="M330.077 165.173C324.845 165.173 320.459 160.707 314.627 161.763C311.155 162.392 308.708 164.919 306.784 167.707C305.393 169.722 303.197 171.233 303.123 173.887C302.951 180.068 308.066 184.684 311.252 189.445C312.866 191.857 312.499 192.303 310.373 194.157C307.228 196.898 303.339 198.834 299.415 200.219C289.304 203.789 277.752 202.983 268.088 207.797C260.414 211.62 256.388 221.459 264.618 226.978C268.769 229.761 274.11 231.036 277.881 234.318C283.72 239.401 288.651 247.796 297.134 248.266C301.706 248.519 306.999 246.823 311.252 245.282C319.119 242.432 325.128 243.405 333.072 246.158" stroke="#F1F1F1" stroke-linecap="round"/>
<path d="M323.814 134.011C323.661 132.629 321.93 132.204 320.774 132.476C316.404 133.505 312.982 137.764 312.244 142.098C310.302 153.51 326.332 150.98 332.315 150.481" stroke="#F1F1F1" stroke-linecap="round"/>
<path d="M330.721 135.609C330.342 139.774 327.629 144.307 326.471 148.36" stroke="#F1F1F1" stroke-linecap="round"/>
<path d="M318.849 135.508C318.812 135.805 318.376 136.336 318.236 136.577C317.759 137.396 317.349 138.215 316.956 139.075C316.531 140.006 316.015 140.873 315.615 141.819C315.343 142.463 315.063 143.103 314.791 143.747C314.648 144.087 314.432 144.44 314.432 144.816" stroke="#F1F1F1" stroke-linecap="round"/>
<path d="M321.691 135.117C320.987 135.9 320.686 137.298 320.332 138.273C319.809 139.715 319.073 141.024 318.698 142.524C318.386 143.771 317.849 144.904 317.436 146.117C317.329 146.43 316.529 148.257 316.721 148.449" stroke="#F1F1F1" stroke-linecap="round"/>
<path d="M323.426 135.513C323.406 135.369 323.236 135.695 323.225 135.719C322.836 136.532 322.544 137.39 322.199 138.222C321.594 139.681 320.946 141.126 320.367 142.595C319.829 143.962 319.38 145.39 318.79 146.733C318.455 147.492 318.066 148.354 317.904 149.161" stroke="#F1F1F1" stroke-linecap="round"/>
<path d="M325.242 135.672C324.828 135.724 324.466 137.507 324.378 137.754C323.769 139.468 323.229 141.194 322.577 142.894C321.68 145.232 320.99 147.631 320.035 149.95" stroke="#F1F1F1" stroke-linecap="round"/>
<path d="M328.237 134.328C328.078 134.522 328.02 134.81 327.93 135.038C327.619 135.828 327.336 136.624 327.071 137.431C326.574 138.948 326.111 140.448 325.472 141.914C324.767 143.532 324.175 145.201 323.487 146.827C323.074 147.802 322.61 148.896 322.479 149.948" stroke="#F1F1F1" stroke-linecap="round"/>
<path d="M332.262 139.062C331.512 140.562 331.17 142.221 330.491 143.752C329.73 145.466 328.872 147.07 328.238 148.844" stroke="#F1F1F1" stroke-linecap="round"/>
</svg>
