<svg width="244" height="337" viewBox="0 0 244 337" fill="none" xmlns="http://www.w3.org/2000/svg">
<path d="M156.035 221C154.443 221 153.484 221.625 152.264 222.574C151.323 223.305 150.492 223.823 149.882 224.955C149.419 225.816 149.33 226.746 148.942 227.633C148.122 229.508 147.677 231.539 146.469 233.284C145.434 234.779 145.365 236.336 145.365 238.108C145.365 239.491 145.537 241.76 146.919 242.513C148.494 243.372 149.875 243.579 150.986 245.007C152.212 246.583 152.627 248.624 153.368 250.434C153.958 251.877 154.505 253.282 155.197 254.665C155.979 256.229 156.941 257.573 157.783 259.07C158.984 261.205 161.388 262.625 162.698 264.742C163.443 265.944 164.533 267.111 165.376 268.278C166.265 269.508 166.267 271.075 166.48 272.509C166.913 275.432 165.821 278.837 166.613 281.686C167.01 283.118 166.709 284.75 166.981 286.214C167.283 287.849 167.073 289.692 167.073 291.354C167.073 295.416 166.088 299.456 166.153 303.557C166.202 306.644 168.062 310.99 170.568 312.939C172.454 314.406 174.853 315.115 177.149 315.515C178.242 315.705 183.188 315.224 183.629 313.9" stroke="white" stroke-linecap="round"/>
<path d="M156.403 221.367C155.941 221.433 156.955 222.188 156.955 222.655C156.955 223.271 157.139 223.819 157.139 224.403C157.139 226.391 156.403 228.339 156.403 230.34C156.403 232.683 156.766 234.737 158.243 236.636C159.653 238.449 161.208 240.073 162.249 242.155C163.382 244.422 164.692 246.65 165.887 248.869C166.712 250.402 165.639 251.91 164.17 252.497C162.25 253.265 160.402 254.031 158.335 254.49C157.411 254.695 155.115 256.071 155.115 254.48" stroke="white" stroke-linecap="round"/>
<path d="M165.969 250.805C165.969 252.274 167.204 254.023 168.401 254.852C169.266 255.45 169.991 256.154 170.752 256.875C171.435 257.523 172.005 258.679 172.775 259.175C173.555 259.676 174.407 260.714 175.075 261.382C176.091 262.399 177 263.545 178.11 264.459C180.261 266.23 181.421 267.911 181.421 270.764C181.421 272.152 181.246 273.66 181.605 275.006C181.948 276.29 182.406 277.571 182.709 278.859C183.392 281.762 185.031 284.456 185.693 287.372C186.296 290.023 186.868 292.432 187.114 295.139C187.276 296.92 187.676 302.262 187.676 300.474" stroke="white" stroke-linecap="round"/>
<path d="M140.583 245.102C139.802 245.199 140.031 248.459 140.031 249.006C140.031 250.483 140.905 252.513 141.411 253.932C142.142 255.979 141.687 258.807 141.687 260.963C141.687 263.646 142.249 266.752 144.078 268.843C145.405 270.358 146.27 271.125 148.31 270.396C149.762 269.877 150.738 269.752 152.316 269.752C153.288 269.752 154.484 269.791 155.116 270.58C155.522 271.087 157.946 272.328 158.611 272.328" stroke="white" stroke-linecap="round"/>
<path d="M140.215 246.391C140.215 244.983 140.596 244.061 142.126 243.826C143.748 243.576 145.414 244.385 146.102 245.931C147.609 249.322 148.704 253.836 151.947 255.957C152.995 256.642 154.536 257.486 155.3 258.441C155.852 259.131 157.335 259.781 157.497 260.75C157.863 262.944 157.691 265.268 157.691 267.506C157.691 268.935 158.059 273.207 158.059 271.778" stroke="white" stroke-linecap="round"/>
<path d="M159.164 272.329C158.974 272.329 158.169 272.117 158.101 272.186C157.9 272.386 158.552 273.638 158.622 273.882C158.969 275.098 159.675 275.62 160.533 276.478C161.185 277.13 162.896 277.069 163.354 277.848C163.905 278.785 165.139 279.674 166.154 280.055" stroke="white" stroke-linecap="round"/>
<path d="M182.297 271.611C182.28 271.474 184.45 271.951 184.892 272.006C186.157 272.164 187.405 273.016 187.76 274.169C188.182 275.541 187.967 277.761 187.853 279.187C187.72 280.853 187.602 282.479 187.602 284.161C187.602 286.336 188.366 288.071 188.766 290.17C189.247 292.694 189.025 300.445 189.025 297.875" stroke="white" stroke-linecap="round"/>
<path d="M187.472 300.849C187.472 298.344 187.184 292.31 190.994 292.31C191.61 292.31 192.226 292.31 192.842 292.31C193.599 292.31 193.509 291.682 194.136 291.404C194.806 291.106 194.979 290.887 195.753 290.887C196.422 290.887 196.827 291.207 197.435 291.275C197.676 291.302 197.898 291.582 198.146 291.526C198.456 291.458 198.56 291.275 198.923 291.275C199.055 291.275 199.453 291.544 199.181 291.332C198.883 291.1 198.569 290.928 198.276 290.7C196.62 289.412 195.494 288.772 195.494 286.488C195.494 286.235 195.467 285.888 195.688 285.711C195.991 285.469 195.009 284.709 194.854 284.554C194.204 283.904 193.863 283.114 193.489 282.29C193.239 281.742 193.378 280.654 193.711 280.176C193.775 280.086 192.445 278.416 192.288 278.207C191.786 277.538 191.483 277.293 191.483 276.453C191.483 276.232 191.593 275.764 191.799 275.627C192.017 275.481 191.442 275.243 191.282 275.037C189.837 273.179 193.111 272.385 194.43 272.385C195.673 272.385 196.869 271.867 198.139 271.867C199.96 271.867 200.799 273.523 200.799 275.231C200.799 275.536 200.617 277.043 201 277.043C201.972 277.043 202.882 277.444 203.573 278.135C204.419 278.981 204.422 280.172 204.422 281.283C204.422 281.688 206.11 282.182 206.52 282.577C207.341 283.368 207.656 284.223 207.656 285.388C207.656 286.07 207.333 287.703 207.865 288.234C208.607 288.977 210.024 288.924 210.79 289.751C211.529 290.549 211.667 292.054 211.667 293.086C211.667 293.836 211.535 294.459 212.386 294.768C213.323 295.109 214.588 296.005 214.952 296.975C215.161 297.533 214.632 299.427 215.318 299.656C216.29 299.98 218.027 300.102 218.654 301.007C219.293 301.931 219.43 302.656 219.43 303.76C219.43 304.207 219.725 304.142 220.091 304.292C220.981 304.656 221.668 305.224 222.205 306.01C223.609 308.07 223.846 311.676 221.083 312.724C219.16 313.453 217.38 314.583 215.29 314.815C214.357 314.919 213.099 314.971 212.213 314.664C211.557 314.437 211.294 314.319 210.761 314.823C209.157 316.338 207.666 317.54 205.327 317.54C204.896 317.54 204.465 317.54 204.033 317.54C203.648 317.54 203.447 317.299 203.128 317.281C202.475 317.245 202.11 317.66 201.575 317.957C199.32 319.209 197.107 319.897 194.459 319.603C193.185 319.461 192.158 318.804 191.282 317.928C190.855 317.501 190.268 317.804 189.772 317.957C187.312 318.713 184.753 317.026 183.792 314.83C183.387 313.905 183.412 311.948 183.691 310.97C183.924 310.155 184.052 309.276 184.302 308.476C184.483 307.897 184.399 307.132 184.69 306.607C185.007 306.037 184.578 305.012 184.726 304.343C184.915 303.493 185.211 302.9 185.632 302.143C185.938 301.593 186.567 301.266 186.567 300.59C186.567 299.723 186.237 298.729 186.502 297.881C186.76 297.054 187.403 296.243 187.86 295.516C188.28 294.849 188.692 293.992 189.542 293.992" stroke="white" stroke-linecap="round"/>
<path d="M192.646 273.166C191.221 273.166 191.017 271.289 190.827 270.247C190.447 268.156 188.837 266.967 187.729 265.245C187.227 264.463 186.953 263.473 186.953 262.556C186.953 261.68 188.376 262.508 188.376 261.478C188.376 261.044 188.199 260.138 188.578 259.897C189.239 259.476 189.621 259.017 190.188 258.416C190.726 257.846 190.94 257.434 191.97 257.669C192.797 257.856 193.4 258.785 193.868 259.386C194.776 260.554 194.079 262.316 194.616 263.591C194.976 264.447 194.997 265.418 195.262 266.28C195.446 266.877 195.851 267.285 196.139 267.789C196.498 268.416 196.808 268.938 197.11 269.601C197.389 270.215 197.528 270.897 197.821 271.484" stroke="white" stroke-linecap="round"/>
<path d="M199.505 271.742C199.474 271.496 198.98 270.866 198.786 270.7C198.475 270.434 198.132 269.429 198.074 269.025C197.981 268.37 197.961 267.882 198.47 267.343C199.074 266.703 198.412 266.099 198.182 265.431C197.686 263.992 197.374 263.183 197.7 261.715C197.823 261.165 198.758 261.927 198.369 261.003C198.086 260.332 198.642 259.876 199.246 259.738C200.008 259.564 201.316 259.774 201.834 260.421C202.322 261.031 204.361 260.587 204.967 260.357C206.745 259.679 208.373 260.785 207.72 262.743C207.513 263.366 207.032 263.808 206.721 264.367C206.622 264.545 206.213 264.75 206.491 264.914C206.799 265.095 207.192 265.342 207.397 265.633C208.724 267.519 207.83 269.462 206.815 271.289C206.658 271.572 207.282 272.518 207.368 272.907C207.563 273.781 207.207 274.483 206.851 275.236C206.236 276.533 208.611 277.386 209.014 278.686C209.19 279.252 209.129 280.697 209.726 281.029C210.299 281.348 210.842 281.721 211.379 282.093C212.003 282.525 212.249 283.158 212.5 283.84C212.743 284.499 212.403 285.332 212.774 285.967C213.607 287.396 216.339 287.595 216.454 289.655C216.535 291.109 216.652 292.368 217.877 293.155C218.862 293.788 219.131 297.231 217.877 297.231" stroke="white" stroke-linecap="round"/>
<path d="M200.539 259.194C199.89 259.113 200.021 257.038 200.021 256.549C200.021 255.819 199.68 255.119 199.504 254.414C199.329 253.714 199.019 252.865 198.756 252.208C198.521 251.619 198.87 250.874 198.627 250.267C198.26 249.349 198.213 248.461 197.628 247.615C196.788 246.402 196.804 245.793 197.951 244.704C198.495 244.187 200.071 244.125 200.733 244.38C201.345 244.615 201.876 244.898 202.278 245.415C202.769 246.047 203.716 246.193 204.162 246.802C205.424 248.529 205.197 250.677 205.197 252.725C205.197 253.058 204.997 254.455 205.261 254.666C205.721 255.034 206.221 255.547 206.462 256.089C206.818 256.892 205.959 257.793 205.851 258.548C205.796 258.931 205.622 259.823 205.326 259.971" stroke="white" stroke-linecap="round"/>
<path d="M218.136 297.097C217.878 297.097 218.648 296.974 218.862 296.831C219.139 296.647 219.668 296.182 219.689 295.803C219.745 294.796 219.915 294.139 219.401 293.215C218.705 291.963 217.498 289.669 219.488 288.946C219.974 288.769 220.406 288.041 220.695 287.652C221.161 287.025 221.703 286.498 222.205 285.905C223.188 284.744 224.674 283.873 226.029 283.195C227.06 282.68 228.18 282.477 229.328 282.477C230.138 282.477 230.489 283.268 231.075 283.612C232.606 284.513 233.105 286.314 233.95 287.753C234.795 289.192 235.635 291.219 235.962 292.856C236.25 294.296 236.291 295.753 236.25 297.226C236.201 298.999 234.327 300.546 232.879 301.18C231.558 301.757 230.179 302.79 228.688 302.79C227.932 302.79 227.173 302.811 226.417 302.79C225.969 302.777 225.496 302.531 225.058 302.531C224.24 302.531 222.994 302.268 222.341 302.79C222.049 303.024 221.165 304.293 220.853 303.825" stroke="white" stroke-linecap="round"/>
<path d="M229.78 282.996C229.78 285.411 231.324 287.429 232.267 289.552C233.302 291.879 234.888 293.996 235.861 296.352C236.345 297.522 236.81 299.176 237.673 300.147C238.149 300.682 238.509 301.239 239.326 301.239C241.16 301.239 242.113 299.03 242.489 297.487C243.414 293.684 241.991 290.677 239.808 287.654C238.048 285.218 235.866 282.996 232.749 282.996C231.905 282.996 231.038 283.126 230.233 283.126C229.618 283.126 228.237 283.619 227.775 283.054C227.236 282.395 227.112 281.407 226.869 280.624C226.652 279.924 226.193 279.24 226.035 278.533C225.776 277.363 226.861 277.204 227.638 276.851C228.756 276.343 229.618 279.592 229.845 280.222C230.148 281.063 230.588 281.835 231.017 282.615C231.115 282.795 231.69 283.757 231.462 283.643" stroke="white" stroke-linecap="round"/>
<path d="M192.13 295.906C192.982 296.013 192.751 301.013 192.77 301.563C192.832 303.426 192.754 305.269 192.547 307.12C192.451 307.977 192.438 311.718 191.354 312.079" stroke="white" stroke-linecap="round"/>
<path d="M196.658 296.547C196.73 297.192 197.638 298.148 197.938 298.725C198.72 300.23 199.47 302.012 199.821 303.67C200.07 304.848 200.921 314.272 200.281 314.272" stroke="white" stroke-linecap="round"/>
<path d="M199.375 292.023C199.375 293.753 200.339 296.287 202.092 296.94C202.479 297.084 203.535 297.492 203.832 297.788C204.16 298.117 203.886 299.4 204.033 299.858C204.4 301.004 205.199 301.822 206.168 302.496C206.523 302.744 207.932 302.947 207.914 303.28C207.869 304.15 207.398 304.861 207.598 305.803C207.958 307.498 209.471 309.08 210.89 309.878" stroke="white" stroke-linecap="round"/>
<path d="M198.857 284.13C198.885 284.383 199.116 284.391 199.332 284.418C200.28 284.535 200.554 284.322 201.186 283.742" stroke="white" stroke-linecap="round"/>
<path d="M203.127 291.373C203.993 291.373 205.189 291.515 205.715 290.727" stroke="white" stroke-linecap="round"/>
<path d="M206.49 298.617C207.949 298.675 209.042 298.415 210.372 297.711" stroke="white" stroke-linecap="round"/>
<path d="M171.17 279.602C171.246 280.208 171.745 281.174 171.946 281.801C172.56 283.71 172.315 285.795 172.988 287.688C173.71 289.717 174.225 291.651 175.368 293.503C177.064 296.252 178.409 299.177 180.227 301.856" stroke="white" stroke-linecap="round"/>
<path d="M217.877 292.799C217.877 291.695 219.875 289.603 220.788 290.922C221.116 291.396 220.938 293.874 221.306 293.956C221.899 294.088 222.404 293.885 222.988 294.164C223.776 294.541 224.627 295.237 224.914 296.098C225.158 296.831 224.221 298.52 224.864 298.88C226.2 299.626 226.911 301.393 226.158 302.79C225.456 304.089 224.667 305.295 223.699 306.384C223.218 306.925 223.803 308.325 223.052 308.325" stroke="white" stroke-linecap="round"/>
<path d="M223.828 308.452C223.883 308.017 224.755 309.255 224.863 309.357C225.625 310.077 225.796 310.862 226.222 311.808C226.612 312.676 227.481 313.494 227.71 314.41C228.144 316.149 229.823 316.81 231.146 317.868C233.472 319.728 233.14 323.546 230.937 325.336C230.287 325.865 229.757 326.754 229.205 327.406C228.718 327.982 228.076 328.525 227.451 328.952C225.151 330.52 223.496 332.266 220.651 332.905C217 333.726 212.987 335.242 209.208 334.846C205.596 334.467 201.927 334.485 198.34 335.033C193.812 335.724 189.059 336.083 184.568 334.975C181.024 334.101 176.895 332.137 175.08 328.794C174.336 327.425 173.6 324.528 175.051 323.359C176.243 322.399 178.025 321.636 178.472 320.039C179.037 318.022 180.838 315.18 183.202 315.18" stroke="white" stroke-linecap="round"/>
<path d="M184.367 316.992C184.498 318.174 184.619 318.846 183.691 319.867C182.228 321.477 182.405 322.614 183.72 324.367" stroke="white" stroke-linecap="round"/>
<path d="M223.44 312.336C226.79 319.036 214.639 319.979 211.148 320.875C209.925 321.189 206.911 322.059 206.361 323.362C205.701 324.925 205.83 327.066 206.39 328.638C206.92 330.128 207.824 331.342 208.977 332.419C209.358 332.775 209.935 332.996 210.372 333.296C211.244 333.895 211.519 334.218 212.571 333.814" stroke="white" stroke-linecap="round"/>
<path d="M190.836 326.048C191.688 325.669 192.755 325.689 193.661 325.667C195.339 325.626 196.725 325.647 198.017 326.86C198.644 327.448 199.505 328.479 199.505 329.412C199.505 330.081 199.451 330.482 198.858 330.059" stroke="white" stroke-linecap="round"/>
<path d="M199.115 329.93C199.937 330.112 199.904 332.712 199.633 333.164" stroke="white" stroke-linecap="round"/>
<path d="M183.977 316.347C182.084 316.347 180.714 316.095 179.061 315.118C177.964 314.47 177.144 313.52 176.078 312.846C174.588 311.906 172.856 310.097 171.894 308.62C170.829 306.983 170.271 304.721 169.644 302.862C169.145 301.381 168.68 299.886 168.48 298.334C168.197 296.141 170.553 294.337 172.52 294.064C173.736 293.895 175.249 293.773 176.408 294.237C178.381 295.026 179.245 297.075 180.031 298.88C181.147 301.444 182.348 304.059 182.992 306.787C183.366 308.369 183.67 310.325 183.381 311.933C183.153 313.2 182.405 314.27 181.203 314.694C179.665 315.235 178.463 314.293 177.292 313.385C173.815 310.692 171.03 307.243 169.716 303.02C169.08 300.976 167.841 294.634 172.081 295.861C173.702 296.33 175.594 297.834 176.725 299.024C178.426 300.815 179.703 303.45 180.743 305.673C181.633 307.578 182.608 309.489 182.942 311.588C183.025 312.109 183.473 314.485 182.784 314.766C180.644 315.637 177.916 312.558 176.545 311.344C174.738 309.745 173.336 307.633 171.945 305.673C170.456 303.575 168.639 301.637 166.51 300.174C165.11 299.211 163.944 298.152 162.758 296.939C161.567 295.721 159.881 294.216 159.452 292.497C158.991 290.655 158.877 288.82 158.877 286.934C158.877 285.782 158.793 284.804 159.265 283.742" stroke="white" stroke-linecap="round"/>
<path d="M1.43122 20.7321C0.0665027 18.5158 1.26518 19.0678 3.125 19.0464C8.24763 18.9876 13.1815 17.7729 18.292 17.5813C23.9678 17.3686 29.5387 15.9723 35.2054 15.6033C42.6892 15.1161 50.3942 14.5079 57.8369 15.6483C66.0209 16.9022 74.292 17.3292 82.4817 18.6583C91.3656 20.1001 100.177 22.7339 108.931 24.8158C122.872 28.1314 137.288 31.761 149.811 39.0134C155.004 42.0211 158.457 44.3736 150.857 47.0196C145.416 48.914 139.592 50.1383 134.004 51.5315C128.778 52.8346 124.174 56.1273 118.877 57.15C111.984 58.4807 104.186 60.5796 98.6367 65.0332C95.3819 67.6453 94.8575 77.0209 93.96 80.7949C90.3424 96.0061 72.6284 103.757 65.9638 116.968C64.2057 120.453 65.3412 123.288 66.7955 126.713C68.6821 131.156 69.9869 136.265 70.6837 141.031C72.686 154.727 70.0572 164.19 61.6508 175.25C54.7494 184.33 46.4587 189.211 36.9865 195.043C30.4483 199.069 21.242 203.168 16.271 209.245C15.4529 210.245 14.837 211.385 14.2908 212.553C11.8945 217.676 8.62917 221.944 5.70829 226.756C4.24684 229.164 3.59702 231.882 3.20187 234.647C2.70861 238.097 3.60519 244.21 1.58559 247.158C-1.19627 251.218 -3.23626 253.633 -4.42339 258.625C-6.15992 265.926 -6.63336 271.643 -6.30056 279.063" stroke="white" stroke-linecap="round"/>
<path d="M114.71 38.7141C107.707 37.0488 101.25 37.991 94.1579 37.8709C91.9812 37.834 78.653 37.4849 77.7747 39.0136C75.6269 42.7514 82.2784 54.6908 83.711 58.6585C85.5548 63.7646 89.2571 67.2669 89.897 72.7934" stroke="white" stroke-linecap="round"/>
<path d="M88.7046 42.6754C87.7072 40.8199 87.8542 43.8491 87.6833 45.0183C86.9554 49.9955 85.5549 56.5455 86.6656 61.2855" stroke="white" stroke-linecap="round"/>
<path d="M91.0703 40.2578C92.4149 48.3309 89.3326 59.0158 90.9425 65.8864" stroke="white" stroke-linecap="round"/>
<path d="M96.7734 46.3906C95.462 51.9052 94.4789 57.5164 93.6881 63.1275C93.4162 65.0569 92.4411 72.1578 94.3315 66.6951" stroke="white" stroke-linecap="round"/>
<path d="M98.1986 47.9164C99.6482 46.3685 98.2182 52.8041 98.1283 53.3696C97.6034 56.6711 97.0952 59.983 96.9207 63.3262C96.7635 66.3368 96.548 66.3813 97.9882 66.3647" stroke="white" stroke-linecap="round"/>
<path d="M106.32 43.8828C106.629 49.5393 103.374 66.3098 104.684 60.7986" stroke="white" stroke-linecap="round"/>
<path d="M112.341 41.1376C113.736 35.2743 111.266 53.1853 109.872 59.0486" stroke="white" stroke-linecap="round"/>
<path d="M104.004 38.5692C100.417 46.6581 100.205 55.6281 99.0898 64.2528" stroke="white" stroke-linecap="round"/>
<path d="M52.0445 124.059C54.0572 131.23 57.4024 138.386 57.9128 145.942C58.0189 147.512 58.7392 148.326 56.8555 147.878C54.2199 147.251 51.5842 146.625 48.9486 145.998C43.4859 144.699 38.3508 143.43 33.1854 141.188C29.918 139.77 29.9762 141.579 29.2659 144.566C28.3216 148.536 27.6002 152.645 26.384 156.544C23.8673 164.613 17.0906 169.721 9.57283 172.171C3.82807 174.044 0.319145 178.463 -1.02272 184.105C-2.00834 188.25 2.10275 195.293 3.74114 199.062C5.40832 202.898 4.62931 215.54 5.59696 211.471" stroke="white" stroke-linecap="round"/>
<path d="M12.3357 173.097C9.66341 172.462 10.0076 175.074 9.97623 177.443C9.88095 184.642 13.4434 205.775 10.944 199.022" stroke="white" stroke-linecap="round"/>
<path d="M10.6699 175.094C12.0564 181.673 12.7674 188.795 12.8445 195.502C12.8857 199.082 12.7281 201.467 10.7832 197.199" stroke="white" stroke-linecap="round"/>
<path d="M12.3379 173.102C14.3297 180.199 15.8955 187.343 16.9974 194.631C17.3898 197.227 17.3128 199.856 18.2333 195.986" stroke="white" stroke-linecap="round"/>
<path d="M22.0156 170.031C23.7015 177.905 23.9865 186.123 24.6394 194.126C24.8719 196.976 25.7573 202.268 25.8412 196.6" stroke="white" stroke-linecap="round"/>
<path d="M26.8555 162.227C25.624 169.536 27.3512 178.158 28.3032 185.412C28.448 186.515 28.9441 193.59 29.982 189.226" stroke="white" stroke-linecap="round"/>
<path d="M29.8923 156.986C31.7009 156.881 32.7974 178.865 33.0136 180.801C33.3688 183.984 34.5458 194.326 34.4446 185.518" stroke="white" stroke-linecap="round"/>
<path d="M34.8926 151.016C36.4013 159.731 36.6638 168.623 37.3631 177.428C37.528 179.504 37.7929 182.998 38.1495 185.273C38.6231 188.295 38.5813 185.242 38.8007 184.765" stroke="white" stroke-linecap="round"/>
<path d="M41.5078 150.797C42.6295 160.366 43.7819 169.932 45.1308 179.472C45.2922 180.614 45.8461 190.443 46.6798 184.25" stroke="white" stroke-linecap="round"/>
<path d="M49.3594 147.898C50.3028 154.652 51.0494 161.426 51.8925 168.193C52.0107 169.141 52.6631 174.697 53.1437 176.314C53.6465 178.006 53.8416 175.646 54.046 175.865" stroke="white" stroke-linecap="round"/>
<path d="M53.1001 154.742C54.4516 154.362 55.3402 165.447 55.3604 165.589C55.8965 169.356 56.1431 173.315 56.9471 177.039C57.1749 178.095 57.8741 174.814 57.9728 174.399" stroke="white" stroke-linecap="round"/>
<path d="M58.9355 147.781C59.2156 153.263 58.6618 162.995 61.4147 167.466" stroke="white" stroke-linecap="round"/>
<path d="M55.405 122.482C58.5063 123.22 62.3678 122.416 65.2474 121.243" stroke="white" stroke-linecap="round"/>
<path d="M58.4727 132.156C60.5924 141.035 63.5011 168.319 62.164 159.29" stroke="white" stroke-linecap="round"/>
<path d="M62.6387 127.188C63.2192 135.09 64.2243 142.951 65.0382 150.831C65.3038 153.403 66.118 157.482 65.1211 159.404" stroke="white" stroke-linecap="round"/>
<path d="M76.3148 79.7129C72.4441 81.7932 68.1903 82.4149 64.0978 83.968C59.5361 85.6992 63.3914 92.551 63.7004 95.6753C64.0868 99.5828 62.7889 102.996 62.1226 106.77C61.7422 108.925 67.6655 107.247 68.4557 106.486C70.6057 104.418 74.8447 103.458 75.6418 100.107C76.3623 97.0771 78.134 97.3042 79.8163 95.0989C85.073 88.2084 79.7781 84.3688 75.8844 79.0138" stroke="white" stroke-linecap="round"/>
<path d="M68.5191 87.4032C69.1621 84.6996 67.3789 92.8532 67.0959 95.6177C66.6285 100.184 66.5099 104.816 65.6891 109.339C65.6239 109.699 65.8583 108.628 65.9428 108.272" stroke="white" stroke-linecap="round"/>
<path d="M69.3516 86.4141C69.3998 90.6086 69.0118 94.7299 68.6347 98.9073C68.6155 99.1193 67.6295 105.636 68.9794 103.034" stroke="white" stroke-linecap="round"/>
<path d="M73.4141 84.3906C73.1355 88.6525 72.9425 92.9183 72.4971 97.1678C72.1715 100.273 72.1883 99.5814 72.7182 97.353" stroke="white" stroke-linecap="round"/>
<path d="M74.7031 86.4922C74.7924 92.6579 74.2979 98.6368 73.3632 104.672" stroke="white" stroke-linecap="round"/>
<path d="M0.791016 38.4766C9.28236 40.496 17.8901 43.7903 26.2588 46.3898C26.9925 46.6177 39.53 49.7426 36.5766 52.4902C31.2988 57.4002 17.5905 54.4228 15.887 62.8193C14.3788 70.2535 15.9761 77.4993 14.2463 84.773C13.8788 86.3183 14.1907 87.4273 14.3101 88.9652C14.5019 91.4345 10.0954 90.136 8.56589 90.1186C2.66525 90.0513 0.76204 93.3337 -3.90028 95.8395" stroke="white" stroke-linecap="round"/>
<path d="M-4.875 72.3438C-5.40958 75.8726 -3.50751 79.9536 -2.73868 83.2944C-2.6209 83.8062 -1.32816 92.5575 -0.863267 90.6027" stroke="white" stroke-linecap="round"/>
<path d="M0.636719 61.7188C2.65536 67.7074 3.85858 73.762 5.08618 79.9492C5.36872 81.3732 6.13143 86.3472 5.93982 82.075" stroke="white" stroke-linecap="round"/>
<path d="M3.51172 54.6406C5.29438 61.2634 5.16023 68.4279 5.84476 75.2187C6.16714 78.417 6.31387 85.0931 8.38761 86.8297" stroke="white" stroke-linecap="round"/>
<path d="M10.4492 58.0859C12.8644 65.6645 13.7736 73.4671 15.2839 81.2481C15.9431 84.6443 16.2415 81.4035 16.6133 79.8404" stroke="white" stroke-linecap="round"/>
<path d="M15.7188 50.9844C15.9678 57.5877 15.7665 69.1085 18.0912 73.6273" stroke="white" stroke-linecap="round"/>
<path d="M20.6387 50.3594C21.3663 56.0346 21.6068 61.6762 21.9608 67.382" stroke="white" stroke-linecap="round"/>
</svg>
