<svg width="21" height="29" viewBox="0 0 21 29" fill="none" xmlns="http://www.w3.org/2000/svg">
<line x1="1" y1="14" x2="7.42857" y2="14" stroke="white"/>
<line x1="1" y1="8.20312" x2="7.42857" y2="8.20312" stroke="white"/>
<line x1="13.8574" y1="14" x2="20.286" y2="14" stroke="white"/>
<line x1="13.8574" y1="8.20312" x2="20.286" y2="8.20312" stroke="white"/>
<line x1="7.42773" y1="28.5" x2="13.8563" y2="28.5" stroke="white"/>
<line x1="13.8574" y1="0.5" x2="7.42885" y2="0.5" stroke="white"/>
<line x1="1.21484" y1="14.5" x2="1.21484" y2="7.975" stroke="white"/>
<line x1="20.5" y1="14.5" x2="20.5" y2="7.975" stroke="white"/>
<line x1="7.92773" y1="13.7734" x2="7.92773" y2="28.2734" stroke="white"/>
<line y1="-0.5" x2="8.68301" y2="-0.5" transform="matrix(0.000160669 1 -1 0.000165525 13.1426 0)" stroke="white"/>
<line x1="13.6426" y1="13.7734" x2="13.6426" y2="28.2734" stroke="white"/>
<line x1="7.64258" y1="8.70312" x2="7.64258" y2="0.00312519" stroke="white"/>
<path d="M8.47649 2.2935C8.49125 2.17366 8.87547 1.7976 8.82805 1.93667C8.67393 2.38856 7.88085 3.59026 8.1146 3.17507C8.18359 3.05253 8.93144 2.51114 8.93144 2.63983C8.93144 3.16087 8.18303 3.65133 9.05552 3.04913C9.1222 3.00311 9.74619 2.47773 9.83101 2.54538C9.97265 2.65834 9.10513 3.69029 9.03484 3.78377C8.78306 4.11865 7.99781 5.03413 8.37309 4.85425C9.00889 4.54951 9.53499 3.84074 10.0378 3.35873C10.0578 3.33953 10.6204 2.89635 10.4049 3.16982C10.0339 3.64052 9.71407 4.14949 9.3347 4.61287C9.00556 5.01489 9.07511 5.14174 9.52081 4.78079C9.99929 4.3933 10.4801 3.71732 11.0511 3.46893C11.1959 3.40596 10.953 3.77717 10.865 3.90971C10.5172 4.43326 10.1141 4.92202 9.72761 5.41573C9.07118 6.25418 8.27792 7.07837 7.7372 8.00272C7.60581 8.22733 8.73249 7.34672 8.88491 7.21036C9.14502 6.97768 9.39805 6.73852 9.64489 6.49146C9.76641 6.36983 9.99595 5.96274 10.0171 6.13463C10.0377 6.30193 9.04493 7.37781 9.41741 7.10016C10.1149 6.58024 10.7309 5.9443 11.3923 5.379C11.5963 5.20467 12.2298 4.67068 11.7645 5.23732C11.4642 5.6032 11.1116 5.92018 10.8185 6.29205C10.7617 6.36408 10.5295 6.70217 10.8185 6.57017C11.0587 6.46043 12.6552 5.29532 11.8783 6.11364C11.6578 6.34593 10.4171 7.63597 11.4957 7.24184C11.8108 7.1267 12.178 6.84845 11.7335 7.29956" stroke="white" stroke-linecap="round"/>
<path d="M2.61301 9.93724C2.61301 10.0929 2.48221 11.1084 2.63369 11.0287C2.78775 10.9476 3.74306 9.88268 3.7297 10.357C3.72086 10.6714 3.04233 11.3622 3.30577 11.1966C3.68072 10.961 3.99233 10.5304 4.32424 10.2363C4.3974 10.1715 5.25019 9.34509 4.9498 9.84278C4.86437 9.98432 4.12056 11.1755 4.36043 11.0392C4.74521 10.8205 5.11214 10.4986 5.45645 10.2206C5.61059 10.0961 5.98091 9.64027 6.21643 9.68011C6.35175 9.70301 5.7881 10.4427 5.75631 10.483C5.65137 10.6158 4.7835 11.7867 5.0015 11.6899C6.17491 11.1688 7.05434 10.1163 8.11378 9.41249C8.45633 9.18492 8.13148 9.72357 8.07759 9.81655C7.80059 10.2945 7.43457 10.7082 7.10048 11.1442C7.05468 11.2039 6.4318 12.068 6.65587 11.9942C7.53387 11.7052 8.22463 10.7627 8.99266 10.2626C9.3626 10.0217 8.95189 10.6163 8.90995 10.6719C8.51626 11.1936 8.07126 11.6767 7.65883 12.1831C7.59221 12.265 7.10936 12.8235 7.21939 12.7341C7.76875 12.288 8.3089 11.8341 8.84791 11.375C9.42523 10.8834 10.0182 10.4015 10.6367 9.96348C10.9374 9.75051 11.099 9.73639 10.8331 10.0947C10.4186 10.6534 9.97593 11.1896 9.56652 11.7529C9.4777 11.8751 8.87627 12.5175 8.95131 12.7079C9.00356 12.8405 12.0457 10.8226 12.3221 10.6404C12.6167 10.4461 13.086 10.043 13.4595 10.0159C13.4782 10.0146 12.8448 10.8065 12.777 10.8818C12.6733 10.997 11.404 12.41 11.9809 12.0677C12.8809 11.5336 13.6283 10.7169 14.5762 10.2626C15.2595 9.93503 13.6968 11.5177 13.1699 12.0677C13.0948 12.1462 12.6661 12.5955 13.0821 12.3511C13.8532 11.8979 14.5412 11.2595 15.2482 10.7139C16.0449 10.099 18.3021 8.17308 17.7401 9.01369C17.3188 9.64397 16.6016 10.0529 16.1478 10.6719C15.8941 11.0179 16.6109 10.594 16.639 10.5774C17.112 10.2981 17.5564 9.97093 18.0193 9.67487C18.0524 9.65372 18.5881 9.29299 18.3864 9.54893C17.9543 10.0971 17.3695 10.5411 16.8923 11.0497C16.4724 11.4972 16.0781 11.9633 15.6205 12.3721C15.2854 12.6713 15.7463 12.3764 15.8376 12.3091C16.5404 11.791 17.2107 11.0462 17.9676 10.6194C18.0186 10.5907 17.5447 11.3522 17.4506 11.4695C16.9645 12.0757 18.0501 11.3791 18.2261 11.2806C18.2695 11.2563 18.7845 10.92 18.7845 11.0969C18.7845 11.3634 18.5249 11.6265 18.3605 11.8053C17.7118 12.5108 19.6027 11.3946 18.7121 12.2986" stroke="white" stroke-linecap="round"/>
<path d="M10.2439 13.2421C10.2197 13.4877 10.0109 13.6781 9.86653 13.8613C9.81644 13.9249 9.12862 14.6557 9.16342 14.6852C9.45142 14.9288 11.3635 13.2702 11.6553 13.0795C12.1523 12.7546 12.5687 12.567 12.0792 13.2684C11.5162 14.0752 10.7659 14.702 10.0785 15.3936C10.0247 15.4477 8.90477 16.695 9.09621 16.695C9.84086 16.695 10.7936 15.6985 11.371 15.3096C12.3263 14.6662 11.6224 15.3432 11.2055 15.7399C10.6103 16.3063 9.97546 16.8513 9.43225 17.4716C9.36579 17.5475 9.63891 17.4621 9.72694 17.4139C10.2193 17.144 10.6814 16.8198 11.1538 16.5165C11.3187 16.4107 12.5391 15.6209 11.9293 16.2961C11.2638 17.033 10.396 17.5677 9.75796 18.3269C9.26641 18.9118 9.92465 18.6289 10.2853 18.4686C11.0288 18.1381 11.7948 17.477 12.6014 17.3246C12.8495 17.2778 12.4956 17.6808 12.4877 17.692C12.0864 18.252 11.6502 18.7852 11.2159 19.3187C11.1241 19.4314 9.69617 21.2396 10.2853 21.0923C10.8284 20.9565 11.2564 20.336 11.7949 20.258C11.9804 20.2311 11.6012 20.5856 11.4795 20.7302C11.1556 21.1152 10.8288 21.4954 10.4921 21.8689C10.4262 21.942 9.59907 22.8529 10.1509 22.6351C10.6303 22.4458 10.2995 22.9754 10.1457 23.2018C10.0981 23.2719 9.52743 23.8963 9.86136 23.779C10.3737 23.599 10.8292 23.2129 11.3193 22.9709C11.7616 22.7525 11.2175 23.3887 11.1332 23.5061C10.8411 23.9126 9.91305 24.7282 9.91305 25.2693C9.91305 25.3904 11.6638 24.3122 11.1642 24.8757C10.8668 25.2111 10.4912 25.5791 10.2698 25.9724C10.2309 26.0415 11.1121 25.5678 11.2521 25.4897C11.6858 25.2476 10.5296 26.2157 10.7506 26.1614C10.7911 26.1514 11.4328 25.9426 11.3916 26.0354C11.2276 26.4054 10.8027 26.7486 10.5231 27.0324" stroke="white" stroke-linecap="round"/>
<path d="M10.2454 6.44946C9.81369 6.93638 8.42495 8.17036 9.04602 7.99221C9.79323 7.77787 10.4358 6.95909 11.0416 6.49144C11.7907 5.91317 11.088 6.63444 10.8296 6.93747C10.2439 7.62445 9.56092 8.21555 8.9633 8.88953C8.66336 9.2278 10.0603 8.3423 10.2041 8.24409C10.2937 8.18286 11.1482 7.65955 11.0933 7.74033C10.655 8.38534 9.97639 8.90549 9.43376 9.45625C9.03393 9.86208 10.1758 9.274 10.2454 9.23586C10.4052 9.1483 11.6603 8.46702 11.5172 8.68487C11.4227 8.82881 10.5124 9.52764 10.8503 9.34605C11.0236 9.25293 12.8635 8.25265 12.8614 8.30706C12.8467 8.69505 11.8359 9.36287 11.5689 9.63991C11.0464 10.1821 12.1384 9.65133 12.3289 9.56645C13.6497 8.9779 12.22 9.776 12.5719 10.1332" stroke="white" stroke-linecap="round"/>
<path d="M8.94141 3.60939C9.41297 3.55621 9.81952 2.72381 10.2442 2.49693C10.3728 2.42825 10.5003 2.47077 10.6371 2.38149C10.7134 2.3317 11.4088 1.91291 11.4126 1.93021C11.4649 2.16899 10.9983 2.78419 10.8749 2.9692C10.7553 3.14856 10.1492 3.9144 10.1925 4.13414C10.2039 4.19201 11.6778 2.99297 11.8055 2.89574C11.8903 2.83121 12.7596 2.11546 12.4363 2.61238C12.0767 3.16499 11.6056 3.62807 11.2162 4.15513C10.9811 4.47329 12.0121 3.87425 12.1364 3.81929C13.2444 3.32956 11.3 5.52486 11.1231 5.76085C10.6538 6.38696 12.1704 5.44773 11.971 5.87629C11.5857 6.70439 10.8956 7.46528 10.8956 8.42655" stroke="white" stroke-linecap="round"/>
<path d="M17.9916 11.2577C18.3701 11.2104 18.5885 9.89878 18.678 9.89878C18.9494 9.89878 18.99 11.393 18.99 11.6321C18.99 12.2602 18.3976 12.5232 17.8044 12.1937C17.223 11.8706 16.3674 12.2495 15.8076 12.3739C15.2449 12.499 14.5744 12.3488 13.9981 12.3809C13.9643 12.3827 13.0102 12.5713 13.4989 12.2838C13.8324 12.0876 14.2553 11.9243 14.5597 11.6875C15.0039 11.342 15.6061 11.007 15.9671 10.606C16.1725 10.3778 16.473 10.2593 16.0503 10.2593C15.699 10.2593 15.3477 10.2593 14.9965 10.2593C14.3933 10.2593 13.7901 10.2593 13.1869 10.2593C12.5956 10.2593 12.618 9.65741 12.2786 9.23319C12.1474 9.06919 12.2515 8.60714 12.1538 8.38734C12.0495 8.15261 12.0656 7.70934 12.0082 7.45136C11.8923 6.92946 12.0215 6.24269 11.8696 5.71112C11.7209 5.19085 11.7517 4.60147 11.7517 4.01942C11.7517 3.57431 12.2868 2.98758 11.8488 2.54958C11.5814 2.2822 12.2324 2.55882 12.0984 2.42479C11.9742 2.30063 11.3651 2.39705 11.1901 2.39705C10.5387 2.39705 9.95728 2.27225 9.31816 2.27225C8.99316 2.27225 8.88137 2.38405 8.88137 2.70905C8.88137 3.02146 8.75657 3.45038 8.75657 2.89624C8.75657 2.62354 8.75657 2.07812 8.75657 2.07812C8.75657 2.07812 8.80125 2.75407 8.87444 3.08344C9.00422 3.66745 9.00617 4.2534 9.00617 4.893C9.00617 5.68211 8.75657 6.3622 8.75657 7.13936C8.75657 7.82344 8.75657 8.50751 8.75657 9.19159C8.75657 9.72041 8.47626 11.2581 8.9091 11.6043C9.01899 11.6922 10.3005 10.7328 10.5731 10.6337C11.0813 10.4489 11.4356 10.2593 12.0013 10.2593C12.3285 10.2593 12.7406 10.3238 13.0621 10.2524C14.1531 10.0099 15.2531 10.0523 16.2999 9.75318C16.9995 9.5533 19.4839 9.67606 18.7126 11.1329C18.461 11.6082 17.505 11.7887 17.0556 11.8886C15.787 12.1705 14.4374 12.5279 13.1938 12.9425C12.4944 13.1756 11.4638 13.0048 10.7256 13.0048C9.90286 13.0048 9.08012 13.0048 8.25738 13.0048C7.08691 13.0048 5.86896 13.1296 4.76305 13.1296C4.54218 13.1296 3.07571 13.2454 3.02282 13.0603C2.84237 12.4287 3.26548 11.8779 3.26548 11.3201C3.26548 10.6612 3.29369 10.343 2.86335 9.91264C2.49084 9.54013 3.1282 9.74396 3.26548 9.76011C3.60074 9.79955 3.69688 9.85144 4.07666 9.76704C4.67484 9.63412 5.26839 9.54484 5.88623 9.51052C6.50885 9.47593 7.25255 9.19908 7.88299 9.48278C8.45995 9.74242 9.13097 10.076 9.13097 10.8209C9.13097 11.1039 9.1763 12.1879 9.35283 12.4086C9.48269 12.5709 9.38214 12.9132 9.53309 13.1019C9.70097 13.3118 9.63016 13.6684 9.63016 13.9408C9.63016 14.5648 9.63016 15.1888 9.63016 15.8128C9.63016 18.254 9.50536 20.6599 9.50536 23.0511C9.50536 24.0955 9.25576 25.3761 9.25576 26.4206C9.25576 26.5563 9.17939 27.1909 9.33203 27.2248C9.64864 27.2952 10.0528 27.2318 10.3789 27.2318C11.0099 27.2318 11.7517 27.49 11.7517 26.7326C11.7517 26.2261 11.6269 25.6176 11.6269 25.0478C11.6269 24.6072 11.5014 23.6135 11.7794 23.266C12.0451 22.9339 11.8765 21.9903 11.8765 21.5535C11.8765 20.7835 12.0013 20.0762 12.0013 19.3071C12.0013 18.7039 12.0013 18.1008 12.0013 17.4976C12.0013 16.8873 11.9853 15.8203 12.1885 15.2512C12.4201 14.6029 12.3757 13.9349 12.3757 13.2544C12.3757 13.0679 12.4574 11.3563 12.029 11.7846C11.7841 12.0295 11.8765 12.5943 11.8765 12.9078C11.8765 13.4913 11.7517 14.0498 11.7517 14.6272C11.7517 16.1884 11.8861 17.8148 11.7448 19.3695C11.651 20.401 11.5021 21.4229 11.5021 22.4617C11.5021 22.7561 11.3283 24.2612 11.1277 24.3614" stroke="white" stroke-width="3" stroke-linecap="round"/>
</svg>
