<svg width="561" height="380" viewBox="0 0 561 380" fill="none" xmlns="http://www.w3.org/2000/svg">
<path d="M269.019 303.197C268.152 303.197 267.106 302.529 266.265 302.295C262.955 301.374 260.639 302.708 258.209 304.928C253.006 309.679 253.268 314.386 255.558 320.451C256.063 321.788 256.307 323.465 257.066 324.699C257.961 326.153 259.422 327.296 260.318 328.757C262.438 332.217 264.521 336.192 268.623 337.734C271.433 338.789 274.852 336.477 276.987 334.824C279.568 332.827 281.247 330.395 282.934 327.666C285.181 324.035 286.312 316.922 282.524 313.788C279.018 310.886 273.416 311.749 269.663 313.613C267.624 314.626 265.278 316.011 264.214 318.123C263.749 319.048 264.273 320.252 264.273 321.265" stroke="#F1F1F1" stroke-width="2" stroke-linecap="round"/>
<path d="M272 304C276.366 304 275.276 308.085 276.923 310.405C277.829 311.681 279.076 312.402 280.547 312.889C281.573 313.228 282.913 314 284 314" stroke="#F1F1F1" stroke-width="2" stroke-linecap="round"/>
<path d="M276.731 322.845C274.868 322.845 273.374 322.776 272.398 324.894C271.625 326.571 271.882 330.112 274.023 330.9C276.082 331.657 279.775 327.928 279.965 326.033C280.255 323.16 278.719 321.63 275.648 322.077" stroke="#F1F1F1" stroke-width="2" stroke-linecap="round"/>
<path d="M308.532 318.013C306.918 318.013 304.272 319.064 303.035 320.04C299.266 323.012 298.816 326.655 299.051 331.312C299.232 334.889 301.068 338.338 304.035 340.305C305.841 341.502 307.874 340.916 309.782 340.305C312.155 339.545 314.468 338.847 316.278 337.012C321.066 332.157 318.827 324.885 315.015 320.054C313.645 318.318 312.055 317 309.782 317C308.588 317 306.24 317.131 305.784 318.52" stroke="#F1F1F1" stroke-width="2" stroke-linecap="round"/>
<path d="M310.855 326.945C309.741 326.008 308.117 326.662 308.015 328.201C307.831 330.996 309.332 332.218 311.835 332.895C314.03 333.489 315.112 331.447 314.991 329.62C314.906 328.339 314.633 327.118 313.91 326.017C312.98 324.603 311.577 325.007 310.076 325.226" stroke="#F1F1F1" stroke-width="2" stroke-linecap="round"/>
<path d="M317 321C317.073 319.775 318.799 320.02 319.158 320.02C322.256 320.02 324.868 321.069 328 320.02" stroke="#F1F1F1" stroke-width="2" stroke-linecap="round"/>
<path d="M316 339.713C316.082 340.352 317.2 339.726 317.519 339.713C320.608 339.582 321.789 338.543 323.876 336.515C325.691 334.751 327.878 333.251 329.404 331.212C331.672 328.182 333.715 325.028 336 322" stroke="#F1F1F1" stroke-width="2" stroke-linecap="round"/>
<path d="M330.985 329C332.724 327.492 334.874 325.931 336.813 324.607C339.087 323.054 340.105 321.674 339.991 319.123C339.854 316.04 338.761 313.212 337.814 310.338C337.067 308.072 335.731 308.339 333.634 309.362C330.81 310.739 328.319 311.88 325.276 310.453C323.476 309.608 322.006 307.112 320.066 308.328C317.984 309.633 315.536 310.607 313.709 312.261C312.363 313.481 310.6 315.816 309 316.597" stroke="#F1F1F1" stroke-width="2" stroke-linecap="round"/>
<path d="M256.196 311.489C255.721 310.701 256.197 311.093 256.682 311.131C258.431 311.266 260.209 311.905 261.975 311.21C264.688 310.142 261.261 313.541 260.328 314" stroke="#F1F1F1" stroke-width="2" stroke-linecap="round"/>
<path d="M257 312C257 312.75 257 313.146 257 314" stroke="#F1F1F1" stroke-width="2" stroke-linecap="round"/>
<path d="M257 312C257.927 312.537 258.47 313.117 259 314" stroke="#F1F1F1" stroke-width="2" stroke-linecap="round"/>
<path d="M259 312C259.526 312 259.701 312.468 260 313" stroke="#F1F1F1" stroke-width="2" stroke-linecap="round"/>
<path d="M273 328C273.713 328.079 273.885 329.424 274 330" stroke="#F1F1F1" stroke-width="2" stroke-linecap="round"/>
<path d="M274 325.195C274 324.231 274 327.105 274 328" stroke="#F1F1F1" stroke-width="2" stroke-linecap="round"/>
<path d="M273 325C273.456 325.062 273.858 327.535 274 328" stroke="#F1F1F1" stroke-width="2" stroke-linecap="round"/>
<path d="M274 323C274.414 324.333 274.699 325.601 275 327" stroke="#F1F1F1" stroke-width="2" stroke-linecap="round"/>
<path d="M275 323C276.035 323.097 276.813 326.54 277 327" stroke="#F1F1F1" stroke-width="2" stroke-linecap="round"/>
<path d="M277 323C277.566 323.071 277.906 325.624 278 326" stroke="#F1F1F1" stroke-width="2" stroke-linecap="round"/>
<path d="M309 328C309 328.712 309.438 329.309 310 330" stroke="#F1F1F1" stroke-width="2" stroke-linecap="round"/>
<path d="M310 327C311.001 327.451 310.84 328.455 311 329" stroke="#F1F1F1" stroke-width="2" stroke-linecap="round"/>
<path d="M311 327C311 327.973 311.68 329.062 312 330" stroke="#F1F1F1" stroke-width="2" stroke-linecap="round"/>
<path d="M313.12 326C312.84 326 313.13 326.317 313.185 326.515C313.512 327.686 313.792 328.805 314 330" stroke="#F1F1F1" stroke-width="2" stroke-linecap="round"/>
<path d="M274.289 346C274.289 348.667 272.057 351.513 271.143 353.997C270.337 356.19 269.559 358.423 269.061 360.686C268.888 361.47 267.618 360.949 268.114 361.671C269.139 363.166 270.132 364.651 270.736 366.39C271.253 367.884 270.897 369 270.634 370.463C270.419 371.655 272.13 372.979 272.92 373.521C276.111 375.706 278.972 377.568 282.737 378.548C292.032 380.97 298.899 373.212 302.995 365.861C304.869 362.499 306.517 359.286 308.107 355.791C308.658 354.582 308.632 353.541 308.632 352.233C308.632 351.564 309.239 348.995 308.894 348.646" stroke="#F1F1F1" stroke-width="2" stroke-linecap="round"/>
<path d="M271.035 362.491C271.035 363.186 270.799 364.536 271.555 363.459C273.512 360.67 276.177 357.889 279.091 356.026C280.752 354.964 282.368 353.122 284.447 353.022C286.219 352.937 287.587 353.087 289.225 353.72C291.07 354.432 293.215 356.106 294.163 357.878C296.493 362.233 300.046 368.339 296.502 373" stroke="#F1F1F1" stroke-width="2" stroke-linecap="round"/>
<path d="M283.003 363.841C279.59 363.841 281.11 370.069 283.335 371.213C291.365 375.338 292.268 361.85 285.342 363.08" stroke="#F1F1F1" stroke-width="2" stroke-linecap="round"/>
<path d="M285 371.359C285 370.162 285.344 372.282 286 373" stroke="#F1F1F1" stroke-width="2" stroke-linecap="round"/>
<path d="M284 368.352C284.239 366.683 285.437 371.41 286 373" stroke="#F1F1F1" stroke-width="2" stroke-linecap="round"/>
<path d="M283 364.353C283.116 362.675 283.677 367.442 284 369" stroke="#F1F1F1" stroke-width="2" stroke-linecap="round"/>
<path d="M284 364C284.671 366.044 285.99 368.041 287 370" stroke="#F1F1F1" stroke-width="2" stroke-linecap="round"/>
<path d="M286 365C286.173 366.301 287.45 367.763 288 369" stroke="#F1F1F1" stroke-width="2" stroke-linecap="round"/>
<path d="M287 364C288.177 364.085 288.789 366.512 289 367" stroke="#F1F1F1" stroke-width="2" stroke-linecap="round"/>
<path d="M298 356C300.568 356 303.344 356 306 356" stroke="#F1F1F1" stroke-width="2" stroke-linecap="round"/>
<path d="M284 345C284.076 345.674 284.32 346.462 284.464 347.149C284.551 347.564 285.045 351.7 284.829 350.079C284.626 348.558 283.903 346.699 285.674 346.172C286.606 345.895 287.625 345.821 288.541 345.521C289.232 345.295 289.967 344.568 289.967 345.651C289.967 346.975 289.967 348.299 289.967 349.623C289.967 349.868 290.11 350.757 289.801 350.844C289.113 351.037 286.889 351.061 286.685 350.86" stroke="#F1F1F1" stroke-width="2" stroke-linecap="round"/>
<path d="M312.136 354.857C311.07 354.857 310.272 355.331 309.568 356.143C307.069 359.024 307.691 362.297 310.483 364.642C312.643 366.457 315.751 367.404 318.468 368.233C321.518 369.163 323.034 369.59 325.749 367.481C329.37 364.668 331.614 359.801 328.581 355.625C324.886 350.539 318.489 351.105 314.669 355.458" stroke="#F1F1F1" stroke-width="2" stroke-linecap="round"/>
<path d="M318.747 358.343C315.079 355.315 312.592 365.469 318.712 363.817C321.695 363.012 323.875 361.724 322.655 358.634C321.649 356.087 320.182 355.344 317.491 356.594" stroke="#F1F1F1" stroke-width="2" stroke-linecap="round"/>
<path d="M221.312 313.756C221.206 314.604 221 312.988 221 312.753C221 309.42 223.063 307.3 225.817 305.973C230.523 303.705 231.022 295.719 231.534 291.168C232.467 282.887 241.229 283.57 247.301 283.852C249.81 283.968 252.51 283.68 255.029 283.541C258.436 283.352 261.772 282.064 265.148 282.001C270.391 281.904 269.069 286.988 270.917 290.563C272.311 293.258 274.839 294.466 277.449 295.769C279.574 296.829 280.743 298.153 279.476 300.681C278.468 302.694 276.421 303.309 275.266 305.039" stroke="#F1F1F1" stroke-width="2" stroke-linecap="round"/>
<path d="M221.072 313.625C220.798 313.625 221.386 314.603 221.55 314.875C223.122 317.492 226.575 318.907 229.452 318.451C231.3 318.159 232.727 317.854 234.522 318.625C235.997 319.258 237.128 320.641 238.584 321.368C241.766 322.957 245.397 323 248.842 323C251.726 323 246.643 318.349 245.889 317.305C243.685 314.253 242.484 311.722 239.045 310.048C237.289 309.194 233.283 310.376 232.132 308.555C231.009 306.778 231.973 302.507 232.9 300.83C233.737 299.315 234.91 297.97 235.58 296.437C236.238 294.931 236.803 293.477 238.908 294.441C239.723 294.814 240.988 296.227 241.793 295.291C242.573 294.384 243.249 292.631 244.353 292.132C247.06 290.908 249.036 298.594 251.18 299.805C252.141 300.348 254.408 300.604 255.482 300.482C258.245 300.17 259.275 298.583 261.319 296.993C262.569 296.021 264.545 294.289 266.252 295.048C267.454 295.583 269 296.503 269 298" stroke="#F1F1F1" stroke-width="2" stroke-linecap="round"/>
<path d="M237.561 303.162C236.896 303.082 236.408 302.262 235.649 302.164C232.846 301.802 239.987 300.146 240.615 301.565C241.545 303.667 243.452 304.648 244.494 306.609C245.67 308.824 244.549 308.78 243.632 311" stroke="#F1F1F1" stroke-width="2" stroke-linecap="round"/>
<path d="M248.172 307.062C248.071 306.203 245.506 309.33 245.329 309.575C244.117 311.265 246.602 307.407 247.135 306.797C248.396 305.353 248.209 306.175 249.942 306.892C250.629 307.175 252.686 307.759 253 308.423" stroke="#F1F1F1" stroke-width="2" stroke-linecap="round"/>
<path d="M242.504 301.957C241.369 301.957 242.453 302.778 242.831 303.232C243.631 304.192 245.624 306.534 247.049 305.889C248.632 305.173 250.487 303.495 251.491 302.028C252.223 300.957 252.205 301 251.181 301" stroke="#F1F1F1" stroke-width="2" stroke-linecap="round"/>
<path d="M243.1 296C242.899 297.737 241.108 298.53 240.005 299.704C239.835 299.885 244.105 305.572 245 306" stroke="#F1F1F1" stroke-width="2" stroke-linecap="round"/>
<path d="M253 301.915C253 299.974 258.916 299.188 260.386 299.041C263.067 298.772 264 299.807 264 303" stroke="#F1F1F1" stroke-width="2" stroke-linecap="round"/>
<path d="M263 297C263.627 297.157 263.862 299.448 264 300" stroke="#F1F1F1" stroke-width="2" stroke-linecap="round"/>
<path d="M264 298.074C264.07 297.603 265 299.512 265 300" stroke="#F1F1F1" stroke-width="2" stroke-linecap="round"/>
<path d="M265 298C265.499 298.535 265.644 299.389 266 300" stroke="#F1F1F1" stroke-width="2" stroke-linecap="round"/>
<path d="M233.032 304C232.65 304.043 235.829 308.744 236 309" stroke="#F1F1F1" stroke-width="2" stroke-linecap="round"/>
<path d="M235 303C236.063 304.231 236.449 306.525 237 308" stroke="#F1F1F1" stroke-width="2" stroke-linecap="round"/>
<path d="M236 302.069C236.057 301.711 236.593 302.864 236.617 302.909C237.621 304.821 238.252 306.972 239 309" stroke="#F1F1F1" stroke-width="2" stroke-linecap="round"/>
<path d="M238 300C240.073 300.921 240.537 307.026 241 309" stroke="#F1F1F1" stroke-width="2" stroke-linecap="round"/>
<path d="M240 303C240.38 304.521 242.225 306.554 243 308" stroke="#F1F1F1" stroke-width="2" stroke-linecap="round"/>
<path d="M241 296C241.275 298.636 243.092 301.509 244 304" stroke="#F1F1F1" stroke-width="2" stroke-linecap="round"/>
<path d="M243 298C244.422 299.6 245.136 302.099 246 304" stroke="#F1F1F1" stroke-width="2" stroke-linecap="round"/>
<path d="M246 298.053C246.072 297.428 247.854 302.506 248 303" stroke="#F1F1F1" stroke-width="2" stroke-linecap="round"/>
<path d="M246 297C247.74 297.185 248.636 302.893 249 304" stroke="#F1F1F1" stroke-width="2" stroke-linecap="round"/>
<path d="M246 313.342C246.295 311.693 247.303 316.459 248 318" stroke="#F1F1F1" stroke-width="2" stroke-linecap="round"/>
<path d="M248 310.036C248.049 309.487 249.839 315.398 250 316" stroke="#F1F1F1" stroke-width="2" stroke-linecap="round"/>
<path d="M249.142 309.247C248.727 308.743 249.34 309.108 249.477 309.472C250.298 311.656 251.178 313.815 252 316" stroke="#F1F1F1" stroke-width="2" stroke-linecap="round"/>
<path d="M251 309C252.691 311.204 252.597 315.375 253 318" stroke="#F1F1F1" stroke-width="2" stroke-linecap="round"/>
<path d="M252 306.561C252.278 304.525 254.792 308.661 255 309" stroke="#F1F1F1" stroke-width="2" stroke-linecap="round"/>
<path d="M254 304C255.1 304.462 255.307 305.34 256 306" stroke="#F1F1F1" stroke-width="2" stroke-linecap="round"/>
<path d="M256 302C256.682 303.322 257.37 304.625 258 306" stroke="#F1F1F1" stroke-width="2" stroke-linecap="round"/>
<path d="M257 300C258.091 300.116 258.669 302.241 259 303" stroke="#F1F1F1" stroke-width="2" stroke-linecap="round"/>
<path d="M260 300C260.71 300.998 260.857 301.838 261 303" stroke="#F1F1F1" stroke-width="2" stroke-linecap="round"/>
<path d="M208.367 318.825C208.367 320.175 206.82 321.441 206.098 322.438C204.834 324.182 203.284 325.718 202.041 327.46C200.424 329.728 200.912 331.344 202.007 333.758C203.274 336.55 205.2 338.577 208.676 337.852C211.249 337.316 214.09 336.65 216.411 335.465C218.345 334.478 219.689 331.099 220.897 329.416C221.665 328.346 222.04 327.13 222.771 326.051C223.676 324.716 221.666 324.283 220.76 323.3C218.805 321.179 216.747 317.229 213.317 317.035C210.698 316.886 208.448 317.1 207.439 320.018" stroke="#F1F1F1" stroke-width="2" stroke-linecap="round"/>
<path d="M204.782 331C204.734 331.325 204.209 331.872 204.005 332.184C203.882 332.37 206.26 331.776 207.131 331.789C208.65 331.814 210.05 333.12 210.516 334.304C210.715 334.808 210.624 335.682 211 336" stroke="#F1F1F1" stroke-width="2" stroke-linecap="round"/>
<path d="M204.036 326C203.597 326.056 207.35 326.633 207.917 326.813C211.043 327.808 212.592 329.637 213 333" stroke="#F1F1F1" stroke-width="2" stroke-linecap="round"/>
<path d="M207.12 334.95C205.959 334.785 206.873 336.093 207.524 335.882C208.302 335.63 208.065 334 207.26 334C206.376 334 205.955 334.912 206.004 335.9C206.052 336.875 207.418 337.505 207.834 336.462C208.154 335.658 207.18 334.249 207.399 334" stroke="#F1F1F1" stroke-width="2" stroke-linecap="round"/>
<path d="M222 322.333C222.292 322.294 222.768 321.765 222.917 321.481C223.719 319.95 226.629 318.174 228.264 318.018C231.308 317.73 231.719 320.904 233 323" stroke="#F1F1F1" stroke-width="2" stroke-linecap="round"/>
<path d="M220 332.295C220 332.239 221.314 332.92 221.793 332.955C223.488 333.079 225.691 332.981 227.138 332.247C227.842 331.89 228.228 331.268 229 331" stroke="#F1F1F1" stroke-width="2" stroke-linecap="round"/>
<path d="M234.288 322.239C231.005 322.239 231.362 326.266 230.505 328.414C229.832 330.099 229.178 331.769 227.825 332.993C227.707 333.099 224.873 334.97 225.004 335.057C226.98 336.361 228.187 338.656 230.505 339.549C234.566 341.113 239.195 341.04 243.502 340.971C243.937 340.964 247.517 340.594 246.883 339.861C245.743 338.544 244.815 337.469 245.709 335.664C247.21 332.631 247.477 331.776 246.112 328.622C245.263 326.66 243.121 323.773 241.207 322.707C240.257 322.178 234.18 320.268 233.658 321.302" stroke="#F1F1F1" stroke-width="2" stroke-linecap="round"/>
<path d="M233 328.003C233.063 328.621 233.694 330.647 234.162 330.974C234.712 331.358 236.148 327.309 237 327" stroke="#F1F1F1" stroke-width="2" stroke-linecap="round"/>
<path d="M236 329C235.907 329 235.404 329 235 329" stroke="#F1F1F1" stroke-width="2" stroke-linecap="round"/>
<path d="M234.323 328C233.456 328.061 234.559 328.891 235 329" stroke="#F1F1F1" stroke-width="2" stroke-linecap="round"/>
<path d="M234 328H235" stroke="#F1F1F1" stroke-width="2" stroke-linecap="round"/>
<path d="M235 326.071C235.375 325.732 235.743 326.701 236 327" stroke="#F1F1F1" stroke-width="2" stroke-linecap="round"/>
<path d="M235 336C236.451 334.735 237.24 334.305 239.392 334.774C240.485 335.012 244.884 332.902 245 333.004" stroke="#F1F1F1" stroke-width="2" stroke-linecap="round"/>
<path d="M232 338C232 338.577 231.82 338.604 231.572 339.007C230.827 340.216 230.718 342.75 230.435 344.218C230.168 345.604 229.841 347.31 230.087 348.752C230.157 349.158 231.534 348.943 231.759 348.943" stroke="#F1F1F1" stroke-width="2" stroke-linecap="round"/>
<path d="M243 342C241.158 342.213 240.27 346.161 240.154 347.609C240.101 348.275 240.296 349.114 240.119 349.761C239.9 350.558 236.481 349.119 236 348.952" stroke="#F1F1F1" stroke-width="2" stroke-linecap="round"/>
<path d="M242 349.188C241.876 348.036 238.404 352.541 238.337 352.677C237.963 353.427 236.452 360.419 237.209 359.98" stroke="#F1F1F1" stroke-width="2" stroke-linecap="round"/>
<path d="M240.705 347.03C241.988 346.861 243.804 347.433 245.254 347.854C247.111 348.393 251.547 349.097 252.757 350.738C253.326 351.51 254.149 352.227 254.149 353.316C254.149 354.131 256.16 353.155 257.374 353.155C259.51 353.155 261.772 353.466 263.552 354.767C264.602 355.533 266.628 356.943 267.286 358.062C267.938 359.17 268.349 361.144 267.592 361.859C266.111 363.257 264.628 364.487 263.688 366.372C263.297 367.157 263.629 369.118 262.398 368.933C261.806 368.844 257.039 369.228 256.915 368.772C256.351 366.686 257.912 364.846 256.27 362.826C255.203 361.512 254.121 360.892 252.468 360.892C250.057 360.892 247.793 361.214 245.288 361.214C243.215 361.214 241.234 361.537 239.178 361.537C237.879 361.537 235.991 361.03 237.65 359.28" stroke="#F1F1F1" stroke-width="2" stroke-linecap="round"/>
<path d="M253 354C250.193 354 248.526 357.9 249.12 360" stroke="#F1F1F1" stroke-width="2" stroke-linecap="round"/>
<path d="M257 335C256.464 335.064 256.011 335.879 255.706 336.247C253.792 338.551 253.013 341.644 252.218 344.421C251.757 346.03 252.025 347.681 253.045 349.027C253.376 349.464 254.76 351.472 255.058 350.897" stroke="#F1F1F1" stroke-width="2" stroke-linecap="round"/>
<path d="M267 355C268.961 355 271.512 350.405 272 349" stroke="#F1F1F1" stroke-width="2" stroke-linecap="round"/>
<path d="M285 302.706C284.071 301.907 279.693 301.581 279.077 302.842C278.509 304.002 281.273 308.032 281.688 309.235C282.21 310.75 283.004 312.579 283.738 314" stroke="#F1F1F1" stroke-width="2" stroke-linecap="round"/>
<path d="M286 302C286 303.606 289.348 305.154 290.564 305.787C291.749 306.405 295.463 305.718 296.858 305.5C298.649 305.221 301.119 304.612 302.926 305.111C305.223 305.746 307.2 306.984 309.605 307.63C310.195 307.789 315.537 307.876 314.956 309" stroke="#F1F1F1" stroke-width="2" stroke-linecap="round"/>
<path d="M288 309.452C290.208 309.452 292.623 311.118 294.736 311.732C297.836 312.633 301.146 311.232 303 308" stroke="#F1F1F1" stroke-width="2" stroke-linecap="round"/>
<path d="M292 309H291" stroke="#F1F1F1" stroke-width="2" stroke-linecap="round"/>
<path d="M290.157 309C289.449 309 291.329 309.788 292 310" stroke="#F1F1F1" stroke-width="2" stroke-linecap="round"/>
<path d="M292 310.15C292.103 309.564 293.488 310.879 294 311" stroke="#F1F1F1" stroke-width="2" stroke-linecap="round"/>
<path d="M293 309.169C293.093 308.548 294.586 309.828 295 310" stroke="#F1F1F1" stroke-width="2" stroke-linecap="round"/>
<path d="M295 307.94C295.172 305.485 296.589 308.564 297 309" stroke="#F1F1F1" stroke-width="2" stroke-linecap="round"/>
<path d="M297 306C298.507 306 299.312 308.036 300 309" stroke="#F1F1F1" stroke-width="2" stroke-linecap="round"/>
<path d="M317 346.939C316.916 346.558 316.6 345.998 316.428 345.562C315.474 343.136 316.405 349.311 316.458 350" stroke="#F1F1F1" stroke-width="2" stroke-linecap="round"/>
<path d="M316 342C316.068 342.514 317.153 342.275 317.546 342.293C319.819 342.393 322.992 343.416 324.657 344.992C327.437 347.623 325.392 351.841 323.111 354" stroke="#F1F1F1" stroke-width="2" stroke-linecap="round"/>
<path d="M329.008 355.671C329.084 356.269 329.928 355.9 330.259 355.739C332.008 354.885 333.176 352.957 333.389 351.087C333.598 349.25 333.984 346.838 332.015 345.655C331.697 345.463 330.73 345.731 330.955 346.198C332.163 348.704 341.258 353.112 342.778 349.865C343.626 348.053 341.848 344.16 340.726 342.667C339.193 340.625 337.272 339 334.571 339C332.468 339 330.793 340.055 329.164 341.156C327.629 342.194 325.588 342.414 324 343.448" stroke="#F1F1F1" stroke-width="2" stroke-linecap="round"/>
<path d="M326 349C326.844 350.296 327.435 351.631 328 353" stroke="#F1F1F1" stroke-width="2" stroke-linecap="round"/>
<path d="M328 345.355C328.766 343.663 329.877 348.539 330 349" stroke="#F1F1F1" stroke-width="2" stroke-linecap="round"/>
<path d="M329 343.014C329.044 342.719 330.808 347.308 331 348" stroke="#F1F1F1" stroke-width="2" stroke-linecap="round"/>
<path d="M333 340.256C333.105 339.582 333.505 340.434 333.625 340.592C334.922 342.303 335.514 344.04 336 346" stroke="#F1F1F1" stroke-width="2" stroke-linecap="round"/>
<path d="M336 339.478C336 337.186 337.558 343.759 338 346" stroke="#F1F1F1" stroke-width="2" stroke-linecap="round"/>
<path d="M330.983 298.307C328.486 298.307 325.097 300.56 324.331 303.087C323.284 306.54 324.699 310.918 328.892 309.831C332.056 309.011 334.163 306.096 335.198 302.985C336.234 299.868 336.897 298 333.057 298" stroke="#F1F1F1" stroke-width="2" stroke-linecap="round"/>
<path d="M329.502 302.666C329.502 300.443 327.744 302.896 328.032 304.036C328.531 306.015 330.323 304.509 330.846 303.407C331.288 302.476 330.636 301.76 330.636 301" stroke="#F1F1F1" stroke-width="2" stroke-linecap="round"/>
<path d="M338.017 301.984C336.058 300.14 338.539 301.334 339.619 301.984C341.631 303.197 341.259 304.198 339.693 305.29C338.31 306.254 336.614 308.55 335 309" stroke="#F1F1F1" stroke-width="2" stroke-linecap="round"/>
<path d="M282 284.449C281.817 283.126 279.553 285.104 279.355 285.538C278.263 287.927 278.85 288.288 275.674 288.368C273.113 288.433 271.316 289.095 271.032 291.667C270.858 293.236 271.383 294.509 273.011 295" stroke="#F1F1F1" stroke-width="2" stroke-linecap="round"/>
<path d="M281.241 284.805C280.51 284.722 281.657 284.123 281.859 284.026C282.762 283.593 283.716 283.541 284.765 283.964C285.376 284.21 284.989 285.652 285.9 285.927C286.942 286.242 288.509 285.473 289.286 284.805C289.844 284.326 290.601 283.79 289.905 283.122C289.534 282.766 288.316 282 288.857 282C290.292 282 291.583 282.281 293 282.281" stroke="#F1F1F1" stroke-width="2" stroke-linecap="round"/>
<path d="M278 289C278 289.629 278 290.324 278 291" stroke="#F1F1F1" stroke-width="2" stroke-linecap="round"/>
<path d="M279 287.764C280.096 285.964 280.459 287.747 281 289" stroke="#F1F1F1" stroke-width="2" stroke-linecap="round"/>
<path d="M282 285.818C282.123 283.004 282.921 288.295 283 289" stroke="#F1F1F1" stroke-width="2" stroke-linecap="round"/>
<path d="M284 285.087C285.729 284.31 286.603 288.96 287 290" stroke="#F1F1F1" stroke-width="2" stroke-linecap="round"/>
<path d="M290 286C290.556 287.038 291.262 288.016 292 289" stroke="#F1F1F1" stroke-width="2" stroke-linecap="round"/>
<path d="M298.51 294.285C298.095 294.285 299.535 293.307 299.821 293.144C301.14 292.39 302.472 290.925 303.647 289.931C304.707 289.033 308.247 287.209 306.31 285.703C304.92 284.622 303.387 281.15 304.598 279.636C305.801 278.133 304.217 274.193 304.217 272.216C304.217 270.812 302.781 266.812 303.266 265.938C304.441 263.824 304.631 262.4 304.239 259.85C303.83 257.191 304.658 253.769 305.93 251.479C306.592 250.287 308.403 248.634 308.403 247.294C308.403 245.075 308.7 242.501 308.783 240.17C308.924 236.231 310.736 234.708 313.265 232.179C313.923 231.521 314.063 230.05 314.491 229.22C315.051 228.133 315.867 227.973 316.689 227.233C317.044 226.914 318.267 226.663 318.296 226.176C318.353 225.203 318.007 223.624 317.619 222.751C316.594 220.443 315.903 217.793 317.239 215.522C318.712 213.019 321.766 213.177 318.676 211.632C317.152 210.87 314.227 209.63 314.11 207.532C314.047 206.39 314.995 203.727 314.11 203.727" stroke="#F1F1F1" stroke-width="2" stroke-linecap="round"/>
<path d="M320.199 212.86C320.22 212.717 322.576 212.86 323.053 212.86C323.915 212.86 325.725 212.439 325.146 213.452C324.023 215.417 323.393 218.072 325.907 219.329" stroke="#F1F1F1" stroke-width="2" stroke-linecap="round"/>
<path d="M316.013 204.871C313.3 205.21 310.306 204.162 310.306 200.474C310.306 199.218 309.866 197.063 310.496 195.929C311.042 194.946 311.704 193.042 311.828 191.934C311.951 190.82 313.038 190.517 312.969 189.27C312.894 187.913 312.589 186.523 312.589 185.064C312.589 183.329 313.272 181.049 314.491 179.758C315.846 178.324 315.912 178.805 315.654 176.735C315.337 174.202 316.937 168.663 318.677 166.821C320.583 164.802 323.103 166.311 324.194 164.348C326.141 160.843 328.446 158.573 331.233 155.787C331.969 155.051 336.433 150.966 336.94 151.982" stroke="#F1F1F1" stroke-width="2" stroke-linecap="round"/>
<path d="M339.225 151.22C338.936 153.531 337.644 155.861 337.703 158.534C337.808 163.234 340.286 167.033 343.939 169.843C345.776 171.256 348.051 172.565 349.795 174.134C351.964 176.087 353.13 173.115 353.895 171.365C355.689 167.266 357.624 166.302 361.59 164.833C365.21 163.493 366.06 157.473 364.634 154.264C363.79 152.365 364.338 149.504 364.338 147.415C364.338 145.33 363.482 143.709 362.816 141.877C361.058 137.043 355.475 136 351.021 136C346.152 136 344.131 140.239 342.354 143.99C341.48 145.834 340.541 147.754 339.986 149.698C339.656 150.855 338.845 154.326 338.845 153.122" stroke="#F1F1F1" stroke-width="2" stroke-linecap="round"/>
<path d="M365.857 157.688C366.045 159.186 368.847 158.175 369.62 158.089C371.472 157.883 372.49 157.952 373.658 159.379C376.196 162.481 378.482 164.728 379.64 168.637C379.889 169.479 379.61 172.146 380.126 172.146C381.325 172.146 383.704 173.492 384.692 174.26C387.746 176.636 388.621 178.858 386.235 182.039C385.974 182.388 389.349 183.942 389.829 183.942C391.251 183.942 392.581 183.613 393.93 183.561C397.247 183.434 397.439 186.87 397.439 189.459C397.439 192.575 394.488 196.236 392.408 198.316C390.786 199.938 386.404 200.006 386.404 197.64" stroke="#F1F1F1" stroke-width="2" stroke-linecap="round"/>
<path d="M368.903 188.508C367.874 188.636 371.221 191.728 371.482 192.017C372.821 193.506 373.075 195.221 374.991 196.498" stroke="#F1F1F1" stroke-width="2" stroke-linecap="round"/>
<path d="M368.142 189.648H367.762" stroke="#F1F1F1" stroke-width="2" stroke-linecap="round"/>
<path d="M367.761 189.648C368.741 189.771 368.902 192.706 368.902 193.453C368.902 195.714 367.746 197.565 366.239 199.161C365.802 199.624 365.494 200.165 365.013 200.598C363.825 201.667 364.675 201.148 364.717 202.881C364.76 204.722 362.434 209.754 362.434 207.912" stroke="#F1F1F1" stroke-width="2" stroke-linecap="round"/>
<path d="M336.561 178.619C336.561 177.206 337.72 181.476 337.237 182.804C336.682 184.331 335.209 185.556 335.715 187.074C336.935 190.733 335.094 193.351 333.601 196.502C333.111 197.537 335.057 198.042 335.99 198.976C338.331 201.317 335.979 204.673 337.893 206.586C338.695 207.388 340.139 209.283 340.345 210.412C340.65 212.089 340.366 217.233 340.366 215.527" stroke="#F1F1F1" stroke-width="2" stroke-linecap="round"/>
<path d="M339.605 215.521C339.518 216.217 333.933 217.24 332.967 217.508C329.789 218.391 327.7 220.418 325.738 222.94C324.949 223.955 325.634 225.585 326.858 225.773C328.837 226.077 330.139 224.607 331.424 223.321C332.722 222.023 333.585 220.442 334.849 219.178C335.874 218.152 337.548 217.76 338.76 217.043C341.426 215.462 344.41 215.012 347.3 214.083C348.964 213.548 350.676 213.577 352.373 213.153C354.139 212.712 355.779 211.768 357.51 211.335C364.922 209.482 371.277 205.733 377.655 201.632C380.73 199.656 383.377 197.386 386.766 195.904C388.292 195.236 392.192 192.602 391.268 190.408C389.797 186.914 387.154 190.801 385.645 192.31C383.857 194.099 382.341 193.005 380.509 194.023C375.992 196.532 372.508 200.36 368.988 204.021C366.253 206.865 363.699 210.703 360.152 212.477" stroke="#F1F1F1" stroke-width="2" stroke-linecap="round"/>
<path d="M325.525 225.039C325.611 225.723 326.447 226.384 326.899 226.836C328.376 228.312 329.308 230.289 330.768 231.804C332.916 234.031 334.74 236.536 336.94 238.737C339.342 241.139 340.554 245.334 342.563 248.165C348.934 257.141 351.631 267.786 354.359 278.309C356.871 288 360.292 298.205 368.987 304.183C376.142 309.102 383.612 313.634 392.578 312.004C401.675 310.35 409.205 302.497 416.634 297.545C420.465 294.991 423.83 293.962 428.049 292.556C430.798 291.64 431.841 289.758 432.086 287.06C432.677 280.555 427.148 273.161 424.074 267.697C421.168 262.53 416.921 257.807 412.469 253.936C408.57 250.545 405.226 246.602 401.435 243.092C397.111 239.088 395.014 234.805 392.683 229.626C389.436 222.411 387.744 214.253 386.764 206.416C386.206 201.951 385.061 198.428 387.166 194.219" stroke="#F1F1F1" stroke-width="2" stroke-linecap="round"/>
<path d="M386.025 198.781C386.025 201.648 386.628 204.437 386.596 207.342C386.546 211.748 386.667 216.103 386.131 220.491C385.58 224.993 384.525 229.392 383.615 233.829C381.716 243.094 380.693 252.213 379.557 261.563" stroke="#F1F1F1" stroke-width="2" stroke-linecap="round"/>
<path d="M403.147 258.146C403.063 257.472 403.36 258.975 403.823 259.752C407.002 265.084 410.315 270.44 413.886 275.522C417.106 280.105 423.26 286.544 429.021 287.825" stroke="#F1F1F1" stroke-width="2" stroke-linecap="round"/>
<path d="M392.875 252.43C392.875 257.795 396.053 263.415 398.033 268.263C400.616 274.586 402.706 282.081 406.869 287.562C407.662 288.606 414.652 296.099 416.085 294.665" stroke="#F1F1F1" stroke-width="2" stroke-linecap="round"/>
<path d="M370.045 302.276C370.045 292.999 366.848 283.089 363.576 274.5" stroke="#F1F1F1" stroke-width="2" stroke-linecap="round"/>
<path d="M341.508 238.352C341.621 237.787 342.04 237.511 342.438 237.126C344.718 234.919 346.55 232.278 348.357 229.685C350.26 226.954 352.152 224.242 354.445 221.821C356.921 219.207 360.141 215.833 363.196 214" stroke="#F1F1F1" stroke-width="2" stroke-linecap="round"/>
<path d="M356.729 228.85C356.832 229.575 359.018 227.618 359.054 227.582C364.475 222.161 369.495 216.293 374.612 210.586" stroke="#F1F1F1" stroke-width="2" stroke-linecap="round"/>
<path d="M351.781 225.031C351.781 227.046 351.492 229.101 351.4 231.119" stroke="#F1F1F1" stroke-width="2" stroke-linecap="round"/>
<path d="M355.207 220.469C356.397 222.105 355.432 225.835 355.588 227.698" stroke="#F1F1F1" stroke-width="2" stroke-linecap="round"/>
<path d="M356.729 219.328C356.815 221.737 357.023 224.143 357.109 226.558" stroke="#F1F1F1" stroke-width="2" stroke-linecap="round"/>
<path d="M359.009 219.328C359.009 222.129 358.804 224.904 358.629 227.699" stroke="#F1F1F1" stroke-width="2" stroke-linecap="round"/>
<path d="M360.913 216.664C360.913 219.334 360.447 222.003 360.152 224.655" stroke="#F1F1F1" stroke-width="2" stroke-linecap="round"/>
<path d="M363.957 212.484C364.078 214.911 364.338 217.257 364.338 219.714" stroke="#F1F1F1" stroke-width="2" stroke-linecap="round"/>
<path d="M366.24 211.336V217.424" stroke="#F1F1F1" stroke-width="2" stroke-linecap="round"/>
<path d="M368.141 210.195V216.283" stroke="#F1F1F1" stroke-width="2" stroke-linecap="round"/>
<path d="M370.426 208.289C370.426 209.822 370.668 211.331 370.806 212.855" stroke="#F1F1F1" stroke-width="2" stroke-linecap="round"/>
<path d="M372.709 205.258C372.709 207.434 372.535 209.556 372.328 211.726" stroke="#F1F1F1" stroke-width="2" stroke-linecap="round"/>
<path d="M353.681 223.898C352.773 224.012 353.301 229.537 353.301 229.986" stroke="#F1F1F1" stroke-width="2" stroke-linecap="round"/>
<path d="M349.498 229.609V231.892" stroke="#F1F1F1" stroke-width="2" stroke-linecap="round"/>
<path d="M361.674 215.148V215.529" stroke="#F1F1F1" stroke-width="2" stroke-linecap="round"/>
<path d="M362.816 215.148C363.67 216.108 363.402 218.958 363.577 220.095" stroke="#F1F1F1" stroke-width="2" stroke-linecap="round"/>
<path d="M374.229 204.875V208.299" stroke="#F1F1F1" stroke-width="2" stroke-linecap="round"/>
<path d="M376.893 203.727C375.989 203.84 375.752 205.678 375.752 206.39" stroke="#F1F1F1" stroke-width="2" stroke-linecap="round"/>
<path d="M378.418 202.594C378.418 203.094 378.037 204.814 378.037 204.496" stroke="#F1F1F1" stroke-width="2" stroke-linecap="round"/>
<path d="M336.939 239.875C336.939 242.056 335.644 244.455 335.417 246.724C335.281 248.083 334.276 249.287 334.276 250.698C334.276 252.501 333.925 254.448 333.895 256.321C333.802 262.225 331.104 266.887 328.484 271.837C327.205 274.252 328.767 277.068 327.427 279.827C326.653 281.421 325.04 284.808 322.776 282.956C322.37 282.624 320.723 281.153 321.149 281.92C322.072 283.581 322.48 284.947 322.48 286.888C322.48 289.777 321.89 293.353 321.043 296.104C320.46 297.998 320.051 298.355 318.295 299.233" stroke="#F1F1F1" stroke-width="2" stroke-linecap="round"/>
<path d="M369.664 167.585C369.664 162.892 369.664 176.971 369.664 181.664" stroke="#F1F1F1" stroke-width="2" stroke-linecap="round"/>
<path d="M331.613 165.681C330.635 164.58 331.355 165.064 331.803 165.871C332.669 167.429 332.936 168.836 333.135 170.627" stroke="#F1F1F1" stroke-width="2" stroke-linecap="round"/>
<path d="M351.398 182.039C353.855 184.804 353.003 192.833 352.666 195.948C352.161 200.623 350.991 205.106 350.341 209.731C350.277 210.186 349.777 213.437 350.256 212.479" stroke="#F1F1F1" stroke-width="2" stroke-linecap="round"/>
<path d="M355.965 199.922C357.382 199.922 358.117 200.394 359.77 199.922" stroke="#F1F1F1" stroke-width="2" stroke-linecap="round"/>
<path d="M339.988 196.883C341.601 197.062 342.757 197.644 344.554 197.644" stroke="#F1F1F1" stroke-width="2" stroke-linecap="round"/>
<path d="M342.268 182.418C342.18 181.713 344.851 183.179 346.073 183.179" stroke="#F1F1F1" stroke-width="2" stroke-linecap="round"/>
<path d="M360.531 180.902C362.119 180.902 363.191 180.713 364.717 180.141" stroke="#F1F1F1" stroke-width="2" stroke-linecap="round"/>
<path d="M343.411 150.082C343.411 148.848 343.281 146.983 343.411 149.321C343.477 150.5 344.021 152.208 344.553 153.337C345.884 156.167 347.707 160.789 350.641 162.342C354.243 164.249 363.858 163.979 365.861 159.975" stroke="#F1F1F1" stroke-width="2" stroke-linecap="round"/>
<path d="M298.131 293.523C298.131 295.558 291.735 294.733 290.373 296.398C288.969 298.114 291.881 300.704 293.269 301.218C296.331 302.352 298.938 302.275 302.232 302.275C304.554 302.275 307.718 303.149 309.905 302.465C311.624 301.928 313.348 300.775 315.063 300.394C316.87 299.992 318.998 299.144 320.58 298.089" stroke="#F1F1F1" stroke-width="2" stroke-linecap="round"/>
<path d="M321.946 180.945C321.922 181.138 321.486 181.352 322.263 181.352C324.739 181.352 327.189 182.238 329.674 181.962" stroke="#F1F1F1" stroke-width="2" stroke-linecap="round"/>
<path d="M319.912 191.935C319.875 191.638 319.842 191.657 320.318 191.777C322.877 192.416 325.462 191.983 328.046 191.731" stroke="#F1F1F1" stroke-width="2" stroke-linecap="round"/>
<path d="M319.303 202.502C319.471 200.986 321.584 198.42 322.85 197.621C324.257 196.732 327.045 196.27 328.658 196.807" stroke="#F1F1F1" stroke-width="2" stroke-linecap="round"/>
<path d="M327.641 208.395C328.229 208.33 329.272 207.398 329.821 207.164C331.088 206.624 332.774 205.609 334.148 206.158" stroke="#F1F1F1" stroke-width="2" stroke-linecap="round"/>
<path d="M320.93 231.578C320.93 231.925 321.074 232.015 321.246 232.313C321.614 232.948 322.554 233.301 323.144 233.589C325.282 234.632 327.464 235.421 329.674 236.256" stroke="#F1F1F1" stroke-width="2" stroke-linecap="round"/>
<path d="M321.337 281.414C321.038 281.377 320.899 280.842 320.772 280.601C320.267 279.648 318.937 279.042 318.038 278.522C317.147 278.007 316.59 277.846 315.529 278.002C314.33 278.179 314.017 279.346 313.157 279.991C310.999 281.609 309.076 281.787 306.446 281.369C305.526 281.223 304.583 280.911 303.689 280.646C303.175 280.494 302.382 281.081 303.237 280.398" stroke="#F1F1F1" stroke-width="2" stroke-linecap="round"/>
<path d="M325.606 272.257C325.117 272.203 324.521 271.436 324.25 271.127C320.843 267.249 317.724 263.253 314.014 259.648" stroke="#F1F1F1" stroke-width="2" stroke-linecap="round"/>
<path d="M322.963 269.814C322.963 269.575 323.192 269.944 323.313 270.028C324.258 270.686 325.396 271.132 326.42 271.644" stroke="#F1F1F1" stroke-width="2" stroke-linecap="round"/>
<path d="M320.727 266.773C320.664 266.211 320.806 266.646 321.292 266.931C322.758 267.792 324.45 268.366 326.014 269.01" stroke="#F1F1F1" stroke-width="2" stroke-linecap="round"/>
<path d="M322.149 265.749C321.222 265.227 322.409 265.527 322.782 265.659C324.483 266.257 326.071 267.318 327.64 268.189" stroke="#F1F1F1" stroke-width="2" stroke-linecap="round"/>
<path d="M320.928 263.508C320.836 263.508 322.443 264.221 322.656 264.321C323.26 264.606 327.737 266.867 327.639 266.965" stroke="#F1F1F1" stroke-width="2" stroke-linecap="round"/>
<path d="M319.1 261.688C319.59 262.089 320.302 262.301 320.851 262.591C323.191 263.832 325.505 265.126 327.844 266.365" stroke="#F1F1F1" stroke-width="2" stroke-linecap="round"/>
<path d="M317.673 260.675C317.654 260.52 317.478 260.444 317.673 260.506C321.769 261.799 325.713 264.591 329.468 266.573" stroke="#F1F1F1" stroke-width="2" stroke-linecap="round"/>
<path d="M370.549 186.844C371.111 188.417 371.774 189.964 372.379 191.521" stroke="#F1F1F1" stroke-width="2" stroke-linecap="round"/>
<path d="M370.756 183.187C370.756 182.891 370.839 183.391 370.846 183.413C371.529 185.539 372.405 187.609 373.196 189.695" stroke="#F1F1F1" stroke-width="2" stroke-linecap="round"/>
<path d="M370.346 179.32C370.676 179.431 370.784 179.977 370.888 180.247C372.309 183.921 373.648 187.627 375.023 191.319" stroke="#F1F1F1" stroke-width="2" stroke-linecap="round"/>
<path d="M370.957 178.102C372.716 183.076 374.624 187.997 376.448 192.947" stroke="#F1F1F1" stroke-width="2" stroke-linecap="round"/>
<path d="M372.99 176.273C374.166 180.786 375.469 185.249 376.854 189.696" stroke="#F1F1F1" stroke-width="2" stroke-linecap="round"/>
<path d="M378.077 173.422C378.043 173.724 377.878 173.77 377.625 173.874C376.591 174.295 376.384 175.992 376.043 176.879" stroke="#F1F1F1" stroke-width="2" stroke-linecap="round"/>
<path d="M378.076 188.058C379.978 187.821 382.035 186.029 383.567 185.008" stroke="#F1F1F1" stroke-width="2" stroke-linecap="round"/>
<path d="M391.294 184.406C389.735 184.406 389.665 186.249 389.057 187.208C387.844 189.125 385.694 189.837 385.193 192.338" stroke="#F1F1F1" stroke-width="2" stroke-linecap="round"/>
<path d="M341.875 211.25C341.989 212.273 343.946 213.966 344.519 214.707" stroke="#F1F1F1" stroke-width="2" stroke-linecap="round"/>
<path d="M339.842 208.203C341.134 209.495 342.3 210.896 343.502 212.27" stroke="#F1F1F1" stroke-width="2" stroke-linecap="round"/>
<path d="M336.587 202.914C336.243 203.487 341.954 208.661 342.688 209.422" stroke="#F1F1F1" stroke-width="2" stroke-linecap="round"/>
<path d="M335.979 198.844C336.26 199.519 337.297 200.336 337.718 200.81C339.153 202.421 340.511 204.09 341.876 205.758" stroke="#F1F1F1" stroke-width="2" stroke-linecap="round"/>
<path d="M335.979 195.594C338.451 198.216 340.763 200.983 343.096 203.728" stroke="#F1F1F1" stroke-width="2" stroke-linecap="round"/>
<path d="M336.996 193.758C338.836 195.598 340.549 197.506 342.284 199.452" stroke="#F1F1F1" stroke-width="2" stroke-linecap="round"/>
<path d="M339.232 193.352L339.843 193.962" stroke="#F1F1F1" stroke-width="2" stroke-linecap="round"/>
<path d="M310.762 247.65C310.149 247.105 310.301 247.745 310.807 248.056C315.017 250.648 321.495 249.229 326.014 248.87" stroke="#F1F1F1" stroke-width="2" stroke-linecap="round"/>
<path d="M308.523 265.961C308.758 264.081 311.872 268.269 311.969 268.379C312.663 269.16 312.849 270.139 313.393 271.023C314.349 272.577 315.135 273.356 316.862 274.096" stroke="#F1F1F1" stroke-width="2" stroke-linecap="round"/>
<path d="M314.013 281.51C313.683 281.469 313.518 281.225 313.098 281.318C312.722 281.401 311.746 282.048 312.104 281.905C313.653 281.286 314.587 283.174 314.623 284.561C314.682 286.794 313.621 287.812 311.991 289.238C311.471 289.693 309.854 290.905 309.539 289.645" stroke="#F1F1F1" stroke-width="2" stroke-linecap="round"/>
<path d="M299.982 293.305C299.982 294.363 301.043 294.825 301.813 295.338" stroke="#F1F1F1" stroke-width="2" stroke-linecap="round"/>
<path d="M300.998 291.886C301.068 291.325 304.601 293.193 304.862 293.31" stroke="#F1F1F1" stroke-width="2" stroke-linecap="round"/>
<path d="M303.848 289.242C304.929 289.799 305.895 290.589 306.898 291.276" stroke="#F1F1F1" stroke-width="2" stroke-linecap="round"/>
<path d="M92 235.5C92 236.401 95.1305 231.261 95.3488 230.884C101.101 220.947 107.104 211.258 112.358 201.011C114.437 196.959 116.979 190.467 120.144 187.302C120.519 186.927 120.368 187.371 120.482 187.979C121.078 191.154 121.478 194.356 122.006 197.542C123.229 204.927 125.207 212.282 127.337 219.459C127.834 221.136 133.079 234.873 134.022 233.93" stroke="#F1F1F1" stroke-width="2" stroke-linecap="round"/>
<path d="M123.361 185.959C122.18 186.107 123.109 186.74 124.462 185.79C131.707 180.698 140.506 177.483 148.495 173.773" stroke="#F1F1F1" stroke-width="2" stroke-linecap="round"/>
<path d="M141.639 236.216C149.01 228.845 157.623 219.465 166.772 214.891" stroke="#F1F1F1" stroke-width="2" stroke-linecap="round"/>
<path d="M153.826 173.773C153.826 178.413 157.725 184.168 159.835 187.99C164.222 195.942 168.05 204.147 171.343 212.616" stroke="#F1F1F1" stroke-width="2" stroke-linecap="round"/>
<path d="M102.797 234.7C114.074 234.7 124.192 231.456 135.547 234.7" stroke="#F1F1F1" stroke-width="2" stroke-linecap="round"/>
<path d="M92.1324 218.703C91.889 216.755 90.6092 221.566 90.6092 222.341C90.6092 224.478 89.0662 233.544 91.3708 234.697" stroke="#F1F1F1" stroke-width="2" stroke-linecap="round"/>
<path d="M92.8943 217.945C87.4072 218.631 86.1079 221.031 86.9706 226.746C87.5269 230.432 86.6668 237.792 91.371 236.224" stroke="#F1F1F1" stroke-width="2" stroke-linecap="round"/>
<path d="M138.592 236.981C135.537 236.642 136.8 224.591 136.476 222.849C135.807 219.251 144.499 215.347 146.039 217.348C147.791 219.626 143.923 230.068 143.923 233.173C143.923 234.041 145.484 234.602 144.177 235.458C142.604 236.489 138.477 238.447 137.068 237.743" stroke="#F1F1F1" stroke-width="2" stroke-linecap="round"/>
<path d="M174.389 213.37C174.06 213.329 169.87 198.375 176.674 201.777C178.562 202.721 176.674 207.425 176.674 209.181C176.674 210.326 178.313 214.19 176.674 213.37" stroke="#F1F1F1" stroke-width="2" stroke-linecap="round"/>
<path d="M123.947 4.50231C123.947 7.44811 127.226 5.4241 130.312 4.74403C135.329 3.63869 140.292 1.80556 145.379 1.03771C149.898 0.355702 152.131 9.11343 153.638 11.9955C156.387 17.2502 159.172 22.2552 161.333 27.7876C163.782 34.0569 165.556 42.1199 171.001 46.5609C175.131 49.9291 179.324 48.7033 183.409 50.9118C188.035 53.4121 188.172 63.4989 188.808 67.832C190.579 79.9067 192.032 92.2052 194.649 104.13C196.756 113.729 200.365 123.002 202.263 132.693C202.758 135.216 203.077 138.963 205.164 140.83C207.534 142.95 212.615 135.706 213.745 134.425C218.219 129.354 223.467 126.326 229.819 130.839C235.206 134.667 241.436 136.8 246.9 140.508C251.339 143.52 253.908 149.017 256.649 153.52C257.947 155.652 263.92 166.038 266.238 165.888C271.693 165.536 278.892 158.297 283.117 155.011C289.707 149.886 304.448 150.581 309.182 157.468C310.643 159.592 312.88 161.424 314.661 163.31C317.937 166.778 317.33 159.238 317.602 156.784C318.156 151.8 320.7 146.486 322.638 141.918C325.546 135.063 327.161 131.773 333.354 127.778C341.772 122.347 343.38 105.316 345.883 96.5559C346.029 96.0444 350.002 80.6367 352.53 82.4155C358.744 86.7884 362.323 95.6591 366.711 101.672C371.713 108.526 379.796 107.423 387.499 105.62C400.37 102.608 404.786 83.3151 419.445 93.4136C428.965 99.9716 434.134 112.567 436.849 123.427C439.901 135.637 447.423 141.907 454.454 151.708C458.337 157.12 461.863 162.633 466.056 167.822C469.565 172.163 474.09 176.793 476.692 181.761C479.406 186.943 490.712 177.921 494.659 177.249C499.029 176.505 503.937 182.075 506.987 184.5C511.849 188.367 516.351 192.66 521.208 196.546C526.592 200.853 531.124 205.248 537.846 207.947C542.599 209.855 553.423 209.974 554.686 216.286C556.89 227.307 557.191 238.529 559.037 249.603" stroke="#F1F1F1" stroke-width="2" stroke-linecap="round"/>
<path d="M137.725 17.5483C135.709 17.2964 138.362 22.2473 138.934 23.7524C140.015 26.6017 140.498 32.5831 143.768 28.6673C146.112 25.8604 147.87 22.6342 150.053 19.7238" stroke="#F1F1F1" stroke-width="2" stroke-linecap="round"/>
<path d="M139.177 17.5547C138.076 17.8693 139.808 19.73 140.064 20.2136C141.202 22.3645 141.453 24.9566 142.803 26.9816" stroke="#F1F1F1" stroke-width="2" stroke-linecap="round"/>
<path d="M141.354 21.9052C141.354 16.0327 144.453 26.9849 144.979 28.4315" stroke="#F1F1F1" stroke-width="2" stroke-linecap="round"/>
<path d="M142.08 18.2825C142.131 18.1553 147.418 27.5075 147.881 28.4346" stroke="#F1F1F1" stroke-width="2" stroke-linecap="round"/>
<path d="M176.162 65.4163C172.813 64.9976 172.574 72.0649 171.73 74.5612C169.332 81.6567 167.502 93.6905 162.384 99.3774C158.332 103.88 151.802 104.278 147.881 108.2" stroke="#F1F1F1" stroke-width="2" stroke-linecap="round"/>
<path d="M155.131 91.5213C155.131 89.0921 155.588 96.3585 155.856 98.7728" stroke="#F1F1F1" stroke-width="2" stroke-linecap="round"/>
<path d="M157.307 90.7957C157.307 87.1379 158.542 98.0214 158.757 101.673" stroke="#F1F1F1" stroke-width="2" stroke-linecap="round"/>
<path d="M161.656 83.5391C161.656 88.1085 162.584 92.7892 163.107 97.3169" stroke="#F1F1F1" stroke-width="2" stroke-linecap="round"/>
<path d="M166.008 76.2969C166.008 80.6897 166.335 84.972 166.733 89.3496" stroke="#F1F1F1" stroke-width="2" stroke-linecap="round"/>
<path d="M168.908 69.7656C169.134 74.0472 169.367 77.7366 168.908 82.0932" stroke="#F1F1F1" stroke-width="2" stroke-linecap="round"/>
<path d="M203.715 154.603C203.865 156.107 204.954 157.508 205.649 158.833C207.851 163.038 208.672 167.651 210.966 171.845C211.592 172.99 213.89 180.605 214.995 179.5C217.785 176.71 218.809 172.071 221.118 168.864C223.215 165.953 227.448 165.736 229.981 163.144C232.376 160.694 233.169 157.676 234.534 154.643C235.778 151.879 242.876 147.344 242.873 147.352" stroke="#F1F1F1" stroke-width="2" stroke-linecap="round"/>
<path d="M208.791 158.234C209.238 162.257 210.358 166.505 210.966 170.562" stroke="#F1F1F1" stroke-width="2" stroke-linecap="round"/>
<path d="M211.693 153.164C212.92 157.151 214.498 160.9 216.044 164.766" stroke="#F1F1F1" stroke-width="2" stroke-linecap="round"/>
<path d="M216.768 149.531C218.497 154.373 219.237 159.749 220.393 164.759" stroke="#F1F1F1" stroke-width="2" stroke-linecap="round"/>
<path d="M221.119 149.531C222.851 153.38 224.432 157.288 226.195 161.134" stroke="#F1F1F1" stroke-width="2" stroke-linecap="round"/>
<path d="M226.197 144.457C226.738 143.578 229.372 154.346 229.823 156.06" stroke="#F1F1F1" stroke-width="2" stroke-linecap="round"/>
<path d="M230.545 140.828C233.444 141.794 234.31 151.537 234.896 153.881" stroke="#F1F1F1" stroke-width="2" stroke-linecap="round"/>
<path d="M142.08 11.75C142.08 19.0269 149.816 21.1398 150.057 28.5896C150.21 33.3359 152.781 37.4494 152.957 42.2063C153.121 46.6386 155.91 50.5584 158.799 53.8086C160.852 56.1183 164.683 56.9826 167.42 58.5221C169.77 59.8438 171.448 63.1665 173.624 65.0081C178.703 69.3054 183.364 68.5367 189.215 70.487" stroke="#F1F1F1" stroke-width="2" stroke-linecap="round"/>
<path d="M144.977 13.9269C141.241 13.9269 137.79 12.6612 134.1 12.4766C130.242 12.2837 125.828 4.5 126.123 4.5" stroke="#F1F1F1" stroke-width="2" stroke-linecap="round"/>
<path d="M344.394 108.204C343.761 108.204 346.178 106.192 346.891 105.988C351.857 104.57 354.636 107.549 356.721 111.83C359.786 118.121 362.465 121.901 370.056 121.901C375.873 121.901 380.807 117.81 386.452 116.745C391.8 115.736 393.718 112.099 397.773 109.292C401.783 106.515 407.91 107.985 412.396 106.592C415.725 105.559 417.634 99.7038 417.634 96.6016" stroke="#F1F1F1" stroke-width="2" stroke-linecap="round"/>
<path d="M286.383 165.486C285.75 165.407 284.919 163.391 285.295 163.391C285.994 163.391 288.399 165.326 288.921 165.848C290.162 167.089 292.571 169.926 294.359 169.837C297.704 169.67 303.601 160.965 304.512 158.234" stroke="#F1F1F1" stroke-width="2" stroke-linecap="round"/>
<path d="M289.283 161.141C291.059 161.141 291.29 162.701 292.184 164.041" stroke="#F1F1F1" stroke-width="2" stroke-linecap="round"/>
<path d="M294.359 161.858C295.023 160.996 305.379 166.967 306.687 167.66" stroke="#F1F1F1" stroke-width="2" stroke-linecap="round"/>
<path d="M428.511 145.178C426.048 147.95 426.635 156.684 421.945 157.466C413.504 158.872 419.141 167.434 420.696 173.217C421.879 177.62 423.479 183.303 426.336 186.874C428.319 189.353 429.787 189.893 432.5 188.687C436.209 187.039 441.437 183.844 441.564 179.26C441.723 173.549 441.857 171.727 444.787 166.933C448.89 160.219 446.195 156.453 439.469 151.463C438.033 150.397 430.452 145.414 431.412 144.453" stroke="#F1F1F1" stroke-width="2" stroke-linecap="round"/>
<path d="M421.26 161.13C421.26 159.307 421.94 160.431 422.347 161.653C424.306 167.53 425.124 173.923 426.336 179.984" stroke="#F1F1F1" stroke-width="2" stroke-linecap="round"/>
<path d="M424.886 162.583C424.886 161.948 424.72 160.874 425.047 162.18C426.457 167.821 427.431 173.549 428.511 179.261" stroke="#F1F1F1" stroke-width="2" stroke-linecap="round"/>
<path d="M427.787 161.859C431.259 162.631 431.74 176.375 432.138 178.538" stroke="#F1F1F1" stroke-width="2" stroke-linecap="round"/>
<path d="M432.137 158.227C432.137 157.442 431.995 156.539 432.298 157.985C433.623 164.318 434.272 170.65 435.037 177.081" stroke="#F1F1F1" stroke-width="2" stroke-linecap="round"/>
<path d="M435.039 153.883C437.806 159.724 437.765 167.161 438.665 173.462" stroke="#F1F1F1" stroke-width="2" stroke-linecap="round"/>
<path d="M440.113 150.258C442.559 150.564 442.853 162.694 443.014 164.036" stroke="#F1F1F1" stroke-width="2" stroke-linecap="round"/>
<path d="M503.202 198.844C500.848 201.491 502.253 210.867 504.41 213.024C506.859 215.474 510.462 215.659 511.017 219.792C511.197 221.13 510.196 227.27 511.339 228.414C513.69 230.764 522.944 223.499 526.004 223.499C530.713 223.499 533.443 222.029 537.284 219.148" stroke="#F1F1F1" stroke-width="2" stroke-linecap="round"/>
<path d="M512.629 222.774C514.888 222.492 515.103 224.737 516.98 225.675" stroke="#F1F1F1" stroke-width="2" stroke-linecap="round"/>
<path d="M514.805 215.516C516.954 215.784 517.481 222.147 517.705 223.492" stroke="#F1F1F1" stroke-width="2" stroke-linecap="round"/>
<path d="M506.828 207.541C506.981 206.467 508.777 208.771 509.044 209.072C512.43 212.882 514.246 218.176 516.255 222.769" stroke="#F1F1F1" stroke-width="2" stroke-linecap="round"/>
<path d="M508.279 203.195C513.134 207.794 518.013 213.332 519.882 219.874" stroke="#F1F1F1" stroke-width="2" stroke-linecap="round"/>
<path d="M514.805 201.016C515.105 202.52 516.756 203.636 517.584 204.843C520.664 209.33 523.078 214.37 525.682 219.144" stroke="#F1F1F1" stroke-width="2" stroke-linecap="round"/>
<path d="M42.0083 212.618C41.9144 213.369 40.0223 214.097 42.3306 212.457C51.5767 205.887 61.1115 199.714 70.2891 193.039" stroke="#F1F1F1" stroke-width="2" stroke-linecap="round"/>
<path d="M23.1523 174.188C24.6356 174.373 27.7134 179.346 28.2284 180.069C33.3015 187.199 42.0062 197.66 42.0062 206.819" stroke="#F1F1F1" stroke-width="2" stroke-linecap="round"/>
<path d="M23.1552 175.641C23.0528 176.46 22.253 176.623 21.7049 177.172C18.7084 180.168 17.1272 185.931 15.5009 189.66C12.7726 195.916 10.8954 202.357 8.6925 208.796C7.92906 211.028 6.68015 213.437 7.20191 215.524" stroke="#F1F1F1" stroke-width="2" stroke-linecap="round"/>
<path d="M25.3281 174.909C28.9401 174.548 33.4196 170.923 36.4068 169.35C41.7665 166.526 46.9097 163.406 52.1586 160.406" stroke="#F1F1F1" stroke-width="2" stroke-linecap="round"/>
<path d="M57.2363 162.586C62.7598 169.214 65.068 179.373 68.1136 187.241" stroke="#F1F1F1" stroke-width="2" stroke-linecap="round"/>
<path d="M97.1201 228.571C96.2585 228.571 97.4923 227.901 97.8453 227.685C101.906 225.204 105.05 219.844 108.158 216.405C113.758 210.209 119.948 200.687 123.225 193.039" stroke="#F1F1F1" stroke-width="2" stroke-linecap="round"/>
<path d="M118.873 191.594C118.873 208.969 125.607 225.832 131.926 241.629" stroke="#F1F1F1" stroke-width="2" stroke-linecap="round"/>
<path d="M23.1518 181.438C22.0195 181.579 21.0425 184.678 20.4929 185.627C18.85 188.465 14.6431 199.566 10.8242 199.566" stroke="#F1F1F1" stroke-width="2" stroke-linecap="round"/>
<path d="M23.1526 179.984C22.962 178.459 23.3041 182.681 23.8778 183.972C27.4921 192.104 32.9816 195.05 40.5562 198.838" stroke="#F1F1F1" stroke-width="2" stroke-linecap="round"/>
<path d="M14.4512 214.07C19.3451 213.881 24.1892 211.621 29.1153 212.055C32.7275 212.374 36.1911 212.619 39.8314 212.619" stroke="#F1F1F1" stroke-width="2" stroke-linecap="round"/>
<path d="M39.8309 210.444C39.5954 212.328 39.1057 206.843 39.1057 206.295C39.1057 200.641 37.5172 200.011 43.094 199.526C48.4636 199.06 47.1365 200.748 47.6464 206.738C48.0494 211.473 48.0909 211.957 43.4566 212.619" stroke="#F1F1F1" stroke-width="2" stroke-linecap="round"/>
<path d="M8.65094 214.797C8.65094 210.795 8.65094 206.793 8.65094 202.791C8.65094 199.001 7.58013 200.178 4.4612 200.294C1.23477 200.413 0.254332 199.759 1.5606 203.678C3.1232 208.366 4.92518 213.046 6.4755 217.697" stroke="#F1F1F1" stroke-width="2" stroke-linecap="round"/>
<path d="M68.112 193.768C68.112 191.218 68.161 188.662 68.112 186.113C68.0073 180.667 66.6405 182.165 72.3823 182.165C75.4738 182.165 73.9132 185.44 73.9132 188.289C73.9132 193.18 73.7795 193.01 68.8371 194.493" stroke="#F1F1F1" stroke-width="2" stroke-linecap="round"/>
<path d="M33.3038 256.853C34.548 257.941 31.6037 254.75 30.9672 254.113C28.8389 251.985 30.9695 249.507 32.8607 248.191C36.7677 245.473 37.5901 242.951 39.5885 238.643C42.1624 233.095 44.9131 227.04 51.4326 229.297C57.6518 231.45 60.1135 237.199 61.7458 243.075C62.695 246.492 64.6545 249.982 66.0967 253.227C67.2078 255.727 59.1488 257.814 57.3949 259.028C49.647 264.392 42.2218 257.47 34.7541 261.203" stroke="#F1F1F1" stroke-width="2" stroke-linecap="round"/>
<path d="M42.7321 245.969C43.2095 250.266 46.4391 250.279 40.5566 253.22" stroke="#F1F1F1" stroke-width="2" stroke-linecap="round"/>
<path d="M51.4336 238C51.4336 242.578 51.6094 246.152 55.0593 249.602" stroke="#F1F1F1" stroke-width="2" stroke-linecap="round"/>
<path d="M52.8848 239.456C52.9301 239.184 54.6767 244.298 55.0602 245.257" stroke="#F1F1F1" stroke-width="2" stroke-linecap="round"/>
<path d="M53.6113 239.451C53.8957 238.74 55.6125 244.555 55.7868 245.252" stroke="#F1F1F1" stroke-width="2" stroke-linecap="round"/>
<path d="M55.7852 239.445L58.6858 248.147" stroke="#F1F1F1" stroke-width="2" stroke-linecap="round"/>
<path d="M78.2656 301.817C78.9044 301.737 79.3834 300.546 79.7159 299.964C81.0399 297.647 85.617 297.547 87.8537 297.547C90.2511 297.547 92.935 299.3 95.2663 298.876C97.0573 298.551 97.95 293.838 98.9726 292.35C100.926 289.509 104.738 283.09 108.722 285.139C111.356 286.493 112.238 290.135 113.959 292.39C115.813 294.82 117.947 297.205 120.324 299.078C125.371 303.054 111.906 305.847 109.447 306.531C103.372 308.218 96.9518 309.794 90.6334 309.794C87.3067 309.794 81.5952 310.172 79.1519 307.457C78.4729 306.703 80.2863 302.257 81.1662 301.817" stroke="#F1F1F1" stroke-width="2" stroke-linecap="round"/>
<path d="M103.646 294.57C104.891 294.709 105.712 295.911 106.547 296.746" stroke="#F1F1F1" stroke-width="2" stroke-linecap="round"/>
<path d="M105.818 293.836C107.31 293.929 107.994 294.558 107.994 296.011" stroke="#F1F1F1" stroke-width="2" stroke-linecap="round"/>
<path d="M106.547 292.387C106.913 291.289 109.208 294.889 109.447 295.288" stroke="#F1F1F1" stroke-width="2" stroke-linecap="round"/>
<path d="M249.359 324.672C249.323 324.959 248.897 325.021 248.661 325.021C247.898 325.021 247.109 325.666 246.576 326.165C244.813 327.817 246.313 330.837 248.001 331.829C249.069 332.456 250.358 332.621 251.492 333.09C252.672 333.576 253.824 334.125 254.954 334.719C257.728 336.175 259.701 338.559 262.14 340.489C264.37 342.252 267.083 343.733 269.821 344.572C270.959 344.92 273.232 346.051 273.875 344.397C274.624 342.47 271.735 341.461 270.519 340.731C269.237 339.962 268.792 338.592 267.688 337.764" stroke="#F1F1F1" stroke-width="2" stroke-linecap="round"/>
<path d="M249.357 324.85C250.126 323.985 251.441 322.93 252.674 322.93C253.328 322.93 258.15 324.96 257.562 325.548" stroke="#F1F1F1" stroke-width="2" stroke-linecap="round"/>
<path d="M252.676 326.766C254.157 326.93 256.739 331.284 257.563 327.988" stroke="#F1F1F1" stroke-width="2" stroke-linecap="round"/>
<path d="M251.279 328.336C252.182 328.436 253.063 331.224 253.374 331.827" stroke="#F1F1F1" stroke-width="2" stroke-linecap="round"/>
<path d="M253.373 327.992C253.601 328.043 253.693 328.267 253.8 328.458C254.602 329.894 255.269 331.404 255.991 332.88" stroke="#F1F1F1" stroke-width="2" stroke-linecap="round"/>
<path d="M257.213 330.609C257.594 332.231 258.612 333.827 259.308 335.322" stroke="#F1F1F1" stroke-width="2" stroke-linecap="round"/>
<path d="M287.412 319.789C287.412 321.201 285.945 322.306 285.221 323.465C284.1 325.258 283.061 327.072 282.001 328.905C279.978 332.405 274.877 336.139 277.85 340.426C278.598 341.504 279.972 343.51 281.487 343.51C282.263 343.51 283.12 343.288 283.882 343.142C285.607 342.811 288.163 343.663 289.643 344.577C293.159 346.748 296.493 348.737 300.747 349.115C302.467 349.268 305.563 349.808 306.575 347.893C307.676 345.81 305.807 344.464 304.16 343.51C298.757 340.382 299.876 331.613 299.467 326.5C299.295 324.353 298.385 322.881 297.537 320.972C296.703 319.096 295.818 319.035 294.046 318.47C292.345 317.929 290.775 318.605 289.197 319.266C288.637 319.5 287.238 320.868 287.238 320.662" stroke="#F1F1F1" stroke-width="2" stroke-linecap="round"/>
<path d="M292.475 317.345C292.548 316.755 294.247 317.671 294.414 317.753C295.445 318.258 292.6 317.826 292.387 317.782C292.017 317.705 291.27 317.664 290.904 317.481C290.197 317.128 290.175 312.208 291.33 312.497C292.508 312.791 293.311 313.889 294.569 314.203C296.206 314.613 297.505 314.609 299.147 314.553C300.637 314.501 298.478 316.105 298.099 316.395C297.101 317.16 296.006 317.48 295.093 318.393" stroke="#F1F1F1" stroke-width="2" stroke-linecap="round"/>
<path d="M284.095 331.484C283.119 331.763 286.868 337.04 287.237 337.594" stroke="#F1F1F1" stroke-width="2" stroke-linecap="round"/>
<path d="M293.172 342.482C294.099 342.052 295.098 341.609 296.139 341.609" stroke="#F1F1F1" stroke-width="2" stroke-linecap="round"/>
<path d="M291.951 319.609V322.402" stroke="#F1F1F1" stroke-width="2" stroke-linecap="round"/>
<path d="M292.824 320.133V322.577" stroke="#F1F1F1" stroke-width="2" stroke-linecap="round"/>
<path d="M295.443 320.312C294.676 321.122 294.192 321.942 293.697 322.931" stroke="#F1F1F1" stroke-width="2" stroke-linecap="round"/>
</svg>
