<svg width="214" height="199" viewBox="0 0 214 199" fill="none" xmlns="http://www.w3.org/2000/svg">
<path d="M124.357 91.1374L157.794 91.8259L171.779 66.2442L182.146 67.1231L186.697 74.888L176.223 92.6166L178.454 92.4681L198.861 92.679L203.159 100.012L199.648 107.866L179.062 108.339L176.399 108.74L186.512 125.995L182.822 134.533L172.707 134.085L158.55 109.928L122.996 108.41L123.993 109.913" stroke="#2E3B60" stroke-width="2"/>
<path d="M103.501 117.224L85.4352 145.368L99.9327 170.663L93.7641 179.041L84.7659 178.862L75.1275 160.665L74.0878 162.645L63.2402 179.932L54.7419 179.762L49.8828 172.663L60.2404 154.867L61.2901 152.387L41.2941 151.988L35.9451 144.379L41.6138 135.991L69.6082 136.55L89.4877 107.034L87.6861 107.098" stroke="#2E3B60" stroke-width="2"/>
<path d="M92.3839 88.6131L77.5113 60.4485L48.3566 60.4655L44.1493 50.9497L48.7753 43.2296L69.3555 43.9036L68.1539 42.0178L58.5395 24.0161L62.9085 16.7249L71.483 16.0339L81.7833 33.8637L83.4138 36.0065L93.6938 18.8507L102.954 17.9878L107.418 27.0746L93.0265 51.0928L108.768 83.0086L110 80.4979" stroke="#2E3B60" stroke-width="2"/>
<path d="M123 108.497C129.707 120.006 140.176 137.968 140.176 137.968L169.28 136.262L174.032 145.518L169.861 153.493L149.276 154.012L150.585 155.825L161.226 173.24L157.286 180.772L148.766 181.959L137.451 164.755L135.699 162.71L126.43 180.433L117.235 181.831L112.252 173.018L125.228 148.206L109 119.497L107.642 117.234L105.659 113.776L103 117.997" stroke="#2E3B60" stroke-width="2"/>
<path d="M89.489 107.027C76.1721 106.7 55.3889 106.19 55.3889 106.19L41.5731 131.864L31.2004 131.053L26.5988 123.319L36.9552 105.521L34.7251 105.685L14.3169 105.608L9.97091 98.3034L13.4303 90.4273L34.0125 89.8181L36.6724 89.3993L26.4465 72.2112L30.08 63.6497L40.197 64.0305L54.5132 88.0939L87.4682 89.3377L93.0007 89.4968L90.5007 84.9968" stroke="#2E3B60" stroke-width="2"/>
<path d="M108.327 83.3098C115.122 71.8525 125.728 53.9716 125.728 53.9716L110.086 29.3682L115.864 20.7157L124.861 20.4828L135.323 38.2181L136.271 36.1928L146.315 18.427L154.812 18.207L159.991 25.0753L150.461 43.3281L149.526 45.8531L169.519 45.3356L175.211 52.6907L169.933 61.3302L141.942 62.0548L124.746 90.195L124.183 91.1799L126.683 91.1799" stroke="#2E3B60" stroke-width="2"/>
</svg>
