<svg width="214" height="199" viewBox="0 0 214 199" fill="none" xmlns="http://www.w3.org/2000/svg">
<path d="M124.357 91.1374L157.794 91.8259L171.779 66.2442L182.146 67.1231L186.697 74.888L176.223 92.6166L178.454 92.4681L198.861 92.679L203.159 100.012L199.648 107.866L179.062 108.339L176.399 108.74L186.512 125.995L182.822 134.533L172.707 134.085L158.55 109.928L122.996 108.41L123.993 109.913" stroke="#2E3B60" stroke-width="2"/>
<path d="M103.501 117.224L85.4352 145.368L99.9327 170.663L93.7641 179.041L84.7659 178.862L75.1275 160.665L74.0878 162.645L63.2402 179.932L54.7419 179.762L49.8828 172.663L60.2404 154.867L61.2901 152.387L41.2941 151.988L35.9451 144.379L41.6138 135.991L69.6082 136.55L89.4877 107.034L87.6861 107.098" stroke="#2E3B60" stroke-width="2"/>
<path d="M92.3839 88.6131L77.5113 60.4485L48.3566 60.4655L44.1493 50.9497L48.7753 43.2296L69.3555 43.9036L68.1539 42.0178L58.5395 24.0161L62.9085 16.7249L71.483 16.0339L81.7833 33.8637L83.4138 36.0065L93.6938 18.8507L102.954 17.9878L107.418 27.0746L93.0265 51.0928L108.768 83.0086L110 80.4979" stroke="#2E3B60" stroke-width="2"/>
<path d="M123 108.497C129.707 120.006 140.176 137.968 140.176 137.968L169.28 136.262L174.032 145.518L169.861 153.493L149.276 154.012L150.585 155.825L161.226 173.24L157.286 180.772L148.766 181.959L137.451 164.755L135.699 162.71L126.43 180.433L117.235 181.831L112.252 173.018L125.228 148.206L109 119.497L107.642 117.234L105.659 113.776L103 117.997" stroke="#2E3B60" stroke-width="2"/>
<path d="M89.489 107.027C76.1721 106.7 55.3889 106.19 55.3889 106.19L41.5731 131.864L31.2004 131.053L26.5988 123.319L36.9552 105.521L34.7251 105.685L14.3169 105.608L9.97091 98.3034L13.4303 90.4273L34.0125 89.8181L36.6724 89.3993L26.4465 72.2112L30.08 63.6497L40.197 64.0305L54.5132 88.0939L87.4682 89.3377L93.0007 89.4968L90.5007 84.9968" stroke="#2E3B60" stroke-width="2"/>
<path d="M108.327 83.3098C115.122 71.8525 125.728 53.9716 125.728 53.9716L110.086 29.3682L115.864 20.7157L124.861 20.4828L135.323 38.2181L136.271 36.1928L146.315 18.427L154.812 18.207L159.991 25.0753L150.461 43.3281L149.526 45.8531L169.519 45.3356L175.211 52.6907L169.933 61.3302L141.942 62.0548L124.746 90.195L124.183 91.1799L126.683 91.1799" stroke="#2E3B60" stroke-width="2"/>
<path d="M72.498 25.9531C72.498 27.8236 72.8652 29.5407 73.5396 31.3047C73.9449 32.3646 74.5992 33.5249 74.5992 34.6809" stroke="#2E3B60" stroke-width="8" stroke-linecap="round"/>
<path d="M64.0858 24.7935C63.9164 24.7935 63.573 24.3517 63.6928 24.4715C63.7563 24.535 64.5123 25.4153 64.5497 25.3529C64.5966 25.2748 64.2924 24.9787 64.3587 24.9409C64.6268 24.7877 64.5228 24.1907 64.5661 23.9311C64.5829 23.8304 64.5979 23.6778 64.7244 23.6637C64.8495 23.6498 64.8544 23.4692 64.8826 23.3744C64.9705 23.0793 65.1664 22.6679 65.1664 22.362C65.1664 22.2142 65.1969 22.0305 65.0464 21.9444C64.9779 21.9053 65.1173 21.2191 65.1173 21.1094" stroke="#2E3B60" stroke-width="8" stroke-linecap="round"/>
<path d="M65.1169 21.0556C66.2354 21.0556 67.1678 22.1392 67.4748 23.1569C67.5094 23.2719 67.5364 23.4482 67.6221 23.539C67.7354 23.6589 67.583 23.2105 67.543 23.0505C67.4349 22.6181 67.2785 22.1899 67.21 21.7487C67.1919 21.6321 67.0728 21.1045 67.18 21.0174C67.3188 20.9046 67.2783 20.7519 67.2783 20.5425C67.2783 20.3832 67.3845 20.39 67.513 20.4661C67.6108 20.5241 67.7567 20.5325 67.8186 20.6408C67.8708 20.7322 67.9917 20.8612 68.0751 20.7554C68.2156 20.5771 68.2076 20.9679 68.2225 21.0556C68.2608 21.2814 68.3557 21.4911 68.4572 21.6942C68.6593 22.0984 68.8832 22.4964 69.1558 22.8567C69.425 23.2125 69.7255 23.6135 69.9418 24.0029C70.0719 24.2372 70.3006 24.5046 70.5367 24.6305C70.7394 24.7386 70.7168 23.9544 70.7168 23.8555C70.7168 23.4241 70.213 22.8169 69.9036 22.5074C69.8221 22.4259 69.4946 22.4796 69.396 22.491C69.1467 22.5199 68.9056 22.5977 68.6755 22.532C68.4409 22.4649 67.8736 23.0613 67.7204 23.1787C67.1043 23.6508 66.6063 24.2245 66.053 24.7615C65.6546 25.1481 65.2657 25.5783 64.7267 25.7467C64.5659 25.7969 64.4331 25.7851 64.6366 25.8313C65.1992 25.9592 65.6926 26.7051 66.0966 27.0703C67.2296 28.0943 67.8329 29.329 68.3371 30.7408C68.4451 31.043 68.5553 31.3756 68.6919 31.6659C68.725 31.7363 68.5318 31.5322 68.5227 31.524C68.0602 31.1072 67.6098 30.6754 67.1609 30.2441C66.6597 29.7624 66.2068 29.2244 65.8428 28.6312C65.7646 28.5038 65.7159 28.3133 65.63 28.2028C65.4353 27.9525 65.3397 27.6227 65.0678 27.4414" stroke="#2E3B60" stroke-width="8" stroke-linecap="round"/>
<path d="M71.5002 35.6319C71.7004 36.416 72.205 37.1201 72.5786 37.8294C73.0774 38.7763 73.5188 39.7652 74.0545 40.6918C74.3494 41.2021 74.0668 40.5783 73.9409 40.3918C73.0453 39.0649 72.1285 37.7516 71.1839 36.459C70.7811 35.9078 70.2687 35.37 69.9797 34.7439C69.8295 34.4185 70.457 35.2792 70.6811 35.5589C71.1854 36.1879 71.7202 36.7926 72.2908 37.3631C72.4691 37.5415 72.3615 37.3688 72.311 37.2861C72.048 36.8543 71.7328 36.4552 71.4272 36.0535C70.869 35.3199 70.2525 34.6343 69.6959 33.9006C69.5588 33.7199 69.4462 33.4812 69.2945 33.3127C69.1579 33.1609 69.0205 33.0062 68.8729 32.8586C68.7168 32.7025 68.517 32.5352 68.6701 32.8586C68.9378 33.4237 69.2474 33.9725 69.5297 34.5372C70.3101 36.0981 70.9698 37.6915 71.8651 39.1917C72.1538 39.6756 72.5921 40.066 72.903 40.5378C73.2342 41.0402 73.7132 41.616 74.1274 42.0541C74.4643 42.4104 74.7398 42.8175 75.1654 43.0759C75.7119 43.4077 76.4495 43.1478 76.9737 42.9299C78.0932 42.4645 79.3061 41.3155 78.5063 40.0269C77.6171 38.5944 76.8825 37.1764 76.3898 35.5427C76.1923 34.8875 75.9539 34.1282 75.66 33.5154C75.5032 33.1883 75.3508 32.8407 75.1492 32.5383C75.0551 32.3971 74.8594 32.2717 74.8005 32.1126C74.4003 31.0321 73.8105 30.1037 73.1057 29.1934C72.2962 28.1477 71.4385 27.2431 70.7785 26.1039C70.4494 25.5359 69.773 24.645 69.7486 23.9388C69.7227 23.1884 69.6756 22.4445 69.6756 21.6926C69.6756 21.2521 69.6138 21.1377 69.3107 20.8168C69.167 20.6646 69.0918 20.4855 69.0918 20.833C69.0918 21.2898 69.0918 21.7466 69.0918 22.2035" stroke="#2E3B60" stroke-width="8" stroke-linecap="round"/>
<path d="M73.252 29.2808C73.252 28.7792 73.5916 28.5919 73.9047 28.2267C74.0539 28.0526 73.9784 28.8961 73.9818 29.0457C74.0124 30.4255 74.8426 31.3668 75.4779 32.496C75.5294 32.5876 76.0647 33.4502 76.082 33.4083C76.1764 33.179 75.6834 32.5976 75.5711 32.419C75.3479 32.0639 75.1326 31.7054 74.894 31.3608C74.6844 31.058 74.4211 30.7027 74.2575 30.3755C74.2035 30.2676 73.9051 29.8365 73.9088 29.9701C73.9326 30.8288 74.493 31.7272 74.8008 32.5082C75.257 33.6658 75.6505 34.8725 76.2077 35.9869C76.4958 36.5631 76.8089 37.2083 77.2294 37.702C77.4974 38.0165 77.8055 38.2918 78.0687 38.6061C78.82 39.5036 79.5063 40.3964 80.1851 41.351C80.5886 41.9185 81.0418 42.4669 81.4095 43.0579C81.4803 43.1716 81.6697 43.517 81.6407 43.3863C81.4407 42.4863 80.9183 41.6441 80.5176 40.8239C80.126 40.0225 79.7522 39.1946 79.3093 38.4196C78.9962 37.8715 78.5669 37.4019 78.1822 36.9073C77.8967 36.5402 77.603 36.1723 77.3389 35.7761" stroke="#2E3B60" stroke-width="8" stroke-linecap="round"/>
<path d="M83.6152 45.6311C84.5062 43.9765 85.7101 42.4671 86.7939 40.936C87.1277 40.4645 87.4761 40.018 87.8684 39.594C88.369 39.0527 87.6999 39.9631 87.6332 40.0562C87.0475 40.8744 86.4645 41.6979 85.8371 42.4848C85.4491 42.9715 85.0165 43.6172 84.5072 43.9931C84.4016 44.0711 85.2402 42.765 85.2654 42.7322C86.5234 41.09 87.8528 39.504 89.0807 37.8384C89.44 37.351 89.8209 36.8578 90.1348 36.3383C90.2809 36.0964 89.6689 36.6588 89.6645 36.6626C88.2669 37.8816 86.9383 39.1785 85.5006 40.3522C85.5003 40.3524 85.0343 40.6829 85.0343 40.6522C85.0343 40.1969 85.8014 39.423 86.0398 39.1034C86.8885 37.9656 89.5467 34.638 88.6752 35.7585C88.1788 36.3967 87.624 36.9917 87.0778 37.587C86.9028 37.7777 86.7316 37.9975 86.5101 38.1384C86.2228 38.3213 86.8964 37.5765 87.1102 37.3113C88.2012 35.9585 89.4172 34.6321 90.297 33.1271C90.4786 32.8165 90.4351 32.6479 90.5241 32.3C90.7429 31.4443 91.3384 30.6085 91.8458 29.8998C92.0978 29.5478 92.3551 29.1368 92.6324 28.8091C93.1393 28.2101 93.828 27.6162 94.165 26.9116C94.6001 26.0018 94.8542 24.4708 95.9327 24.0856C96.5493 23.8654 97.1293 23.5672 97.7734 23.3883C97.9653 23.335 98.1285 23.2648 98.3208 23.222C98.6891 23.1402 98.1487 23.1531 98.0492 23.1531C97.6616 23.1531 97.2418 23.1994 96.8612 23.1166C96.7737 23.0976 96.3304 23.1372 96.2733 23.0801C96.2381 23.045 96.7889 22.9712 96.7923 22.9707C97.361 22.8726 97.932 22.7378 98.5033 22.6585C98.8518 22.6101 99.3076 22.3916 99.6588 22.4355C99.8017 22.4533 99.7439 22.8199 99.7439 22.9342C99.7439 23.3325 100.227 22.7378 100.036 22.6423" stroke="#2E3B60" stroke-width="8" stroke-linecap="round"/>
<path d="M98.7207 24.1037C98.7207 24.1343 99.2709 23.5595 99.341 23.4833C99.671 23.1253 99.9808 22.7699 100.253 22.3684C100.409 22.139 100.564 21.9494 100.691 21.6953" stroke="#2E3B60" stroke-width="8" stroke-linecap="round"/>
<path d="M101.276 22.5703C101.276 23.4826 101.276 24.3948 101.276 25.3071C101.276 25.5765 101.314 25.7112 101.568 25.8382C101.979 26.0438 102.412 26.4972 102.188 26.9897C102.05 27.2941 101.932 27.6067 101.77 27.8979C101.423 28.5236 100.761 28.997 100.254 29.5035C100.046 29.7114 97.8745 32.0777 98.3444 32.3294C98.6193 32.4767 99.3783 31.6665 99.3783 32.0578C99.3783 32.2024 99.2628 32.3705 99.1918 32.4997C98.8946 33.0401 98.502 33.5465 98.1457 34.0485C97.8998 34.395 97.5548 34.6716 97.351 35.05C96.9558 35.7839 96.4387 36.5175 95.9482 37.1988C95.1165 38.354 94.3084 39.4901 93.5398 40.6857C92.7052 41.984 92.1285 43.3966 91.3829 44.7523C91.1001 45.2664 90.7098 45.6877 90.4747 46.2322C90.3146 46.6028 90.0416 47.1988 89.6719 47.3837" stroke="#2E3B60" stroke-width="8" stroke-linecap="round"/>
<path d="M80.2573 53.8084C79.431 52.9034 78.622 51.9356 77.8733 50.9662C77.3718 50.317 76.8469 49.631 76.4785 48.8944C76.4154 48.768 76.1002 48.0393 76.292 47.897C76.5466 47.7082 77.2749 48.1542 77.4192 48.2295C78.67 48.8814 79.9221 49.671 80.8087 50.7878C81.3712 51.4964 81.7928 52.3192 81.9764 53.2084C81.9896 53.2721 82.1911 54.1789 81.875 53.9138C81.2193 53.3639 80.6789 52.5109 80.1438 51.8623C79.079 50.5717 78.0225 49.2747 76.9651 47.9781C76.5974 47.5272 76.2231 47.0819 75.8542 46.632C75.7934 46.5579 75.6072 46.2266 75.4771 46.2266C75.1113 46.2266 74.4611 46.4163 74.127 46.5834" stroke="#2E3B60" stroke-width="8" stroke-linecap="round"/>
<path d="M54.3497 51.4684C54.1672 51.4684 53.9848 51.4684 53.8023 51.4684C53.7339 51.4684 53.1172 51.4684 53.3928 51.4684C54.8008 51.4684 56.2475 51.3666 57.65 51.5089C57.6877 51.5128 58.5016 51.6259 58.0798 51.6711C57.5624 51.7265 57.0193 51.6849 56.5026 51.6468C54.7652 51.5188 53.0956 51.2494 51.3575 51.2494C50.6947 51.2494 50.0504 51.3224 49.387 51.3224C49.0598 51.3224 48.9485 51.3399 49.2086 50.9616C49.6269 50.3531 50.0334 49.6692 50.5547 49.133C50.7775 48.9039 50.9394 48.688 51.0818 48.4032C51.1148 48.3371 51.3849 47.9002 51.4021 47.8964C51.7895 47.8103 52.2769 47.896 52.6711 47.8923C53.3334 47.8861 54.048 47.8019 54.6984 47.6734C55.5538 47.5044 56.4051 47.5274 57.273 47.5274C59.6988 47.5274 62.1644 47.3997 64.5832 47.5842C65.4153 47.6477 66.2424 47.6734 67.0767 47.6734C67.5796 47.6734 68.1321 47.5971 68.6174 47.7464C68.8276 47.8111 69.3598 47.9176 69.4566 48.1113" stroke="#2E3B60" stroke-width="8" stroke-linecap="round"/>
<path d="M50.6273 50.4451C50.6273 49.8099 50.6606 49.2636 50.4652 48.6774C50.4038 48.4932 50.3193 47.7368 50.1895 47.6719" stroke="#2E3B60" stroke-width="8" stroke-linecap="round"/>
<path d="M49.5332 51.9766C49.5332 52.8037 49.5332 53.6308 49.5332 54.4579C49.5332 54.7499 49.5375 54.9105 49.7359 55.1309C50.1448 55.5852 50.5479 56.1035 51.2118 55.7715" stroke="#2E3B60" stroke-width="8" stroke-linecap="round"/>
<path d="M54.1307 54.6059C55.1323 54.6059 56.0426 54.8245 57.0175 54.987C57.3494 55.0423 58.0441 55.131 57.3743 55.3722C56.6887 55.619 55.9447 55.6276 55.2254 55.6276C54.9341 55.6276 54.7204 55.6165 54.4551 55.7371C54.2572 55.827 53.4039 55.7874 53.9442 55.7736C56.9876 55.6955 59.9925 54.8452 62.9816 54.3545C63.6963 54.2372 65.8665 54.1025 65.1426 54.1275C64.4476 54.1514 63.7714 54.5047 63.1073 54.6708C62.2794 54.8777 61.407 54.9399 60.5651 55.0803C59.8404 55.2011 59.1411 55.5806 58.4365 55.6276C57.9901 55.6574 59.3212 55.4897 59.7664 55.4452C61.2173 55.3001 62.6596 55.2627 64.1169 55.2627C64.9964 55.2627 65.9458 55.3636 66.8131 55.2059C67.0766 55.158 68.7998 54.9299 68.7998 55.1167C68.7998 55.7272 67.2658 55.8465 66.8658 55.8465C66.2585 55.8465 65.6744 55.7006 65.0778 55.7006C64.5626 55.7006 64.046 55.5539 63.529 55.6438C62.7276 55.7832 61.914 55.8793 61.1003 55.9155C60.1861 55.9561 59.2628 55.9195 58.3473 55.9195C58.0481 55.9195 56.9309 55.9078 57.9257 55.8465C60.9046 55.6632 63.8312 54.9325 66.7563 54.3707C67.6116 54.2065 68.4617 53.9415 69.335 53.8842C69.9207 53.8458 70.4857 53.9144 71.0662 53.945C72.3478 54.0125 73.4951 53.8915 74.695 53.4382C75.3724 53.1823 74.6368 53.8888 74.4517 54.022C73.4867 54.7169 72.3972 54.8792 71.2446 55.0073C70.4956 55.0905 69.771 54.9824 69.1079 55.4087C68.6691 55.6908 68.9076 55.8426 69.3552 56.0249C70.0769 56.3189 70.8328 56.3715 71.573 56.1385C72.6059 55.8133 73.7026 55.7736 74.7842 55.7736C75.4662 55.7736 76.0645 55.7256 76.7263 55.6276C77.1565 55.5639 77.5609 55.4816 77.9953 55.4816" stroke="#2E3B60" stroke-width="8" stroke-linecap="round"/>
<path d="M85.8765 53.1502C85.5054 52.9756 85.6273 53.3678 85.6899 53.6286C86.0714 55.2162 86.7563 56.7355 87.5185 58.1737C87.7439 58.5988 87.9834 59.0242 88.2605 59.4184C88.2935 59.4653 88.3248 59.5654 88.3781 59.5441C88.5382 59.48 88.2499 59.2232 88.1713 59.0697C86.4596 55.7287 84.9206 52.3027 83.1681 48.9822C82.4928 47.7027 81.7382 46.4469 81.0922 45.1548C80.8453 44.6611 81.8096 45.996 82.1261 46.4481C83.8378 48.8935 85.1071 51.5182 86.2373 54.2773C86.9515 56.0209 87.4808 57.8346 88.2118 59.5725C88.2896 59.7574 88.5468 60.6982 88.7957 60.7604C88.9236 60.7924 88.5909 57.5677 88.5605 57.3993C88.2671 55.7713 87.8177 54.1286 87.3077 52.5542C87.1462 52.0557 87.0556 51.5035 87.0441 50.977C87.0417 50.8658 86.986 50.5256 87.0806 50.4499C87.1653 50.3822 87.1381 50.5114 87.2063 50.5797C87.4298 50.8031 88.5038 50.4549 88.5038 50.8513C88.5038 50.9774 88.4213 51.0913 88.3578 51.1959C88.0989 51.6223 88.1414 52.1953 88.1024 52.6718C87.9644 54.3546 88.3677 55.7056 89.3106 57.0952C89.8919 57.9519 90.4261 58.8252 90.9364 59.7265C91.4105 60.5638 91.1196 59.7145 91.0256 59.313C90.8274 58.4658 90.6932 57.5641 90.6932 56.6938C90.6932 56.1963 90.4662 55.7499 90.3972 55.2666C90.3901 55.2167 90.2652 54.9425 90.2553 55.1207C90.2294 55.587 90.2432 56.0704 90.2634 56.5357C90.3334 58.1451 90.8838 59.7552 91.354 61.2835C91.8901 63.0258 92.5772 64.7061 93.3772 66.3434C94.1327 67.8896 95.1005 69.3181 96.0167 70.7709C96.6659 71.8003 97.4362 72.8322 97.9588 73.9334C98.1506 74.3375 98.4047 74.8169 98.5021 75.2552C98.5683 75.5532 98.5694 75.4062 98.348 75.1822C95.0243 71.8189 91.5558 68.6494 88.6984 64.8595C86.9539 62.5458 85.6112 59.9389 83.7641 57.7115C83.4605 57.3454 82.2218 55.5189 81.5382 56.3978C81.3122 56.6884 80.9341 57.0703 80.9138 57.456C80.8807 58.0847 81.346 58.7671 81.6598 59.2805C82.1945 60.1555 82.7227 61.1026 83.1032 62.0538C84.179 64.7432 85.8577 67.213 87.701 69.4248C88.7626 70.6988 89.9558 71.8519 91.0581 73.0901C91.6724 73.7801 92.3025 74.4643 92.9556 75.1173" stroke="#2E3B60" stroke-width="8" stroke-linecap="round"/>
<path d="M100.546 89.7148C100.251 89.3906 100.006 89 99.7674 88.6363C98.8682 87.2669 97.9861 85.8871 97.0752 84.525C96.4817 83.6374 95.8799 82.7561 95.2913 81.8653C95.1594 81.6658 94.8631 81.0353 94.8858 81.2733C94.9833 82.2968 95.8214 83.424 96.3211 84.2655C97.3721 86.0354 98.5242 87.7388 99.6944 89.4309C100.255 90.241 101.911 92.6754 101.462 91.7988C101.088 91.0688 100.523 90.3943 100.059 89.7229C99.1473 88.4028 98.2583 87.0675 97.3672 85.7333C96.9206 85.0647 96.4659 84.4024 96.0373 83.7222C95.9814 83.6336 95.8071 83.3318 95.9076 83.633C96.1438 84.3418 96.5744 85.0124 96.8968 85.6846C97.2302 86.3796 97.5565 87.0796 97.8294 87.801C98.0884 88.4861 98.0235 89.1662 98.1781 89.8688C98.2758 90.3129 98.4122 90.7652 98.6038 91.1784C98.6819 91.3468 99.3939 92.8335 99.2849 92.0704C99.0065 90.1211 97.8132 88.372 96.7184 86.7955C96.2998 86.1927 95.9324 85.5578 95.4778 84.9791C95.3928 84.871 95.3796 84.8725 95.3561 84.7318C95.3213 84.523 95.2339 84.3215 95.1534 84.1277C94.7727 83.2109 94.3759 82.2997 93.9857 81.3869C93.3424 79.8818 92.5197 78.4996 91.7639 77.0567C91.1066 75.8018 90.511 74.4996 89.7772 73.286C89.5187 72.8585 89.2413 72.4546 89.0312 71.9967C88.8196 71.5359 88.4134 71.1628 88.2446 70.6871C87.6721 69.0736 87.909 67.6383 88.2446 66.0083C88.4146 65.1827 89.2348 64.4149 89.7042 63.7378C90.4156 62.7115 91.1972 61.8255 91.9869 60.8712C92.3312 60.4551 92.737 59.8021 92.737 59.2454C92.737 59.0413 92.591 59.2371 92.591 59.3427C92.591 61.0216 92.9667 62.5494 93.6289 64.0986C94.5059 66.1498 95.6426 68.0545 96.7347 69.9938C97.3451 71.0779 97.8735 72.1527 98.2105 73.3509C98.2592 73.524 98.3022 73.7023 98.3402 73.878C98.3688 74.0102 98.4521 74.3791 98.3565 74.2834C98.2052 74.1322 98.175 73.434 98.1375 73.2455C97.9218 72.161 97.6249 71.1085 97.2658 70.0627C96.6662 68.3169 95.8457 66.6894 95.3967 64.8933C95.2933 64.4796 95.2286 62.9361 94.7804 62.712" stroke="#2E3B60" stroke-width="8" stroke-linecap="round"/>
<path d="M95.3652 67.8906C96.312 69.8631 97.3003 71.8188 98.2155 73.8061C98.6385 74.7246 98.7093 75.7459 98.9737 76.7294C99.8702 80.0636 100.832 83.422 102.254 86.5777C102.757 87.6943 103.322 88.8378 104.196 89.7118C104.469 89.9851 104.747 90.0748 105.084 90.2754C106.066 90.8606 106.922 91.6945 107.756 92.4688C107.942 92.6415 107.81 92.1274 107.796 92.0715C107.566 91.1566 107.055 90.2428 106.673 89.3834C105.936 87.7246 105.014 86.1805 104.082 84.6275C103.67 83.94 103.42 83.2049 103.117 82.4705C102.918 81.9871 102.664 81.6077 102.404 81.1569C101.687 79.9141 101.254 78.5504 100.802 77.1956C100.573 76.5093 100.239 75.6953 99.8495 75.0833C99.6501 74.77 99.649 74.3893 99.4521 74.094" stroke="#2E3B60" stroke-width="8" stroke-linecap="round"/>
<path d="M112.441 92.9991C112.697 92.4039 113.062 91.8505 113.354 91.2719C113.733 90.518 114.093 89.7598 114.525 89.0339C114.667 88.7955 114.777 88.5828 114.858 88.3203C115.132 87.4306 115.923 86.559 116.431 85.8106C119.015 82.0037 121.338 78.0495 123.668 74.085C124.333 72.9541 125 71.8204 125.708 70.7158C125.84 70.5096 125.989 70.3286 126.162 70.1562" stroke="#2E3B60" stroke-width="8" stroke-linecap="round"/>
<path d="M108.5 88.6129C108.717 88.4612 108.872 88.2248 109.035 88.0209C110.226 86.5309 111.293 84.947 112.376 83.3786C113.304 82.0346 114.222 80.6855 114.991 79.243C115.505 78.28 115.876 77.2565 116.418 76.3116C117.243 74.8762 118.28 73.5272 119.374 72.2815C120.889 70.556 122.148 68.6478 123.388 66.7188" stroke="#2E3B60" stroke-width="8" stroke-linecap="round"/>
<path d="M117.039 95.5472C117.061 95.3067 117.19 95.0532 117.286 94.8417C117.918 93.455 118.651 92.1118 119.358 90.7629C120.171 89.2135 120.971 87.6419 121.913 86.1651C122.379 85.4342 122.95 84.7965 123.445 84.0892C123.992 83.3087 124.342 82.4382 124.751 81.5836C125.503 80.0097 126.214 78.3865 126.741 76.7223C127.159 75.4047 127.458 74.0494 127.885 72.7367C128.362 71.2684 128.98 69.6193 129.957 68.3984" stroke="#2E3B60" stroke-width="8" stroke-linecap="round"/>
<path d="M124.776 67.6727C124.999 66.9298 125.421 66.238 125.781 65.5563C126.711 63.7979 127.722 62.0858 128.664 60.3341C129.732 58.3484 130.731 56.2409 131.969 54.3497C133.297 52.3201 129.036 58.2144 127.565 60.1435C126.125 62.0339 124.535 63.899 123.32 65.9495C123.227 66.1076 122.801 66.6995 123.097 66.2293C123.783 65.1411 124.878 64.2889 125.664 63.2655C127.798 60.4875 129.483 57.5373 131.093 54.4389C131.54 53.5778 131.974 52.642 132.512 51.8359" stroke="#2E3B60" stroke-width="8" stroke-linecap="round"/>
<path d="M120.761 29.5724C121.41 30.3024 122.057 31.09 122.658 31.8673C123.642 33.1401 126.545 36.9912 125.5 35.7677C124.079 34.1026 122.712 32.3898 121.263 30.7482C120.322 29.6808 119.355 28.5911 118.219 27.7236C117.831 27.4282 117.506 27.4167 117.031 27.4722C116.256 27.5627 115.258 27.8315 114.833 28.5588C114.604 28.95 114.423 29.1984 114.817 29.4184C115.265 29.6688 115.702 30.2188 116.175 29.7995C116.594 29.4278 116.796 28.8997 116.982 28.3845C117.115 28.0137 117.322 27.5762 117.185 27.1803C117.036 26.7519 116.922 26.1183 117.152 25.7004C117.332 25.3729 117.615 25.1071 117.833 24.8044C117.908 24.7009 118.035 24.4248 118.17 24.3949C118.609 24.2973 119.208 24.5368 119.666 24.5368C119.958 24.5368 120.25 24.5368 120.542 24.5368C120.945 24.5368 121.384 25.2211 121.604 25.4936C121.889 25.8479 122.181 26.1974 122.476 26.5437C122.671 26.7725 122.804 27.0703 123.023 27.2735C123.271 27.5039 123.54 28.1314 123.445 27.383C123.282 26.098 122.471 25.2574 121.928 24.1719" stroke="#2E3B60" stroke-width="8" stroke-linecap="round"/>
<path d="M120.688 40.0118C120.792 40.1158 120.892 40.2466 121.012 40.3321C121.022 40.3395 120.749 39.876 120.688 39.7929C119.985 38.8386 119.356 37.7862 118.827 36.7277C118.324 35.7225 117.938 34.678 117.371 33.7031C117.192 33.3952 117.046 33.0751 116.836 32.7868C116.747 32.6652 116.674 32.5736 116.674 32.4219" stroke="#2E3B60" stroke-width="8" stroke-linecap="round"/>
<path d="M132.219 51.4681C132.187 51.1212 131.816 50.8081 131.607 50.564C130.699 49.505 129.699 48.5148 128.716 47.5272C127.123 45.9279 125.343 44.467 124.061 42.5969C123.888 42.3448 123.499 41.8622 123.461 41.5428C123.454 41.4799 123.403 41.4297 123.384 41.3644C123.365 41.2972 123.434 41.9259 123.486 42.0536C124.711 45.0786 126.699 47.6343 128.91 49.9801C129.363 50.46 129.846 50.9007 130.135 51.5046C130.236 51.7156 130.477 52.1661 130.686 52.2709" stroke="#2E3B60" stroke-width="8" stroke-linecap="round"/>
<path d="M132.293 45.7039C131.743 44.9935 131.265 44.106 130.845 43.3077C130.46 42.5756 130.286 41.7139 129.965 40.9521C129.22 39.1822 128.426 37.3961 127.452 35.738C127.222 35.3471 126.82 34.9473 126.665 34.5217C126.022 32.7523 124.557 31.192 124.557 29.2265C124.557 29.1387 124.557 28.8751 124.557 28.963C124.557 29.3707 124.756 29.7286 124.938 30.0861C125.516 31.2245 126.28 32.2371 127.034 33.2607C128.044 34.6319 129.121 35.965 130.29 37.2057C132.455 39.5047 134.555 41.9288 136.55 44.3781C137.373 45.3885 137.905 46.5893 138.715 47.6014" stroke="#2E3B60" stroke-width="8" stroke-linecap="round"/>
<path d="M127.913 34.246C127.86 33.5059 127.713 32.7541 127.548 32.0323C127.439 31.5524 127.365 30.9012 127.11 30.4672C126.994 30.2694 126.955 30.0715 126.818 29.8672" stroke="#2E3B60" stroke-width="8" stroke-linecap="round"/>
<path d="M141.999 44.168C142.042 43.1354 142.484 42.0992 142.834 41.1434C143.674 38.846 144.559 36.5626 145.526 34.3156C145.772 33.7458 146.005 33.1315 146.345 32.6087C147.446 30.9182 144.334 36.107 143.28 37.8268C142.424 39.2225 141.379 40.9092 140.478 42.3394C140.346 42.5503 140.271 42.8259 140.061 42.9598C139.96 43.0241 139.72 43.0654 139.607 43.0571C138.74 42.9934 138.332 40.9774 138.626 40.3406C139.094 39.3226 139.879 38.4148 140.503 37.4862C141.629 35.8111 142.593 34.047 143.621 32.3127C144.145 31.4278 144.783 30.5589 145.178 29.6043C145.447 28.9512 145.519 28.2394 145.79 27.5811C146.489 25.8822 147.309 24.1132 148.348 22.582C148.468 22.4058 148.584 22.1146 148.75 21.9819C149.043 21.7468 149.467 21.8124 149.865 21.8522C150.464 21.9121 151.013 22.0051 151.596 22.1279C151.758 22.1621 152.073 22.1999 152.159 22.3468C152.516 22.9532 153.261 23.3446 153.712 23.8794C154.12 24.3623 154.556 24.8029 154.916 25.3228C155.884 26.7206 153.922 28.1374 153.108 29.1178C152.303 30.0875 151.587 31.0932 150.87 32.1262C150.48 32.6885 150.182 33.3168 149.808 33.8777" stroke="#2E3B60" stroke-width="8" stroke-linecap="round"/>
<path d="M149.954 35.5625C149.798 35.7188 149.614 35.907 149.52 36.1099C149.212 36.7778 148.824 37.385 148.45 38.0195C147.266 40.024 145.838 41.9018 144.716 43.939C143.91 45.401 143.372 46.9761 142.729 48.5125C142.339 49.4434 141.836 50.2982 141.488 51.2533" stroke="#2E3B60" stroke-width="8" stroke-linecap="round"/>
<path d="M142.947 55.411C142.947 53.2731 143.3 51.2357 143.734 49.1509C143.83 48.6879 143.814 48.2016 143.912 47.7481C144.018 47.2603 144.116 46.8066 144.35 46.3615C144.505 46.0667 144.936 45.9182 145.21 45.7776C145.646 45.5531 145.575 45.729 145.575 46.1587C145.575 47.887 145.869 49.406 146.872 50.8538C148.234 52.8193 150.847 53.133 153.051 53.1487C155.133 53.1634 157.177 53.1045 159.222 53.5136" stroke="#2E3B60" stroke-width="8" stroke-linecap="round"/>
<path d="M168.783 51.9104C167.712 51.9104 166.65 51.5998 165.596 51.4401C164.079 51.2102 162.571 51.1077 161.039 51.1077C160.409 51.1077 159.818 51.0637 159.194 50.9536C157.608 50.6737 156.015 50.4997 154.414 50.3211C152.632 50.1223 150.867 50.0859 149.078 50.0859" stroke="#2E3B60" stroke-width="8" stroke-linecap="round"/>
<path d="M164.624 49.7169C164.369 49.4909 163.955 49.4979 163.638 49.4979C163.249 49.4979 162.889 49.3903 162.507 49.3479C161.739 49.2626 161.098 48.3951 160.358 49.202C160.199 49.3754 160.182 49.3538 160.423 49.2952C161.19 49.1087 161.99 49.1142 162.767 48.9871C163.592 48.852 164.392 48.8411 165.224 48.8411C165.46 48.8411 166.454 48.7025 166.594 48.8776C166.791 49.1235 167.198 49.3448 167.437 49.575C167.849 49.9698 168.197 50.5037 168.487 50.994C168.699 51.3507 168.848 51.6379 169.132 51.9225C169.394 52.1845 169.83 52.418 169.951 52.7821" stroke="#2E3B60" stroke-width="8" stroke-linecap="round"/>
<path d="M167.688 54.75C167.676 54.8419 167.128 55.0507 167.031 55.1149C166.796 55.2702 166.418 55.6987 166.119 55.6987C165.904 55.6987 165.863 55.6891 165.863 55.9177C165.863 56.1793 165.804 56.4538 166.009 56.6475C166.222 56.8487 166.713 56.5809 166.922 56.465C167.106 56.3624 167.396 56.7703 167.396 56.9394" stroke="#2E3B60" stroke-width="8" stroke-linecap="round"/>
<path d="M166.521 55.4821C167.12 55.4821 167.683 55.3258 168.269 55.2672C168.463 55.2479 168.817 55.4091 168.443 55.4091C167.203 55.4091 165.952 55.3594 164.713 55.4254C163.675 55.4806 162.661 55.7776 161.648 55.993C161.011 56.1283 160.372 56.0868 159.734 56.1754C159.229 56.2456 158.781 56.2947 158.27 56.2444C155.898 56.0105 153.417 55.917 151.041 56.139C150.544 56.1854 149.474 56.5243 149.006 56.2119" stroke="#2E3B60" stroke-width="8" stroke-linecap="round"/>
<path d="M141.926 55.9922C143.051 56.5547 144.332 56.8303 145.567 57.0463C146.304 57.1753 146.979 57.3788 147.732 57.3788C149.069 57.3788 150.399 57.3058 151.742 57.3058C152.824 57.3058 153.819 57.3895 154.884 57.5978C155.949 57.8062 157.073 57.8353 158.127 57.5613C159.557 57.1896 160.89 57.0139 162.36 57.0139" stroke="#2E3B60" stroke-width="8" stroke-linecap="round"/>
<path d="M164.404 57.4531C164.404 57.7912 164.43 58.1591 164.769 58.3289" stroke="#2E3B60" stroke-width="8" stroke-linecap="round"/>
<path d="M135.795 51.7611C135.939 51.6011 136.242 51.0312 136.468 51.0312C136.905 51.0312 137.243 51.8024 137.4 52.126C137.851 53.052 137.765 54.1873 137.765 55.1911" stroke="#2E3B60" stroke-width="8" stroke-linecap="round"/>
<path d="M137.765 53.875C137.75 54.0092 137.605 54.107 137.522 54.1994C136.843 54.9532 136.244 55.7948 135.641 56.6077C133.849 59.0202 132.166 61.5222 131.165 64.3761C130.277 66.9037 129.242 69.4007 128.618 72.0106C128.535 72.359 128.57 72.7293 128.57 73.0851C128.57 73.4848 128.716 73.8523 128.716 74.2366C128.716 74.4811 128.905 73.7855 129.008 73.5635C129.446 72.6145 130.035 71.6772 130.613 70.8065C132.292 68.2767 133.804 65.6807 135.284 63.0381C136.152 61.487 137.661 60.3069 138.641 58.8377" stroke="#2E3B60" stroke-width="8" stroke-linecap="round"/>
<path d="M140.904 59.3542C141.283 59.3542 141.634 59.2812 141.999 59.2812" stroke="#2E3B60" stroke-width="8" stroke-linecap="round"/>
<path d="M128.57 73.7249C128.369 73.7499 128.57 75.3321 128.57 75.6224C128.57 76.1424 128.71 75.7979 128.825 75.4764C129.174 74.5004 130.052 73.8008 130.613 72.9586C131.059 72.2896 131.415 71.6642 131.781 70.9516C132.083 70.3632 132.414 69.7208 132.819 69.2001C133.417 68.4312 134.16 67.7989 134.773 67.0472C135.101 66.644 135.393 66.3087 135.608 65.8349C135.806 65.3991 136 64.9691 136.196 64.5334C136.236 64.4443 136.433 63.7266 136.378 63.7266" stroke="#2E3B60" stroke-width="8" stroke-linecap="round"/>
<path d="M103.097 94.4405C103.346 97.4372 105.371 100.326 106.498 103.038C106.762 103.672 107.001 104.257 106.471 103.306C105.698 101.918 105.002 100.471 104.355 99.0205C103.743 97.6484 102.942 96.2727 102.481 94.8422C102.244 94.1074 102.152 93.9782 102.775 94.6012C105.327 97.153 108.006 99.7124 110.998 101.752C112.228 102.591 111.923 101.084 111.641 100.212C111.317 99.211 110.722 98.3108 110.489 97.2796C110.253 96.2332 111.456 97.6445 111.721 97.842C112.023 98.067 116.81 100.746 116.81 100.333C116.81 99.7212 115.789 98.9374 115.39 98.5384" stroke="#2E3B60" stroke-width="8" stroke-linecap="round"/>
<path d="M118.287 95.2578C119.037 95.2578 119.773 95.4883 120.508 95.6085C124.611 96.2797 128.813 96.2553 132.956 96.4461C133.928 96.4909 135.02 96.487 135.976 96.7043C136.311 96.7806 136.054 96.8819 135.849 96.9039C134.84 97.0126 133.736 96.5646 132.752 96.3974C131.795 96.235 130.808 96.0468 129.834 96.0468C129.633 96.0468 129.514 95.9591 129.776 95.9591C130.372 95.9591 130.973 96.1483 131.563 96.2221C134.117 96.5413 136.678 96.516 139.239 96.7043C140.913 96.8274 142.567 97.1211 144.235 97.2546C145.703 97.372 147.168 97.3617 148.638 97.3617C151.335 97.3617 154.016 97.6247 156.708 97.6247C157.007 97.6247 157.305 97.6247 157.604 97.6247C157.85 97.6247 157.172 97.6151 157.102 97.6052C156.544 97.5267 156.018 97.3233 155.456 97.2546C154.74 97.1671 154.03 97.1311 153.313 97.0549C152.008 96.916 150.712 96.9997 149.408 96.9039C147.882 96.7919 146.341 96.7481 144.81 96.7481C143.577 96.7481 142.423 96.1408 141.187 96.0273C139.758 95.8961 138.355 95.8715 136.92 95.8715C136.005 95.8715 135.089 95.8715 134.174 95.8715C133.985 95.8715 133.452 95.957 133.365 95.7838" stroke="#2E3B60" stroke-width="8" stroke-linecap="round"/>
<path d="M140.992 96.2205C143.52 96.2205 146.05 96.1328 148.58 96.1328C149.91 96.1328 151.203 96.1423 152.52 96.3471C153.762 96.5403 155.017 96.4785 156.27 96.4883C157.168 96.4954 159.856 96.4719 158.963 96.5711C158.849 96.5838 158.727 96.5711 158.613 96.5711" stroke="#2E3B60" stroke-width="8" stroke-linecap="round"/>
<path d="M119.776 100.43C122.725 100.43 125.66 100.887 128.601 101.053C130.37 101.153 132.143 101.159 133.909 101.306C134.268 101.336 135.188 101.286 135.502 101.53C135.693 101.679 135.141 101.699 135.122 101.701C133.683 101.848 132.158 101.651 130.724 101.53C127.418 101.252 124.17 101.043 120.853 101.043C120.51 101.043 119.75 100.942 119.62 101.394C119.511 101.776 119.338 102.268 119.338 102.66C119.338 103.114 120.608 102.972 120.872 102.972C121.921 102.972 123.013 102.892 124.052 103.04C127.829 103.58 131.645 103.963 135.448 104.336C140.002 104.781 144.546 104.74 149.114 104.725C151.607 104.717 154.145 104.565 156.629 104.331C157.196 104.277 157.78 104.199 158.348 104.199" stroke="#2E3B60" stroke-width="8" stroke-linecap="round"/>
<path d="M155.455 104.195C157.166 104.195 158.863 104.193 160.569 104.332C161.553 104.412 162.848 104.451 163.778 104.858C164.36 105.112 162.487 105.072 162.371 105.072C160.737 105.072 159.119 105.049 157.491 104.916C156.285 104.818 155.174 105.16 153.965 105.16" stroke="#2E3B60" stroke-width="8" stroke-linecap="round"/>
<path d="M165.449 96.1324C165.238 96.1061 165.565 95.5709 165.595 95.509C166.589 93.4197 167.73 91.3941 168.765 89.3239C169.005 88.844 169.629 87.3646 169.471 87.8774C169.066 89.1932 168.197 90.4591 167.601 91.6908C166.641 93.6754 165.63 95.6447 164.718 97.6519C164.384 98.3876 164.087 99.1333 163.7 99.8435C163.686 99.869 163.622 99.3807 163.325 99.3759C162.088 99.356 160.936 99.76 159.721 99.9409C159.01 100.047 158.796 99.8046 158.893 99.1227C159.06 97.9533 159.891 96.8441 160.447 95.8305C160.852 95.091 161.14 94.2921 161.552 93.5609C162.475 91.9259 163.334 90.2801 164.173 88.6031C165.293 86.3613 166.477 84.173 167.713 81.9943C168.123 81.271 168.364 80.46 168.77 79.7491C169.475 78.5152 170.302 77.3417 171.04 76.1257C171.472 75.4118 171.849 74.6494 172.325 73.9633C172.761 73.3358 173.172 72.6952 173.601 72.0639C173.981 71.5048 174.283 70.9153 174.653 70.3594" stroke="#2E3B60" stroke-width="8" stroke-linecap="round"/>
<path d="M178.512 69.7422C178.849 69.7796 179.482 70.2739 179.651 70.5701C179.726 70.7014 179.878 70.7284 180.002 70.7941C180.211 70.9049 180.341 71.134 180.528 71.2812C180.783 71.4818 181.02 71.9095 181.122 72.2162C181.204 72.4613 181.363 73.2281 181.58 73.3364" stroke="#2E3B60" stroke-width="8" stroke-linecap="round"/>
<path d="M181.579 75.0938C180.927 75.4559 180.147 76.3209 179.782 76.9785C179.038 78.3183 177.694 79.3704 176.714 80.5337C174.554 83.0958 172.732 85.8812 171.103 88.8131C170.296 90.2657 169.47 91.6096 168.527 92.9722C168.135 93.5383 167.047 95.289 167.475 94.7498C169.93 91.6582 172.618 88.8128 174.566 85.3504C175.144 84.3236 175.935 83.4535 176.665 82.5403C177.249 81.8107 177.727 80.9646 178.297 80.2318C179.472 78.72 175.803 83.1481 174.712 84.7221C173.427 86.5767 172.72 88.6474 171.741 90.6491C171.357 91.4362 171.028 92.1948 170.446 92.8699C169.761 93.6644 169.131 94.4188 168.605 95.3245C168.387 95.6998 168.175 96.0634 167.972 96.4446C167.468 97.3891 169.01 94.5716 169.569 93.6589C170.472 92.186 171.407 90.7531 172.18 89.2076C172.555 88.4561 172.885 87.6447 173.319 86.9283C173.85 86.0512 174.38 85.1369 175.112 84.4055C175.282 84.2351 175.457 84.0375 175.638 83.8796C176.024 83.5418 175.221 84.817 175.004 85.2822C174.457 86.4587 173.802 87.5664 173.183 88.6816C172.988 89.033 172.725 89.3835 172.55 89.7335" stroke="#2E3B60" stroke-width="8" stroke-linecap="round"/>
<path d="M173.602 95.9606C175.705 95.9606 177.809 95.9606 179.913 95.9606C180.411 95.9606 180.956 95.9142 181.443 96.0531C181.573 96.0904 181.53 96.1249 181.443 96.1408C180.926 96.2347 180.422 96.2236 179.894 96.2236C179.553 96.2236 175.803 96.1572 175.803 96.618C175.803 96.71 182.397 96.6549 182.967 96.6667C184.757 96.704 186.535 96.9249 188.329 96.9249C189.65 96.9249 190.972 96.9249 192.293 96.9249C193.179 96.9249 194.176 96.8167 195.035 97.0077C195.42 97.0931 196.247 97.4647 196.482 97.7577C196.751 98.0941 197.362 98.1898 197.602 98.6294C198.019 99.3946 198.235 99.8724 198.235 100.738C198.235 101.139 198.06 101.51 198.06 101.878C198.06 102.172 197.734 102.671 197.621 102.954C197.417 103.466 197.05 104.03 196.92 104.552" stroke="#2E3B60" stroke-width="8" stroke-linecap="round"/>
<path d="M196.394 97.536C196.394 97.0709 196.422 96.5976 196.394 96.1334C196.382 95.9244 196.217 96.1899 196.199 96.26C196.071 96.7743 195.988 97.3169 195.888 97.8379C195.546 99.6081 195.381 102.056 194.027 103.409" stroke="#2E3B60" stroke-width="8" stroke-linecap="round"/>
<path d="M193.589 104.81C193.527 105.301 187.001 104.546 186.059 104.415C185.662 104.36 185.266 104.371 184.866 104.371C183.498 104.371 182.15 104.234 180.785 104.162C178.26 104.028 175.725 104.225 173.202 104.089C172.397 104.045 171.602 104.021 170.796 104.021C169.942 104.021 169.088 103.758 168.254 103.758" stroke="#2E3B60" stroke-width="8" stroke-linecap="round"/>
<path d="M169.482 97.7109C169.691 97.7109 169.862 97.8153 170.047 97.9057C170.745 98.2465 171.452 98.5685 172.156 98.8944C173 99.285 173.858 99.6874 174.655 100.166" stroke="#2E3B60" stroke-width="8" stroke-linecap="round"/>
<path d="M162.469 107.175C163.812 111.012 165.487 114.75 167.514 118.269C167.642 118.492 168.157 119.112 168.157 119.394C168.157 119.612 167.891 119.049 167.777 118.864C167.32 118.121 166.882 117.368 166.462 116.604C165.901 115.583 165.167 114.507 164.923 113.351C164.749 112.524 164.748 111.697 164.748 110.857C164.748 109.543 164.65 108.155 165.556 107.087C165.919 106.661 166.387 106.508 166.935 106.479C167.979 106.424 168.618 107.448 169.112 108.247C170.189 109.988 170.828 111.939 171.849 113.696C172.233 114.359 172.718 114.974 173.032 115.674C173.111 115.85 173.4 116.349 173.339 116.165C172.999 115.146 172.55 114.162 172.219 113.136C171.818 111.896 171.235 110.519 171.235 109.191C171.235 109.156 171.446 109.693 171.508 109.81C171.806 110.372 172.172 110.9 172.458 111.471C172.672 111.9 172.747 112.382 172.901 112.834C173.012 113.162 173.229 113.442 173.383 113.75C173.747 114.478 174.221 115.125 174.586 115.854C174.695 116.073 175.372 117.576 175.248 116.672C175.135 115.847 174.814 114.952 174.566 114.154C174.466 113.83 174.216 112.861 174.216 113.2C174.216 113.914 174.972 114.862 175.326 115.435C176.244 116.923 177.29 118.327 178.195 119.823C178.91 121.005 179.458 122.369 180.284 123.481C180.67 124 181.192 124.713 181.312 125.37C181.493 126.368 181.325 127.157 180.985 128.107C180.778 128.687 180.459 129.577 179.914 129.899C179.708 130.021 179.071 130.143 178.818 130.143C178.389 130.143 177.988 130.103 177.561 130.06C177.367 130.041 176.782 129.843 176.602 129.987C176.39 130.157 176.125 130.029 175.949 129.86C175.735 129.654 175.39 129.41 175.268 129.135C174.96 128.442 174.322 127.795 173.777 127.25C172.989 126.462 172.813 125.52 172.813 124.396C172.813 123.456 172.765 122.52 172.594 121.596C172.544 121.327 172.522 120.179 172.287 120.062" stroke="#2E3B60" stroke-width="8" stroke-linecap="round"/>
<path d="M168.43 119.711C168.526 121.057 169.424 122.524 169.993 123.719C170.233 124.222 170.42 124.9 170.797 125.321C171.419 126.017 171.824 126.996 172.399 127.737C173.005 128.518 173.899 129.676 174.917 129.88" stroke="#2E3B60" stroke-width="8" stroke-linecap="round"/>
<path d="M176.408 130.672C177.46 130.672 178.512 130.672 179.564 130.672C179.878 130.672 180.412 130.674 180.528 131.023" stroke="#2E3B60" stroke-width="8" stroke-linecap="round"/>
<path d="M120.654 103.757C121.362 103.757 122.07 103.751 122.777 103.757C123.694 103.765 124.595 103.938 125.476 104.176C125.604 104.211 126.252 104.34 125.787 104.366C124.726 104.425 123.626 104.205 122.583 104.054C120.689 103.781 118.802 103.445 116.899 103.241C115.031 103.041 113.016 102.889 111.138 103.124C110.231 103.237 108.856 103.683 108.425 104.546C108.267 104.862 108.225 105.307 108.347 105.647C108.602 106.353 108.97 107.078 109.277 107.77C110.597 110.74 112.58 113.163 114.503 115.752C114.889 116.272 115.278 116.796 115.643 117.33C115.659 117.355 115.913 117.861 115.959 117.861C116.255 117.861 115.574 117.413 115.375 117.194C114.762 116.519 114.157 115.809 113.485 115.192C112.997 114.744 112.431 114.366 111.956 113.907C111.222 113.198 110.573 112.398 109.954 111.588C109.345 110.791 108.89 109.939 108.391 109.08C108.28 108.889 108.168 108.698 108.079 108.496C108.068 108.47 108.024 108.227 107.987 108.242C107.726 108.347 111.179 113.76 111.625 114.384C113.133 116.496 114.371 118.767 115.56 121.061C115.79 121.505 115.759 121.43 115.876 120.91C116.394 118.611 116.543 116.118 116.534 113.77C116.524 111.279 115.512 109.062 114.956 106.669C114.637 105.297 113.989 103.497 114.391 102.062C114.611 101.277 115.559 102.773 115.662 102.939C116.677 104.568 117.462 106.277 118.005 108.121C118.355 109.311 118.544 110.544 118.813 111.754C118.958 112.405 119.246 112.999 119.471 113.624C119.741 114.376 120.128 115.131 120.128 115.942" stroke="#2E3B60" stroke-width="8" stroke-linecap="round"/>
<path d="M115.48 120.414C115.48 120.777 115.723 121.241 115.846 121.573C116.592 123.587 117.765 125.509 118.724 127.427C120.268 130.515 121.914 133.545 123.458 136.632" stroke="#2E3B60" stroke-width="8" stroke-linecap="round"/>
<path d="M121.076 109.57C121.076 111.149 121.472 112.584 122.161 114.01C122.962 115.666 123.728 117.334 124.517 118.998C124.933 119.876 125.224 120.813 125.651 121.667C126.099 122.563 126.419 123.539 126.853 124.448C127.66 126.137 128.518 127.8 129.344 129.479C129.984 130.779 130.721 132.039 131.397 133.32C131.835 134.15 132.533 134.873 133.056 135.657C133.706 136.632 134.286 137.766 134.813 138.82C135.078 139.35 135.426 139.946 135.51 140.534C135.535 140.711 135.622 140.93 135.701 141.089C135.918 141.523 135.652 140.109 135.504 139.646C135.129 138.478 134.673 137.244 134.006 136.206C133.303 135.113 132.338 134.215 131.675 133.043C131.013 131.872 130.507 130.555 129.788 129.436C129.304 128.683 128.75 127.999 128.154 127.327C126.545 125.514 124.955 123.659 123.24 121.945C122.744 121.449 122.37 120.863 121.878 120.36C121.545 120.02 121.185 119.624 120.916 119.232C120.825 119.1 120.53 118.83 120.521 119.164C120.466 121.226 120.717 123.278 121.261 125.268C122.273 128.97 124.058 132.331 126.335 135.411C127.668 137.212 129.114 139.016 130.83 140.466C132.488 141.867 134.06 143.235 135.393 144.949C135.756 145.416 136.002 145.832 135.942 146.435C135.797 147.875 135.393 149.258 135.393 150.72C135.393 151.534 133.255 149.072 133.062 148.858C132.469 148.199 132.048 147.585 131.706 146.774C131.506 146.3 131.428 145.65 131.175 145.22C130.907 144.762 130.515 144.097 130.066 143.808C128.972 143.105 128.155 141.733 127.316 140.756C126.874 140.241 126.491 139.673 126.126 139.104C126.009 138.923 125.756 138.866 125.626 138.703C125.548 138.604 125.343 139.695 125.54 139.979C125.977 140.609 126.303 141.22 126.792 141.817C127.343 142.491 127.951 143.383 128.265 144.197C128.752 145.458 129.269 146.912 130.066 148.019C130.605 148.769 131.3 149.426 131.952 150.079" stroke="#2E3B60" stroke-width="8" stroke-linecap="round"/>
<path d="M118.746 174.715C119.79 172.627 120.953 170.566 122.205 168.598C124.24 165.401 126.582 162.304 128.401 158.98C128.974 157.935 129.426 156.827 130.011 155.792C130.481 154.96 131.091 154.2 131.62 153.406" stroke="#2E3B60" stroke-width="8" stroke-linecap="round"/>
<path d="M117.859 170.164C117.817 170.541 117.218 171.372 116.86 171.582C116.73 171.658 116.303 171.828 116.527 171.94" stroke="#2E3B60" stroke-width="8" stroke-linecap="round"/>
<path d="M116.639 171.941C116.866 171.548 117.226 171.252 117.52 170.911C118.551 169.719 119.638 168.463 120.461 167.113C120.767 166.611 120.954 166.088 121.189 165.56C121.334 165.233 121.608 165.009 121.805 164.721C122.663 163.474 123.716 162.33 124.623 161.114C125.711 159.656 126.599 157.927 127.392 156.293C127.755 155.544 128.081 154.586 128.6 153.937C128.818 153.665 128.731 153.184 128.736 152.852C128.743 152.312 128.787 151.698 128.958 151.188" stroke="#2E3B60" stroke-width="8" stroke-linecap="round"/>
<path d="M124.407 158.513C124.352 159.29 123.851 159.896 123.748 160.621C123.707 160.909 123.156 161.571 123.322 161.09C123.527 160.499 124.167 160.001 124.58 159.567C125.731 158.357 127.116 157.067 127.891 155.578C127.955 155.455 128.518 154.531 128.292 154.517C128.117 154.507 127.738 154.543 127.626 154.684C127.364 155.011 126.94 155.446 126.738 155.849" stroke="#2E3B60" stroke-width="8" stroke-linecap="round"/>
<path d="M120.856 174.828C120.84 175.303 119.838 177.805 119.746 177.714" stroke="#2E3B60" stroke-width="8" stroke-linecap="round"/>
<path d="M122.631 176.268C122.802 176.249 122.959 176.058 123.124 176.058C123.26 176.058 123.142 176.499 123.21 176.576C123.271 176.644 123.313 176.486 123.321 176.465C123.497 176.04 123.806 175.671 124.086 175.312C124.898 174.271 125.702 173.191 126.392 172.063C127.328 170.531 128.031 168.885 128.951 167.334C130.16 165.293 131.224 163.088 132.2 160.928C132.755 159.7 133.446 158.526 134.025 157.309C135.071 155.11 136.185 152.854 137.391 150.742" stroke="#2E3B60" stroke-width="8" stroke-linecap="round"/>
<path d="M124.74 158.623C124.74 156.25 126.002 154.005 127.12 151.971C127.382 151.494 127.479 150.953 127.959 150.633" stroke="#2E3B60" stroke-width="8" stroke-linecap="round"/>
<path d="M135.615 155.625C136.918 158.111 138.866 160.191 140.227 162.641C141.145 164.293 141.987 165.977 142.94 167.611" stroke="#2E3B60" stroke-width="8" stroke-linecap="round"/>
<path d="M138.945 152.188C138.945 152.941 139.293 153.539 139.685 154.173C141.315 156.804 143.277 159.306 145.092 161.812C147.07 164.543 149.084 167.36 150.598 170.388" stroke="#2E3B60" stroke-width="8" stroke-linecap="round"/>
<path d="M145.16 154.852C145.307 155.981 146.006 157.156 146.467 158.181C147.035 159.444 147.722 160.547 148.465 161.708C149.225 162.895 149.928 164.099 150.82 165.198C151.66 166.231 152.32 167.423 152.904 168.613C153.227 169.271 153.527 169.974 153.928 170.586C154.514 171.483 155.481 173.1 155.481 174.162" stroke="#2E3B60" stroke-width="8" stroke-linecap="round"/>
<path d="M156.369 173.714C156.442 173.706 156.767 173.496 156.788 173.517C156.897 173.626 156.525 173.714 156.48 173.714" stroke="#2E3B60" stroke-width="8" stroke-linecap="round"/>
<path d="M154.704 175.378C154.388 175.733 153.984 175.999 153.656 176.327C153.294 176.689 153.931 176.488 153.569 176.488C152.821 176.488 152.141 176.736 151.436 176.938C151.171 177.013 151.148 177.394 150.819 177.376C150.591 177.363 150.528 176.973 150.375 176.821C150.104 176.549 149.785 176.291 149.549 175.988C149.266 175.624 149.107 175.022 148.933 174.576C148.681 173.934 148.393 173.392 147.995 172.881C147.771 172.592 147.539 172.257 147.379 171.938" stroke="#2E3B60" stroke-width="8" stroke-linecap="round"/>
<path d="M145.16 167.945C145.16 168.744 146.02 169.644 146.492 170.251C146.848 170.709 147.134 171.14 147.546 171.552C148.657 172.663 150.309 173.277 151.597 174.105C152.392 174.616 152.659 175.142 153.126 175.936C153.36 176.333 153.49 177.049 153.928 177.268" stroke="#2E3B60" stroke-width="8" stroke-linecap="round"/>
<path d="M136.504 141.199C136.544 140.88 139.78 141.088 140.055 141.088C142.252 141.088 144.449 141.088 146.646 141.088C147.793 141.088 148.949 141.128 150.093 141.063C152.696 140.916 155.286 140.422 157.899 140.422C159.012 140.422 160.078 140.714 161.191 140.749C162.191 140.779 163.194 140.755 164.194 140.755C164.783 140.755 165.482 140.917 165.976 141.199C166.972 141.768 167.573 143.178 168.183 144.109C168.446 144.511 168.72 144.875 168.935 145.305C169.233 145.901 168.993 146.555 168.627 147.025C168.166 147.618 167.621 148.19 167.27 148.856C166.825 149.703 166.222 149.633 165.285 149.633C161.023 149.633 156.76 149.633 152.498 149.633C150.271 149.633 147.915 149.843 145.709 150.133C143.339 150.445 141.271 150.292 139.174 149.078C138.436 148.652 137.639 148.004 137.614 147.081C137.587 146.08 138.78 145.944 139.587 145.798C141.289 145.492 143.1 145.638 144.821 145.638C146.751 145.638 148.705 145.372 150.592 144.972C153.287 144.401 156.08 143.967 158.811 143.616C159.731 143.497 160.657 143.307 161.586 143.307C161.956 143.307 163.065 143.307 162.696 143.307" stroke="#2E3B60" stroke-width="8" stroke-linecap="round"/>
<path d="M162.807 143.531C163.199 143.852 163.729 144.001 164.138 144.308" stroke="#2E3B60" stroke-width="8" stroke-linecap="round"/>
<path d="M167.578 141.863C167.578 141.219 167.8 140.584 167.8 139.977" stroke="#2E3B60" stroke-width="8" stroke-linecap="round"/>
<path d="M78.9473 137.155C79.0085 136.543 79.4892 135.893 79.7668 135.372C80.9013 133.245 82.0978 131.165 83.4136 129.144C86.4003 124.557 89.6771 120.144 92.9608 115.766" stroke="#2E3B60" stroke-width="8" stroke-linecap="round"/>
<path d="M72.6777 138.633C72.6777 137.739 73.4662 136.79 73.8865 136.051C75.2374 133.677 77.0883 131.582 78.6601 129.352C80.0256 127.415 81.495 125.586 83.0137 123.769C85.0063 121.385 86.665 118.769 88.6069 116.353C89.4972 115.245 90.5195 114.162 91.1166 112.859C91.4272 112.182 91.9586 111.667 92.4381 111.108C93.5369 109.826 94.4937 108.426 95.5419 107.102C98.4001 103.494 101.289 99.8652 103.839 96.0391" stroke="#2E3B60" stroke-width="8" stroke-linecap="round"/>
<path d="M78.0254 144.903C79.54 141.705 81.0191 138.701 83.3727 136.011C84.4254 134.808 85.5268 133.503 86.4253 132.18C86.7302 131.731 86.9514 131.183 87.337 130.797C89.5051 128.629 91.0658 125.491 92.6945 122.94C96.8129 116.49 100.897 109.953 105.684 103.969" stroke="#2E3B60" stroke-width="8" stroke-linecap="round"/>
<path d="M81.7129 142.876C81.8752 141.252 83.744 140.084 83.9256 138.45C84.0253 137.553 85.2716 136.316 85.7694 135.541C87.1652 133.37 88.6663 131.347 90.0104 129.139C92.3341 125.321 94.6251 121.471 97.0274 117.717C98.0518 116.116 98.856 114.21 100.06 112.738C100.52 112.176 101.109 111.211 101.811 110.977" stroke="#2E3B60" stroke-width="8" stroke-linecap="round"/>
<path d="M94.0684 124.991C94.0684 124.138 95.3471 122.592 95.7483 121.826C96.6231 120.156 97.6933 118.738 98.8215 117.247C99.4912 116.362 100.351 115.58 100.973 114.676C101.322 114.168 101.904 113.929 102.181 113.375" stroke="#2E3B60" stroke-width="8" stroke-linecap="round"/>
<path d="M79.685 137.344C79.6414 137.78 79.3167 138.197 79.1011 138.553C77.793 140.712 76.4455 142.85 75.0343 144.945C73.1636 147.721 71.3917 150.555 69.5436 153.345C68.553 154.84 67.8994 156.528 67.0646 158.118C65.6679 160.779 64.17 163.454 62.4549 165.924C61.4128 167.425 60.4632 168.985 59.771 170.677C59.4942 171.354 58.9417 173.225 58.3881 173.668C57.9749 173.999 57.9738 174.885 57.6506 175.143C57.1987 175.505 56.5792 174.87 56.1242 174.365C55.8464 174.056 55.8407 173.014 56.1755 172.746C56.8838 172.18 55.5809 172.629 55.3457 172.746" stroke="#2E3B60" stroke-width="8" stroke-linecap="round"/>
<path d="M55.1621 172.743C56.6656 170.037 58.9164 167.581 60.8782 165.183C61.9633 163.857 62.072 162.083 62.7938 160.553C64.3863 157.176 67.0114 154.168 69.1142 151.108C71.0231 148.33 72.8763 145.517 74.7073 142.688" stroke="#2E3B60" stroke-width="8" stroke-linecap="round"/>
<path d="M60.009 165.104C60.2955 163.671 60.8677 162.327 61.2294 160.915C61.2941 160.663 61.4871 159.966 61.0699 160.361C60.847 160.572 60.5687 160.768 60.4459 161.061C60.3714 161.239 60.4104 161.41 60.3557 161.588C60.1385 162.297 59.5973 163.003 59.1839 163.606C58.7339 164.262 58.2662 164.948 57.7416 165.547C57.5167 165.804 57.2675 166.083 57.0759 166.366C56.9963 166.483 56.9825 166.632 56.8887 166.726" stroke="#2E3B60" stroke-width="8" stroke-linecap="round"/>
<path d="M61.3808 174.095C61.4048 173.963 61.4913 173.84 61.5369 173.714C61.5912 173.563 61.6929 173.1 61.6929 173.26C61.6929 173.513 61.6929 173.766 61.6929 174.019C61.6929 174.365 61.5454 174.492 61.3184 174.719C61.1632 174.875 60.3477 175.15 60.3477 175.392C60.3477 175.419 61.0484 175.406 61.1312 175.406" stroke="#2E3B60" stroke-width="8" stroke-linecap="round"/>
<path d="M62.4434 172.718C62.5088 172.391 62.9352 172.02 63.116 171.754C63.5406 171.13 63.8972 170.459 64.274 169.806C64.4668 169.471 64.5752 169.091 64.7594 168.738C65.7047 166.925 66.6638 165.113 67.5642 163.277C68.4941 161.381 69.7004 159.618 70.7782 157.796C71.0849 157.277 71.7057 156.76 72.2413 156.492" stroke="#2E3B60" stroke-width="8" stroke-linecap="round"/>
<path d="M66.748 163.798C67.3788 163.104 68.0605 162.456 68.7692 161.839C68.9461 161.685 69.1599 161.54 69.2754 161.332C69.5349 160.865 69.8429 160.362 70.1803 159.928C70.5139 159.499 70.3751 159.658 70.1179 160.039C69.4112 161.086 68.5856 162.021 67.9337 163.111C67.6054 163.66 67.3438 164.373 66.9352 164.858C66.8409 164.97 66.8131 165.107 66.6855 165.17" stroke="#2E3B60" stroke-width="8" stroke-linecap="round"/>
<path d="M76.2339 152.25C76.269 152.741 76.4576 153.245 76.6291 153.699C77.2404 155.318 78.0655 156.882 78.9035 158.394C78.9704 158.514 80.9722 161.734 80.9352 161.76C80.7618 161.884 79.9006 161.079 79.8049 161.004C78.9887 160.365 78.1677 159.735 77.3745 159.066C76.8022 158.584 76.3294 157.998 75.7832 157.506C75.7409 157.468 75.6517 157.511 75.7485 157.541C76.0548 157.635 76.35 157.646 76.6638 157.776C78.6155 158.591 79.933 160.138 80.9421 161.954C81.8053 163.508 82.3425 165.175 82.9114 166.85C83.2755 167.922 83.7723 168.953 84.0972 170.036" stroke="#2E3B60" stroke-width="8" stroke-linecap="round"/>
<path d="M85.4082 170.537C85.6172 170.558 85.8307 170.723 86.008 170.821C86.3993 171.039 86.8098 171.217 87.2145 171.407C87.5453 171.563 87.9387 171.627 87.9704 172.038C88.0131 172.594 88.1738 173.312 87.9357 173.841C87.8665 173.995 87.6849 174.486 87.4988 174.528C86.9756 174.644 87.0308 173.825 87.0308 173.519C87.0308 173.492 87.0116 173.242 87.0585 173.248C87.2046 173.269 87.3867 173.466 87.4954 173.546C87.7715 173.752 88.0525 173.95 88.3275 174.157C88.6883 174.428 89.0949 174.753 89.5271 174.906C89.6742 174.957 89.8241 174.954 89.9639 175.016C90.0631 175.061 90.2193 175.024 90.3141 174.992C90.7102 174.86 91.1274 174.665 91.4998 174.479C91.7302 174.364 91.9181 174.21 92.1204 174.094C92.4024 173.933 92.6884 173.431 92.8346 173.155C93.1165 172.622 93.3322 172.139 93.4934 171.563C93.6576 170.977 93.6746 169.164 94.5196 169.164" stroke="#2E3B60" stroke-width="8" stroke-linecap="round"/>
<path d="M91.5859 169.789C92.7719 169.789 96.329 169.851 95.1431 169.851" stroke="#2E3B60" stroke-width="8" stroke-linecap="round"/>
<path d="M92.523 168.662C92.4227 168.421 92.0782 168.191 91.9093 168.007C90.94 166.949 89.9979 165.859 89.0871 164.751C88.3522 163.857 87.7179 162.858 86.9688 161.984" stroke="#2E3B60" stroke-width="8" stroke-linecap="round"/>
<path d="M79.9162 147.946C79.7369 147.997 80.3817 149.384 80.4085 149.444C81.5579 152.012 82.703 154.573 84.0004 157.071C84.8684 158.743 85.7468 160.486 86.8295 162.036C87.0168 162.304 87.1585 162.535 86.9751 162.002C86.6937 161.183 86.3079 160.395 85.9489 159.609C85.299 158.187 84.6577 156.758 83.9727 155.352C83.156 153.675 81.931 152.006 81.9132 150.068C81.9055 149.224 81.8508 148.377 81.8508 147.537C81.8508 147.248 81.8658 147.794 81.8786 147.849C82.0507 148.595 82.6296 149.349 83.0227 149.992C83.7029 151.104 84.3766 152.299 85.2208 153.299C85.6947 153.861 85.9835 154.476 86.3441 155.109C87.2054 156.622 87.7902 158.214 88.4521 159.817C88.6559 160.311 88.8423 160.76 89.2634 161.114C89.6456 161.435 89.9851 161.856 90.2133 162.3C90.54 162.935 91.0732 163.436 91.4129 164.047C91.7354 164.628 92.1043 165.208 92.3976 165.795" stroke="#2E3B60" stroke-width="8" stroke-linecap="round"/>
<path d="M40.4688 144.367C45.7632 144.367 51.0195 144.375 56.2825 145.035C58.8635 145.359 61.474 145.765 64.0809 145.795C64.905 145.804 65.7307 145.72 66.5564 145.72C66.9614 145.72 70.2606 145.477 70.226 145.962C70.2087 146.204 70.0142 146.456 69.892 146.655C69.4809 147.325 68.9183 147.881 68.41 148.475C67.7731 149.22 67.175 149.985 66.736 150.863C66.2178 151.899 65.9428 153.005 65.9428 154.157C65.9428 154.673 65.6497 155.044 65.2289 155.372C64.9437 155.594 65.2229 154.977 65.2832 154.871C65.6034 154.304 65.8515 153.721 66.0221 153.092C66.2926 152.095 66.3375 151.104 66.3185 150.078C66.3122 149.74 66.0835 149.731 65.7925 149.698C65.223 149.635 64.6409 149.277 64.1393 149.026C63.617 148.765 63.0839 148.536 62.5613 148.275" stroke="#2E3B60" stroke-width="8" stroke-linecap="round"/>
<path d="M45.803 146.925C45.9705 146.925 46.0529 146.999 46.1203 147.15C46.2445 147.43 45.5749 147.242 45.4691 147.225C45.2858 147.196 45.1134 147.011 44.9598 147.134C44.8357 147.233 44.4049 147.144 44.2626 147.154C44.1445 147.163 42.7305 147.162 42.7305 147.338C42.7305 147.392 46.5366 146.987 46.8217 146.967C49.4497 146.777 52.095 146.85 54.7286 146.85C55.5561 146.85 56.0025 147.441 56.7742 147.584C57.1523 147.654 57.5995 147.827 57.9765 147.827" stroke="#2E3B60" stroke-width="8" stroke-linecap="round"/>
<path d="M49.0352 149.102C50.2582 149.102 51.625 149.273 52.8341 149.065C53.2024 149.001 53.6237 148.877 53.9947 148.877C54.3585 148.877 54.6828 148.727 55.0467 148.727" stroke="#2E3B60" stroke-width="8" stroke-linecap="round"/>
<path d="M70 140.76C67.4549 140.76 64.916 140.61 62.3687 140.61C61.5856 140.61 60.8983 140.767 60.131 140.685C55.8051 140.223 51.5028 140.234 47.1644 140.234C46.1096 140.234 45.0548 140.234 44 140.234" stroke="#2E3B60" stroke-width="8" stroke-linecap="round"/>
<path d="M43.9238 140.234C43.9505 140.448 44.6331 140.797 44.8089 140.911C44.9923 141.029 45.1977 141.133 45.3516 141.286" stroke="#2E3B60" stroke-width="8" stroke-linecap="round"/>
<path d="M56.6159 95.3004C62.0237 95.3004 67.2905 96.5594 72.4708 98.0184C75.5583 98.888 78.6999 99.9104 81.8893 100.359C86.6527 101.029 91.4758 101.449 96.2531 102.095C96.7263 102.159 98.0648 102.634 98.4992 102.265C98.6878 102.105 98.3277 101.618 98.2727 101.454C98.1245 101.009 97.9894 100.755 97.7254 100.359C96.9526 99.1997 96.1637 97.9856 95.1773 96.9991C94.6457 96.4676 94.5219 95.8984 94.4978 95.1494C94.4911 94.9436 94.6285 94.1664 94.46 93.9792C94.3222 93.826 93.4939 93.9414 93.3087 93.9414C90.5432 93.9414 87.9535 94.4643 85.1736 93.9037C82.5697 93.3785 80.043 93.4318 77.3971 93.4318C74.6823 93.4318 71.883 93.2513 69.1865 93.5639C65.7522 93.9621 62.0784 93.6017 58.6166 93.6017C58.008 93.6017 53.4635 93.9454 55.1248 92.4503C55.5011 92.1116 57.2691 92.4468 57.6351 92.6202C58.4584 93.0102 59.2701 93.2619 60.1832 93.2619C61.8727 93.2619 63.4076 93.0926 65.0718 92.79C66.0301 92.6158 67.425 92.6181 68.3372 92.9222" stroke="#2E3B60" stroke-width="8" stroke-linecap="round"/>
<path d="M56.9551 96.8281C56.9551 97.4985 56.9395 99.2273 57.5591 99.6216C58.1884 100.022 59.7941 99.7818 60.5225 99.8859C61.7376 100.059 62.9747 100.091 64.1842 100.263C67.4291 100.727 70.6552 101.559 73.8104 102.396C75.0834 102.734 76.3933 102.706 77.6797 102.944C79.0901 103.204 80.4942 103.517 81.9266 103.623C83.7064 103.755 85.4636 103.793 87.2493 103.793C88.5155 103.793 90.0207 103.568 91.2697 103.831C92.4785 104.085 93.8565 104.089 95.0069 104.472" stroke="#2E3B60" stroke-width="8" stroke-linecap="round"/>
<path d="M46.4238 100.734C49.4501 100.734 52.4764 100.734 55.5026 100.734C56.0484 100.734 56.3206 100.869 56.8239 101.036C58.2524 101.513 59.8011 101.414 61.2878 101.414C62.7301 101.414 64.0994 101.923 65.5347 101.923C66.6083 101.923 67.7388 102.093 68.8472 102.093" stroke="#2E3B60" stroke-width="8" stroke-linecap="round"/>
<path d="M36.0742 70.5601C35.8558 70.5874 36.2372 71.3518 36.2598 71.4085C36.8789 72.9561 37.6226 74.4521 38.3675 75.9419C38.6619 76.5308 39.0063 77.0958 39.2998 77.6828C39.4852 78.0537 38.6502 77.036 38.6282 77.0112C37.6739 75.9342 36.7353 74.8622 35.8533 73.7238C35.276 72.9786 34.5835 72.2055 34.214 71.3245C34.0802 71.0055 34.0485 70.6955 33.9445 70.3833C33.6872 69.6115 33.5745 68.8021 33.3082 68.0327C33.0403 67.2587 33.0305 68.2849 32.8752 68.6071C32.2655 69.8717 31.7392 71.1885 31.3464 72.5352C31.27 72.7971 31.2227 72.9928 31.2227 73.2642C31.2227 73.642 31.3986 73.803 31.6247 74.1082C32.3858 75.1356 33.1844 76.1376 33.9268 77.1791C35.7915 79.7948 37.443 82.5224 39.4589 85.0353C40.376 86.1785 41.3624 87.3171 42.163 88.5436C43.2684 90.2369 44.2367 92.0547 45.1411 93.8636" stroke="#2E3B60" stroke-width="8" stroke-linecap="round"/>
<path d="M37.3481 66.9794C37.3481 66.8992 37.3983 67.0282 37.4674 67.0589C37.5987 67.1173 37.7337 67.1596 37.865 67.218C38.0136 67.284 38.2667 67.3487 38.3643 67.4743C38.7585 67.981 37.1947 66.8203 36.5527 66.8203" stroke="#2E3B60" stroke-width="8" stroke-linecap="round"/>
<path d="M36.4727 66.8984C36.5656 66.9217 36.7158 67.6163 36.7599 67.7159C37.3865 69.1326 37.8459 70.638 38.3417 72.1035C39.6274 75.9035 41.2479 79.5793 42.9591 83.2029C43.9867 85.379 45.1893 87.4771 46.2112 89.654C46.6926 90.6797 47.26 91.8554 47.4484 92.9856" stroke="#2E3B60" stroke-width="8" stroke-linecap="round"/>
<path d="M53.573 97.277C53.2435 96.9841 52.7797 96.7793 52.4197 96.517C51.8205 96.0803 51.2167 95.6079 50.7186 95.0544C50.0649 94.3281 50.6713 92.9676 50.7053 92.1161C50.7587 90.7813 50.2126 89.6353 49.3754 88.6078C49.0415 88.198 48.6849 87.8012 48.4475 87.3441C47.6968 85.8991 46.7765 84.5224 45.9421 83.1243C45.4755 82.3424 44.9928 81.5663 44.568 80.7604C44.4063 80.4537 44.2568 79.8672 43.9891 79.6293C43.6915 79.3647 43.5297 78.8362 43.3043 78.4981C42.7351 77.6444 42.162 76.7985 41.6871 75.8867C41.3569 75.2529 41.0845 74.5365 40.6796 73.947C40.4266 73.5786 40.1922 73.2704 40.0699 72.8423C40.0207 72.6703 40.0491 72.5358 39.9727 72.3828" stroke="#2E3B60" stroke-width="8" stroke-linecap="round"/>
<path d="M41.8815 97.9935C38.9888 97.9935 36.0961 97.9935 33.2034 97.9935C33.056 97.9935 33.5003 98.0027 33.6453 97.9758C34.593 97.8003 35.6114 97.1982 36.4334 96.7209C37.3861 96.1678 38.1512 95.6399 38.3201 94.4763C38.3771 94.0838 38.3581 93.6868 38.4438 93.301C38.4576 93.2392 38.532 92.9036 38.4615 93.027C38.2833 93.339 37.9124 93.5741 37.6087 93.7428C36.5477 94.3323 35.2912 94.7197 34.1048 94.9535C33.0965 95.1522 32.0082 95.0507 30.9809 95.0507C28.8656 95.0507 26.7544 95.1962 24.6403 95.2717C22.8882 95.3342 21.1607 95.1303 19.4131 95.1303C18.4719 95.1303 17.5308 95.1303 16.5896 95.1303C16.4571 95.1303 16.3245 95.1303 16.192 95.1303C16.1056 95.1303 15.672 94.9436 15.8385 94.8961C16.0386 94.8389 16.3074 94.8824 16.5145 94.8519C17.4203 94.7187 18.3153 94.6162 19.2143 94.4321C22.5892 93.7412 26.1305 93.9373 29.5537 93.9373C33.6643 93.9373 37.7816 93.6191 41.8815 93.6191" stroke="#2E3B60" stroke-width="8" stroke-linecap="round"/>
<path d="M33.6092 98.5539C31.9004 98.5539 30.1849 98.8736 28.4792 98.9825C27.4216 99.05 26.3615 99.0311 25.3023 99.0311C24.7072 99.0311 24.0182 99.152 23.4288 99.2521C21.2685 99.6189 18.9973 99.694 16.9114 98.9118C16.1919 98.642 15.6902 98.1562 14.8877 98.1562C14.646 98.1562 15.3507 98.299 15.5726 98.3949C16.0067 98.5823 16.2827 98.8486 16.6065 99.1725C16.9083 99.4743 17.2513 100.118 17.6228 100.304" stroke="#2E3B60" stroke-width="8" stroke-linecap="round"/>
<path d="M16.668 100.141C16.488 100.163 16.5885 101.015 16.5885 101.175C16.5885 101.547 16.6401 101.486 16.9464 101.418C17.7902 101.23 18.677 101.223 19.5357 101.135C20.3901 101.047 21.2464 101.012 22.1029 100.954C22.4317 100.931 22.8151 101.004 23.1103 100.856" stroke="#2E3B60" stroke-width="8" stroke-linecap="round"/>
<path d="M23.1113 100.776C26.1152 100.776 29.0922 100.617 32.0898 100.617C34.6492 100.617 37.1596 100.834 39.6809 101.289C40.6458 101.463 41.6198 101.413 42.5972 101.413" stroke="#2E3B60" stroke-width="8" stroke-linecap="round"/>
<path d="M33.6882 100.859C33.7194 101.14 34.0814 101.56 34.245 101.796C34.3227 101.908 34.4444 101.973 34.2405 101.973C33.9901 101.973 33.7398 101.973 33.4894 101.973C32.8575 101.973 31.7878 102.176 31.2227 101.893" stroke="#2E3B60" stroke-width="8" stroke-linecap="round"/>
<path d="M48.1637 102.367C48.0688 103.126 47.6023 103.901 47.3153 104.594C46.1777 107.341 45.0173 110.081 43.9307 112.848C43.3429 114.345 42.8419 115.859 42.3577 117.39C42.2222 117.819 42.1268 118.329 41.9247 118.734C41.2289 120.125 42.6974 115.719 43.1221 114.222C43.4735 112.984 43.6371 111.725 43.9307 110.48C44.2601 109.083 45.0828 106.776 43.7098 105.708C43.3996 105.466 43.0745 105.497 42.8349 105.805C42.3205 106.466 41.919 107.372 41.5668 108.129C41.3426 108.611 41.0224 109.05 40.8068 109.53C40.6253 109.933 40.454 110.372 40.1484 110.701C39.59 111.302 39.181 112.178 38.8538 112.914C38.0316 114.764 37.0033 116.472 36.0922 118.274C35.7969 118.858 35.4267 119.42 35.1643 120.019C35.0629 120.251 34.9587 120.544 34.802 120.74C34.5945 120.999 34.4755 121.414 34.3071 121.712C34.0965 122.084 33.8801 122.447 33.6487 122.807C33.3863 123.216 33.0388 123.55 32.8136 124C32.6302 124.367 32.5316 124.832 32.1376 124.438C31.8898 124.19 31.6191 123.89 31.9785 123.603C32.0751 123.526 32.0415 123.057 32.0625 122.949C32.2211 122.133 32.4219 121.329 32.796 120.58C33.0378 120.097 33.4218 119.701 33.768 119.29C34.4374 118.497 35.0566 117.654 35.7122 116.847C37.2091 115.004 38.3458 112.779 38.9201 110.462C39.3023 108.92 39.7247 107.483 40.5284 106.105" stroke="#2E3B60" stroke-width="8" stroke-linecap="round"/>
<path d="M46.2552 108.492C46.3001 108.043 46.8157 107.578 47.0682 107.246C47.7259 106.383 48.3612 105.504 49.0831 104.692C50.1049 103.543 51.5532 102.57 52.9802 102.006C53.4622 101.815 54.3413 101.649 54.8449 101.873C55.3251 102.087 54.4806 102.434 54.2704 102.527C52.9103 103.132 51.5402 103.855 50.4705 104.913C49.4484 105.924 48.6163 107.248 48.0226 108.554C47.6741 109.321 47.4305 110.096 46.9887 110.816C46.8192 111.093 46.6226 111.333 46.4319 111.594C46.3735 111.674 46.0777 112.064 46.2905 111.762C46.8786 110.926 47.7292 110.204 48.4468 109.482C49.0719 108.853 49.705 108.237 50.2937 107.573C50.6617 107.158 50.9683 106.663 51.3454 106.265C51.5706 106.027 51.4515 106.268 51.3454 106.424C50.9378 107.024 50.4 107.537 49.9756 108.13C48.5025 110.187 47.4442 112.504 46.4938 114.837C45.3958 117.532 43.2696 119.528 41.6775 121.916C41.0408 122.871 40.1854 123.613 39.539 124.554C39.2577 124.963 38.9259 125.358 38.6199 125.751C38.4404 125.982 38.1906 126.403 37.9394 126.546C37.7632 126.647 37.6907 126.944 37.4667 126.944C37.2816 126.944 37.0696 127.134 36.9099 127.222C36.474 127.465 35.9637 127.421 35.4783 127.421C35.2509 127.421 35.1357 127.262 34.9216 127.262C34.7826 127.262 34.2971 127.103 34.6123 127.103C35.7673 127.103 37.2939 127.475 38.1825 126.586C38.3842 126.384 38.4787 126.096 38.6597 125.875C38.9622 125.505 39.3974 125.248 39.6892 124.876C39.8772 124.637 40.1157 124.494 40.3299 124.28C40.5973 124.012 40.6083 123.984 40.6083 124.359C40.6083 125.038 39.8812 125.762 39.4152 126.228" stroke="#2E3B60" stroke-width="8" stroke-linecap="round"/>
<path d="M38.9707 125.102C38.9858 125.103 39.1577 127.149 39.1577 127.532" stroke="#2E3B60" stroke-width="8" stroke-linecap="round"/>
</svg>
