<svg width="778" height="648" viewBox="0 0 778 648" fill="none" xmlns="http://www.w3.org/2000/svg">
<path d="M125.5 494.125V496.125M125.5 496.125V502.125H121C119.5 503.125 116.5 495.625 116 494.625C115.6 493.825 115.833 492.958 116 492.625L116.5 492.125L117.5 491.625C117.5 491.625 117.914 491.625 118.5 491.625C118.5 491.625 121.681 497.035 122.5 496.625C123.319 496.215 123 496.125 123.5 496.125C124 496.125 125.5 496.125 125.5 496.125Z" stroke="#2E3B60"/>
<path d="M128.999 502.628C127.999 501.63 128.999 494.628 128.999 494.628L129.499 493.125C130.666 491.959 133.299 489.428 134.499 488.628C135.999 487.628 135.999 489.628 136.499 490.128C136.899 490.528 137.999 490.294 138.499 490.128C138.499 490.128 141.166 504.961 138.999 504.628C136.832 504.294 132.499 504.63 131.999 504.628C131.499 504.625 129.999 503.625 128.999 502.628Z" stroke="#2E3B60"/>
<path d="M118 490.625L117.5 461.125H138.5V490.625C138.5 489.125 137.5 491.625 136 489.125C134.8 487.125 131.167 490.958 129.5 493.125C130 486.458 130.7 472.725 129.5 471.125C128.3 469.525 127 470.458 126.5 471.125L125.5 496.625C125.167 496.292 124.2 495.825 123 496.625C121.8 497.425 119.167 492.958 118 490.625Z" stroke="#2E3B60"/>
<path d="M144.5 418.625C148 421.292 153.5 427.625 153.5 431.625C153.5 435.801 154.5 453.625 154 454.625C153.5 455.625 150.7 458.125 149.5 458.125C148.3 458.125 145.167 455.458 144 454.125" stroke="#2E3B60"/>
<path d="M125 400.718C125 399.551 127.8 396.326 131 397.126C134.2 397.926 134.666 400.218 135.5 400.718M125 400.718H135.5M125 400.718L119.745 400.715C118.912 400.881 117.745 402.215 117.745 406.215C117.745 410.215 116.5 413.215 116.5 414.215C116.5 414.215 112.5 413.625 112 414.215C111.499 414.804 112 455.715 112 455.715C113.333 457.548 116.6 461.115 119 460.715C121.4 460.315 135 460.548 141.5 460.715C142.166 460.548 143.6 459.315 144 455.715C144.4 452.115 144.166 429.548 144 418.715C143.158 416.277 142.283 415.081 140 414.215V406.215C140 403.625 135.5 400.125 135.5 400.718" stroke="#2E3B60"/>
<path d="M111.5 416.125C108.333 417.958 101.9 422.525 101.5 426.125C101.1 429.725 100.333 433.958 100 435.625V443.125C101.167 446.958 103.7 454.625 104.5 454.625C105.3 454.625 109.5 454.625 111.5 454.625" stroke="#2E3B60"/>
<path d="M112.652 420.641C113.029 421.311 113.851 421.838 114.415 422.336C115.698 423.467 117.028 424.522 118.393 425.553C120.429 427.089 122.544 428.512 124.616 429.997C125.912 430.927 127.338 431.58 128.714 432.371C130.266 433.262 131.748 434.263 133.265 435.211C134.657 436.081 136.448 436.451 137.74 437.456C138.915 438.37 140.175 439.042 141.536 439.626" stroke="#2E3B60" stroke-width="2" stroke-linecap="round"/>
<path d="M113.738 442.477C117.77 441.701 121.417 439.07 124.768 436.841C127.185 435.233 129.5 433.465 131.955 431.914C135.419 429.727 138.989 427.277 141.402 423.898" stroke="#2E3B60" stroke-width="2" stroke-linecap="round"/>
<path d="M140.994 432.033C142.964 432.033 144.646 431.699 146.418 430.812" stroke="#2E3B60" stroke-width="2" stroke-linecap="round"/>
<path d="M141.943 440.172C142.95 441.403 143.448 442.342 145.198 442.342" stroke="#2E3B60" stroke-width="2" stroke-linecap="round"/>
<path d="M111.84 434.336C112.506 434.371 113.135 434.667 113.806 434.735C114.688 434.825 115.564 434.878 116.45 434.878" stroke="#2E3B60" stroke-width="2" stroke-linecap="round"/>
<path d="M112.652 442.344H116.721" stroke="#2E3B60" stroke-width="2" stroke-linecap="round"/>
<path d="M121.874 411.828C121.874 409.58 121.738 407.339 121.738 405.093C121.738 404.171 121.392 403.186 122.281 402.742" stroke="#2E3B60" stroke-width="2" stroke-linecap="round"/>
<path d="M135.977 402.062V411.419" stroke="#2E3B60" stroke-width="2" stroke-linecap="round"/>
<path d="M117.264 420.776C117.264 419.538 117.165 418.263 117.475 417.054C118.008 414.97 119.722 415.074 121.528 414.779C125.444 414.138 129.312 414.131 133.265 414.131C134.45 414.131 135.622 414.076 136.791 414.297C137.86 414.499 138.069 414.859 138.207 415.924C138.628 419.172 138.418 422.598 138.418 425.869C138.418 428.736 138.398 431.604 138.418 434.472C138.435 436.777 138.689 439.072 138.689 441.38C138.689 442.426 138.81 443.462 138.825 444.507C138.832 445.026 139.281 446.697 138.599 446.842C136.729 447.241 135.005 448.213 133.054 448.296C130.449 448.407 127.818 448.304 125.212 448.304C123.556 448.304 121.988 448.318 120.383 447.927C119.715 447.765 119.219 447.729 118.755 447.136C117.061 444.972 117.11 442.043 117.023 439.429C116.806 432.953 117.473 426.684 118.891 420.369" stroke="#2E3B60" stroke-width="2" stroke-linecap="round"/>
<path d="M110.348 456.039C110.348 458.367 110.285 460.703 110.348 463.03C110.354 463.236 111.42 463.466 111.629 463.347C111.961 463.157 111.703 460.952 111.697 460.642C111.669 459.275 111.569 457.911 111.569 456.544C111.569 455.258 111.637 459.138 111.976 460.378" stroke="#2E3B60" stroke-width="2" stroke-linecap="round"/>
<path d="M148.453 459.562C148.159 463.669 146.715 467.68 145.816 471.684C145.463 473.258 144.796 474.746 144.452 476.31C143.925 478.712 143.074 481.003 142.215 483.294" stroke="#2E3B60" stroke-width="2" stroke-linecap="round"/>
<path d="M139.773 485.055H145.469" stroke="#2E3B60" stroke-width="2" stroke-linecap="round"/>
<path d="M141.266 484.242C140.699 484.242 140.426 484.221 140.045 484.649C139.693 485.046 140.264 485.289 140.513 485.538C141.26 486.286 143.391 485.87 144.415 485.87C144.944 485.87 145.484 485.901 146.012 485.87C146.175 485.86 146.41 485.481 146.419 485.327C146.441 484.925 146.213 485.002 145.944 484.853C145.581 484.651 144.864 484.514 144.453 484.514C143.801 484.514 143.162 484.242 142.486 484.242" stroke="#2E3B60" stroke-width="2" stroke-linecap="round"/>
<path d="M111.025 464.719V474.347" stroke="#2E3B60" stroke-width="2" stroke-linecap="round"/>
<path d="M111.024 475.023C110.323 475.023 110.039 475.239 109.774 475.837C109.444 476.579 109.794 476.786 110.489 476.786C111.06 476.786 112.841 476.495 113.051 475.762C113.2 475.239 110.684 475.906 110.346 476.244" stroke="#2E3B60" stroke-width="2" stroke-linecap="round"/>
<path d="M111.025 478.273V479.494" stroke="#2E3B60" stroke-width="2" stroke-linecap="round"/>
<path d="M202.5 602.125V604.125M202.5 604.125V610.125H198C196.5 611.125 193.5 603.625 193 602.625C192.6 601.825 192.833 600.958 193 600.625L193.5 600.125L194.5 599.625C194.5 599.625 194.914 599.625 195.5 599.625C195.5 599.625 198.681 605.035 199.5 604.625C200.319 604.215 200 604.125 200.5 604.125C201 604.125 202.5 604.125 202.5 604.125Z" stroke="#2E3B60"/>
<path d="M205.999 610.628C204.999 609.63 205.999 602.628 205.999 602.628L206.499 601.125C207.666 599.959 210.299 597.428 211.499 596.628C212.999 595.628 212.999 597.628 213.499 598.128C213.899 598.528 214.999 598.294 215.499 598.128C215.499 598.128 218.166 612.961 215.999 612.628C213.832 612.294 209.499 612.63 208.999 612.628C208.499 612.625 206.999 611.625 205.999 610.628Z" stroke="#2E3B60"/>
<path d="M195 598.625L194.5 569.125H215.5V598.625C215.5 597.125 214.5 599.625 213 597.125C211.8 595.125 208.167 598.958 206.5 601.125C207 594.458 207.7 580.725 206.5 579.125C205.3 577.525 204 578.458 203.5 579.125L202.5 604.625C202.167 604.292 201.2 603.825 200 604.625C198.8 605.425 196.167 600.958 195 598.625Z" stroke="#2E3B60"/>
<path d="M221.5 526.625C225 529.292 230.5 535.625 230.5 539.625C230.5 543.801 231.5 561.625 231 562.625C230.5 563.625 227.7 566.125 226.5 566.125C225.3 566.125 222.167 563.458 221 562.125" stroke="#2E3B60"/>
<path d="M202 508.718C202 507.551 204.8 504.326 208 505.126C211.2 505.926 211.666 508.218 212.5 508.718M202 508.718H212.5M202 508.718L196.745 508.715C195.912 508.881 194.745 510.215 194.745 514.215C194.745 518.215 193.5 521.215 193.5 522.215C193.5 522.215 189.5 521.625 189 522.215C188.499 522.804 189 563.715 189 563.715C190.333 565.548 193.6 569.115 196 568.715C198.4 568.315 212 568.548 218.5 568.715C219.166 568.548 220.6 567.315 221 563.715C221.4 560.115 221.166 537.548 221 526.715C220.158 524.277 219.283 523.081 217 522.215V514.215C217 511.625 212.5 508.125 212.5 508.718" stroke="#2E3B60"/>
<path d="M188.5 524.125C185.333 525.958 178.9 530.525 178.5 534.125C178.1 537.725 177.333 541.958 177 543.625V551.125C178.167 554.958 180.7 562.625 181.5 562.625C182.3 562.625 186.5 562.625 188.5 562.625" stroke="#2E3B60"/>
<path d="M189.652 528.641C190.029 529.311 190.851 529.838 191.415 530.336C192.698 531.467 194.028 532.522 195.393 533.553C197.429 535.089 199.544 536.512 201.616 537.997C202.912 538.927 204.338 539.58 205.714 540.371C207.266 541.262 208.748 542.263 210.265 543.211C211.657 544.081 213.448 544.451 214.74 545.456C215.915 546.37 217.175 547.042 218.536 547.626" stroke="#2E3B60" stroke-width="2" stroke-linecap="round"/>
<path d="M190.738 550.477C194.77 549.701 198.417 547.07 201.768 544.841C204.185 543.233 206.5 541.465 208.955 539.914C212.419 537.727 215.989 535.277 218.402 531.898" stroke="#2E3B60" stroke-width="2" stroke-linecap="round"/>
<path d="M217.994 540.033C219.964 540.033 221.646 539.699 223.418 538.812" stroke="#2E3B60" stroke-width="2" stroke-linecap="round"/>
<path d="M218.943 548.172C219.95 549.403 220.448 550.342 222.198 550.342" stroke="#2E3B60" stroke-width="2" stroke-linecap="round"/>
<path d="M188.84 542.336C189.506 542.371 190.135 542.667 190.806 542.735C191.688 542.825 192.564 542.878 193.45 542.878" stroke="#2E3B60" stroke-width="2" stroke-linecap="round"/>
<path d="M189.652 550.344H193.721" stroke="#2E3B60" stroke-width="2" stroke-linecap="round"/>
<path d="M198.874 519.828C198.874 517.58 198.738 515.339 198.738 513.093C198.738 512.171 198.392 511.186 199.281 510.742" stroke="#2E3B60" stroke-width="2" stroke-linecap="round"/>
<path d="M212.977 510.062V519.419" stroke="#2E3B60" stroke-width="2" stroke-linecap="round"/>
<path d="M194.264 528.776C194.264 527.538 194.165 526.263 194.475 525.054C195.008 522.97 196.722 523.074 198.528 522.779C202.444 522.138 206.312 522.131 210.265 522.131C211.45 522.131 212.622 522.076 213.791 522.297C214.86 522.499 215.069 522.859 215.207 523.924C215.628 527.172 215.418 530.598 215.418 533.869C215.418 536.736 215.398 539.604 215.418 542.472C215.435 544.777 215.689 547.072 215.689 549.38C215.689 550.426 215.81 551.462 215.825 552.507C215.832 553.026 216.281 554.697 215.599 554.842C213.729 555.241 212.005 556.213 210.054 556.296C207.449 556.407 204.818 556.304 202.212 556.304C200.556 556.304 198.988 556.318 197.383 555.927C196.715 555.765 196.219 555.729 195.755 555.136C194.061 552.972 194.11 550.043 194.023 547.429C193.806 540.953 194.473 534.684 195.891 528.369" stroke="#2E3B60" stroke-width="2" stroke-linecap="round"/>
<path d="M187.348 564.039C187.348 566.367 187.285 568.703 187.348 571.03C187.354 571.236 188.42 571.466 188.629 571.347C188.961 571.157 188.703 568.952 188.697 568.642C188.669 567.275 188.569 565.911 188.569 564.544C188.569 563.258 188.637 567.138 188.976 568.378" stroke="#2E3B60" stroke-width="2" stroke-linecap="round"/>
<path d="M225.453 567.562C225.159 571.669 223.715 575.68 222.816 579.684C222.463 581.258 221.796 582.746 221.452 584.31C220.925 586.712 220.074 589.003 219.215 591.294" stroke="#2E3B60" stroke-width="2" stroke-linecap="round"/>
<path d="M216.773 593.055H222.469" stroke="#2E3B60" stroke-width="2" stroke-linecap="round"/>
<path d="M218.266 592.242C217.699 592.242 217.426 592.221 217.045 592.649C216.693 593.046 217.264 593.289 217.513 593.538C218.26 594.286 220.391 593.87 221.415 593.87C221.944 593.87 222.484 593.901 223.012 593.87C223.175 593.86 223.41 593.481 223.419 593.327C223.441 592.925 223.213 593.002 222.944 592.853C222.581 592.651 221.864 592.514 221.453 592.514C220.801 592.514 220.162 592.242 219.486 592.242" stroke="#2E3B60" stroke-width="2" stroke-linecap="round"/>
<path d="M188.025 572.719V582.347" stroke="#2E3B60" stroke-width="2" stroke-linecap="round"/>
<path d="M188.024 583.023C187.323 583.023 187.039 583.239 186.774 583.837C186.444 584.579 186.794 584.786 187.489 584.786C188.06 584.786 189.841 584.495 190.051 583.762C190.2 583.239 187.684 583.906 187.346 584.244" stroke="#2E3B60" stroke-width="2" stroke-linecap="round"/>
<path d="M188.025 586.273V587.494" stroke="#2E3B60" stroke-width="2" stroke-linecap="round"/>
<path d="M186 626C186 636.303 193.249 627.894 200.822 632.833C203.918 634.853 196.879 637.935 201.078 639.5C204.864 640.911 206.072 643.045 209 644" stroke="#2E3B60" stroke-width="7" stroke-linecap="round"/>
<path d="M145 579C145 582.434 148.152 579.631 151.444 581.278C152.791 581.951 149.73 582.978 151.556 583.5C153.202 583.97 153.727 584.682 155 585" stroke="#2E3B60" stroke-width="7" stroke-linecap="round"/>
<path d="M134 533C134 536.434 137.152 533.631 140.444 535.278C141.791 535.951 138.73 536.978 140.556 537.5C142.202 537.97 142.727 538.682 144 539" stroke="#2E3B60" stroke-width="7" stroke-linecap="round"/>
<path d="M217 623C217 626.434 220.152 623.631 223.444 625.278C224.791 625.951 221.73 626.978 223.556 627.5C225.202 627.97 225.727 628.682 227 629" stroke="#2E3B60" stroke-width="7" stroke-linecap="round"/>
<path d="M100 521C100 524.434 103.152 521.631 106.444 523.278C107.791 523.951 104.73 524.978 106.556 525.5C108.202 525.97 108.727 526.682 110 527" stroke="#2E3B60" stroke-width="7" stroke-linecap="round"/>
<path d="M121 514H123" stroke="#2E3B60" stroke-width="7" stroke-linecap="round"/>
<path d="M137 513C139.687 513 140.823 513.912 143 515" stroke="#2E4A60" stroke-width="7" stroke-linecap="round"/>
<path d="M1 348.542C29.0614 335.709 88.5704 308.042 102.115 300.042C119.046 290.042 146.794 276.042 159.492 264.042C169.651 254.442 241.795 163.042 276.598 118.542C283.966 106.042 300.207 81.7425 306.227 84.5425C313.752 88.0425 319.865 101.535 334.445 110.039C349.024 118.542 359.371 114.539 363.604 129.039C367.836 143.539 364.074 153.039 373.01 157.039C381.945 161.039 384.767 175.039 391.822 179.539C397.465 183.139 396.055 182.039 394.644 181.039C391.038 175.205 382.98 161.639 379.594 154.039C375.361 144.539 371.599 121.539 360.782 116.539C352.128 112.539 354.041 105.872 356.079 103.039L358.901 88.5386C356.392 86.3719 351.188 80.9386 350.435 76.5386C349.495 71.0386 353.257 63.0386 354.668 56.5386C356.079 50.0386 354.198 42.5386 358.901 42.5386C363.604 42.5386 351.846 41.5386 348.554 30.0386C345.262 18.5386 344.792 12.5386 345.732 10.5386C346.485 8.93857 363.604 30.2052 372.069 41.0386C388.059 64.3743 421.921 112.545 429.446 118.542C438.852 126.039 454.842 138.039 460.956 149.539C467.07 161.039 492.937 199.039 511.749 216.039C526.799 229.639 544.67 242.372 551.725 247.039C553.293 240.539 558.027 229.839 564.423 239.039C570.819 248.239 579.629 242.872 583.235 239.039C587.468 246.539 601.765 264.839 625.092 278.039C648.419 291.239 736.084 329.872 777 347.539" stroke="#2E3B60" stroke-width="2"/>
<path d="M304.815 84.0371C305.756 80.2037 305.661 74.5371 297.76 82.5371C289.859 90.5371 272.834 114.872 265.309 126.04C266.564 122.373 268.319 116.04 265.309 120.04C261.547 125.04 247.438 142.04 250.73 133.04C253.364 125.84 268.132 99.7062 275.186 87.5395L301.994 46.5395L327.86 11.5395C330.368 5.7062 337.266 -3.96047 344.791 4.03953C352.316 12.0395 413.455 88.3726 443.084 125.539L450.609 136.539" stroke="#2E3B60" stroke-width="2"/>
<path d="M308.579 86.0391C308.265 86.0391 307.732 86.7391 308.108 89.5391C308.485 92.3391 309.832 97.3724 310.459 99.5391L315.162 111.039C312.497 104.206 306.885 91.0391 305.756 93.0391C304.627 95.0391 299.956 102.872 297.761 106.539C296.507 109.206 294.281 115.139 295.409 117.539C296.82 120.539 299.172 122.039 296.351 121.539C293.529 121.039 290.707 121.039 290.707 124.039C290.707 126.439 291.334 130.039 291.648 131.539C291.647 133.372 292.399 138.539 295.409 144.539C299.172 152.039 307.638 169.539 313.282 178.039C318.925 186.539 332.564 203.539 340.089 211.039C347.614 218.539 347.614 220.539 354.668 225.039C361.723 229.539 367.837 231.539 373.48 234.039C379.124 236.539 389.941 243.039 391.352 245.039C392.763 247.039 401.228 252.539 406.402 259.039C410.54 264.239 417.532 272.539 420.511 276.039" stroke="#2E3B60" stroke-width="2"/>
<path d="M348.083 219.536C345.105 217.37 338.489 212.336 335.855 209.536C332.563 206.036 304.815 170.036 303.875 168.536C302.934 167.036 295.88 183.036 299.172 188.536C302.464 194.036 317.043 213.039 321.276 218.039C325.509 223.039 343.85 245.039 347.613 248.039C351.375 251.039 381.004 272.039 387.118 276.039C393.232 280.039 428.505 303.539 436.03 313.039C443.555 322.539 458.604 339.539 466.6 345.039C472.996 349.439 479.611 353.539 482.12 355.039" stroke="#2E3B60" stroke-width="2"/>
<path d="M302.934 194.542C301.679 192.375 298.983 188.642 298.23 191.042C297.29 194.042 294.938 195.039 296.349 196.539C297.76 198.039 305.756 207.039 304.816 207.539C303.875 208.039 296.35 197.539 293.999 198.039C291.647 198.539 284.122 205.039 283.652 207.539C283.182 210.039 282.711 214.539 283.182 216.539C283.652 218.539 285.063 224.039 286.003 226.039C286.756 227.639 287.885 230.039 288.355 231.039L292.588 236.539C292.744 236.872 293.999 238.639 297.761 243.039C302.464 248.539 307.637 254.039 309.989 259.039C312.34 264.039 316.573 275.539 317.984 275.539C319.395 275.539 307.167 278.039 307.167 285.039C307.167 292.039 305.286 289.039 308.108 296.039C310.93 303.039 322.687 321.539 325.979 325.039C328.613 327.839 348.083 348.206 357.49 358.039L336.796 339.539C332.72 335.039 324.192 325.439 322.687 323.039C321.182 320.639 309.519 299.372 303.875 289.039C302.151 288.706 298.89 288.839 299.642 292.039C300.395 295.239 308.108 308.706 311.87 315.039L333.034 342.539L344.791 357.039L337.737 349.539L331.153 342.539C329.585 340.539 326.167 336.239 325.039 335.039C323.91 333.839 316.73 324.206 313.281 319.539L298.231 294.039C297.134 293.372 295.221 292.839 296.35 296.039C297.479 299.239 301.837 308.372 303.875 312.539L309.048 321.039L320.336 336.039L333.974 352.539L324.568 344.039C320.963 340.039 313.563 331.639 312.811 330.039C312.058 328.439 303.405 315.372 299.172 309.039C296.82 304.206 292.117 295.139 292.117 297.539C292.117 299.939 293.372 304.872 293.999 307.039L298.702 317.039L307.167 329.039L317.043 341.539L325.509 352.039L327.86 355.539L313.281 340.039C311.4 338.039 307.355 333.539 306.226 331.539C305.098 329.539 302.621 325.372 301.523 323.539L297.291 317.039L293.999 309.039C293.528 306.372 292.117 301.439 290.236 303.039C288.355 304.639 288.512 303.706 288.825 303.039L287.414 306.039C287.414 306.706 287.697 308.639 288.825 311.039C289.954 313.439 296.507 323.039 299.642 327.539L316.103 350.539L284.593 308.539L282.241 312.039L309.989 354.039L282.241 313.539C279.89 314.539 275.563 317.239 277.068 320.039C278.573 322.839 294.626 344.872 302.464 355.539L275.186 323.539C272.521 324.372 268.132 327.639 271.894 334.039C275.657 340.439 277.85 344.372 278.477 345.539C276.282 342.372 271.517 336.539 270.012 338.539C268.507 340.539 271.266 346.372 272.833 349.039L286.002 363.539C279.575 356.539 266.814 343.239 267.19 346.039C267.566 348.839 270.483 352.539 271.894 354.039L266.721 353.039L265.31 358.039C264.996 360.206 264.84 364.539 266.721 364.539C268.602 364.539 263.115 363.872 260.136 363.539C259.509 364.539 257.973 366.739 256.844 367.539C255.715 368.339 259.823 362.872 262.017 360.039L261.077 357.039L251.671 365.539C256.844 359.039 266.25 346.739 262.488 349.539C258.725 352.339 251.514 360.039 248.379 363.539L261.077 347.539L264.839 341.539C264.839 340.372 263.898 339.139 260.136 343.539C256.374 347.939 246.654 358.706 242.265 363.539L247.438 354.039L240.854 359.039C239.286 360.539 234.834 363.939 229.567 365.539C224.299 367.139 219.22 367.539 217.339 367.539L235.21 356.039L266.721 325.539L271.894 315.539C272.677 313.706 273.397 311.139 270.012 315.539C265.78 321.039 245.557 341.539 240.854 344.539C237.092 346.939 217.652 359.539 208.403 365.539L196.645 367.539C200.721 365.872 209.908 361.839 214.047 359.039C218.185 356.239 226.118 352.206 229.567 350.539L237.092 343.539L246.498 335.539L260.136 323.539L275.656 306.539L292.117 288.039L306.226 271.539C306.383 268.706 305.662 264.439 301.523 270.039C297.385 275.639 278.791 291.706 270.012 299.039C262.017 306.372 244.24 322.339 237.092 327.539C229.943 332.739 219.377 338.039 214.987 340.039L237.092 323.039C242.892 318.039 255.151 307.339 257.785 304.539C260.419 301.739 273.618 287.706 279.889 281.039L295.409 264.039C298.858 257.706 304.063 247.139 297.291 255.539C290.518 263.939 281.926 273.372 278.477 277.039L263.428 292.039L244.616 309.039L229.567 323.039C218.279 331.706 194.012 349.839 187.239 353.039C180.467 356.239 162.47 364.039 154.318 367.539L168.898 359.539C172.66 357.539 180.843 353.139 183.477 351.539C186.111 349.939 192.413 346.206 195.235 344.539C204.17 337.872 222.606 324.039 224.864 322.039C227.121 320.039 248.379 299.539 258.725 289.539L275.656 270.039L285.533 254.039L270.953 271.539C267.818 275.039 260.513 283.039 256.374 287.039C252.235 291.039 238.973 303.372 232.859 309.039L206.992 329.539L216.398 320.039C217.496 318.706 220.819 314.839 225.334 310.039C229.849 305.239 239.13 297.372 243.205 294.039L257.785 278.039L270.012 263.039L279.889 251.039L284.593 243.039C286.16 240.372 288.355 236.039 284.593 240.039C280.83 244.039 271.737 253.706 267.661 258.039L235.21 294.039L219.69 310.039L275.656 244.539L279.889 237.539C278.635 238.372 275.092 241.439 270.953 247.039C268.693 250.097 257.823 262.736 245.816 276.539M245.816 276.539C235.835 288.014 225.068 300.292 217.809 308.539C215.771 310.872 209.72 317.039 201.819 323.039C191.942 330.539 176.893 339.039 168.898 343.539C162.501 347.139 147.42 353.372 140.679 356.039L126.57 359.039C132.527 355.539 145.947 348.039 151.967 346.039C157.987 344.039 165.762 340.539 168.898 339.039L183.007 330.039L197.116 320.539L211.225 308.539L238.032 283.539L245.816 276.539Z" stroke="#2E3B60" stroke-width="2"/>
<path d="M553.605 243.041L555.957 249.041L556.427 241.541L560.19 253.041L560.66 240.541C562.228 247.208 565.457 259.941 565.833 257.541C566.304 254.541 562.541 245.541 563.482 243.041C564.234 240.641 564.109 240.708 563.952 241.041C563.952 240.208 564.234 238.941 565.363 240.541C566.492 242.141 566.774 244.54 566.774 245.539L568.655 254.039C569.439 256.372 571.195 260.739 571.947 259.539C572.7 258.339 570.693 252.706 569.596 250.039L568.655 244.539V243.041L570.536 244.039L575.239 261.539L573.218 244.039H574.299L580.413 267.039C579.002 259.206 576.368 243.539 577.121 243.539C577.873 243.539 579.942 249.872 580.883 253.039C582.607 259.039 586.244 271.039 586.997 271.039C587.938 271.039 581.353 249.039 582.294 246.539C583.046 244.539 581.04 243.039 579.942 242.539" stroke="#2E3B60" stroke-width="2"/>
<path d="M586.058 244.039C585.431 248.539 584.929 259.039 587.939 265.039C590.949 271.039 592.642 273.539 593.112 274.039C591.545 267.706 588.503 254.439 588.88 252.039C589.256 249.639 590.604 253.372 591.231 255.539L593.112 265.039C592.956 266.706 593.112 270.639 594.994 273.039C597.345 276.039 596.405 276.039 595.464 269.539C594.711 264.339 594.523 259.039 594.523 257.039L601.578 281.039L600.167 266.039L605.811 281.539L604.87 270.539L610.514 286.039L609.573 275.539L615.217 289.039L614.276 276.039L619.449 292.039C618.979 288.539 617.944 281.239 617.568 280.039C617.098 278.539 621.801 289.039 621.331 292.539C620.954 295.339 622.114 286.039 622.741 281.039L626.504 299.539V284.039L631.677 303.539L630.266 284.539L634.969 305.039C633.402 299.539 630.831 288.639 633.088 289.039C635.346 289.439 637.791 303.206 638.732 310.039C639.202 309.539 639.955 307.739 639.202 304.539C638.45 301.339 637.321 294.539 636.851 291.539C636.224 289.206 635.346 285.139 636.851 287.539C638.356 289.939 639.672 297.206 640.143 300.539C640.613 303.039 641.836 308.539 642.965 310.539C644.093 312.539 644.689 313.372 644.846 313.539L643.435 296.039C644.532 296.539 646.727 298.439 646.727 302.039C646.727 305.639 647.354 310.872 647.668 313.039L648.138 315.539L649.078 303.039L651.43 317.039C651.587 313.872 652.182 307.739 653.311 308.539C654.44 309.339 656.917 314.206 658.014 316.539L661.777 321.039L658.485 310.539L675.415 331.039L666.48 317.039V315.539L687.173 336.039L678.708 323.539L703.163 342.539L692.817 331.039C697.363 332.706 707.396 336.839 711.158 340.039C714.921 343.239 723.386 346.372 727.149 347.539" stroke="#2E3B60" stroke-width="2"/>
<path d="M250.262 135.539C249.164 142.206 246.217 157.039 243.207 161.039" stroke="#2E3B60" stroke-width="2"/>
<path d="M283.652 207.541C282.711 205.708 279.137 203.841 272.364 211.041C265.592 218.241 247.595 236.04 239.443 244.039C240.07 239.372 240.384 230.939 236.621 234.539C231.918 239.039 198.997 256.539 195.235 263.539C192.225 269.139 156.043 276.539 138.328 279.539" stroke="#2E3B60" stroke-width="2"/>
<path d="M138.798 279.539L128.451 288.039C121.083 293.372 105.312 304.339 101.174 305.539C97.035 306.739 105.093 304.039 109.639 302.539L135.506 284.539C137.701 282.706 141.432 279.939 138.798 283.539C135.506 288.039 121.867 297.539 116.694 301.039C112.555 303.839 125.943 296.206 133.154 292.039L141.62 283.539C143.187 283.039 145.947 282.539 144.442 284.539C142.937 286.539 140.366 293.039 139.268 296.039L147.734 283.539L143.031 296.039L152.907 280.539L147.734 295.039C151.026 288.206 157.422 275.539 156.669 279.539C155.729 284.539 143.365 304.447 141.62 307.539C140.209 310.039 153.377 292.539 152.437 297.539L160.432 279.539C162.783 277.706 166.64 275.64 163.254 282.04C159.868 288.44 154.945 298.373 152.907 302.539L158.551 296.039L163.724 286.036L166.546 280.539L163.724 293.54L168.897 277.536C170.151 274.702 172.284 270.736 170.779 277.536L166.076 296.539L175.482 274.039C177.676 272.706 181.501 272.139 179.244 280.539C176.987 288.939 175.795 293.371 175.482 294.537L184.417 274.039C187.082 270.872 192.13 265.937 191.002 271.537C189.873 277.137 188.65 282.872 188.18 285.039L194.764 267.539L199.467 259.539" stroke="#2E3B60" stroke-width="2"/>
</svg>
