<svg width="857" height="631" viewBox="0 0 857 631" fill="none" xmlns="http://www.w3.org/2000/svg">
<path d="M251.072 507.706L251.063 507.376M251.063 507.376C251.063 507.376 251.18 511.307 251.063 513.662C250.945 516.017 246.551 512.432 244.597 513.662C242.642 514.892 238.131 506.852 237.413 505.804C236.838 504.966 237.174 504.058 237.413 503.709C237.413 503.709 237.821 503.362 238.131 503.185C238.631 502.9 239.513 502.661 239.513 502.661C239.513 502.661 240.172 502.492 241.005 502.661C241.005 502.661 245.575 508.329 246.752 507.9C247.929 507.471 247.471 507.376 248.189 507.376C248.907 507.376 251.063 507.376 251.063 507.376Z" stroke="#2E3B60"/>
<path d="M257.062 504.711C256.342 507.998 255.649 514.577 258.574 514.259C262.893 513.789 266.268 514.347 266.542 513.4" stroke="#2E3B60"/>
<path d="M274.453 424.289C277.53 427.526 284.74 432.346 284.74 436.556C284.74 440.951 285.327 461.571 284.74 462.624C284.154 463.676 281.725 465.861 280.318 465.861C278.91 465.861 278 465 276.5 464.5" stroke="#2E3B60"/>
<path d="M248.843 407.737H263.93C269.752 407.737 270.666 411.576 270.396 413.496V421.878C273.677 422.786 274.933 424.038 276.143 426.592C276.382 437.943 276.718 461.586 276.143 465.357C275.568 469.129 273.509 470.421 272.551 470.596C263.211 470.421 242.319 470.63 236.876 470.63C233.529 470.63 231.162 468.235 231.162 465.689C231.162 463.143 229.184 426.592 230.063 424.628C231.222 422.041 233.996 421.772 236.63 421.878V413.496C236.8 411.575 236.876 407.931 241.293 407.734L244.138 407.736L248.843 407.737Z" stroke="#2E3B60"/>
<path d="M230.283 424.461C227.725 426.408 224.943 430.716 223.841 434.23C222.629 438.091 222.422 443.136 222.152 444.906V448.303L222.629 452.285C223.571 456.357 225.993 464.159 226.64 464.159C227.286 464.159 229.326 464.67 230.942 464.67" stroke="#2E3B60"/>
<path d="M236.261 420.216C236.47 419.584 237.061 419.156 237.727 419.156H269.283C270.008 419.156 270.635 419.661 270.791 420.369L271.279 420.261L270.791 420.369C270.839 420.587 270.839 420.814 270.791 421.033L271.279 421.141L270.791 421.033C270.635 421.741 270.008 422.245 269.283 422.245H237.727C236.675 422.245 235.93 421.216 236.261 420.216Z" fill="#2E3B60" stroke="#2E3B60"/>
<path d="M278.834 466C277.662 473.781 275.231 489.785 274 490.875" stroke="#2E3B60"/>
<path d="M276.916 490.822C276.916 491.199 275.834 491.504 274.499 491.504C273.164 491.504 272.082 491.199 272.082 490.822C272.082 490.446 273.164 490.141 274.499 490.141C275.834 490.141 276.916 490.446 276.916 490.822Z" fill="#2E3B60"/>
<path d="M223.594 471.48C223.722 471.425 224.064 470.716 224.064 470.716L223.759 470.562C223.572 470.733 223.175 471.16 223.191 471.357C223.206 471.543 223.465 471.535 223.594 471.48Z" stroke="#2E3B60" stroke-width="0.5"/>
<path d="M223.41 484.752L224.455 484.366C224.036 484.15 223.135 483.668 222.889 483.464C222.643 483.259 222.222 482.802 222.042 482.6C221.909 482.162 221.642 481.126 221.678 481.057" stroke="#2E3B60" stroke-width="0.5"/>
<path d="M226.988 465.973C226.291 466.52 225.745 467.061 225.653 467.113C225.538 467.179 224.319 468.823 224.351 468.813C224.377 468.804 224.37 468.865 224.363 468.897C223.849 469.567 222.817 470.925 222.706 470.971C222.595 471.018 221.171 473.614 220.484 474.91C220.283 475.198 219.858 475.787 219.765 475.84C219.673 475.892 219.644 476.132 219.641 476.245L219.843 477.84L220.182 482.339L219.978 482.741L219.859 482.704L219.806 482.809L219.741 482.83C219.714 482.882 219.664 482.98 219.679 482.952C219.693 482.924 219.625 482.949 219.59 482.965C219.578 482.988 219.551 483.042 219.537 483.07C219.522 483.098 219.566 483.119 219.59 483.126L219.519 483.266L219.282 483.193C219.279 483.199 219.266 483.225 219.238 483.281C219.202 483.351 219.057 483.205 219.025 483.216C218.992 483.226 218.723 483.325 218.729 483.206C218.733 483.11 218.581 483.066 218.504 483.056C218.482 483.063 218.405 483.079 218.27 483.086C218.101 483.095 218.178 482.997 218.11 482.916C218.042 482.834 218.039 482.894 217.861 482.92C217.719 482.942 217.644 482.881 217.624 482.848C217.599 482.773 217.499 482.632 217.305 482.67C217.062 482.716 216.955 482.442 216.618 482.46C216.348 482.474 216.245 482.547 216.227 482.582L219.495 484.065C219.609 484.04 219.839 484.025 219.851 484.174C219.863 484.323 220.566 484.13 220.916 484.016C221.078 483.877 221.469 483.66 221.739 483.904C222.077 484.209 223.258 484.631 223.521 484.812C223.785 484.993 227.073 483.478 227.579 483.128C227.984 482.849 230.216 482.247 231.282 481.982L231.486 481.58L231.042 481.646L230.758 481.559L230.678 481.716C230.563 481.708 230.303 481.711 230.178 481.785C230.052 481.86 229.92 481.754 229.87 481.691L229.763 481.901L229.293 481.858L229.239 481.962L228.662 481.967L228.582 482.124L228.032 482.077L227.925 482.287L227.304 482.379L227.241 482.501L226.652 482.583L226.652 482.744L225.868 482.888C225.892 482.949 225.911 483.062 225.797 483.027C225.655 482.984 224.915 483.201 224.826 483.376C224.755 483.516 224.528 483.352 224.424 483.253C224.422 483.293 224.399 483.387 224.326 483.445C224.253 483.503 224.136 483.353 224.086 483.271C224.056 483.295 223.957 483.364 223.805 483.447C223.654 483.53 223.616 483.335 223.616 483.228C223.584 483.272 223.49 483.367 223.367 483.394C223.244 483.421 223.213 483.212 223.213 483.105C223.142 483.137 222.979 483.21 222.893 483.249C222.787 483.297 222.878 482.901 222.81 482.981C222.756 483.046 222.52 483.014 222.417 483.002L222.6 482.695L222.144 482.677L222.233 482.503L221.975 482.363L222.082 482.154L221.875 481.97L222.043 481.799L221.798 481.583L222.014 481.427L221.73 481.34L221.845 481.113L221.679 481.063C221.659 480.546 221.622 479.4 221.631 478.951C221.64 478.502 221.98 476.544 222.148 475.62C222.588 474.666 223.516 472.671 223.713 472.328C223.909 471.985 224.442 471.307 224.683 471.011C224.813 471.044 225.126 471.11 225.343 471.112C225.616 471.115 225.986 471.893 226.119 471.632C226.252 471.37 225.382 470.66 225.118 470.317C224.855 469.975 226.056 469.334 226.391 469.214C226.725 469.095 227.202 469.503 227.282 469.345C227.346 469.22 226.85 468.938 226.595 468.813L228.326 466.862C228.421 466.837 228.656 466.761 228.841 466.656C229.026 466.551 229.662 466.327 229.72 466.411" stroke="#2E3B60" stroke-width="0.5"/>
<mask id="path-12-inside-1_325_248" fill="white">
<ellipse cx="0.464391" cy="0.519497" rx="0.464391" ry="0.519497" transform="matrix(-0.969609 0.244661 -0.442 -0.897015 219.619 483.75)"/>
</mask>
<path d="M218.974 483.389C218.969 483.379 218.967 483.371 218.967 483.365C218.966 483.362 218.967 483.36 218.967 483.358C218.967 483.357 218.967 483.356 218.967 483.356C218.967 483.356 218.967 483.357 218.966 483.359C218.965 483.36 218.963 483.363 218.96 483.366C218.953 483.371 218.943 483.377 218.931 483.38L218.489 482.483C217.923 482.626 217.779 483.177 218.004 483.634L218.974 483.389ZM218.931 483.38C218.918 483.383 218.906 483.383 218.895 483.382C218.891 483.381 218.887 483.38 218.885 483.379C218.882 483.378 218.881 483.378 218.881 483.378C218.881 483.378 218.882 483.378 218.883 483.379C218.885 483.381 218.887 483.382 218.889 483.385C218.894 483.389 218.9 483.396 218.905 483.406L219.874 483.162C219.649 482.705 219.055 482.34 218.489 482.483L218.931 483.38ZM218.905 483.406C218.91 483.416 218.911 483.424 218.912 483.43C218.912 483.433 218.912 483.435 218.912 483.437C218.912 483.438 218.911 483.439 218.911 483.439C218.911 483.439 218.912 483.438 218.913 483.436C218.914 483.435 218.916 483.432 218.919 483.43C218.926 483.424 218.936 483.418 218.948 483.415L219.39 484.312C219.956 484.169 220.099 483.618 219.874 483.162L218.905 483.406ZM218.948 483.415C218.96 483.412 218.973 483.412 218.983 483.413C218.988 483.414 218.992 483.415 218.994 483.416C218.996 483.417 218.997 483.417 218.997 483.417C218.997 483.417 218.997 483.417 218.995 483.416C218.993 483.415 218.991 483.413 218.989 483.411C218.984 483.406 218.979 483.399 218.974 483.389L218.004 483.634C218.229 484.09 218.824 484.455 219.39 484.312L218.948 483.415Z" fill="#2E3B60" mask="url(#path-12-inside-1_325_248)"/>
<path d="M223.203 484.314C223.2 484.321 223.196 484.327 223.191 484.332C223.193 484.326 223.195 484.319 223.199 484.313C223.202 484.306 223.206 484.3 223.21 484.295C223.209 484.301 223.206 484.308 223.203 484.314ZM222.193 483.663C222.19 483.669 222.186 483.675 222.182 483.681C222.183 483.674 222.186 483.668 222.189 483.661C222.192 483.655 222.196 483.649 222.201 483.643C222.199 483.65 222.197 483.656 222.193 483.663ZM220.237 483.69C220.234 483.696 220.229 483.702 220.225 483.708C220.227 483.701 220.229 483.695 220.232 483.688C220.236 483.682 220.24 483.676 220.244 483.67C220.243 483.677 220.24 483.683 220.237 483.69ZM224.323 470.057C224.32 470.064 224.316 470.07 224.312 470.075C224.313 470.069 224.316 470.062 224.319 470.056C224.322 470.049 224.326 470.043 224.331 470.038C224.329 470.044 224.327 470.05 224.323 470.057Z" stroke="#2E3B60" stroke-width="0.5"/>
<mask id="path-15-inside-2_325_248" fill="white">
<ellipse cx="0.394886" cy="0.570281" rx="0.394886" ry="0.570281" transform="matrix(-0.987066 -0.160313 0.239285 -0.970949 220.596 476.875)"/>
</mask>
<path d="M220.446 476.275C220.463 476.208 220.492 476.172 220.501 476.164C220.504 476.161 220.496 476.17 220.472 476.179C220.445 476.189 220.405 476.197 220.359 476.19L220.598 475.219C220.283 475.168 220.005 475.312 219.826 475.479C219.644 475.649 219.518 475.875 219.459 476.115L220.446 476.275ZM220.359 476.19C220.313 476.182 220.28 476.162 220.26 476.145C220.242 476.129 220.239 476.118 220.241 476.122C220.245 476.132 220.255 476.174 220.239 476.241L221.226 476.401C221.285 476.162 221.276 475.914 221.188 475.701C221.102 475.49 220.914 475.27 220.598 475.219L220.359 476.19ZM220.239 476.241C220.222 476.308 220.193 476.344 220.184 476.352C220.18 476.355 220.189 476.346 220.213 476.337C220.24 476.327 220.28 476.319 220.326 476.326L220.086 477.297C220.402 477.348 220.679 477.204 220.859 477.037C221.041 476.867 221.167 476.641 221.226 476.401L220.239 476.241ZM220.326 476.326C220.371 476.334 220.405 476.353 220.424 476.371C220.442 476.387 220.446 476.398 220.444 476.394C220.44 476.384 220.43 476.341 220.446 476.275L219.459 476.115C219.4 476.354 219.409 476.602 219.496 476.815C219.583 477.026 219.771 477.246 220.086 477.297L220.326 476.326Z" fill="#2E3B60" mask="url(#path-15-inside-2_325_248)"/>
<path d="M224.658 471L223.524 470.432L224.489 468.912C224.499 468.874 224.443 468.809 224.364 468.833" stroke="#2E3B60" stroke-width="0.5"/>
<path d="M226.679 464.921C226.73 464.634 227.007 464.426 227.297 464.458L230.476 464.8C230.766 464.831 230.96 465.089 230.908 465.376C230.857 465.664 230.58 465.872 230.289 465.84L227.111 465.498C226.821 465.467 226.627 465.209 226.679 464.921ZM276.786 466.383C276.838 466.096 277.115 465.888 277.405 465.919L280.583 466.261C280.873 466.293 281.067 466.551 281.016 466.838C280.964 467.126 280.687 467.333 280.397 467.302L277.219 466.96C276.928 466.929 276.735 466.671 276.786 466.383Z" fill="#2E3B60" stroke="#2E3B60"/>
<path d="M244.127 422.07C245.812 426.967 249.225 438.191 249.401 443.908C249.577 449.626 245.958 462.172 244.127 467.731M263.465 422.07C261.853 425.181 259.729 434.577 259.729 444.305C259.729 454.676 263.025 463.959 263.465 467.731" stroke="#2E3B60"/>
<path d="M236.656 450.008C240.172 449.837 248.68 448.053 252.698 447.963C256.715 447.873 266.322 449.497 270.058 450.008M237.535 440.126C239.952 440.126 246.103 441.865 252.938 441.865C260.225 441.865 266.542 440.126 269.179 440.296" stroke="#2E3B60" stroke-width="3"/>
<path d="M246.105 507.769C244.786 506.917 243.687 504.191 238.414 500.613C234.194 497.75 236.656 479.543 238.414 470.797C249.108 470.797 270.98 470.797 272.914 470.797C275.331 470.797 274.891 502.316 267.859 507.939C264.008 511.019 254.895 505.383 257.531 504.02C260.168 502.657 254.675 479.656 254.675 479.486C254.675 479.316 253.356 481.019 254.675 485.279C255.993 489.538 251.159 509.643 251.159 507.428" stroke="#2E3B60"/>
<path d="M254.236 511.011C254.236 512.23 256.873 514.25 258.192 514.25C257.093 513.869 256.434 511.202 256.434 509.868C255.628 509.741 254.236 509.792 254.236 511.011Z" stroke="#2E3B60"/>
<path d="M266.542 513.389C266.981 511.856 267.201 508.449 267.641 508.108C268.08 507.768 266.103 508.96 265.883 508.789" stroke="#2E3B60"/>
<path d="M242.413 422.53C240.299 423.171 239.568 424.401 239.161 424.936C238.348 426.14 239.986 428.958 240.392 431.097C240.457 431.438 240.392 431.779 240.392 432.827C240.392 434.186 239.964 435.907 239.579 436.705C239.161 437.572 238.28 438.8 237.941 439.647C237.264 441.252 235.908 444.89 235.908 446.602C235.908 448.741 236.656 450.086 236.656 450.691C236.656 452.131 234.689 456.364 234.485 458.236C234.282 460.108 235.299 463.185 235.908 464.388C236.518 465.592 242.413 467.063 246.478 468.133C250.543 469.203 259.892 468.668 263.348 468.133C266.803 467.598 271.884 465.057 273.104 463.185C274.323 461.312 272.9 458.103 271.884 456.23C270.868 454.358 269.838 448.816 269.838 448.135C269.838 448.135 270.055 440.717 268.632 438.043C267.494 435.903 267.86 433.483 268.08 432.631C268.3 430.757 268.902 426.889 268.739 424.964C268.466 421.73 264.637 421.728 261.728 421.727L261.721 421.727C258.47 421.726 254.561 421.727 249.73 421.727C243.022 421.728 244.526 421.888 242.413 422.53Z" stroke="#2E3B60"/>
<path d="M242.37 407.761C242.003 406.228 243.106 403.506 245.446 400.946C249.026 397.029 255.766 396.401 260.169 399.243C261.488 400.093 264.344 401.459 265.003 407.761" stroke="#2E3B60"/>
<path d="M331.07 587.706L331.061 587.376M331.061 587.376C331.061 587.376 331.178 591.307 331.061 593.662C330.943 596.017 326.55 592.432 324.595 593.662C322.64 594.892 318.13 586.852 317.411 585.804C316.836 584.966 317.172 584.058 317.411 583.709C317.411 583.709 317.819 583.362 318.129 583.185C318.629 582.9 319.511 582.661 319.511 582.661C319.511 582.661 320.17 582.492 321.003 582.661C321.003 582.661 325.573 588.329 326.75 587.9C327.927 587.471 327.469 587.376 328.187 587.376C328.905 587.376 331.061 587.376 331.061 587.376Z" stroke="#2E3B60"/>
<path d="M337.06 584.711C336.341 587.998 335.648 594.577 338.572 594.259C342.891 593.789 346.266 594.347 346.54 593.4" stroke="#2E3B60"/>
<path d="M354.451 504.289C357.528 507.526 364.738 512.346 364.738 516.556C364.738 520.951 365.325 541.571 364.738 542.624C364.152 543.676 361.723 545.861 360.316 545.861C358.908 545.861 357.5 545 356 544.5" stroke="#2E3B60"/>
<path d="M328.841 487.737H343.928C349.75 487.737 350.664 491.576 350.394 493.496V501.878C353.675 502.786 354.931 504.038 356.141 506.592C356.38 517.943 356.716 541.586 356.141 545.357C355.566 549.129 353.507 550.421 352.549 550.596C343.209 550.421 322.317 550.63 316.874 550.63C313.527 550.63 311.16 548.235 311.16 545.689C311.16 543.143 309.182 506.592 310.061 504.628C311.22 502.041 313.994 501.772 316.628 501.878V493.496C316.798 491.575 316.874 487.931 321.291 487.734L324.136 487.736L328.841 487.737Z" stroke="#2E3B60"/>
<path d="M310.281 504.461C307.723 506.408 304.941 510.716 303.839 514.23C302.627 518.091 302.42 523.136 302.15 524.906V528.303L302.627 532.285C303.569 536.357 305.991 544.159 306.638 544.159C307.284 544.159 309.325 544.67 310.94 544.67" stroke="#2E3B60"/>
<path d="M316.259 500.216C316.468 499.584 317.059 499.156 317.725 499.156H349.281C350.006 499.156 350.633 499.661 350.789 500.369L351.277 500.261L350.789 500.369C350.837 500.587 350.837 500.814 350.789 501.033L351.277 501.141L350.789 501.033C350.633 501.741 350.006 502.245 349.281 502.245H317.725C316.673 502.245 315.928 501.216 316.259 500.216Z" fill="#2E3B60" stroke="#2E3B60"/>
<path d="M359 546C357.061 555.696 353.036 575.641 351 577" stroke="#2E3B60"/>
<path d="M309.68 571.323C309.044 563.48 307.758 547.344 308.707 546.001" stroke="#2E3B60"/>
<path d="M311.882 570.678C311.929 571.052 310.894 571.49 309.569 571.658C308.245 571.826 307.133 571.659 307.086 571.285C307.038 570.912 308.074 570.473 309.398 570.306C310.722 570.138 311.834 570.305 311.882 570.678Z" fill="#2E3B60"/>
<path d="M352.738 577.444C352.597 577.793 351.48 577.67 350.242 577.17C349.004 576.669 348.115 575.981 348.256 575.632C348.397 575.283 349.515 575.406 350.753 575.906C351.99 576.406 352.879 577.095 352.738 577.444Z" fill="#2E3B60"/>
<path d="M303.201 564.314C303.198 564.321 303.194 564.327 303.189 564.332C303.191 564.326 303.193 564.319 303.197 564.313C303.2 564.306 303.204 564.3 303.208 564.295C303.207 564.301 303.204 564.308 303.201 564.314ZM302.191 563.663C302.188 563.669 302.184 563.675 302.18 563.681C302.181 563.674 302.184 563.668 302.187 563.661C302.19 563.655 302.194 563.649 302.199 563.643C302.197 563.65 302.195 563.656 302.191 563.663ZM300.235 563.69C300.232 563.696 300.228 563.702 300.223 563.708C300.225 563.701 300.227 563.695 300.23 563.688C300.234 563.682 300.238 563.676 300.242 563.67C300.241 563.677 300.238 563.683 300.235 563.69ZM304.321 550.057C304.318 550.064 304.314 550.07 304.31 550.075C304.311 550.069 304.314 550.062 304.317 550.056C304.32 550.049 304.324 550.043 304.329 550.038C304.327 550.044 304.325 550.05 304.321 550.057Z" stroke="#2E3B60" stroke-width="0.5"/>
<rect x="0.409038" y="0.545668" width="4.25398" height="1.05729" rx="0.528646" transform="matrix(0.994261 0.106979 -0.176185 0.984357 306.128 543.957)" fill="#2E3B60" stroke="#2E3B60"/>
<rect x="0.369178" y="0.573387" width="4.25398" height="1.05729" rx="0.528646" transform="matrix(0.98413 0.177447 -0.245774 0.969327 356.653 544.952)" fill="#2E3B60" stroke="#2E3B60"/>
<path d="M324.125 502.07C325.81 506.967 329.223 518.191 329.399 523.908C329.575 529.626 325.956 542.172 324.125 547.731M343.463 502.07C341.851 505.181 339.727 514.577 339.727 524.305C339.727 534.676 343.023 543.959 343.463 547.731" stroke="#2E3B60"/>
<path d="M316.654 530.008C320.17 529.837 328.678 528.053 332.696 527.963C336.713 527.873 346.32 529.497 350.056 530.008M317.533 520.126C319.95 520.126 326.101 521.865 332.936 521.865C340.223 521.865 346.54 520.126 349.177 520.296" stroke="#2E3B60" stroke-width="2"/>
<path d="M326.103 587.769C324.784 586.917 323.686 584.191 318.412 580.613C314.193 577.75 316.654 559.543 318.412 550.797C329.106 550.797 350.978 550.797 352.912 550.797C355.329 550.797 354.889 582.316 347.858 587.939C344.006 591.019 334.893 585.383 337.53 584.02C340.166 582.657 334.673 559.656 334.673 559.486C334.673 559.316 333.354 561.019 334.673 565.279C335.991 569.538 331.157 589.643 331.157 587.428" stroke="#2E3B60"/>
<path d="M334.234 591.011C334.234 592.23 336.871 594.25 338.19 594.25C337.091 593.869 336.432 591.202 336.432 589.868C335.626 589.741 334.234 589.792 334.234 591.011Z" stroke="#2E3B60"/>
<path d="M346.54 593.389C346.979 591.856 347.199 588.449 347.639 588.108C348.078 587.768 346.101 588.96 345.881 588.789" stroke="#2E3B60"/>
<path d="M322.411 502.53C320.297 503.171 319.566 504.401 319.159 504.936C318.346 506.14 319.984 508.958 320.39 511.097C320.455 511.438 320.39 511.779 320.39 512.827C320.39 514.186 319.963 515.907 319.577 516.705C319.159 517.572 318.278 518.8 317.939 519.647C317.262 521.252 315.907 524.89 315.907 526.602C315.907 528.741 316.654 530.086 316.654 530.691C316.654 532.131 314.687 536.364 314.483 538.236C314.28 540.108 315.297 543.185 315.907 544.388C316.516 545.592 322.411 547.063 326.476 548.133C330.541 549.203 339.89 548.668 343.346 548.133C346.801 547.598 351.882 545.057 353.102 543.185C354.321 541.312 352.898 538.103 351.882 536.23C350.866 534.358 349.836 528.816 349.836 528.135C349.836 528.135 350.053 520.717 348.63 518.043C347.492 515.903 347.858 513.483 348.078 512.631C348.298 510.757 348.9 506.889 348.737 504.964C348.534 502.557 344.63 501.728 341.72 501.727C338.468 501.726 334.559 501.727 329.728 501.727C323.021 501.728 324.524 501.888 322.411 502.53Z" stroke="#2E3B60"/>
<path d="M322.368 487.761C322.002 486.228 323.104 483.506 325.444 480.946C329.024 477.029 335.764 476.401 340.167 479.243C341.486 480.093 344.342 481.459 345.001 487.761" stroke="#2E3B60"/>
<path d="M209.837 228.062C209.567 230.65 209.837 237.766 209.837 240.677C209.836 243.877 211.725 249.086 212.265 251.35C212.265 251.35 212.759 253.124 213.075 254.261L213.884 257.172V271.727V285.311C213.344 287.252 212.75 291.133 214.693 291.133" stroke="#2E3B60" stroke-width="2"/>
<path d="M128.083 295.016C128.083 295.339 126.788 297.538 121.608 303.749C116.427 309.959 109.196 317.333 106.228 320.244L82.7543 341.591L78.707 344.502C81.9448 343.532 89.2298 342.173 92.4676 344.502C95.7054 346.831 97.5941 349.354 98.1337 350.324L101.372 355.175C103.26 355.822 107.685 356.728 110.275 355.175C112.866 353.623 117.291 354.529 119.179 355.175C119.989 355.175 121.608 355.564 121.608 357.116C121.608 358.669 121.608 367.466 121.608 371.671C121.877 374.582 122.741 380.792 124.036 382.344C125.331 383.897 129.972 388.813 132.13 391.077V393.988" stroke="#2E3B60" stroke-width="2"/>
<path d="M167.745 241.641C161.269 249.403 146.376 266.093 138.605 270.75C130.834 275.408 124.575 281.1 122.416 283.364C124.035 284.982 127.435 288.992 128.082 292.097C128.892 295.979 129.701 305.682 132.939 309.563C135.529 312.668 143.192 321.854 146.699 326.058C147.509 327.029 148.642 329.94 146.699 333.821C144.271 338.673 142.652 338.673 145.081 341.584C147.023 343.912 151.826 349.67 153.984 352.257C155.333 352.904 158.032 354.974 158.032 358.079C158.032 361.184 158.032 363.254 158.032 363.901" stroke="#2E3B60" stroke-width="2"/>
<path d="M1 317.329C16.6493 308.596 52.9665 285.697 73.0407 263.962C93.115 242.226 103.53 229.03 106.228 225.149H118.37C123.766 221.914 136.663 212.341 145.081 199.92C153.5 187.5 158.842 182.455 160.461 181.484L177.459 191.188L190.41 209.624C194.997 216.416 204.819 229.806 207.409 229.03C209.999 228.254 213.345 226.766 214.694 226.119L222.788 240.674C231.692 255.552 250.148 285.891 252.738 288.22C255.328 290.548 265.149 300.834 269.736 305.685L287.544 322.181C298.876 333.178 323 353.984 328.016 357.112C333.033 360.24 350.681 366.815 359.585 365.845C366.708 365.069 388.995 360.347 399.248 358.083L413.818 352.261L442.958 338.676L451.862 333.825C455.099 337.706 462.87 346.439 468.051 350.32C473.231 354.201 481.002 358.406 484.239 360.023C487.747 361.964 495.41 365.845 498 365.845" stroke="#2E3B60" stroke-width="2"/>
<path d="M159.652 182.453C159.652 187.952 159.976 199.143 161.271 199.919C162.566 200.695 163.43 204.77 163.7 206.711L162.081 214.474C161.541 219.649 160.947 230.775 162.89 233.88C164.833 236.985 170.175 244.23 172.603 247.465L176.651 254.257L192.84 280.455C193.109 281.426 193.649 283.949 193.649 286.277C193.649 289.188 196.887 297.921 199.315 301.802C201.258 304.907 209.298 319.268 213.076 326.06C213.885 328.001 215.99 331.882 217.932 331.882" stroke="#2E3B60" stroke-width="2"/>
<path d="M223 240.484C241.5 236.484 287 165.48 324 120.98C331.833 108.48 349.1 84.18 355.5 86.98C363.5 90.48 370 103.972 385.5 112.476C401 120.98 412 116.976 416.5 131.476C421 145.976 417 155.476 426.5 159.476C436 163.476 439 177.476 446.5 181.976C452.5 185.576 451 184.476 449.5 183.476C445.667 177.643 437.1 164.076 433.5 156.476C429 146.976 425 123.976 413.5 118.976C404.3 114.976 406.333 108.309 408.5 105.476L411.5 90.9761C408.833 88.8094 403.3 83.3761 402.5 78.9761C401.5 73.4761 405.5 65.4761 407 58.9761C408.5 52.4761 406.5 44.9761 411.5 44.9761C416.5 44.9761 404 43.9761 400.5 32.4761C397 20.9761 396.5 14.9761 397.5 12.9761C398.3 11.3761 416.5 32.6427 425.5 43.4761C442.5 66.8118 478.5 114.983 486.5 120.98C496.5 128.477 513.5 140.477 520 151.977C526.5 163.477 554 201.477 574 218.477C590 232.077 609 244.81 616.5 249.477C618.167 242.977 623.2 232.277 630 241.477C636.8 250.677 646.167 245.31 650 241.477C654.5 248.977 669.7 267.277 694.5 280.477C719.3 293.677 815 336.484 857 336.484" stroke="#2E3B60" stroke-width="3"/>
<path d="M354 92.9805C355 89.1472 354.9 83.4805 346.5 91.4805C338.1 99.4805 320 117.306 312 128.473C313.333 124.807 317.701 115.981 314.501 119.981C310.501 124.981 300 139.481 303.5 130.481C306.3 123.281 322.5 103.647 330 91.4805L360.5 47.4841L380.911 10.8471C387 1.983 388.5 -1.52656 396.5 6.47344C404.5 14.4734 469.5 90.8064 501 127.973L509 138.973" stroke="#2E3B60" stroke-width="3"/>
<path d="M359 88.9844C358.667 88.9844 358.1 89.1844 358.5 91.9844C358.9 94.7844 360.333 99.8177 360.999 101.984L365.999 113.484C363.166 106.651 357.199 93.4844 355.999 95.4844C354.799 97.4844 349.833 105.318 347.499 108.984C346.166 111.651 343.799 117.584 344.999 119.984C346.499 122.984 349 124.484 346 123.984C343 123.484 340 123.484 340 126.484C340 128.884 340.667 132.484 341 133.984C340.999 135.818 341.799 140.984 344.999 146.984C349 154.484 358 171.984 364 180.484C370 188.984 384.5 205.984 392.5 213.484C400.5 220.984 400.5 222.984 408 227.484C415.5 231.984 422 233.984 428 236.484C434 238.984 445.5 245.484 447 247.484C448.5 249.484 457.5 254.984 463 261.484C467.4 266.684 474.833 274.984 478 278.484" stroke="#2E3B60" stroke-width="3"/>
<path d="M618 244.977L621 251.475L621.5 243.975L625.5 255.475L626 242.975C627.667 249.642 631.1 262.375 631.5 259.975C632 256.975 628 247.975 629 245.475C629.8 243.075 630 241.748 630 241.477C630 241.978 629.8 241.375 631 242.975C632.2 244.575 632.5 246.974 632.5 247.973L634.5 256.473C635.333 258.806 637.2 263.173 638 261.973C638.8 260.773 636.667 255.139 635.5 252.473L634.5 246.973V245.475L636.5 246.473L641.5 263.973L639.351 246.473H640.5L647 269.473C645.5 261.639 642.7 245.973 643.5 245.973C644.3 245.973 646.5 252.306 647.5 255.473C649.333 261.473 653.2 273.473 654 273.473C655 273.473 649 251.665 649 248.973C649 246.981 647.167 244.981 646 244.481" stroke="#2E3B60" stroke-width="3"/>
<path d="M653 245.984C652.333 250.484 651.8 261.477 655 267.477C658.2 273.477 660 275.977 660.5 276.477C658.833 270.143 655.6 256.877 656 254.477C656.4 252.077 657.833 255.81 658.5 257.977L660.5 267.477C660.333 269.143 660.5 273.077 662.5 275.477C665 278.477 664 278.477 663 271.977C662.2 266.777 662 261.477 662 259.477L669.5 283.477L668 268.477L674 283.977L673 272.977L679 288.477L678 277.977L684 291.477L683 278.477L688.5 294.477C688 290.977 686.9 283.677 686.5 282.477C686 280.977 691 291.477 690.5 294.977C690.1 297.777 691.333 288.477 692 283.477L696 301.977V286.477L701.5 305.977L700 286.977L705 307.477C703.333 301.977 700.6 291.077 703 291.477C705.4 291.877 708 305.643 709 312.477C709.5 311.977 710.3 310.177 709.5 306.977C708.7 303.777 707.5 296.977 707 293.977C706.333 291.643 705.4 287.577 707 289.977C708.6 292.377 710 299.643 710.5 302.977C711 305.477 712.3 310.977 713.5 312.977C714.7 314.977 715.333 315.81 715.5 315.977L714 298.477C715.167 298.977 717.5 300.877 717.5 304.477C717.5 308.077 718.167 313.31 718.5 315.477L719 317.977L720 305.477L722.5 319.477C722.667 316.31 723.3 310.177 724.5 310.977C725.7 311.777 728.333 316.643 729.5 318.977L733.5 323.477L730 312.977L748 333.477L738.5 319.477V317.977L760.5 338.477L751.5 325.977L777.5 344.977L766.5 333.477C771.333 335.143 782 339.277 786 342.477C790 345.677 799 348.81 803 349.977" stroke="#2E3B60" stroke-width="3"/>
<path d="M305.5 129.984C305 137.484 303.5 148.484 301.5 149.484" stroke="#2E3B60" stroke-width="3"/>
<path d="M688.857 101.961C686.978 103.984 686.579 108.99 683.299 111.484C680.019 113.978 676.886 118.084 675.52 119.816C674.153 121.548 671.42 125.427 671.42 127.089C671.42 128.751 674.153 130.552 675.52 131.245L680.645 134.362C681.328 134.362 682.899 134.986 683.719 137.479C684.539 139.973 686.111 143.367 686.794 144.752L688.844 147.869L690.894 153.064L692.944 157.22L696.019 159.298C698.752 159.991 704.218 162 704.218 164.493C704.218 166.987 704.218 172.459 704.218 174.884C705.585 176.962 709.138 181.533 712.418 183.196C715.698 184.858 715.835 188.737 715.493 190.469V200.859C716.86 202.591 720.003 206.262 721.643 207.093C723.283 207.924 725.059 210.903 725.743 212.288L729.842 217.483L731.892 221.639C733.762 225.088 738 232.484 740 234.484C742 236.484 745.167 238.318 746.5 238.984C746.5 238.984 783.5 254.484 768.5 259.484C753.5 264.484 707.675 286.184 703.5 284.984" stroke="#2E3B60" stroke-width="2"/>
<path d="M689.872 88.6484C689.189 94.1898 688.232 105.896 689.872 108.39C691.512 110.883 697.388 116.355 700.121 118.78C701.146 120.858 703.196 125.637 703.196 128.131C703.196 130.625 703.879 135.404 704.221 137.482L708.321 141.638L711.396 145.794L714.471 149.95V153.067" stroke="#2E3B60" stroke-width="2"/>
<path d="M572.5 217.984C580.688 210.122 597.791 193.81 602.704 186.426C608.845 177.197 610.892 171.044 620.103 160.789C629.314 150.534 632.384 146.432 643.642 136.177C652.649 127.973 658.994 122.503 661.041 120.794C663.088 117.711 666.743 108.484 670.252 103.354C674.291 97.4493 685.893 89.4488 686.352 88.9553C690.026 85.5028 687.73 88.4578 695.537 94.3856C706.221 102.498 713.238 107.449 714.261 109.511C715.285 111.572 715.285 113.613 720.402 120.794C725.162 127.474 738.142 133.103 742.918 136.177C746.671 137.547 754.586 141.722 756.223 147.465C758.27 154.643 764.411 167.982 771.575 177.204C777.307 184.582 786.927 195.319 791.021 199.765L804.326 214.122C807.017 217.984 818.117 225.43 819.5 232C823.5 251 857.5 318.5 872.325 328.984C874.05 331.984 878.7 337.984 883.5 337.984" stroke="#2E3B60" stroke-width="2"/>
<path d="M688.818 87.9844C684.695 90.4249 675.902 98.4406 671.779 106.808C666.626 117.268 656.318 130.865 652.195 135.049C648.897 138.396 639.826 148.298 635.703 152.83C631.58 157.363 624.54 160.678 619.211 167.473C613.047 175.335 607.873 190.484 607.873 190.484" stroke="#2E3B60" stroke-width="2"/>
<path d="M689.278 88.4844C685.178 89.5234 676.544 106.148 672.444 114.46C667.319 124.85 663.422 142.513 652.97 142.513C648.87 142.513 640.67 155.674 636.57 160.177C632.47 164.679 621.964 167.454 620.171 174.723C617.096 187.191 608.896 197.581 608.896 197.581" stroke="#2E3B60" stroke-width="2"/>
<path d="M743.168 136.247C752.392 142.482 741.117 164.297 745.217 169.486C750.054 175.606 757.517 179.918 761.616 181.986L770.841 187.181C772.549 187.873 775.942 189.153 777.582 189.984C779.222 190.816 785.861 194.984 787.267 195.671" stroke="#2E3B60" stroke-width="2"/>
<path d="M687.358 88.5781C687.224 88.6151 687.098 88.6458 686.961 88.6645" stroke="#2E3B60" stroke-width="2" stroke-linecap="round"/>
<path d="M745.848 137.484C745.886 137.821 746.33 138.3 746.487 138.608C746.676 138.977 746.907 139.373 747.182 139.672C747.465 139.98 747.897 140.109 748.188 140.397C748.565 140.77 748.861 141.188 749.215 141.574C749.718 142.12 749.789 142.848 750.03 143.529C750.171 143.929 750.891 143.817 750.227 144.807C749.773 145.484 750.865 145.235 750.907 145.484C750.983 145.943 750.883 146.589 751.085 147.006C751.492 147.847 754.586 154.484 755.966 155.484" stroke="#2E3B60" stroke-width="2" stroke-linecap="round"/>
<path d="M158.939 183.695C158.754 185.547 157.343 187.33 156.939 189.204C156.628 190.643 156.641 192.301 156.192 193.697C155.979 194.361 155.502 194.923 155.117 195.488C153.533 197.816 152.084 200.279 150.669 202.713C149.212 205.219 148.457 208.144 146.877 210.535C143.694 215.355 140.358 220.068 136.951 224.731C135.431 226.811 133.516 228.498 131.86 230.448C131.265 231.15 130.878 231.634 130.039 232.061C126.132 234.047 122.203 235.984 118.231 237.838C112.04 240.727 105.073 243.874 100.632 249.302C96.0477 254.905 92.458 261.341 86.9283 266.125C82.1861 270.228 76.7234 273.298 71.5678 276.828C67.3999 279.683 63.3083 282.452 58.8644 284.845C57.1649 285.76 55.7811 287.181 54.4011 288.502C51.7921 290.999 49.2409 293.574 46.5342 295.966C44.6204 297.657 42.6297 299.289 40.6528 300.907C37.6922 303.329 34.3157 305.182 31.338 307.564C29.9114 308.706 29.4546 309.528 28.8301 311.117C28.0684 313.056 24.7302 313.743 22.9785 314.282" stroke="#2E3B60" stroke-width="2" stroke-linecap="round"/>
<path d="M158.94 183.422C158.94 187.088 159.477 191.365 158.492 194.976C157.596 198.262 155.992 201.294 154.85 204.5C154.329 205.962 154.099 207.511 153.506 208.948C152.508 211.366 151.102 213.794 149.655 215.964C147.302 219.494 144.517 222.718 142.191 226.264C140.474 228.882 139.21 231.637 137.922 234.474C137.114 236.253 136.273 237.793 134.369 238.505C131.689 239.507 129.221 240.592 126.711 241.998C121.995 244.639 117.251 247.87 113.381 251.671C112.504 252.532 111.721 253.543 110.963 254.507C109.336 256.575 107.315 258.26 105.41 260.06C100.834 264.381 95.8562 268.27 91.4076 272.719C88.8434 275.283 85.8148 277.269 83.2273 279.824C82.0704 280.967 81.0892 282.038 79.7193 282.899C73.7237 286.668 67.3364 289.846 61.5823 294.005C59.7708 295.315 59.4292 296.146 58.3579 297.991C56.8729 300.548 54.8153 302.478 52.5809 304.38C50.682 305.997 48.6107 307.875 46.2964 308.903C44.0594 309.897 42.1727 311.633 39.9223 312.665C37.9147 313.585 35.7693 314.828 33.9961 316.158" stroke="#2E3B60" stroke-width="2" stroke-linecap="round"/>
<path d="M158.492 184.125C156.977 184.293 155.082 186.763 154.069 187.775C152.801 189.043 151.79 190.32 150.934 191.877C149.606 194.29 148.34 196.938 147.584 199.585C146.367 203.847 143.92 208.267 141.486 211.954C139.153 215.486 135.85 218.322 132.618 221.015C131.193 222.203 129.894 223.848 128.345 224.795C122.24 228.525 117.118 232.389 110.179 234.371C107.829 235.043 106.643 235.888 104.767 237.378C102.752 238.978 101.93 241.662 99.7427 243.068C97.3336 244.617 95.1144 246.558 93.0862 248.586C90.8274 250.845 89.1488 253.589 87.2885 256.188C84.9146 259.504 82.6922 263.845 79.5583 266.538C78.0933 267.796 75.9304 268.618 74.2116 269.458C72.1693 270.456 71.5055 272.271 69.9814 273.795C68.3352 275.442 65.7578 277.476 63.604 278.434C62.4022 278.968 61.5 277.578 60.018 279.894C59 281.484 25 310.484 22.5 309.984" stroke="#2E3B60" stroke-width="2" stroke-linecap="round"/>
<path d="M351.516 89.3226C351.516 88.6606 352.177 88.4139 352.578 88.0126C352.757 87.8341 353.054 87.2891 353.355 87.2891" stroke="#2E3B60" stroke-width="2" stroke-linecap="round"/>
<path d="M355.213 87.1172C355.213 87.5134 355.735 87.8231 355.89 88.1323" stroke="#2E3B60" stroke-width="2" stroke-linecap="round"/>
<path d="M356.855 88.4844C356.855 88.7944 356.847 89.033 356.726 89.3245C356.536 89.7851 356.735 90.3929 356.64 90.8847C356.54 91.4045 356.683 91.8744 356.683 92.3871C356.683 92.7872 356.683 93.1873 356.683 93.5873C356.683 93.8638 356.894 93.9928 357.028 94.2096C357.395 94.8066 357.728 95.3873 358.061 96.0054C358.394 96.6249 358.564 97.3177 358.854 97.9257C358.908 98.0382 358.894 98.1755 358.96 98.2769C359.133 98.5447 358.701 97.7005 358.577 97.4101C357.443 94.7461 356.894 92.556 356.894 89.7823M356.894 89.7823C356.894 89.0928 356.96 89.6495 356.894 89.7823ZM356.894 89.7823C356.277 91.0208 355.732 92.4689 355.569 93.8362C355.497 94.4371 355.976 94.8853 356.478 95.2098C356.674 95.337 357.061 95.4584 357.195 95.6454C357.252 95.7256 357.42 95.9418 357.42 95.8454C357.42 95.5782 356.984 94.973 356.851 94.7252C356.665 94.3807 356.444 93.9188 356.1 93.6851C355.983 93.6059 355.719 93.175 355.645 93.4851C355.531 93.9647 355.522 94.3638 355.22 94.8053C354.737 95.5103 354.391 96.2911 353.861 96.9656C353.566 97.3417 353.299 97.702 353.001 98.0857C352.456 98.786 352.295 99.8525 351.652 100.45C351.431 100.656 351.021 101.156 351.001 101.446C350.994 101.55 351.015 101.412 351.021 101.393C351.135 100.984 351.399 100.607 351.609 100.237C352.241 99.1239 352.861 98.0058 353.46 96.8767C353.747 96.3355 353.989 95.775 354.292 95.2409C354.482 94.905 354.803 94.631 355.043 94.3252C355.177 94.1537 355.572 93.2454 355.66 93.614C355.883 94.5472 357.092 94.9612 357.525 95.7654C357.778 96.2358 358.158 96.6657 358.405 97.1256" stroke="#2E3B60" stroke-width="2" stroke-linecap="round"/>
<path d="M625.131 190.923C625.131 185.266 625.638 179.474 629.067 174.848C634.833 167.073 641.687 160 649.516 154.291C651.596 152.774 653.814 151.593 655.858 150.026C659.091 147.548 664.055 145.073 665.591 140.977C669.215 131.313 670.655 120.241 676.307 111.316C677.756 109.028 679.376 107.262 681.228 105.302C682.842 103.592 683.116 100.83 683.688 98.6858C684.151 96.9483 688.026 89.2214 689.5 88.4844" stroke="#2E3B60" stroke-width="2" stroke-linecap="round"/>
<path d="M248 530.484C248 533.919 251.152 531.116 254.444 532.762C255.791 533.435 252.73 534.463 254.556 534.984C256.202 535.455 256.727 536.166 258 536.484" stroke="#2E3B60" stroke-width="7" stroke-linecap="round"/>
<path d="M267 522.484C267 525.919 270.152 523.116 273.444 524.762C274.791 525.435 271.73 526.463 273.556 526.984C275.202 527.455 275.727 528.166 277 528.484" stroke="#2E3B60" stroke-width="7" stroke-linecap="round"/>
<path d="M324 610.642C326.439 610.642 330.759 609.57 330.759 613.011C330.759 616.089 332.727 616.317 335.439 617.402" stroke="#2E3B60" stroke-width="7" stroke-linecap="round"/>
<path d="M341.443 604.594C345.182 604.594 344.479 605.301 344.967 609.042C345.67 614.431 351.352 612.13 354.124 615.541C355.967 617.809 354.39 621.373 355.771 623.543C356.78 625.128 359.308 626.098 360.681 627.471" stroke="#2E3B60" stroke-width="7" stroke-linecap="round"/>
<path d="M263.453 559.883C264.578 559.883 265.497 560.944 266.688 561.327C268.038 561.761 269.655 561.985 270.732 563.002C273.257 565.387 275.595 569.242 279.571 569.242" stroke="#2E3B60" stroke-width="7" stroke-linecap="round"/>
<path d="M284.77 547.922C286.779 547.922 286.515 549.834 287.889 550.522" stroke="#2E3B60" stroke-width="7" stroke-linecap="round"/>
<path d="M354.48 88.0391C352.173 88.3537 349.774 89.9757 347.84 91.1542C344.547 93.1603 340.581 95.7913 338.904 99.4134C338.18 100.979 338.147 102.285 338.617 103.902C339.431 106.699 337.087 108.988 335.174 110.788C331.832 113.934 327.863 116.577 325.501 120.625C321.294 127.837 317.086 135.365 313.327 142.841C312.675 144.139 310.516 147.491 311.032 149.112C311.093 149.305 311.366 149.256 311.503 149.317C312.184 149.62 311.832 151.123 311.749 151.551C310.726 156.823 307.964 161.652 306.318 166.737C305.827 168.254 304.069 171.954 304.884 173.582C305.159 174.134 305.744 174.076 305.744 174.812C305.744 177.897 302.693 180.947 301.072 183.297C299.097 186.159 296.917 190.559 293.653 192.191C292.768 192.634 292.221 192.517 291.398 193.175" stroke="#2E3B60" stroke-width="2" stroke-linecap="round"/>
<path d="M357.801 89.1406C349.642 89.1406 344.414 96.3025 341.651 103.364C340.793 105.558 340.093 107.757 340.093 110.127C340.093 112.215 338.335 114.748 337.47 116.439C334.424 122.397 331.274 128.301 328.248 134.269C327.291 136.156 326.095 138.122 325.624 140.212C324.905 143.41 323.858 146.449 322.837 149.558C322.226 151.421 321.649 153.34 321.649 155.317C321.649 156.477 322.386 157.647 322.386 159.026C322.386 163.535 322.386 168.044 322.386 172.553C322.386 174.055 322.076 175.963 322.407 177.451C323.517 182.445 320.226 188.942 317.755 193.211C317.592 193.491 315.468 196.666 315.439 196.592C315.258 196.139 316.741 194.851 315.931 195.527C309.873 200.575 302.512 204.857 295.088 207.557" stroke="#2E3B60" stroke-width="2" stroke-linecap="round"/>
<path d="M355.586 90.25C346.711 90.8416 345.036 103.554 342.695 110.109C341.146 114.446 339.191 118.579 337.879 123C337.003 125.949 334.815 128.441 333.247 131.034C330.174 136.116 327.676 140.937 326.136 146.712C324.084 154.408 324.213 163.055 324.681 170.957C324.93 175.167 325.93 179.219 325.459 183.458C324.495 192.138 321.543 200.65 315.684 207.252C306.043 218.116 293.335 225.38 282.626 235.022C277.949 239.233 273.622 243.947 269.51 248.712C268.76 249.581 268.898 250.532 268.321 251.274C265.63 254.735 261.363 257.05 257.828 259.574" stroke="#2E3B60" stroke-width="2" stroke-linecap="round"/>
<path d="M354.849 90.25C353.979 91.9096 352.6 93.4062 351.897 95.1276C350.649 98.1864 349.42 101.195 348.065 104.207C346.601 107.461 344.703 109.507 342.449 112.261C340.672 114.433 339.182 116.605 338.699 119.393C338.45 120.831 338.137 122.268 337.674 123.656C336.859 126.103 335.431 128.166 333.739 130.091C330.068 134.267 326.52 138.287 324.681 143.638C321.475 152.963 328.949 161.218 326.402 170.424C323.14 182.22 316.238 193.569 310.109 204.075C307.606 208.367 305.041 213.56 301.194 216.864C298.721 218.988 295.825 220.663 293.181 222.561C288.567 225.875 284.011 229.267 279.429 232.624C276.594 234.702 273.826 236.793 271.191 239.121C269.898 240.263 268.204 241.238 267.133 242.605C266.081 243.947 266.719 245.279 266.088 246.683C264.613 249.959 258.274 250.452 255.246 251.089" stroke="#2E3B60" stroke-width="2" stroke-linecap="round"/>
<path d="M348.57 105.321C349.053 103.873 349.778 102.509 350.485 101.161C351.619 98.997 352.611 96.7476 353.801 94.6148C354.059 94.1532 354.332 93.6799 354.664 93.2656" stroke="#2E3B60" stroke-width="2" stroke-linecap="round"/>
<path d="M346.5 149.984C345.618 150.082 344.51 150.679 343.948 151.206C340.013 154.896 336.532 161.025 335.598 166.37C335.334 167.887 335.235 168.841 336.558 169.649C337.512 170.233 337.097 171.144 336.718 172.049C333.815 178.985 331.586 185.228 331.327 192.891C331.205 196.522 331.617 199.961 332.271 203.496C332.868 206.725 331.869 209.54 330.384 212.422C327.351 218.305 323.18 223.733 319.251 229.026C315.938 233.488 312.463 237.821 308.853 242.046C307.064 244.141 306.615 244.727 304.023 245.118C298.204 245.994 292.645 247.825 287.035 249.532" stroke="#2E3B60" stroke-width="2" stroke-linecap="round"/>
<path d="M678.836 144.078C669.343 155.945 662.302 170.024 659.609 184.838C658.027 193.535 642.46 197.999 636.659 203.8C632.078 208.381 640.196 207.259 641.798 211.065C644.456 217.377 627.084 225.896 623.014 228.61" stroke="#2E3B60" stroke-width="2" stroke-linecap="round"/>
<path d="M659.698 156.836C651.621 164.913 643.053 173.734 637.723 183.95C636.721 185.871 638.438 186.994 638.255 188.735C637.982 191.324 633.068 194.63 631.343 196.355C622.713 204.985 621.003 217.859 611.85 227.013" stroke="#2E3B60" stroke-width="2" stroke-linecap="round"/>
</svg>
