<svg width="884" height="661" viewBox="0 0 884 661" fill="none" xmlns="http://www.w3.org/2000/svg">
<path d="M251.072 506.706L251.063 506.376M251.063 506.376C251.063 506.376 251.18 510.307 251.063 512.662C250.945 515.017 246.551 511.432 244.597 512.662C242.642 513.892 238.131 505.852 237.413 504.804C236.838 503.966 237.174 503.058 237.413 502.709C237.413 502.709 237.821 502.362 238.131 502.185C238.631 501.9 239.513 501.661 239.513 501.661C239.513 501.661 240.172 501.492 241.005 501.661C241.005 501.661 245.575 507.329 246.752 506.9C247.929 506.471 247.471 506.376 248.189 506.376C248.907 506.376 251.063 506.376 251.063 506.376Z" stroke="#2E3B60"/>
<path d="M257.062 503.711C256.342 506.998 255.649 513.577 258.574 513.259C262.893 512.789 266.268 513.347 266.542 512.4" stroke="#2E3B60"/>
<path d="M274.453 423.289C277.53 426.526 284.74 431.346 284.74 435.556C284.74 439.951 285.327 460.571 284.74 461.624C284.154 462.676 281.725 464.861 280.318 464.861C278.91 464.861 277.969 464.691 276.651 463.498" stroke="#2E3B60"/>
<path d="M248.843 406.737H263.93C269.752 406.737 270.666 410.576 270.396 412.496V420.878C273.677 421.786 274.933 423.038 276.143 425.592C276.382 436.943 276.718 460.586 276.143 464.357C275.568 468.129 273.509 469.421 272.551 469.596C263.211 469.421 242.319 469.63 236.876 469.63C233.529 469.63 231.162 467.235 231.162 464.689C231.162 462.143 229.184 425.592 230.063 423.628C231.222 421.041 233.996 420.772 236.63 420.878V412.496C236.8 410.575 236.876 406.931 241.293 406.734L244.138 406.736L248.843 406.737Z" stroke="#2E3B60"/>
<path d="M230.283 423.461C227.725 425.408 224.943 429.716 223.841 433.23C222.629 437.091 222.422 442.136 222.152 443.906V447.303L222.629 451.285C223.571 455.357 225.993 463.159 226.64 463.159C227.286 463.159 229.326 463.67 230.942 463.67" stroke="#2E3B60"/>
<path d="M236.261 419.216C236.47 418.584 237.061 418.156 237.727 418.156H269.283C270.008 418.156 270.635 418.661 270.791 419.369L271.279 419.261L270.791 419.369C270.839 419.587 270.839 419.814 270.791 420.033L271.279 420.141L270.791 420.033C270.635 420.741 270.008 421.245 269.283 421.245H237.727C236.675 421.245 235.93 420.216 236.261 419.216Z" fill="#2E3B60" stroke="#2E3B60"/>
<path d="M280.166 464.852C278.994 472.632 276.563 488.636 275.332 489.727" stroke="#2E3B60"/>
<ellipse cx="275.55" cy="489.392" rx="2.4172" ry="0.681505" fill="#2E3B60"/>
<path d="M223.594 470.48C223.722 470.425 224.064 469.716 224.064 469.716L223.759 469.562C223.572 469.733 223.175 470.16 223.191 470.357C223.206 470.543 223.465 470.535 223.594 470.48Z" stroke="#2E3B60" stroke-width="0.5"/>
<path d="M223.41 483.752L224.455 483.366C224.036 483.15 223.135 482.668 222.889 482.464C222.643 482.259 222.222 481.802 222.042 481.6C221.909 481.162 221.642 480.126 221.678 480.057" stroke="#2E3B60" stroke-width="0.5"/>
<path d="M226.988 464.973C226.291 465.52 225.745 466.061 225.653 466.113C225.538 466.179 224.319 467.823 224.351 467.813C224.377 467.804 224.37 467.865 224.363 467.897C223.849 468.567 222.817 469.925 222.706 469.971C222.595 470.018 221.171 472.614 220.484 473.91C220.283 474.198 219.858 474.787 219.765 474.84C219.673 474.892 219.644 475.132 219.641 475.245L219.843 476.84L220.182 481.339L219.978 481.741L219.859 481.704L219.806 481.809L219.741 481.83C219.714 481.882 219.664 481.98 219.679 481.952C219.693 481.924 219.625 481.949 219.59 481.965C219.578 481.988 219.551 482.042 219.537 482.07C219.522 482.098 219.566 482.119 219.59 482.126L219.519 482.266L219.282 482.193C219.279 482.199 219.266 482.225 219.238 482.281C219.202 482.351 219.057 482.205 219.025 482.216C218.992 482.226 218.723 482.325 218.729 482.206C218.733 482.11 218.581 482.066 218.504 482.056C218.482 482.063 218.405 482.079 218.27 482.086C218.101 482.095 218.178 481.997 218.11 481.916C218.042 481.834 218.039 481.894 217.861 481.92C217.719 481.942 217.644 481.881 217.624 481.848C217.599 481.773 217.499 481.632 217.305 481.67C217.062 481.716 216.955 481.442 216.618 481.46C216.348 481.474 216.245 481.547 216.227 481.582L219.495 483.065C219.609 483.04 219.839 483.025 219.851 483.174C219.863 483.323 220.566 483.13 220.916 483.016C221.078 482.877 221.469 482.66 221.739 482.904C222.077 483.209 223.258 483.631 223.521 483.812C223.785 483.993 227.073 482.478 227.579 482.128C227.984 481.849 230.216 481.247 231.282 480.982L231.486 480.58L231.042 480.646L230.758 480.559L230.678 480.716C230.563 480.708 230.303 480.711 230.178 480.785C230.052 480.86 229.92 480.754 229.87 480.691L229.763 480.901L229.293 480.858L229.239 480.962L228.662 480.967L228.582 481.124L228.032 481.077L227.925 481.287L227.304 481.379L227.241 481.501L226.652 481.583L226.652 481.744L225.868 481.888C225.892 481.949 225.911 482.062 225.797 482.027C225.655 481.984 224.915 482.201 224.826 482.376C224.755 482.516 224.528 482.352 224.424 482.253C224.422 482.293 224.399 482.387 224.326 482.445C224.253 482.503 224.136 482.353 224.086 482.271C224.056 482.295 223.957 482.364 223.805 482.447C223.654 482.53 223.616 482.335 223.616 482.228C223.584 482.272 223.49 482.367 223.367 482.394C223.244 482.421 223.213 482.212 223.213 482.105C223.142 482.137 222.979 482.21 222.893 482.249C222.787 482.297 222.878 481.901 222.81 481.981C222.756 482.046 222.52 482.014 222.417 482.002L222.6 481.695L222.144 481.677L222.233 481.503L221.975 481.363L222.082 481.154L221.875 480.97L222.043 480.799L221.798 480.583L222.014 480.427L221.73 480.34L221.845 480.113L221.679 480.063C221.659 479.546 221.622 478.4 221.631 477.951C221.64 477.502 221.98 475.544 222.148 474.62C222.588 473.666 223.516 471.671 223.713 471.328C223.909 470.985 224.442 470.307 224.683 470.011C224.813 470.044 225.126 470.11 225.343 470.112C225.616 470.115 225.986 470.893 226.119 470.632C226.252 470.37 225.382 469.66 225.118 469.317C224.855 468.975 226.056 468.334 226.391 468.214C226.725 468.095 227.202 468.503 227.282 468.345C227.346 468.22 226.85 467.938 226.595 467.813L228.326 465.862C228.421 465.837 228.656 465.761 228.841 465.656C229.026 465.551 229.662 465.327 229.72 465.411" stroke="#2E3B60" stroke-width="0.5"/>
<mask id="path-12-inside-1_325_248" fill="white">
<ellipse cx="0.464391" cy="0.519497" rx="0.464391" ry="0.519497" transform="matrix(-0.969609 0.244661 -0.442 -0.897015 219.619 482.75)"/>
</mask>
<path d="M218.974 482.389C218.969 482.379 218.967 482.371 218.967 482.365C218.966 482.362 218.967 482.36 218.967 482.358C218.967 482.357 218.967 482.356 218.967 482.356C218.967 482.356 218.967 482.357 218.966 482.359C218.965 482.36 218.963 482.363 218.96 482.366C218.953 482.371 218.943 482.377 218.931 482.38L218.489 481.483C217.923 481.626 217.779 482.177 218.004 482.634L218.974 482.389ZM218.931 482.38C218.918 482.383 218.906 482.383 218.895 482.382C218.891 482.381 218.887 482.38 218.885 482.379C218.882 482.378 218.881 482.378 218.881 482.378C218.881 482.378 218.882 482.378 218.883 482.379C218.885 482.381 218.887 482.382 218.889 482.385C218.894 482.389 218.9 482.396 218.905 482.406L219.874 482.162C219.649 481.705 219.055 481.34 218.489 481.483L218.931 482.38ZM218.905 482.406C218.91 482.416 218.911 482.424 218.912 482.43C218.912 482.433 218.912 482.435 218.912 482.437C218.912 482.438 218.911 482.439 218.911 482.439C218.911 482.439 218.912 482.438 218.913 482.436C218.914 482.435 218.916 482.432 218.919 482.43C218.926 482.424 218.936 482.418 218.948 482.415L219.39 483.312C219.956 483.169 220.099 482.618 219.874 482.162L218.905 482.406ZM218.948 482.415C218.96 482.412 218.973 482.412 218.983 482.413C218.988 482.414 218.992 482.415 218.994 482.416C218.996 482.417 218.997 482.417 218.997 482.417C218.997 482.417 218.997 482.417 218.995 482.416C218.993 482.415 218.991 482.413 218.989 482.411C218.984 482.406 218.979 482.399 218.974 482.389L218.004 482.634C218.229 483.09 218.824 483.455 219.39 483.312L218.948 482.415Z" fill="#2E3B60" mask="url(#path-12-inside-1_325_248)"/>
<path d="M223.203 483.314C223.2 483.321 223.196 483.327 223.191 483.332C223.193 483.326 223.195 483.319 223.199 483.313C223.202 483.306 223.206 483.3 223.21 483.295C223.209 483.301 223.206 483.308 223.203 483.314ZM222.193 482.663C222.19 482.669 222.186 482.675 222.182 482.681C222.183 482.674 222.186 482.668 222.189 482.661C222.192 482.655 222.196 482.649 222.201 482.643C222.199 482.65 222.197 482.656 222.193 482.663ZM220.237 482.69C220.234 482.696 220.229 482.702 220.225 482.708C220.227 482.701 220.229 482.695 220.232 482.688C220.236 482.682 220.24 482.676 220.244 482.67C220.243 482.677 220.24 482.683 220.237 482.69ZM224.323 469.057C224.32 469.064 224.316 469.07 224.312 469.075C224.313 469.069 224.316 469.062 224.319 469.056C224.322 469.049 224.326 469.043 224.331 469.038C224.329 469.044 224.327 469.05 224.323 469.057Z" stroke="#2E3B60" stroke-width="0.5"/>
<mask id="path-15-inside-2_325_248" fill="white">
<ellipse cx="0.394886" cy="0.570281" rx="0.394886" ry="0.570281" transform="matrix(-0.987066 -0.160313 0.239285 -0.970949 220.596 475.875)"/>
</mask>
<path d="M220.446 475.275C220.463 475.208 220.492 475.172 220.501 475.164C220.504 475.161 220.496 475.17 220.472 475.179C220.445 475.189 220.405 475.197 220.359 475.19L220.598 474.219C220.283 474.168 220.005 474.312 219.826 474.479C219.644 474.649 219.518 474.875 219.459 475.115L220.446 475.275ZM220.359 475.19C220.313 475.182 220.28 475.162 220.26 475.145C220.242 475.129 220.239 475.118 220.241 475.122C220.245 475.132 220.255 475.174 220.239 475.241L221.226 475.401C221.285 475.162 221.276 474.914 221.188 474.701C221.102 474.49 220.914 474.27 220.598 474.219L220.359 475.19ZM220.239 475.241C220.222 475.308 220.193 475.344 220.184 475.352C220.18 475.355 220.189 475.346 220.213 475.337C220.24 475.327 220.28 475.319 220.326 475.326L220.086 476.297C220.402 476.348 220.679 476.204 220.859 476.037C221.041 475.867 221.167 475.641 221.226 475.401L220.239 475.241ZM220.326 475.326C220.371 475.334 220.405 475.353 220.424 475.371C220.442 475.387 220.446 475.398 220.444 475.394C220.44 475.384 220.43 475.341 220.446 475.275L219.459 475.115C219.4 475.354 219.409 475.602 219.496 475.815C219.583 476.026 219.771 476.246 220.086 476.297L220.326 475.326Z" fill="#2E3B60" mask="url(#path-15-inside-2_325_248)"/>
<path d="M224.658 470L223.524 469.432L224.489 467.912C224.499 467.874 224.443 467.809 224.364 467.833" stroke="#2E3B60" stroke-width="0.5"/>
<rect x="0.409038" y="0.545668" width="4.25398" height="1.05729" rx="0.528646" transform="matrix(0.994261 0.106979 -0.176185 0.984357 226.13 462.957)" fill="#2E3B60" stroke="#2E3B60"/>
<path d="M244.127 421.07C245.812 425.967 249.225 437.191 249.401 442.908C249.577 448.626 245.958 461.172 244.127 466.731M263.465 421.07C261.853 424.181 259.729 433.577 259.729 443.305C259.729 453.676 263.025 462.959 263.465 466.731" stroke="#2E3B60"/>
<path d="M236.656 449.008C240.172 448.837 248.68 447.053 252.698 446.963C256.715 446.873 266.322 448.497 270.058 449.008M237.535 439.126C239.952 439.126 246.103 440.865 252.938 440.865C260.225 440.865 266.542 439.126 269.179 439.296" stroke="#2E3B60"/>
<path d="M246.105 506.769C244.786 505.917 243.687 503.191 238.414 499.613C234.194 496.75 236.656 478.543 238.414 469.797C249.108 469.797 270.98 469.797 272.914 469.797C275.331 469.797 274.891 501.316 267.859 506.939C264.008 510.019 254.895 504.383 257.531 503.02C260.168 501.657 254.675 478.656 254.675 478.486C254.675 478.316 253.356 480.019 254.675 484.279C255.993 488.538 251.159 508.643 251.159 506.428" stroke="#2E3B60"/>
<path d="M254.236 510.011C254.236 511.23 256.873 513.25 258.192 513.25C257.093 512.869 256.434 510.202 256.434 508.868C255.628 508.741 254.236 508.792 254.236 510.011Z" stroke="#2E3B60"/>
<path d="M266.542 512.389C266.981 510.856 267.201 507.449 267.641 507.108C268.08 506.768 266.103 507.96 265.883 507.789" stroke="#2E3B60"/>
<path d="M242.413 421.53C240.299 422.171 239.568 423.401 239.161 423.936C238.348 425.14 239.986 427.958 240.392 430.097C240.457 430.438 240.392 430.779 240.392 431.827C240.392 433.186 239.964 434.907 239.579 435.705C239.161 436.572 238.28 437.8 237.941 438.647C237.264 440.252 235.908 443.89 235.908 445.602C235.908 447.741 236.656 449.086 236.656 449.691C236.656 451.131 234.689 455.364 234.485 457.236C234.282 459.108 235.299 462.185 235.908 463.388C236.518 464.592 242.413 466.063 246.478 467.133C250.543 468.203 259.892 467.668 263.348 467.133C266.803 466.598 271.884 464.057 273.104 462.185C274.323 460.312 272.9 457.103 271.884 455.23C270.868 453.358 269.838 447.816 269.838 447.135C269.838 447.135 270.055 439.717 268.632 437.043C267.494 434.903 267.86 432.483 268.08 431.631C268.3 429.757 268.902 425.889 268.739 423.964C268.466 420.73 264.637 420.728 261.728 420.727L261.721 420.727C258.47 420.726 254.561 420.727 249.73 420.727C243.022 420.728 244.526 420.888 242.413 421.53Z" stroke="#2E3B60"/>
<path d="M242.37 406.761C242.003 405.228 243.106 402.506 245.446 399.946C249.026 396.029 255.766 395.401 260.169 398.243C261.488 399.093 264.344 400.459 265.003 406.761" stroke="#2E3B60"/>
<path d="M331.072 586.706L331.063 586.376M331.063 586.376C331.063 586.376 331.18 590.307 331.063 592.662C330.945 595.017 326.551 591.432 324.597 592.662C322.642 593.892 318.131 585.852 317.413 584.804C316.838 583.966 317.174 583.058 317.413 582.709C317.413 582.709 317.821 582.362 318.131 582.185C318.631 581.9 319.513 581.661 319.513 581.661C319.513 581.661 320.172 581.492 321.005 581.661C321.005 581.661 325.575 587.329 326.752 586.9C327.929 586.471 327.471 586.376 328.189 586.376C328.907 586.376 331.063 586.376 331.063 586.376Z" stroke="#2E3B60"/>
<path d="M337.062 583.711C336.342 586.998 335.649 593.577 338.574 593.259C342.893 592.789 346.268 593.347 346.542 592.4" stroke="#2E3B60"/>
<path d="M354.453 503.289C357.53 506.526 364.74 511.346 364.74 515.556C364.74 519.951 365.327 540.571 364.74 541.624C364.154 542.676 361.725 544.861 360.318 544.861C358.91 544.861 357.969 544.691 356.651 543.498" stroke="#2E3B60"/>
<path d="M328.843 486.737H343.93C349.752 486.737 350.666 490.576 350.396 492.496V500.878C353.677 501.786 354.933 503.038 356.143 505.592C356.382 516.943 356.718 540.586 356.143 544.357C355.568 548.129 353.509 549.421 352.551 549.596C343.211 549.421 322.319 549.63 316.876 549.63C313.529 549.63 311.162 547.235 311.162 544.689C311.162 542.143 309.184 505.592 310.063 503.628C311.222 501.041 313.996 500.772 316.63 500.878V492.496C316.8 490.575 316.876 486.931 321.293 486.734L324.138 486.736L328.843 486.737Z" stroke="#2E3B60"/>
<path d="M310.283 503.461C307.725 505.408 304.943 509.716 303.841 513.23C302.629 517.091 302.422 522.136 302.152 523.906V527.303L302.629 531.285C303.571 535.357 305.993 543.159 306.64 543.159C307.286 543.159 309.326 543.67 310.942 543.67" stroke="#2E3B60"/>
<path d="M316.261 499.216C316.47 498.584 317.061 498.156 317.727 498.156H349.283C350.008 498.156 350.635 498.661 350.791 499.369L351.279 499.261L350.791 499.369C350.839 499.587 350.839 499.814 350.791 500.033L351.279 500.141L350.791 500.033C350.635 500.741 350.008 501.245 349.283 501.245H317.727C316.675 501.245 315.93 500.216 316.261 499.216Z" fill="#2E3B60" stroke="#2E3B60"/>
<path d="M360.166 544.852C358.994 552.632 356.563 568.636 355.332 569.727" stroke="#2E3B60"/>
<ellipse cx="355.55" cy="569.392" rx="2.4172" ry="0.681505" fill="#2E3B60"/>
<path d="M303.594 550.48C303.722 550.425 304.064 549.716 304.064 549.716L303.759 549.562C303.572 549.733 303.175 550.16 303.191 550.357C303.206 550.543 303.465 550.535 303.594 550.48Z" stroke="#2E3B60" stroke-width="0.5"/>
<path d="M303.41 563.752L304.455 563.366C304.036 563.15 303.135 562.668 302.889 562.464C302.643 562.259 302.222 561.802 302.042 561.6C301.909 561.162 301.642 560.126 301.678 560.057" stroke="#2E3B60" stroke-width="0.5"/>
<path d="M306.988 544.973C306.291 545.52 305.745 546.061 305.653 546.113C305.538 546.179 304.319 547.823 304.351 547.813C304.377 547.804 304.37 547.865 304.363 547.897C303.849 548.567 302.817 549.925 302.706 549.971C302.595 550.018 301.171 552.614 300.484 553.91C300.283 554.198 299.858 554.787 299.765 554.84C299.673 554.892 299.644 555.132 299.641 555.245L299.843 556.84L300.182 561.339L299.978 561.741L299.859 561.704L299.806 561.809L299.741 561.83C299.714 561.882 299.664 561.98 299.679 561.952C299.693 561.924 299.625 561.949 299.59 561.965C299.578 561.988 299.551 562.042 299.537 562.07C299.522 562.098 299.566 562.119 299.59 562.126L299.519 562.266L299.282 562.193C299.279 562.199 299.266 562.225 299.238 562.281C299.202 562.351 299.057 562.205 299.025 562.216C298.992 562.226 298.723 562.325 298.729 562.206C298.733 562.11 298.581 562.066 298.504 562.056C298.482 562.063 298.405 562.079 298.27 562.086C298.101 562.095 298.178 561.997 298.11 561.916C298.042 561.834 298.039 561.894 297.861 561.92C297.719 561.942 297.644 561.881 297.624 561.848C297.599 561.773 297.499 561.632 297.305 561.67C297.062 561.716 296.955 561.442 296.618 561.46C296.348 561.474 296.245 561.547 296.227 561.582L299.495 563.065C299.609 563.04 299.839 563.025 299.851 563.174C299.863 563.323 300.566 563.13 300.916 563.016C301.078 562.877 301.469 562.66 301.739 562.904C302.077 563.209 303.258 563.631 303.521 563.812C303.785 563.993 307.073 562.478 307.579 562.128C307.984 561.849 310.216 561.247 311.282 560.982L311.486 560.58L311.042 560.646L310.758 560.559L310.678 560.716C310.563 560.708 310.303 560.711 310.178 560.785C310.052 560.86 309.92 560.754 309.87 560.691L309.763 560.901L309.293 560.858L309.239 560.962L308.662 560.967L308.582 561.124L308.032 561.077L307.925 561.287L307.304 561.379L307.241 561.501L306.652 561.583L306.652 561.744L305.868 561.888C305.892 561.949 305.911 562.062 305.797 562.027C305.655 561.984 304.915 562.201 304.826 562.376C304.755 562.516 304.528 562.352 304.424 562.253C304.422 562.293 304.399 562.387 304.326 562.445C304.253 562.503 304.136 562.353 304.086 562.271C304.056 562.295 303.957 562.364 303.805 562.447C303.654 562.53 303.616 562.335 303.616 562.228C303.584 562.272 303.49 562.367 303.367 562.394C303.244 562.421 303.213 562.212 303.213 562.105C303.142 562.137 302.979 562.21 302.893 562.249C302.787 562.297 302.878 561.901 302.81 561.981C302.756 562.046 302.52 562.014 302.417 562.002L302.6 561.695L302.144 561.677L302.233 561.503L301.975 561.363L302.082 561.154L301.875 560.97L302.043 560.799L301.798 560.583L302.014 560.427L301.73 560.34L301.845 560.113L301.679 560.063C301.659 559.546 301.622 558.4 301.631 557.951C301.64 557.502 301.98 555.544 302.148 554.62C302.588 553.666 303.516 551.671 303.713 551.328C303.909 550.985 304.442 550.307 304.683 550.011C304.813 550.044 305.126 550.11 305.343 550.112C305.616 550.115 305.986 550.893 306.119 550.632C306.252 550.37 305.382 549.66 305.118 549.317C304.855 548.975 306.056 548.334 306.391 548.214C306.725 548.095 307.202 548.503 307.282 548.345C307.346 548.22 306.85 547.938 306.595 547.813L308.326 545.862C308.421 545.837 308.656 545.761 308.841 545.656C309.026 545.551 309.662 545.327 309.72 545.411" stroke="#2E3B60" stroke-width="0.5"/>
<mask id="path-37-inside-3_325_248" fill="white">
<ellipse cx="0.464391" cy="0.519497" rx="0.464391" ry="0.519497" transform="matrix(-0.969609 0.244661 -0.442 -0.897015 299.619 562.75)"/>
</mask>
<path d="M298.974 562.389C298.969 562.379 298.967 562.371 298.967 562.365C298.966 562.362 298.967 562.36 298.967 562.358C298.967 562.357 298.967 562.356 298.967 562.356C298.967 562.356 298.967 562.357 298.966 562.359C298.965 562.36 298.963 562.363 298.96 562.366C298.953 562.371 298.943 562.377 298.931 562.38L298.489 561.483C297.923 561.626 297.779 562.177 298.004 562.634L298.974 562.389ZM298.931 562.38C298.918 562.383 298.906 562.383 298.895 562.382C298.891 562.381 298.887 562.38 298.885 562.379C298.882 562.378 298.881 562.378 298.881 562.378C298.881 562.378 298.882 562.378 298.883 562.379C298.885 562.381 298.887 562.382 298.889 562.385C298.894 562.389 298.9 562.396 298.905 562.406L299.874 562.162C299.649 561.705 299.055 561.34 298.489 561.483L298.931 562.38ZM298.905 562.406C298.91 562.416 298.911 562.424 298.912 562.43C298.912 562.433 298.912 562.435 298.912 562.437C298.912 562.438 298.911 562.439 298.911 562.439C298.911 562.439 298.912 562.438 298.913 562.436C298.914 562.435 298.916 562.432 298.919 562.43C298.926 562.424 298.936 562.418 298.948 562.415L299.39 563.312C299.956 563.169 300.099 562.618 299.874 562.162L298.905 562.406ZM298.948 562.415C298.96 562.412 298.973 562.412 298.983 562.413C298.988 562.414 298.992 562.415 298.994 562.416C298.996 562.417 298.997 562.417 298.997 562.417C298.997 562.417 298.997 562.417 298.995 562.416C298.993 562.415 298.991 562.413 298.989 562.411C298.984 562.406 298.979 562.399 298.974 562.389L298.004 562.634C298.229 563.09 298.824 563.455 299.39 563.312L298.948 562.415Z" fill="#2E3B60" mask="url(#path-37-inside-3_325_248)"/>
<path d="M303.203 563.314C303.2 563.321 303.196 563.327 303.191 563.332C303.193 563.326 303.195 563.319 303.199 563.313C303.202 563.306 303.206 563.3 303.21 563.295C303.209 563.301 303.206 563.308 303.203 563.314ZM302.193 562.663C302.19 562.669 302.186 562.675 302.182 562.681C302.183 562.674 302.186 562.668 302.189 562.661C302.192 562.655 302.196 562.649 302.201 562.643C302.199 562.65 302.197 562.656 302.193 562.663ZM300.237 562.69C300.234 562.696 300.229 562.702 300.225 562.708C300.227 562.701 300.229 562.695 300.232 562.688C300.236 562.682 300.24 562.676 300.244 562.67C300.243 562.677 300.24 562.683 300.237 562.69ZM304.323 549.057C304.32 549.064 304.316 549.07 304.312 549.075C304.313 549.069 304.316 549.062 304.319 549.056C304.322 549.049 304.326 549.043 304.331 549.038C304.329 549.044 304.327 549.05 304.323 549.057Z" stroke="#2E3B60" stroke-width="0.5"/>
<mask id="path-40-inside-4_325_248" fill="white">
<ellipse cx="0.394886" cy="0.570281" rx="0.394886" ry="0.570281" transform="matrix(-0.987066 -0.160313 0.239285 -0.970949 300.596 555.875)"/>
</mask>
<path d="M300.446 555.275C300.463 555.208 300.492 555.172 300.501 555.164C300.504 555.161 300.496 555.17 300.472 555.179C300.445 555.189 300.405 555.197 300.359 555.19L300.598 554.219C300.283 554.168 300.005 554.312 299.826 554.479C299.644 554.649 299.518 554.875 299.459 555.115L300.446 555.275ZM300.359 555.19C300.313 555.182 300.28 555.162 300.26 555.145C300.242 555.129 300.239 555.118 300.241 555.122C300.245 555.132 300.255 555.174 300.239 555.241L301.226 555.401C301.285 555.162 301.276 554.914 301.188 554.701C301.102 554.49 300.914 554.27 300.598 554.219L300.359 555.19ZM300.239 555.241C300.222 555.308 300.193 555.344 300.184 555.352C300.18 555.355 300.189 555.346 300.213 555.337C300.24 555.327 300.28 555.319 300.326 555.326L300.086 556.297C300.402 556.348 300.679 556.204 300.859 556.037C301.041 555.867 301.167 555.641 301.226 555.401L300.239 555.241ZM300.326 555.326C300.371 555.334 300.405 555.353 300.424 555.371C300.442 555.387 300.446 555.398 300.444 555.394C300.44 555.384 300.43 555.341 300.446 555.275L299.459 555.115C299.4 555.354 299.409 555.602 299.496 555.815C299.583 556.026 299.771 556.246 300.086 556.297L300.326 555.326Z" fill="#2E3B60" mask="url(#path-40-inside-4_325_248)"/>
<path d="M304.658 550L303.524 549.432L304.489 547.912C304.499 547.874 304.443 547.809 304.364 547.833" stroke="#2E3B60" stroke-width="0.5"/>
<rect x="0.409038" y="0.545668" width="4.25398" height="1.05729" rx="0.528646" transform="matrix(0.994261 0.106979 -0.176185 0.984357 306.13 542.957)" fill="#2E3B60" stroke="#2E3B60"/>
<path d="M324.127 501.07C325.812 505.967 329.225 517.191 329.401 522.908C329.577 528.626 325.958 541.172 324.127 546.731M343.465 501.07C341.853 504.181 339.729 513.577 339.729 523.305C339.729 533.676 343.025 542.959 343.465 546.731" stroke="#2E3B60"/>
<path d="M316.656 529.008C320.172 528.837 328.68 527.053 332.698 526.963C336.715 526.873 346.322 528.497 350.058 529.008M317.535 519.126C319.952 519.126 326.103 520.865 332.938 520.865C340.225 520.865 346.542 519.126 349.179 519.296" stroke="#2E3B60"/>
<path d="M326.105 586.769C324.786 585.917 323.687 583.191 318.414 579.613C314.194 576.75 316.656 558.543 318.414 549.797C329.108 549.797 350.98 549.797 352.914 549.797C355.331 549.797 354.891 581.316 347.859 586.939C344.008 590.019 334.895 584.383 337.531 583.02C340.168 581.657 334.675 558.656 334.675 558.486C334.675 558.316 333.356 560.019 334.675 564.279C335.993 568.538 331.159 588.643 331.159 586.428" stroke="#2E3B60"/>
<path d="M334.236 590.011C334.236 591.23 336.873 593.25 338.192 593.25C337.093 592.869 336.434 590.202 336.434 588.868C335.628 588.741 334.236 588.792 334.236 590.011Z" stroke="#2E3B60"/>
<path d="M346.542 592.389C346.981 590.856 347.201 587.449 347.641 587.108C348.08 586.768 346.103 587.96 345.883 587.789" stroke="#2E3B60"/>
<path d="M322.413 501.53C320.299 502.171 319.568 503.401 319.161 503.936C318.348 505.14 319.986 507.958 320.392 510.097C320.457 510.438 320.392 510.779 320.392 511.827C320.392 513.186 319.964 514.907 319.579 515.705C319.161 516.572 318.28 517.8 317.941 518.647C317.264 520.252 315.908 523.89 315.908 525.602C315.908 527.741 316.656 529.086 316.656 529.691C316.656 531.131 314.689 535.364 314.485 537.236C314.282 539.108 315.299 542.185 315.908 543.388C316.518 544.592 322.413 546.063 326.478 547.133C330.543 548.203 339.892 547.668 343.348 547.133C346.803 546.598 351.884 544.057 353.104 542.185C354.323 540.312 352.9 537.103 351.884 535.23C350.868 533.358 349.838 527.816 349.838 527.135C349.838 527.135 350.055 519.717 348.632 517.043C347.494 514.903 347.86 512.483 348.08 511.631C348.3 509.757 348.902 505.889 348.739 503.964C348.536 501.557 344.632 500.728 341.721 500.727C338.47 500.726 334.561 500.727 329.73 500.727C323.022 500.728 324.526 500.888 322.413 501.53Z" stroke="#2E3B60"/>
<path d="M322.37 486.761C322.003 485.228 323.106 482.506 325.446 479.946C329.026 476.029 335.766 475.401 340.169 478.243C341.488 479.093 344.344 480.459 345.003 486.761" stroke="#2E3B60"/>
<path d="M209.837 227.062C209.567 229.65 209.837 236.766 209.837 239.677C209.836 242.877 211.725 248.086 212.265 250.35C212.265 250.35 212.759 252.124 213.075 253.261L213.884 256.172V270.727V284.311C213.344 286.252 212.75 290.133 214.693 290.133" stroke="#2E3B60" stroke-width="2"/>
<path d="M128.083 294.016C128.083 294.339 126.788 296.538 121.608 302.749C116.427 308.959 109.196 316.333 106.228 319.244L82.7543 340.591L78.707 343.502C81.9448 342.532 89.2298 341.173 92.4676 343.502C95.7054 345.831 97.5941 348.354 98.1337 349.324L101.372 354.175C103.26 354.822 107.685 355.728 110.275 354.175C112.866 352.623 117.291 353.529 119.179 354.175C119.989 354.175 121.608 354.564 121.608 356.116C121.608 357.669 121.608 366.466 121.608 370.671C121.877 373.582 122.741 379.792 124.036 381.344C125.331 382.897 129.972 387.813 132.13 390.077V392.988" stroke="#2E3B60" stroke-width="2"/>
<path d="M167.745 240.641C161.269 248.403 146.376 265.093 138.605 269.75C130.834 274.408 124.575 280.1 122.416 282.364C124.035 283.982 127.435 287.992 128.082 291.097C128.892 294.979 129.701 304.682 132.939 308.563C135.529 311.668 143.192 320.854 146.699 325.058C147.509 326.029 148.642 328.94 146.699 332.821C144.271 337.673 142.652 337.673 145.081 340.584C147.023 342.912 151.826 348.67 153.984 351.257C155.333 351.904 158.032 353.974 158.032 357.079C158.032 360.184 158.032 362.254 158.032 362.901" stroke="#2E3B60" stroke-width="2"/>
<path d="M1 316.329C16.6493 307.596 52.9665 284.697 73.0407 262.962C93.115 241.226 103.53 228.03 106.228 224.149H118.37C123.766 220.914 136.663 211.341 145.081 198.92C153.5 186.5 158.842 181.455 160.461 180.484L177.459 190.188L190.41 208.624C194.997 215.416 204.819 228.806 207.409 228.03C209.999 227.254 213.345 225.766 214.694 225.119L222.788 239.674C231.692 254.552 250.148 284.891 252.738 287.22C255.328 289.548 265.149 299.834 269.736 304.685L287.544 321.181C298.876 332.178 323 352.984 328.016 356.112C333.033 359.24 350.681 365.815 359.585 364.845C366.708 364.069 388.995 359.347 399.248 357.083L413.818 351.261L442.958 337.676L451.862 332.825C455.099 336.706 462.87 345.439 468.051 349.32C473.231 353.201 481.002 357.406 484.239 359.023C487.747 360.964 495.41 364.845 498 364.845" stroke="#2E3B60" stroke-width="2"/>
<path d="M159.652 181.453C159.652 186.952 159.976 198.143 161.271 198.919C162.566 199.695 163.43 203.77 163.7 205.711L162.081 213.474C161.541 218.649 160.947 229.775 162.89 232.88C164.833 235.985 170.175 243.23 172.603 246.465L176.651 253.257L192.84 279.455C193.109 280.426 193.649 282.949 193.649 285.277C193.649 288.188 196.887 296.921 199.315 300.802C201.258 303.907 209.298 318.268 213.076 325.06C213.885 327.001 215.99 330.882 217.932 330.882" stroke="#2E3B60" stroke-width="2"/>
<path d="M223 239.484C241.5 235.484 287 164.48 324 119.98C331.833 107.48 349.1 83.18 355.5 85.98C363.5 89.48 370 102.972 385.5 111.476C401 119.98 412 115.976 416.5 130.476C421 144.976 417 154.476 426.5 158.476C436 162.476 439 176.476 446.5 180.976C452.5 184.576 451 183.476 449.5 182.476C445.667 176.643 437.1 163.076 433.5 155.476C429 145.976 425 122.976 413.5 117.976C404.3 113.976 406.333 107.309 408.5 104.476L411.5 89.9761C408.833 87.8094 403.3 82.3761 402.5 77.9761C401.5 72.4761 405.5 64.4761 407 57.9761C408.5 51.4761 406.5 43.9761 411.5 43.9761C416.5 43.9761 404 42.9761 400.5 31.4761C397 19.9761 396.5 13.9761 397.5 11.9761C398.3 10.3761 416.5 31.6427 425.5 42.4761C442.5 65.8118 478.5 113.983 486.5 119.98C496.5 127.477 513.5 139.477 520 150.977C526.5 162.477 554 200.477 574 217.477C590 231.077 609 243.81 616.5 248.477C618.167 241.977 623.2 231.277 630 240.477C636.8 249.677 646.167 244.31 650 240.477C654.5 247.977 669.7 266.277 694.5 279.477C719.3 292.677 815 335.484 857 335.484" stroke="#2E3B60" stroke-width="2"/>
<path d="M354 91.9805C355 88.1472 354.9 82.4805 346.5 90.4805C338.1 98.4805 320 116.306 312 127.473C313.333 123.807 317.701 114.981 314.501 118.981C310.501 123.981 300 138.481 303.5 129.481C306.3 122.281 322.5 102.647 330 90.4805L360.5 46.4841L380.911 9.84709C387 0.983 388.5 -2.52656 396.5 5.47344C404.5 13.4734 469.5 89.8064 501 126.973L509 137.973" stroke="#2E3B60" stroke-width="2"/>
<path d="M359 87.9844C358.667 87.9844 358.1 88.1844 358.5 90.9844C358.9 93.7844 360.333 98.8177 360.999 100.984L365.999 112.484C363.166 105.651 357.199 92.4844 355.999 94.4844C354.799 96.4844 349.833 104.318 347.499 107.984C346.166 110.651 343.799 116.584 344.999 118.984C346.499 121.984 349 123.484 346 122.984C343 122.484 340 122.484 340 125.484C340 127.884 340.667 131.484 341 132.984C340.999 134.818 341.799 139.984 344.999 145.984C349 153.484 358 170.984 364 179.484C370 187.984 384.5 204.984 392.5 212.484C400.5 219.984 400.5 221.984 408 226.484C415.5 230.984 422 232.984 428 235.484C434 237.984 445.5 244.484 447 246.484C448.5 248.484 457.5 253.984 463 260.484C467.4 265.684 474.833 273.984 478 277.484" stroke="#2E3B60" stroke-width="2"/>
<path d="M618 243.977L621 250.475L621.5 242.975L625.5 254.475L626 241.975C627.667 248.642 631.1 261.375 631.5 258.975C632 255.975 628 246.975 629 244.475C629.8 242.075 630 240.748 630 240.477C630 240.978 629.8 240.375 631 241.975C632.2 243.575 632.5 245.974 632.5 246.973L634.5 255.473C635.333 257.806 637.2 262.173 638 260.973C638.8 259.773 636.667 254.139 635.5 251.473L634.5 245.973V244.475L636.5 245.473L641.5 262.973L639.351 245.473H640.5L647 268.473C645.5 260.639 642.7 244.973 643.5 244.973C644.3 244.973 646.5 251.306 647.5 254.473C649.333 260.473 653.2 272.473 654 272.473C655 272.473 649 250.665 649 247.973C649 245.981 647.167 243.981 646 243.481" stroke="#2E3B60" stroke-width="2"/>
<path d="M653 244.984C652.333 249.484 651.8 260.477 655 266.477C658.2 272.477 660 274.977 660.5 275.477C658.833 269.143 655.6 255.877 656 253.477C656.4 251.077 657.833 254.81 658.5 256.977L660.5 266.477C660.333 268.143 660.5 272.077 662.5 274.477C665 277.477 664 277.477 663 270.977C662.2 265.777 662 260.477 662 258.477L669.5 282.477L668 267.477L674 282.977L673 271.977L679 287.477L678 276.977L684 290.477L683 277.477L688.5 293.477C688 289.977 686.9 282.677 686.5 281.477C686 279.977 691 290.477 690.5 293.977C690.1 296.777 691.333 287.477 692 282.477L696 300.977V285.477L701.5 304.977L700 285.977L705 306.477C703.333 300.977 700.6 290.077 703 290.477C705.4 290.877 708 304.643 709 311.477C709.5 310.977 710.3 309.177 709.5 305.977C708.7 302.777 707.5 295.977 707 292.977C706.333 290.643 705.4 286.577 707 288.977C708.6 291.377 710 298.643 710.5 301.977C711 304.477 712.3 309.977 713.5 311.977C714.7 313.977 715.333 314.81 715.5 314.977L714 297.477C715.167 297.977 717.5 299.877 717.5 303.477C717.5 307.077 718.167 312.31 718.5 314.477L719 316.977L720 304.477L722.5 318.477C722.667 315.31 723.3 309.177 724.5 309.977C725.7 310.777 728.333 315.643 729.5 317.977L733.5 322.477L730 311.977L748 332.477L738.5 318.477V316.977L760.5 337.477L751.5 324.977L777.5 343.977L766.5 332.477C771.333 334.143 782 338.277 786 341.477C790 344.677 799 347.81 803 348.977" stroke="#2E3B60" stroke-width="2"/>
<path d="M305.5 128.984C305 136.484 303.5 147.484 301.5 148.484" stroke="#2E3B60" stroke-width="2"/>
<path d="M688.857 100.961C686.978 102.984 686.579 107.99 683.299 110.484C680.019 112.978 676.886 117.084 675.52 118.816C674.153 120.548 671.42 124.427 671.42 126.089C671.42 127.751 674.153 129.552 675.52 130.245L680.645 133.362C681.328 133.362 682.899 133.986 683.719 136.479C684.539 138.973 686.111 142.367 686.794 143.752L688.844 146.869L690.894 152.064L692.944 156.22L696.019 158.298C698.752 158.991 704.218 161 704.218 163.493C704.218 165.987 704.218 171.459 704.218 173.884C705.585 175.962 709.138 180.533 712.418 182.196C715.698 183.858 715.835 187.737 715.493 189.469V199.859C716.86 201.591 720.003 205.262 721.643 206.093C723.283 206.924 725.059 209.903 725.743 211.288L729.842 216.483L731.892 220.639C733.762 224.088 738 231.484 740 233.484C742 235.484 745.167 237.318 746.5 237.984C746.5 237.984 783.5 253.484 768.5 258.484C753.5 263.484 707.675 285.184 703.5 283.984" stroke="#2E3B60" stroke-width="2"/>
<path d="M689.872 87.6484C689.189 93.1898 688.232 104.896 689.872 107.39C691.512 109.883 697.388 115.355 700.121 117.78C701.146 119.858 703.196 124.637 703.196 127.131C703.196 129.625 703.879 134.404 704.221 136.482L708.321 140.638L711.396 144.794L714.471 148.95V152.067" stroke="#2E3B60" stroke-width="2"/>
<path d="M572.5 216.984C580.688 209.122 597.791 192.81 602.704 185.426C608.845 176.197 610.892 170.044 620.103 159.789C629.314 149.534 632.384 145.432 643.642 135.177C652.649 126.973 658.994 121.503 661.041 119.794C663.088 116.711 666.743 107.484 670.252 102.354C674.291 96.4493 685.893 88.4488 686.352 87.9553C690.026 84.5028 687.73 87.4578 695.537 93.3856C706.221 101.498 713.238 106.449 714.261 108.511C715.285 110.572 715.285 112.613 720.402 119.794C725.162 126.474 738.142 132.103 742.918 135.177C746.671 136.547 754.586 140.722 756.223 146.465C758.27 153.643 764.411 166.982 771.575 176.204C777.307 183.582 786.927 194.319 791.021 198.765L804.326 213.122C807.017 216.984 815.611 225.742 820.814 229.984C830.013 237.484 861.705 311.64 872.325 327.984C874.05 330.984 878.7 336.984 883.5 336.984" stroke="#2E3B60" stroke-width="2"/>
<path d="M688.818 86.9844C684.695 89.4249 675.902 97.4406 671.779 105.808C666.626 116.268 656.318 129.865 652.195 134.049C648.897 137.396 639.826 147.298 635.703 151.83C631.58 156.363 624.54 159.678 619.211 166.473C613.047 174.335 607.873 189.484 607.873 189.484" stroke="#2E3B60" stroke-width="2"/>
<path d="M689.278 87.4844C685.178 88.5234 676.544 105.148 672.444 113.46C667.319 123.85 663.422 141.513 652.97 141.513C648.87 141.513 640.67 154.674 636.57 159.177C632.47 163.679 621.964 166.454 620.171 173.723C617.096 186.191 608.896 196.581 608.896 196.581" stroke="#2E3B60" stroke-width="2"/>
<path d="M743.168 135.247C752.392 141.482 741.117 163.297 745.217 168.486C750.054 174.606 757.517 178.918 761.616 180.986L770.841 186.181C772.549 186.873 775.942 188.153 777.582 188.984C779.222 189.816 785.861 193.984 787.267 194.671" stroke="#2E3B60" stroke-width="2"/>
<path d="M687.358 87.5781C687.224 87.6151 687.098 87.6458 686.961 87.6645" stroke="#2E3B60" stroke-width="2" stroke-linecap="round"/>
<path d="M745.848 136.484C745.886 136.821 746.33 137.3 746.487 137.608C746.676 137.977 746.907 138.373 747.182 138.672C747.465 138.98 747.897 139.109 748.188 139.397C748.565 139.77 748.861 140.188 749.215 140.574C749.718 141.12 749.789 141.848 750.03 142.529C750.171 142.929 750.891 142.817 750.227 143.807C749.773 144.484 750.865 144.235 750.907 144.484C750.983 144.943 750.883 145.589 751.085 146.006C751.492 146.847 754.586 153.484 755.966 154.484" stroke="#2E3B60" stroke-width="2" stroke-linecap="round"/>
<path d="M158.939 182.695C158.754 184.547 157.343 186.33 156.939 188.204C156.628 189.643 156.641 191.301 156.192 192.697C155.979 193.361 155.502 193.923 155.117 194.488C153.533 196.816 152.084 199.279 150.669 201.713C149.212 204.219 148.457 207.144 146.877 209.535C143.694 214.355 140.358 219.068 136.951 223.731C135.431 225.811 133.516 227.498 131.86 229.448C131.265 230.15 130.878 230.634 130.039 231.061C126.132 233.047 122.203 234.984 118.231 236.838C112.04 239.727 105.073 242.874 100.632 248.302C96.0477 253.905 92.458 260.341 86.9283 265.125C82.1861 269.228 76.7234 272.298 71.5678 275.828C67.3999 278.683 63.3083 281.452 58.8644 283.845C57.1649 284.76 55.7811 286.181 54.4011 287.502C51.7921 289.999 49.2409 292.574 46.5342 294.966C44.6204 296.657 42.6297 298.289 40.6528 299.907C37.6922 302.329 34.3157 304.182 31.338 306.564C29.9114 307.706 29.4546 308.528 28.8301 310.117C28.0684 312.056 24.7302 312.743 22.9785 313.282" stroke="#2E3B60" stroke-width="2" stroke-linecap="round"/>
<path d="M158.94 182.422C158.94 186.088 159.477 190.365 158.492 193.976C157.596 197.262 155.992 200.294 154.85 203.5C154.329 204.962 154.099 206.511 153.506 207.948C152.508 210.366 151.102 212.794 149.655 214.964C147.302 218.494 144.517 221.718 142.191 225.264C140.474 227.882 139.21 230.637 137.922 233.474C137.114 235.253 136.273 236.793 134.369 237.505C131.689 238.507 129.221 239.592 126.711 240.998C121.995 243.639 117.251 246.87 113.381 250.671C112.504 251.532 111.721 252.543 110.963 253.507C109.336 255.575 107.315 257.26 105.41 259.06C100.834 263.381 95.8562 267.27 91.4076 271.719C88.8434 274.283 85.8148 276.269 83.2273 278.824C82.0704 279.967 81.0892 281.038 79.7193 281.899C73.7237 285.668 67.3364 288.846 61.5823 293.005C59.7708 294.315 59.4292 295.146 58.3579 296.991C56.8729 299.548 54.8153 301.478 52.5809 303.38C50.682 304.997 48.6107 306.875 46.2964 307.903C44.0594 308.897 42.1727 310.633 39.9223 311.665C37.9147 312.585 35.7693 313.828 33.9961 315.158" stroke="#2E3B60" stroke-width="2" stroke-linecap="round"/>
<path d="M158.492 183.125C156.977 183.293 155.082 185.763 154.069 186.775C152.801 188.043 151.79 189.32 150.934 190.877C149.606 193.29 148.34 195.938 147.584 198.585C146.367 202.847 143.92 207.267 141.486 210.954C139.153 214.486 135.85 217.322 132.618 220.015C131.193 221.203 129.894 222.848 128.345 223.795C122.24 227.525 117.118 231.389 110.179 233.371C107.829 234.043 106.643 234.888 104.767 236.378C102.752 237.978 101.93 240.662 99.7427 242.068C97.3336 243.617 95.1144 245.558 93.0862 247.586C90.8274 249.845 89.1488 252.589 87.2885 255.188C84.9146 258.504 82.6922 262.845 79.5583 265.538C78.0933 266.796 75.9304 267.618 74.2116 268.458C72.1693 269.456 71.5055 271.271 69.9814 272.795C68.3352 274.442 65.7578 276.476 63.604 277.434C62.4022 277.968 61.5 276.578 60.018 278.894C59 280.484 25 309.484 22.5 308.984" stroke="#2E3B60" stroke-width="2" stroke-linecap="round"/>
<path d="M351.516 88.3226C351.516 87.6606 352.177 87.4139 352.578 87.0126C352.757 86.8341 353.054 86.2891 353.355 86.2891" stroke="#2E3B60" stroke-width="2" stroke-linecap="round"/>
<path d="M355.213 86.1172C355.213 86.5134 355.735 86.8231 355.89 87.1323" stroke="#2E3B60" stroke-width="2" stroke-linecap="round"/>
<path d="M356.855 87.4844C356.855 87.7944 356.847 88.033 356.726 88.3245C356.536 88.7851 356.735 89.3929 356.64 89.8847C356.54 90.4045 356.683 90.8744 356.683 91.3871C356.683 91.7872 356.683 92.1873 356.683 92.5873C356.683 92.8638 356.894 92.9928 357.028 93.2096C357.395 93.8066 357.728 94.3873 358.061 95.0054C358.394 95.6249 358.564 96.3177 358.854 96.9257C358.908 97.0382 358.894 97.1755 358.96 97.2769C359.133 97.5447 358.701 96.7005 358.577 96.4101C357.443 93.7461 356.894 91.556 356.894 88.7823M356.894 88.7823C356.894 88.0928 356.96 88.6495 356.894 88.7823ZM356.894 88.7823C356.277 90.0208 355.732 91.4689 355.569 92.8362C355.497 93.4371 355.976 93.8853 356.478 94.2098C356.674 94.337 357.061 94.4584 357.195 94.6454C357.252 94.7256 357.42 94.9418 357.42 94.8454C357.42 94.5782 356.984 93.973 356.851 93.7252C356.665 93.3807 356.444 92.9188 356.1 92.6851C355.983 92.6059 355.719 92.175 355.645 92.4851C355.531 92.9647 355.522 93.3638 355.22 93.8053C354.737 94.5103 354.391 95.2911 353.861 95.9656C353.566 96.3417 353.299 96.702 353.001 97.0857C352.456 97.786 352.295 98.8525 351.652 99.4505C351.431 99.6557 351.021 100.156 351.001 100.446C350.994 100.55 351.015 100.412 351.021 100.393C351.135 99.9837 351.399 99.6075 351.609 99.2371C352.241 98.1239 352.861 97.0058 353.46 95.8767C353.747 95.3355 353.989 94.775 354.292 94.2409C354.482 93.905 354.803 93.631 355.043 93.3252C355.177 93.1537 355.572 92.2454 355.66 92.614C355.883 93.5472 357.092 93.9612 357.525 94.7654C357.778 95.2358 358.158 95.6657 358.405 96.1256" stroke="#2E3B60" stroke-width="2" stroke-linecap="round"/>
<path d="M625.131 189.923C625.131 184.266 625.638 178.474 629.067 173.848C634.833 166.073 641.687 159 649.516 153.291C651.596 151.774 653.814 150.593 655.858 149.026C659.091 146.548 664.055 144.073 665.591 139.977C669.215 130.313 670.655 119.241 676.307 110.316C677.756 108.028 679.376 106.262 681.228 104.302C682.842 102.592 683.116 99.8303 683.688 97.6858C684.151 95.9483 688.026 88.2214 689.5 87.4844" stroke="#2E3B60" stroke-width="2" stroke-linecap="round"/>
<path d="M248 529.484C248 532.919 251.152 530.116 254.444 531.762C255.791 532.435 252.73 533.463 254.556 533.984C256.202 534.455 256.727 535.166 258 535.484" stroke="#2E3B60" stroke-width="7" stroke-linecap="round"/>
<path d="M267 521.484C267 524.919 270.152 522.116 273.444 523.762C274.791 524.435 271.73 525.463 273.556 525.984C275.202 526.455 275.727 527.166 277 527.484" stroke="#2E3B60" stroke-width="7" stroke-linecap="round"/>
<path d="M324 609.642C326.439 609.642 330.759 608.57 330.759 612.011C330.759 615.089 332.727 615.317 335.439 616.402" stroke="#2E3B60" stroke-width="7" stroke-linecap="round"/>
<path d="M341.443 603.594C345.182 603.594 344.479 604.301 344.967 608.042C345.67 613.431 351.352 611.13 354.124 614.541C355.967 616.809 354.39 620.373 355.771 622.543C356.78 624.128 359.308 625.098 360.681 626.471" stroke="#2E3B60" stroke-width="7" stroke-linecap="round"/>
<path d="M263.453 558.883C264.578 558.883 265.497 559.944 266.688 560.327C268.038 560.761 269.655 560.985 270.732 562.002C273.257 564.387 275.595 568.242 279.571 568.242" stroke="#2E3B60" stroke-width="7" stroke-linecap="round"/>
<path d="M284.77 546.922C286.779 546.922 286.515 548.834 287.889 549.522" stroke="#2E3B60" stroke-width="7" stroke-linecap="round"/>
<path d="M387.641 636.711C392.35 636.711 394.659 638.477 399.121 638.477" stroke="#2E3B60" stroke-width="7" stroke-linecap="round"/>
<path d="M382.342 652.609C385.682 652.609 386.604 655.994 389.407 656.142C392.037 656.28 394.012 657.025 396.472 657.025" stroke="#2E3B60" stroke-width="7" stroke-linecap="round"/>
<path d="M354.48 87.0391C352.173 87.3537 349.774 88.9757 347.84 90.1542C344.547 92.1603 340.581 94.7913 338.904 98.4134C338.18 99.9788 338.147 101.285 338.617 102.902C339.431 105.699 337.087 107.988 335.174 109.788C331.832 112.934 327.863 115.577 325.501 119.625C321.294 126.837 317.086 134.365 313.327 141.841C312.675 143.139 310.516 146.491 311.032 148.112C311.093 148.305 311.366 148.256 311.503 148.317C312.184 148.62 311.832 150.123 311.749 150.551C310.726 155.823 307.964 160.652 306.318 165.737C305.827 167.254 304.069 170.954 304.884 172.582C305.159 173.134 305.744 173.076 305.744 173.812C305.744 176.897 302.693 179.947 301.072 182.297C299.097 185.159 296.917 189.559 293.653 191.191C292.768 191.634 292.221 191.517 291.398 192.175" stroke="#2E3B60" stroke-width="2" stroke-linecap="round"/>
<path d="M357.801 88.1406C349.642 88.1406 344.414 95.3025 341.651 102.364C340.793 104.558 340.093 106.757 340.093 109.127C340.093 111.215 338.335 113.748 337.47 115.439C334.424 121.397 331.274 127.301 328.248 133.269C327.291 135.156 326.095 137.122 325.624 139.212C324.905 142.41 323.858 145.449 322.837 148.558C322.226 150.421 321.649 152.34 321.649 154.317C321.649 155.477 322.386 156.647 322.386 158.026C322.386 162.535 322.386 167.044 322.386 171.553C322.386 173.055 322.076 174.963 322.407 176.451C323.517 181.445 320.226 187.942 317.755 192.211C317.592 192.491 315.468 195.666 315.439 195.592C315.258 195.139 316.741 193.851 315.931 194.527C309.873 199.575 302.512 203.857 295.088 206.557" stroke="#2E3B60" stroke-width="2" stroke-linecap="round"/>
<path d="M355.586 89.25C346.711 89.8416 345.036 102.554 342.695 109.109C341.146 113.446 339.191 117.579 337.879 122C337.003 124.949 334.815 127.441 333.247 130.034C330.174 135.116 327.676 139.937 326.136 145.712C324.084 153.408 324.213 162.055 324.681 169.957C324.93 174.167 325.93 178.219 325.459 182.458C324.495 191.138 321.543 199.65 315.684 206.252C306.043 217.116 293.335 224.38 282.626 234.022C277.949 238.233 273.622 242.947 269.51 247.712C268.76 248.581 268.898 249.532 268.321 250.274C265.63 253.735 261.363 256.05 257.828 258.574" stroke="#2E3B60" stroke-width="2" stroke-linecap="round"/>
<path d="M354.849 89.25C353.979 90.9096 352.6 92.4062 351.897 94.1276C350.649 97.1864 349.42 100.195 348.065 103.207C346.601 106.461 344.703 108.507 342.449 111.261C340.672 113.433 339.182 115.605 338.699 118.393C338.45 119.831 338.137 121.268 337.674 122.656C336.859 125.103 335.431 127.166 333.739 129.091C330.068 133.267 326.52 137.287 324.681 142.638C321.475 151.963 328.949 160.218 326.402 169.424C323.14 181.22 316.238 192.569 310.109 203.075C307.606 207.367 305.041 212.56 301.194 215.864C298.721 217.988 295.825 219.663 293.181 221.561C288.567 224.875 284.011 228.267 279.429 231.624C276.594 233.702 273.826 235.793 271.191 238.121C269.898 239.263 268.204 240.238 267.133 241.605C266.081 242.947 266.719 244.279 266.088 245.683C264.613 248.959 258.274 249.452 255.246 250.089" stroke="#2E3B60" stroke-width="2" stroke-linecap="round"/>
<path d="M348.57 104.321C349.053 102.873 349.778 101.509 350.485 100.161C351.619 97.997 352.611 95.7476 353.801 93.6148C354.059 93.1532 354.332 92.6799 354.664 92.2656" stroke="#2E3B60" stroke-width="2" stroke-linecap="round"/>
<path d="M346.5 148.984C345.618 149.082 344.51 149.679 343.948 150.206C340.013 153.896 336.532 160.025 335.598 165.37C335.334 166.887 335.235 167.841 336.558 168.649C337.512 169.233 337.097 170.144 336.718 171.049C333.815 177.985 331.586 184.228 331.327 191.891C331.205 195.522 331.617 198.961 332.271 202.496C332.868 205.725 331.869 208.54 330.384 211.422C327.351 217.305 323.18 222.733 319.251 228.026C315.938 232.488 312.463 236.821 308.853 241.046C307.064 243.141 306.615 243.727 304.023 244.118C298.204 244.994 292.645 246.825 287.035 248.532" stroke="#2E3B60" stroke-width="2" stroke-linecap="round"/>
<path d="M678.836 143.078C669.343 154.945 662.302 169.024 659.609 183.838C658.027 192.535 642.46 196.999 636.659 202.8C632.078 207.381 640.196 206.259 641.798 210.065C644.456 216.377 627.084 224.896 623.014 227.61" stroke="#2E3B60" stroke-width="2" stroke-linecap="round"/>
<path d="M659.698 155.836C651.621 163.913 643.053 172.734 637.723 182.95C636.721 184.871 638.438 185.994 638.255 187.735C637.982 190.324 633.068 193.63 631.343 195.355C622.713 203.985 621.003 216.859 611.85 226.013" stroke="#2E3B60" stroke-width="2" stroke-linecap="round"/>
</svg>
