<svg width="676" height="653" viewBox="0 0 676 653" fill="none" xmlns="http://www.w3.org/2000/svg">
<path d="M291.225 144.01C291.179 143.643 291.516 143.765 291.907 143.921C292.425 144.128 292.954 144.254 293.472 144.464C294.597 144.919 295.409 145.628 296.426 146.282C298.281 147.475 300.264 148.411 302.359 149.122C304.705 149.918 307.167 150.614 309.263 151.962C309.956 152.408 311.033 153.618 311.902 153.666C312.397 153.694 312.698 153.39 312.874 152.817C313.201 151.754 312.874 151.195 312.217 150.144C312.022 149.112 311.32 147.613 312.47 147.102C313.003 146.865 313.971 146.509 314.571 146.509C315.401 146.509 316.344 144.631 316.724 144.01C317.226 143.187 317.625 141.535 318.554 141.113C319.03 140.896 319.632 140.942 320.145 140.942C320.915 140.942 321.692 140.828 322.474 140.828C324.757 140.828 327.147 140.681 329.397 141.119C330.178 141.271 334.51 141.64 334.51 143.044C334.51 143.666 334.536 143.922 333.999 144.294C333.452 144.672 332.589 144.902 331.954 145.095C331.225 145.317 330.452 145.72 329.846 146.174C329.466 146.459 329.339 146.681 329 147.02C328.268 147.752 327.435 149.246 326.444 149.576" stroke="#F1F1F1" stroke-width="2" stroke-linecap="round"/>
<path d="M292.02 143.898C292.008 143.804 288.782 143.071 288.441 142.995C287.056 142.687 285.641 142.858 285.115 144.377C284.372 146.523 286.629 146.775 288.044 147.482C290.204 148.563 292.533 149.514 294.608 150.739C297.919 152.696 301.383 154.702 305.015 155.991C307.355 156.821 309.534 158.058 311.876 158.869C312.536 159.097 313.052 159.576 313.776 159.576C314.606 159.576 315.124 158.501 315.423 157.827C315.666 157.282 316.524 157.042 317.014 156.824C317.212 156.736 317.459 156.682 317.607 156.533C317.945 156.195 317.664 156.806 317.468 156.963" stroke="#F1F1F1" stroke-width="2" stroke-linecap="round"/>
<path d="M313.379 153.102C314.108 153.831 315.197 154.469 316.099 154.976C316.709 155.319 317.487 155.828 318.214 155.828C318.873 155.828 319.669 155.394 320.221 155.033C320.538 154.825 320.895 154.561 321.161 154.294C321.363 154.093 321.827 153.897 321.332 153.897" stroke="#F1F1F1" stroke-width="2" stroke-linecap="round"/>
<path d="M322.809 155.256C322.085 155.165 322.649 152.471 323.036 151.974C323.571 151.286 324.515 150.629 325.333 150.345C327.208 149.696 329.717 149.605 331.556 150.32C332.315 150.615 333.601 150.956 333.601 151.961C333.601 153.191 332.931 153.984 332.213 154.915C330.879 156.644 329.031 157.203 327.075 157.762C326.996 157.784 327.239 158.829 327.239 159.011C327.239 159.916 327.238 160.755 326.734 161.555C325.964 162.778 325.248 163.84 323.717 164.01C321.309 164.278 319.025 163.14 317.923 160.936C316.903 158.896 317.508 157.131 319.173 155.704C319.74 155.218 320.454 154.983 321.079 154.574C321.273 154.447 321.628 154.233 321.849 154.233C322.086 154.233 322.958 154.227 322.24 154.347" stroke="#F1F1F1" stroke-width="2" stroke-linecap="round"/>
<path d="M329.852 149.575C329.852 148.249 332.139 146.848 333.348 146.848C335.34 146.848 337.234 146.718 339.111 145.996C341.135 145.218 343.38 143.809 345.668 144.601C346.213 144.79 346.715 145.844 346.369 146.381C346.178 146.678 345.227 147.12 344.905 147.246C344.282 147.49 343.601 147.717 343.024 148.041C342.524 148.322 341.602 148.69 341.238 149.146C341.009 149.432 342.057 150.561 342.26 150.711C343.322 151.497 344.132 153.004 344.791 154.119C345.634 155.545 346.399 157.011 347.234 158.443C348.261 160.204 348.903 162.217 350.011 163.94C351.069 165.586 352.113 167.368 353.002 169.116C353.803 170.688 354.857 172.102 355.584 173.723C356.072 174.811 357.004 176.233 357.004 177.466C357.004 178.186 356.541 178.452 355.868 177.952C354.774 177.139 354.201 176.062 353.375 175.03C352.447 173.87 351.687 172.464 350.983 171.161C350.393 170.07 349.381 169.224 348.711 168.181C346.156 164.208 343.573 160.253 340.985 156.303C340.045 154.867 339.469 152.705 339.054 151.045C338.854 150.244 338.61 150.029 337.829 150.029C337.202 150.029 336.618 149.916 335.986 149.916C335.354 149.916 334.724 150.029 334.112 150.029C333.809 150.029 332.882 150.189 332.692 150.427C332.22 151.017 330.574 149.688 330.079 149.688" stroke="#F1F1F1" stroke-width="2" stroke-linecap="round"/>
<path d="M333.94 151.735C333.586 151.735 334.653 151.508 334.906 151.508C335.578 151.508 336.04 151.817 336.579 152.189C337.224 152.636 337.811 153.01 338.428 153.49C338.853 153.821 339.6 154.006 339.053 154.462" stroke="#F1F1F1" stroke-width="2" stroke-linecap="round"/>
<path d="M329.17 160.484C329.632 160.744 329.873 161.362 330.249 161.721C330.861 162.307 331.39 162.965 332.01 163.552C332.455 163.972 333.071 164.342 333.607 164.637C334.029 164.869 334.749 165.12 333.828 164.915" stroke="#F1F1F1" stroke-width="2" stroke-linecap="round"/>
<path d="M333.26 165.486C334.944 165.486 336.835 163.463 337.684 162.147C338.193 161.358 338.858 160.644 339.193 159.755C339.302 159.465 339.852 158.552 339.622 158.897" stroke="#F1F1F1" stroke-width="2" stroke-linecap="round"/>
<path d="M333.828 165.941C334.377 165.941 335.351 167.804 335.778 168.232C336.161 168.614 337.408 169.996 338.032 170.031C339.057 170.088 339.807 169.165 340.487 168.535C341.367 167.719 341.973 166.679 342.803 165.827C343.152 165.469 343.144 165.703 343.144 166.055" stroke="#F1F1F1" stroke-width="2" stroke-linecap="round"/>
<path d="M325.762 164.914C325.801 165.232 326.272 166.119 326.437 166.435C326.889 167.302 327.475 168.181 328.147 168.89C329.64 170.466 331.115 171.97 332.894 173.233C334.784 174.574 336.728 175.824 338.398 177.436C339.295 178.303 341.238 179.562 342.342 178.32C343.296 177.247 343.284 176.017 343.889 174.754C344.599 173.269 347.071 173.679 347.903 174.741C348.684 175.74 349.508 178.433 351.096 178.433C351.69 178.433 352.219 178.267 352.662 177.84C352.928 177.583 353.608 176.658 353.482 176.616" stroke="#F1F1F1" stroke-width="2" stroke-linecap="round"/>
<path d="M343.711 175.82C343.711 176.259 343.256 176.764 343.093 177.184C342.798 177.941 342.916 178.886 342.916 179.683C342.916 181.94 345.732 183.492 347.662 183.861C348.728 184.065 349.536 184.057 350.294 183.205C350.98 182.433 350.982 181.197 350.982 180.226C350.982 179.197 350.555 178.461 349.84 177.745C349.521 177.427 348.743 176.616 348.255 176.616" stroke="#F1F1F1" stroke-width="2" stroke-linecap="round"/>
<path d="M319.627 166.625C319.954 166.625 320.03 166.915 320.245 167.13C320.816 167.7 321.413 168.281 322.082 168.733C323.326 169.574 324.641 170.333 326.103 170.715C327.552 171.093 328.898 171.847 330.363 172.192C330.715 172.275 332.331 172.635 331.329 172.76" stroke="#F1F1F1" stroke-width="2" stroke-linecap="round"/>
<path d="M318.15 168.555C318.592 168.604 319.008 169.349 319.286 169.628C320.268 170.609 321.371 171.288 322.505 172.07C324.452 173.413 326.558 174.433 328.628 175.573C330.726 176.729 333.051 177.329 335.413 177.643C336.342 177.767 337.249 177.913 338.196 177.978C338.952 178.03 339.622 177.655 339.622 178.552" stroke="#F1F1F1" stroke-width="2" stroke-linecap="round"/>
<path d="M292.701 154.234C293.766 154.234 294.328 154.854 294.973 155.591C295.808 156.545 296.616 157.825 297.302 158.892C297.867 159.771 298.564 160.274 299.404 160.88C300 161.311 300.535 161.953 301.108 162.439C301.799 163.026 302.507 163.663 303.159 164.289C303.76 164.864 305.027 165.936 305.88 165.936C307.528 165.936 308.832 164.498 309.629 163.184C310.198 162.245 311.127 161.37 311.901 160.596C312.261 160.237 313.521 159.427 312.583 160.483" stroke="#F1F1F1" stroke-width="2" stroke-linecap="round"/>
<path d="M293.724 154.58C293.663 154.098 292.652 154.125 292.304 154.125C291.483 154.125 291.262 154.239 290.631 154.693C289.338 155.625 289.688 158.369 290.372 159.585C291.094 160.868 292.153 161.757 293.181 162.785C294.266 163.87 295.316 164.974 296.678 165.713C297.927 166.392 298.81 167.729 299.852 168.667C300.531 169.279 301.307 169.775 301.954 170.422C302.498 170.966 303.274 171.305 303.778 171.848C304.338 172.451 305.742 173.439 306.587 173.439C308.102 173.439 308.684 172.322 309.616 171.287C310.705 170.077 312.171 168.871 313.605 168.099C314.084 167.842 315.709 166.468 316.357 167.051C316.952 167.587 317.301 167.968 317.468 168.844C317.604 169.559 318.033 170.027 318.257 170.7C318.503 171.439 318.827 172.204 319.122 172.928C319.879 174.787 321.351 176.43 322.606 177.983C323.385 178.948 324.048 180.251 325.193 180.823" stroke="#F1F1F1" stroke-width="2" stroke-linecap="round"/>
<path d="M328.375 178.438C327.773 178.438 327.112 178.615 326.558 178.892C325.652 179.345 324.685 179.763 323.831 180.312C322.657 181.066 321.629 182.077 320.473 182.875C318.904 183.957 317.49 185.262 316.131 186.592C314.772 187.921 313.287 189.384 312.192 190.934C311.731 191.588 311.222 192.184 310.772 192.859C310.287 193.587 310.101 194.633 309.863 195.466C309.006 198.468 308.786 202.127 309.687 205.129C310.293 207.15 311.761 209.68 314.149 209.68C315.847 209.68 317.165 208.998 318.264 207.742C319.126 206.758 319.059 205.092 319.059 203.861C319.059 202.703 318.991 201.521 319.059 200.364C319.094 199.769 323.043 197.073 322.808 196.956" stroke="#F1F1F1" stroke-width="2" stroke-linecap="round"/>
<path d="M330.989 179.572C330.638 179.572 330.298 179.344 329.903 179.344C328.723 179.344 327.849 180.132 327.006 180.891C325.688 182.077 324.973 184.148 324.57 185.82C324.061 187.933 323.677 190.081 323.598 192.258C323.48 195.508 322.875 198.871 324.734 201.776C325.788 203.423 327.12 204.588 328.71 205.702C330.393 206.88 332.346 207.065 334.353 207.065C335.334 207.065 336.772 206.628 337.528 205.973C338.228 205.366 338.607 204.203 338.942 203.366C339.534 201.886 339.877 200.343 340.128 198.765C340.317 197.579 340.642 196.43 340.816 195.243C341.316 191.844 340.715 188.139 339.226 185.031C338.69 183.912 337.953 182.798 337.048 181.932C336.219 181.139 335.055 180.621 334.145 179.912C333.25 179.216 332.398 179.117 331.33 179.117C329.98 179.117 329.033 180.853 328.628 181.983C327.32 185.636 326.137 189.266 325.649 193.142C325.375 195.325 325.255 197.526 325.788 199.68C326.114 200.994 326.508 203.09 327.606 203.997C329.412 205.49 332.719 204.301 334.397 203.202C337.875 200.926 338.373 196.397 338.373 192.586C338.373 189.963 338.121 187.43 336.922 185.075C336.29 183.833 335.402 182.139 334.195 181.415C333.481 180.986 332.833 180.709 332.182 180.203C331.85 179.944 331.527 180.101 331.159 180.02C331.017 179.988 330.893 179.799 330.762 179.799C330.445 179.799 330.219 180.607 330.137 180.834C329.533 182.507 329.077 184.152 328.654 185.883C327.55 190.398 327.581 195.278 327.581 199.901C327.581 201.747 328.071 203.905 329.279 205.354C329.977 206.193 330.86 206.669 331.664 207.393C333.891 209.398 335.198 202.171 335.363 200.981C335.767 198.06 335.654 195.191 335.249 192.271C334.989 190.393 334.744 188.473 334.113 186.678C333.787 185.749 333.067 183.014 331.671 183.213C330.447 183.388 330.313 187.972 330.194 188.793C329.717 192.059 329.226 195.325 328.774 198.595C328.145 203.132 328.173 207.62 328.628 212.177C328.934 215.23 330.315 219.789 334.056 219.789C335.656 219.789 336.543 218.325 337.01 216.949C337.9 214.328 337.919 211.402 337.919 208.655C337.919 202.967 337.117 197.435 335.786 191.904C335.428 190.417 335.119 188.979 334.624 187.524C334.488 187.123 333.942 185.76 333.488 185.706C332.759 185.621 332.431 186.045 332.15 186.868C331.127 189.863 331.129 193.35 330.964 196.474C330.566 203.998 330.027 211.516 329.651 219.044C329.511 221.842 329.352 224.571 329.6 227.363C329.719 228.695 330.021 229.953 330.244 231.27C330.439 232.42 330.508 231.828 330.648 231.036" stroke="#F1F1F1" stroke-width="2" stroke-linecap="round"/>
<path d="M325.876 204.367C324.89 204.367 323.603 205.024 323.149 205.958C322.518 207.258 322.698 208.998 322.808 210.376C322.976 212.47 323.376 214.673 323.768 216.738C324.118 218.586 324.251 220.435 324.487 222.292C324.603 223.201 324.709 224.698 324.146 225.498C323.871 225.89 323.609 226.288 323.269 226.628C322.931 226.966 322.54 226.957 322.12 227.146C321.43 227.456 320.493 227.657 319.741 227.657C318.556 227.657 316.935 227.827 316.282 226.521C315.203 224.362 314.574 222.054 314.262 219.679C314.127 218.646 313.885 217.637 313.953 216.586C314.019 215.568 314.272 214.517 314.458 213.513C314.591 212.792 314.479 211.858 314.767 211.184C314.876 210.929 315.268 209.841 315.083 209.934" stroke="#F1F1F1" stroke-width="2" stroke-linecap="round"/>
<path d="M313.038 209.703C313.038 211.009 312.924 212.312 312.924 213.629C312.924 214.091 313.182 217.038 312.634 217.195C311.472 217.527 310.242 217.387 309.055 217.536C307.588 217.719 306.376 217.158 304.997 218.06C304.392 218.455 304.706 219.816 305.193 220.212C306.148 220.989 307.19 220.958 308.38 221.152C310.122 221.437 312.367 222.501 314.01 221.455C316.123 220.11 316.721 217.873 316.213 215.459C315.94 214.164 315.537 212.738 315.537 211.407C315.537 210.919 315.855 209.421 315.196 209.817" stroke="#F1F1F1" stroke-width="2" stroke-linecap="round"/>
<path d="M317.581 227.77C317.581 230.62 319.141 233.353 320.648 235.698C320.861 236.029 321.444 236.868 320.989 236.998C320.237 237.213 319.62 237.865 318.944 238.222C317.786 238.835 317.018 240.474 316.331 241.542C315.759 242.433 314.253 244.925 316.508 244.925C318.715 244.925 319.783 241.727 321.848 241.176C322.856 240.907 324.904 240.459 325.186 239.188C325.391 238.265 324.993 237.333 324.631 236.518C324.019 235.14 324 233.736 323.552 232.327C323.227 231.306 323.236 230.212 322.971 229.19C322.831 228.649 322.634 228.056 322.586 227.499C322.564 227.25 322.707 226.739 322.352 226.975" stroke="#F1F1F1" stroke-width="2" stroke-linecap="round"/>
<path d="M318.889 141.289C317.607 141.449 318.384 144.437 318.718 145.032C319.255 145.986 320.097 146.944 320.826 147.765C321.485 148.506 322.185 149.533 323.004 150.1C323.233 150.259 323.715 150.815 324.001 150.832C324.433 150.858 324.875 150.832 325.308 150.832C325.798 150.832 326.221 150.543 326.557 150.207C326.921 149.844 327.334 148.995 327.75 148.787" stroke="#F1F1F1" stroke-width="2" stroke-linecap="round"/>
<path d="M316.957 147.533C316.957 147.496 317.87 148.071 318.036 148.108C318.603 148.233 317.639 147.328 317.639 146.852" stroke="#F1F1F1" stroke-width="2" stroke-linecap="round"/>
<path d="M341.322 188.634L341.227 188.539" stroke="#F1F1F1" stroke-width="2" stroke-linecap="round"/>
<path d="M341.322 188.641C341.04 188.369 340.858 188.381 341.079 188.05C341.258 187.782 341.465 187.456 341.507 187.126C341.648 185.995 341.673 184.847 341.818 183.719C341.927 182.872 341.982 181.668 341.565 180.893C341.46 180.699 341.005 179.736 341.132 179.609" stroke="#F1F1F1" stroke-width="2" stroke-linecap="round"/>
<path d="M379.249 364.938C378.973 367.141 381.862 369.256 383.426 370.579C385.395 372.245 387.107 373.835 388.777 375.809C391.75 379.322 394.135 383.378 397.347 386.68C397.895 387.243 398.507 387.995 399.318 388.165C400.421 388.396 401.523 388.38 402.645 388.38C404.489 388.38 406.322 388.502 408.158 388.502" stroke="#F1F1F1" stroke-width="2" stroke-linecap="round"/>
<path d="M379.37 366.146C378.347 366.146 380.218 363.854 380.652 363.656C381.688 363.186 383.101 363.814 383.891 364.446C385.147 365.451 386.35 366.468 387.69 367.361C388.378 367.819 389.036 368.285 389.668 368.819C390.229 369.293 390.596 369.988 391.152 370.452C392.312 371.418 393.446 372.679 394.31 373.92C395.516 375.652 396.919 377.259 398.312 378.826C398.766 379.337 399.339 379.731 399.776 380.264C400.213 380.795 400.713 381.484 401.355 381.789C402.211 382.194 406.623 380.727 406.268 380.169C406.106 379.914 405.383 378.356 405.634 378.077C405.958 377.716 407.502 377.889 407.975 377.807C410.015 377.453 412.027 377.443 414.109 377.443C414.65 377.443 415.238 377.335 415.742 377.335C415.866 377.335 416.02 378.875 416.053 379.022C416.124 379.343 416.585 380.647 416.174 380.237" stroke="#F1F1F1" stroke-width="2" stroke-linecap="round"/>
<path d="M409.495 377.813C409.174 377.772 409.327 376.271 409.009 376.233C408.458 376.169 407.62 375.478 407.214 375.113C406.797 374.738 406.338 374.361 405.851 374.074C405.355 373.782 405.365 373.07 405.365 372.529C405.365 371.95 405.487 371.376 405.487 370.828C405.487 370.39 405.318 369.493 405.554 369.121C405.909 368.563 405.962 367.872 406.276 367.306C406.462 366.971 407.318 366.028 406.823 366.152" stroke="#F1F1F1" stroke-width="2" stroke-linecap="round"/>
<path d="M407.065 366.758C406.495 366.631 406.266 365.58 405.911 365.226C405.442 364.757 404.879 364.045 404.879 363.357C404.879 362.336 405.673 361.08 406.876 361.845C407.471 362.223 408.088 362.603 408.671 362.992C409.285 363.401 409.491 363.913 410.196 363.424C411.994 362.18 414.666 362.158 416.54 363.303C418.193 364.313 419.09 366.461 419.09 368.323C419.09 370.018 418.142 371.583 417.026 372.831C416.7 373.194 416.239 373.776 415.743 373.918C415.351 374.03 414.497 373.731 414.36 374.349C414.268 374.765 414.11 375.161 414.11 375.625C414.11 375.906 414.204 377.041 413.989 376.718" stroke="#F1F1F1" stroke-width="2" stroke-linecap="round"/>
<path d="M416.782 380.97C416.782 380.105 417.614 379.21 417.849 378.365C418.269 376.85 417.945 375.164 418.483 373.709C419.102 372.034 419.735 371.002 421.061 369.768C421.833 369.049 422.965 368.127 424.01 367.966C425.534 367.732 427.184 367.942 428.565 368.695C430.138 369.553 432.052 369.77 433.599 370.76C435.13 371.74 436.766 372.153 438.039 373.567C438.141 373.68 439.016 374.969 438.619 375.112C437.94 375.357 436.861 375.107 436.217 374.896C434.37 374.292 432.104 373.49 430.144 373.439C429.034 373.41 428.285 373.803 428.322 375.085C428.365 376.604 430.334 378.317 431.115 379.512C432.125 381.057 433.432 382.348 434.199 384.06C434.842 385.494 435.521 387.059 433.605 387.698C432.276 388.141 431.795 388.493 432.087 389.951C432.296 390.994 432.573 391.557 431.601 392.32C430.686 393.039 430.387 393.426 430.387 394.547C430.387 395.442 430.445 397.389 431.115 398.096C432.14 399.178 432.85 400.341 432.816 401.889C432.803 402.5 432.436 403.275 432.141 403.812C431.845 404.351 431.656 404.958 431.358 405.479C430.814 406.432 430.989 407.215 431.419 408.171C431.985 409.428 432.209 410.997 432.209 412.362C432.209 413.235 431.605 413.756 431.169 414.44C430.503 415.488 430.815 417.141 429.543 417.713C427.702 418.541 424.745 417.69 423.369 416.343C422.379 415.376 421.566 414.316 420.885 413.158C420.464 412.442 419.654 412.296 418.969 411.944C418.187 411.542 417.829 411.005 417.572 410.176C417.231 409.077 416.791 408.041 416.391 406.963C415.338 404.129 414.948 400.85 414.596 397.86C414.29 395.259 414.353 392.651 414.353 390.026C414.353 389.092 414.676 388.203 414.812 387.286C414.949 386.364 414.913 385.39 415.257 384.506C415.568 383.706 415.439 382.81 415.75 382.002C415.862 381.71 416.661 380.419 416.661 381.213" stroke="#F1F1F1" stroke-width="2" stroke-linecap="round"/>
<path d="M404.637 393.844C404.376 395.931 404.585 398.213 404.994 400.329C405.226 401.525 405.421 402.768 405.973 403.871C406.122 404.169 406.513 405.172 406.884 405.255C407.421 405.374 408.093 405.262 408.645 405.262C409.6 405.262 410.702 405.24 411.655 405.113C412.6 404.987 413.585 404.776 414.536 404.776C414.887 404.776 415.918 404.959 415.812 404.533" stroke="#F1F1F1" stroke-width="2" stroke-linecap="round"/>
<path d="M408.158 398.945C407.511 399.026 408.917 400.673 408.982 400.74C409.297 401.068 409.599 401.328 409.92 401.624C410.057 401.752 410.856 402.103 410.466 402.103" stroke="#F1F1F1" stroke-width="2" stroke-linecap="round"/>
<path d="M389.453 385.586C389.453 385.939 389.899 386.244 390.121 386.49C390.575 386.991 390.994 387.6 391.464 388.069C392.091 388.696 393.025 389.382 393.853 389.689C394.917 390.083 395.555 389.899 396.62 389.594C397.032 389.477 398.588 388.558 398.32 388.38" stroke="#F1F1F1" stroke-width="2" stroke-linecap="round"/>
<path d="M386.172 382.18C386.481 382.218 387.046 383.094 387.238 383.3C387.678 383.772 388.137 384.5 388.723 384.825C389.099 385.034 389.685 385.379 389.937 385.729C390.145 386.018 391.023 386.932 390.302 386.067" stroke="#F1F1F1" stroke-width="2" stroke-linecap="round"/>
<path d="M389.332 391.656C389.63 391.693 390.473 392.826 390.668 393.087C391.171 393.757 391.886 394.21 392.463 394.787C393.44 395.764 395.377 396.515 396.741 396.515C398.762 396.515 400.053 394.075 401.29 392.756C401.629 392.394 402.501 391.899 402.997 391.899C403.228 391.899 404.512 391.656 403.787 391.656" stroke="#F1F1F1" stroke-width="2" stroke-linecap="round"/>
<path d="M404.879 389.954C404.867 389.84 404.818 389.801 404.758 389.711" stroke="#F1F1F1" stroke-width="2" stroke-linecap="round"/>
<path d="M404.879 389.958C404.343 389.732 403.786 389.275 403.786 390.012C403.786 390.57 403.733 391.208 403.975 391.726C404.303 392.428 404.335 393.193 404.643 393.906C404.835 394.349 405.123 394.733 405.304 395.181C405.36 395.318 405.767 396.228 405.487 395.667" stroke="#F1F1F1" stroke-width="2" stroke-linecap="round"/>
<path d="M405.973 404.531C405.17 404.632 404.503 405.636 403.968 406.171C402.941 407.199 401.601 408.1 400.689 409.214C399.669 410.461 398.009 411.07 396.62 411.765C395.528 412.311 394.668 412.817 393.705 413.574C391.604 415.224 389.451 417.692 390.789 420.443C391.797 422.515 393.118 424.459 393.853 426.665C394.086 427.365 394.113 428.146 394.217 428.878C394.374 429.977 394.823 431.002 395.068 432.077C395.37 433.408 397.194 434.699 398.57 434.527C399.987 434.349 402.779 433.85 403.476 432.455C405.777 427.852 400.681 425.439 399.535 421.429C399.083 419.845 400.072 419.344 401.141 418.351C401.76 417.776 402.683 417.554 403.422 417.164C404.42 416.637 405.393 415.902 406.431 415.463C407.472 415.024 408.609 414.711 409.617 414.249C410.64 413.778 412.068 414.006 413.166 414.006C414.376 414.006 415.733 413.821 416.878 413.398C417.142 413.3 418.828 412.791 418.484 412.791" stroke="#F1F1F1" stroke-width="2" stroke-linecap="round"/>
<path d="M405.607 417.409C405.542 417.271 405.325 416.608 405.176 416.566C404.948 416.501 404.897 417.568 404.885 417.726C404.811 418.724 404.986 419.7 405 420.689C405.018 421.96 404.993 423.341 405.149 424.603C405.42 426.806 405.364 429.035 405.364 431.256C405.364 433.759 405.718 436.194 406.066 438.666C406.324 440.497 406.35 443.101 407.254 444.746C407.937 445.987 408.379 447.452 409.008 448.747C410.712 452.254 414.742 447.793 415.662 445.954C416.321 444.636 417.147 443.382 417.147 441.864C417.147 439.947 417.041 438.088 416.027 436.385C415.285 435.14 414.134 434.283 413.557 432.963C412.957 431.593 412.575 430.415 412.315 428.921C412.029 427.275 413.03 425.74 413.813 424.387C414.943 422.436 415.7 420.261 416.391 418.111C416.779 416.903 417.382 415.765 417.754 414.555C417.834 414.296 418.61 412.672 418.604 412.672" stroke="#F1F1F1" stroke-width="2" stroke-linecap="round"/>
<path d="M421.762 373.68C422.096 373.721 422.506 374.302 422.733 374.53C423.112 374.908 423.607 375.182 424.063 375.448C425.163 376.09 426.09 377.036 426.985 377.931C427.838 378.785 429.598 378.867 430.264 379.78C430.786 380.494 431.067 381.402 431.479 382.182C432.262 383.666 433.871 384.821 435.366 385.462" stroke="#F1F1F1" stroke-width="2" stroke-linecap="round"/>
<path d="M418.361 383.638C418.361 384.938 419.83 385.525 420.932 385.264C422.071 384.995 422.61 384.367 423.557 383.786C423.943 383.55 424.519 383.273 424.974 383.273C426.285 383.273 427.189 384.443 427.377 385.608C427.605 387.022 428.396 388.505 429.05 389.752C429.161 389.963 430.348 392.189 430.022 391.047" stroke="#F1F1F1" stroke-width="2" stroke-linecap="round"/>
<path d="M418.848 392.875C418.964 393.398 421.028 393.668 421.385 393.739C421.559 393.773 423.443 393.678 422.856 393.482" stroke="#F1F1F1" stroke-width="2" stroke-linecap="round"/>
<path d="M419.697 399.309C420.919 399.761 422.136 400.095 423.463 399.984C424.045 399.935 425.207 399.786 425.406 399.188" stroke="#F1F1F1" stroke-width="2" stroke-linecap="round"/>
<path d="M422.127 404.531C423.136 404.921 424.168 404.925 425.245 404.842C425.537 404.819 426.514 404.388 426.257 404.774" stroke="#F1F1F1" stroke-width="2" stroke-linecap="round"/>
<path d="M422.614 411.092C422.614 412.006 422.452 412.578 422.951 413.521C423.265 414.114 422.978 412.181 422.978 411.51C422.978 410.901 422.977 409.771 423.558 409.391C424.05 409.07 424.694 409.079 425.137 408.636C425.78 407.993 425.929 407.014 426.501 406.328C427.374 405.28 428.616 405.088 429.632 405.869C430.553 406.578 430.387 408.14 430.387 409.149C430.387 410.957 430.509 412.786 430.509 414.615C430.509 415.691 428.071 415.9 427.256 416.045C425.584 416.342 423.207 414.586 422.492 413.157" stroke="#F1F1F1" stroke-width="2" stroke-linecap="round"/>
<path d="M414.233 379.508H414.111" stroke="#F1F1F1" stroke-width="2" stroke-linecap="round"/>
<path d="M408.159 379.871C408.057 379.871 408.606 379.75 408.766 379.75C409.192 379.75 409.342 379.889 409.67 380.108C409.955 380.297 408.986 380.114 408.645 380.114C408.344 380.114 407.996 380.272 407.734 380.418C407.452 380.574 407.254 380.655 407.005 380.904C406.497 381.411 407.18 380.596 407.457 380.411C408.185 379.926 409.299 379.834 410.102 380.236C411.485 380.927 411.924 382.373 411.924 383.819C411.924 385.942 412.328 387.981 412.957 390.007C413.457 391.618 413.755 393.315 414.138 394.96C414.364 395.933 414.762 396.87 415.136 397.788C415.422 398.489 416.239 400.571 415.933 398.577" stroke="#F1F1F1" stroke-width="2" stroke-linecap="round"/>
<path d="M406.702 379.754C406.154 379.823 407.266 379.754 407.37 379.754C407.911 379.754 408.399 379.633 408.955 379.633C409.522 379.633 410.089 379.633 410.656 379.633C411.211 379.633 411.579 379.873 412.107 379.99C413.122 380.216 414.203 380.942 414.57 381.968C415.051 383.315 415.326 387.622 415.326 386.192" stroke="#F1F1F1" stroke-width="2" stroke-linecap="round"/>
<path d="M407.43 366.875C407.922 366.937 408.905 367.853 409.319 368.157C410.364 368.923 411.494 369.575 412.653 370.155C414.56 371.108 416.179 371.977 418.362 371.977" stroke="#F1F1F1" stroke-width="2" stroke-linecap="round"/>
<path d="M408.523 365.059C408.286 365.085 407.955 365.814 408.044 365.592C408.118 365.408 408.584 364.998 408.523 364.938" stroke="#F1F1F1" stroke-width="2" stroke-linecap="round"/>
<path d="M384.108 369.913C384.108 370.341 383.343 370.52 383.804 370.52C384.611 370.52 385.156 369.468 385.505 368.887C385.862 368.291 386.576 367.454 386.658 366.754C386.7 366.398 387.63 366.957 387.63 367.362C387.63 368.078 387.284 368.909 386.834 369.487C386.388 370.06 386.17 370.913 385.808 371.546C385.508 372.072 383.865 370.518 383.865 370.034" stroke="#F1F1F1" stroke-width="2" stroke-linecap="round"/>
<path d="M413.868 449.078C413.868 450.656 413.958 452.214 414.293 453.755C414.486 454.639 414.608 454.708 415.265 455.219C415.844 455.669 416.08 456.158 416.271 456.825C416.411 457.318 416.395 458.353 416.149 458.795C415.775 459.469 414.735 459.504 414.172 459.943C413.504 460.462 410.957 460.86 411.803 460.86" stroke="#F1F1F1" stroke-width="2" stroke-linecap="round"/>
<path d="M410.587 450.656C410.587 450.926 410.466 451.429 410.466 451.81C410.466 452.583 410.83 453.352 410.83 454.118C410.83 454.814 410.669 454.799 410.223 455.272C409.918 455.595 409.494 456.412 409.494 455.636" stroke="#F1F1F1" stroke-width="2" stroke-linecap="round"/>
<path d="M401.235 434.742C401.235 435.951 401.702 437.525 402.207 438.629C402.579 439.444 402.45 440.56 402.45 441.45C402.45 442.061 402.661 442.701 402.024 442.995C401.516 443.23 400.942 443.344 400.412 443.515C398.639 444.085 396.694 444.302 394.858 444.642C393.245 444.94 390.355 445.159 389.52 443.252C388.888 441.808 391.813 441.023 392.739 440.93C393.648 440.839 396.379 441.037 396.619 439.837C396.836 438.752 396.701 437.672 396.889 436.591C396.976 436.092 397.105 435.477 397.105 434.985" stroke="#F1F1F1" stroke-width="2" stroke-linecap="round"/>
<path d="M439.499 486.166C439.443 485.717 439.313 485.311 439.419 484.835C439.506 484.444 440.13 484.014 440.412 483.732C440.774 483.37 441.183 482.82 441.743 482.82C441.964 482.82 442.921 482.548 442.921 482.896" stroke="#F1F1F1" stroke-width="2" stroke-linecap="round"/>
<path d="M442.922 482.672C443.422 482.672 443.999 483.551 444.291 483.884C444.562 484.194 445.637 485.553 445.507 485.942" stroke="#F1F1F1" stroke-width="2" stroke-linecap="round"/>
<path d="M439.424 486.242C439.358 486.771 439.461 487.108 439.728 487.611C440.04 488.2 441.12 488.198 441.709 488.139C442.522 488.058 443.263 487.846 444.058 487.687C444.42 487.615 445.735 487.114 445.735 486.698" stroke="#F1F1F1" stroke-width="2" stroke-linecap="round"/>
<path d="M442.922 482.666C443.384 482.666 443.078 482.369 443.378 482.226C443.738 482.056 444.03 481.993 444.405 481.91C444.713 481.841 445.134 481.894 445.448 481.905C446.082 481.929 446.724 481.981 447.371 481.981C447.972 481.981 448.714 482.07 449.162 482.518C449.951 483.307 449.971 484.227 449.023 484.93C448.591 485.25 448.152 485.58 447.654 485.784C447.319 485.92 446.897 486.047 446.614 486.278C446.462 486.403 445.888 486.812 445.888 486.62" stroke="#F1F1F1" stroke-width="2" stroke-linecap="round"/>
<path d="M447.866 486.625C447.587 486.625 447.719 486.625 447.925 486.625C448.285 486.625 448.655 486.631 449.003 486.739C449.573 486.917 450.259 487.223 450.642 487.694C451.537 488.796 451.867 490.451 452.294 491.779C452.49 492.39 452.489 493.13 452.425 493.769C452.376 494.257 451.831 495.294 451.246 495.294C451.029 495.294 450.806 495.344 450.642 495.18C450.521 495.059 450.431 494.709 450.587 494.99C450.913 495.577 450.747 496.331 450.621 496.95C450.422 497.924 450.136 498.764 449.729 499.671C449.464 500.263 449.1 500.815 448.855 501.412C448.59 502.054 448.358 502.704 448.022 503.313C447.436 504.376 446.866 505.354 446.134 506.321C445.824 506.73 445.157 507.355 444.596 507.386C443.85 507.427 443.303 506.871 443.303 506.131C443.303 505.745 443.289 505.355 443.303 504.969C443.311 504.77 443.613 503.928 443.531 503.888" stroke="#F1F1F1" stroke-width="2" stroke-linecap="round"/>
<path d="M445.356 492.713C445.139 492.74 445.661 495.598 445.661 496.025C445.661 496.934 445.639 497.695 445.128 498.475C444.912 498.805 444.616 499.078 444.406 499.405C443.548 500.739 441.185 499.986 440.126 499.329C439.394 498.874 438.508 498.784 437.752 498.416C437.344 498.218 436.897 498.123 436.476 497.96C436.041 497.792 435.637 497.57 435.204 497.394C434.386 497.06 433.541 496.708 432.944 496.042C432.414 495.451 431.983 494.597 431.554 493.929C431.325 493.572 429.137 491.602 430.088 491.285C432.378 490.521 434.028 492.411 435.504 493.887C436.028 494.411 436.344 494.769 436.953 495.108C437.268 495.283 438.003 495.44 438.36 495.45C438.879 495.465 439.4 495.45 439.919 495.45C440.21 495.45 440.886 495.422 441.094 495.18C441.15 495.114 441.485 494.753 441.402 494.918" stroke="#F1F1F1" stroke-width="2" stroke-linecap="round"/>
<path d="M438.969 486.015C437.475 485.828 435.914 486.397 434.423 485.787C433.531 485.422 432.905 484.656 432.277 483.957C431.546 483.146 430.992 482.353 430.076 481.723C429.303 481.191 428.405 480.821 427.562 480.388C426.659 479.923 425.793 479.279 424.752 479.175C423.86 479.086 423.586 479.546 423.7 480.421C423.874 481.752 424.886 482.946 425.661 483.979C427.022 485.794 428.238 488.089 430.468 488.981C430.899 489.153 431.344 489.32 431.782 489.467C432.341 489.653 432.93 489.623 433.493 489.779C434.123 489.954 434.902 490.204 435.551 490.269C436.047 490.319 436.791 490.148 437.203 490.519C437.567 490.846 437.448 491.357 437.448 491.866C437.448 492.974 437.296 494.058 437.296 495.141" stroke="#F1F1F1" stroke-width="2" stroke-linecap="round"/>
<path d="M441.174 495.063C441.296 494.94 441.379 494.795 441.491 494.661C441.571 494.565 441.988 493.922 441.934 493.922" stroke="#F1F1F1" stroke-width="2" stroke-linecap="round"/>
<path d="M443.835 488.07C443.427 488.121 443.459 490.525 443.417 490.867C443.302 491.787 443.435 492.646 444.515 492.781C444.83 492.82 445.11 493.067 445.128 493.394C445.153 493.839 445.543 494.199 445.584 494.686" stroke="#F1F1F1" stroke-width="2" stroke-linecap="round"/>
<path d="M446.573 488.75C446.283 488.786 446.896 490.756 446.992 490.985C447.21 491.505 447.487 492.166 447.849 492.595C448.139 492.938 448.746 493.17 448.931 493.541" stroke="#F1F1F1" stroke-width="2" stroke-linecap="round"/>
<path d="M444.216 500.391C444.216 500.676 443.924 500.906 443.802 501.151C443.565 501.624 443.195 503.563 443.683 503.889" stroke="#F1F1F1" stroke-width="2" stroke-linecap="round"/>
<path d="M442.923 507.314C442.538 507.314 442.197 507.724 441.925 507.931C441.474 508.274 441.064 508.735 440.755 509.215C440.049 510.314 439.335 511.337 439.01 512.637C438.687 513.929 438.936 515.108 439.158 516.397C439.396 517.777 439.443 519.206 439.505 520.601C439.555 521.74 439.989 523.329 439.386 524.348C439.089 524.852 438.669 525.082 438.132 525.261C437.871 525.348 437.613 525.434 437.371 525.565C437.172 525.673 437.068 525.88 436.839 525.945C436.407 526.069 436.034 526.435 435.622 526.63C435.187 526.835 434.549 527.01 434.063 527.01C433.564 527.01 433.494 526.877 433.189 526.554C433.031 526.387 432.834 525.963 433.007 525.751C433.839 524.734 435.166 523.869 435.166 522.447C435.166 520.378 434.025 518.56 434.025 516.482C434.025 515.815 433.797 515.166 433.797 514.496C433.797 513.817 433.749 513.093 433.628 512.426C433.403 511.189 434.163 510.302 434.709 509.291C435.375 508.059 436.139 506.899 436.78 505.641C437.175 504.865 437.795 504.191 437.979 503.359" stroke="#F1F1F1" stroke-width="2" stroke-linecap="round"/>
<path d="M436.611 498.486C436.547 497.98 436.142 498.508 436.078 498.723C435.821 499.594 435.688 500.539 435.778 501.448C435.839 502.055 436.345 502.707 436.763 503.125C436.949 503.312 437.057 503.541 437.219 503.733C437.421 503.974 437.371 503.931 437.371 503.581" stroke="#F1F1F1" stroke-width="2" stroke-linecap="round"/>
<path d="M507.828 545.047C505.588 545.047 505.04 548.181 505.191 549.925C505.267 550.788 505.686 552.446 506.505 552.855C507.513 553.359 508.412 551.883 508.912 551.156C509.723 549.975 512.259 548.675 511.594 546.829C511.192 545.712 508.818 545.048 507.828 545.708" stroke="#F1F1F1" stroke-width="2" stroke-linecap="round"/>
<path d="M509.646 549.85C511.569 549.637 513.9 548.462 515.893 549.152C517.971 549.871 517.794 552.105 516.095 552.955C515.248 553.379 514.269 552.985 515.185 553.901C515.923 554.639 516.215 555.733 516.756 556.593C517.785 558.227 517.675 562.325 516.26 563.74C514.743 565.257 512.287 564.732 510.308 564.732C509.742 564.732 507.829 565.046 507.423 564.64C507.055 564.272 507.331 562.591 507.331 562.086C507.331 561.572 507.331 561.057 507.331 560.543C507.331 560.168 507.018 561.242 506.753 561.507C505.995 562.265 505.414 563.133 504.686 563.905C503.762 564.885 503.316 565.635 501.967 565.88C501.108 566.036 500.001 566.107 499.891 565.228" stroke="#F1F1F1" stroke-width="2" stroke-linecap="round"/>
<path d="M500.553 561.256C500.219 561.256 501.199 561.038 501.463 560.833C501.978 560.432 502.637 560.35 503.107 559.933C504.073 559.074 504.64 558.33 505.266 557.205C505.561 556.673 505.679 554.956 505.679 554.394C505.679 553.701 506.88 552.698 507.498 552.492" stroke="#F1F1F1" stroke-width="2" stroke-linecap="round"/>
<path d="M508.323 564.07C506.742 564.268 505.144 566.782 504.483 568.039C503.969 569.015 503.362 569.869 503.362 571.015C503.362 572.375 504.238 572.625 504.814 573.661C505.255 574.454 505.968 575.077 506.421 575.893C507.048 577.021 505.932 576.968 505.181 576.968C504.732 576.968 503.016 576.856 503.206 577.712C503.328 578.26 505.109 579 505.594 579.108C506.892 579.396 510.425 582.159 509.967 578.952C509.725 577.255 507.161 574.576 508.58 572.751C509.083 572.104 509.446 571.351 510.013 570.721C510.621 570.045 511.555 569.767 512.208 569.113C513.27 568.051 515.267 566.598 515.267 564.897" stroke="#F1F1F1" stroke-width="2" stroke-linecap="round"/>
<path d="M516.095 567.203C516.448 566.806 516.076 567.003 515.893 567.368C515.677 567.8 515.511 568.256 515.305 568.691C514.977 569.383 514.938 570.236 514.938 571.006C514.938 572.042 516.039 572.983 516.591 573.78C517.294 574.796 518.082 575.475 518.658 576.628C519.178 577.667 520.911 581.711 519.108 582.379C517.393 583.014 515.29 582.085 513.523 582.085C512.799 582.085 511.828 581.225 512.871 580.762C513.524 580.471 514.203 580.38 514.855 580.018C516.28 579.226 513.945 577.619 513.284 576.959C512.483 576.158 511.3 574.252 511.3 573.073C511.3 572.212 510.916 569.627 511.796 569.187" stroke="#F1F1F1" stroke-width="2" stroke-linecap="round"/>
<path d="M516.26 567.705C516.26 566.905 516.885 564.876 515.93 564.398" stroke="#F1F1F1" stroke-width="2" stroke-linecap="round"/>
<path d="M552.638 570.848C553.079 570.848 553.52 570.848 553.961 570.848C554.422 570.848 554.512 570.397 554.88 570.187C555.886 569.612 556.835 569.36 558.003 569.36C558.902 569.36 559.79 569.096 560.575 569.489C561.261 569.832 562.284 571.539 561.861 572.336C561.37 573.265 556.617 572.673 555.863 572.254C555.074 571.816 553.964 572.197 553.134 571.804C552.106 571.316 552.731 570.325 553.3 571.179" stroke="#F1F1F1" stroke-width="2" stroke-linecap="round"/>
<path d="M555.779 572.498C555.72 572.025 555.003 572.836 554.916 572.994C554.644 573.482 554.49 573.915 554.456 574.482C554.436 574.824 553.968 575.474 554.622 575.474C555.078 575.474 555.527 575.531 555.944 575.345C556.692 575.013 558.253 575.446 558.884 574.941C559.203 574.686 559.485 574.521 559.784 574.188C559.966 573.986 560.078 573.452 560.078 573.49" stroke="#F1F1F1" stroke-width="2" stroke-linecap="round"/>
<path d="M554.621 575.148C552.788 575.148 551.617 575.803 550.524 577.169C550.159 577.626 550.257 579.065 550.735 579.448C551.501 580.06 552.114 580.214 553.133 580.274C553.922 580.321 554.456 580.713 554.456 581.514C554.456 582.458 552.527 582.92 551.847 582.92C550.092 582.92 548.5 584.146 546.85 584.243C546.064 584.289 542.125 583.474 542.055 584.739C541.993 585.844 542.432 586.514 542.707 587.476C543.004 588.515 544.442 588.376 545.325 588.376C546.703 588.376 548.375 587.93 549.743 587.632C550.784 587.406 552.115 587.423 553.17 587.384C555.175 587.31 557.59 585.249 558.424 583.581" stroke="#F1F1F1" stroke-width="2" stroke-linecap="round"/>
<path d="M558.426 577.295C558.306 578.368 557.377 579.437 557.259 580.612C557.128 581.921 556.938 583.249 556.938 584.571C556.938 586.454 558.085 589.698 559.666 590.928C560.258 591.388 561.166 591.769 561.916 591.837C563.1 591.945 564.114 591.516 565.205 591.516C566.586 591.516 568.228 590.83 569.412 590.184C571.131 589.246 569.671 586.156 569.173 584.938C568.425 583.109 567.235 580.394 565.866 578.949C564.762 577.784 562.527 576.469 560.869 576.469C560.199 576.469 559.639 576.502 559.252 577.093C558.986 577.5 558.77 578.453 558.26 578.453" stroke="#F1F1F1" stroke-width="2" stroke-linecap="round"/>
<path d="M562.228 579.938C560.987 579.938 560.318 581.095 559.996 582.252C559.825 582.868 559.748 583.34 559.748 583.989C559.748 584.272 560.079 585.009 560.079 584.898" stroke="#F1F1F1" stroke-width="2" stroke-linecap="round"/>
<path d="M561.4 587.38C561.489 586.673 563.583 585.978 564.202 585.901C565.103 585.788 567.232 584.67 567.647 586.02C568.495 588.777 561.4 589.557 561.4 588.041" stroke="#F1F1F1" stroke-width="2" stroke-linecap="round"/>
<path d="M561.236 574.648C560.747 574.648 560.291 574.856 559.839 575.062C559.579 575.18 558.722 575.475 559.003 575.475C560.262 575.475 561.575 575.518 562.76 575.108C563.957 574.694 565.59 574.429 566.031 575.971C566.167 576.448 566.425 577.2 565.994 577.588C565.752 577.805 565.034 578.277 564.873 577.955" stroke="#F1F1F1" stroke-width="2" stroke-linecap="round"/>
<path d="M566.857 578.617V578.948" stroke="#F1F1F1" stroke-width="2" stroke-linecap="round"/>
<path d="M566.857 578.945C566.735 578.323 566.236 577.637 567.114 577.797C567.686 577.901 568.03 578.311 568.51 578.578C569.548 579.154 570.31 580.292 571.119 581.131C571.951 581.996 573.203 583.252 571.78 584.236C571.416 584.488 569.502 585.517 569.502 584.567" stroke="#F1F1F1" stroke-width="2" stroke-linecap="round"/>
<path d="M560.409 592.01C560.144 592.043 559.122 593.765 558.59 594.031C557.523 594.565 556.906 595.73 556.275 596.677C555.254 598.208 552.207 601.336 554.043 603.171C554.992 604.121 556.017 604.494 556.606 605.817C557.071 606.864 557.267 608.148 557.267 609.298C557.267 610.941 556.214 610.45 554.952 610.162C554.42 610.04 551.911 609.666 552.729 610.952C553.69 612.463 555.395 612.647 556.854 613.432C557.622 613.846 559.81 614.454 560.666 613.91C562.416 612.796 561.38 609.021 560.978 607.47C560.558 605.852 560.175 604.117 559.453 602.593C558.932 601.493 558.781 600.212 560.041 599.745C560.683 599.507 561.352 599.066 561.897 598.661C562.54 598.183 563.403 597.231 564.12 596.971C565.208 596.575 566.547 595.118 567.271 594.233C567.952 593.401 568.676 591.749 568.676 590.688" stroke="#F1F1F1" stroke-width="2" stroke-linecap="round"/>
<path d="M569.834 591.516C569.834 593.381 567.524 595.791 568.547 597.634C569.279 598.951 571.192 599.561 571.891 601.023C572.706 602.727 573.883 604.243 574.959 605.772C575.809 606.98 577.066 607.964 577.678 609.364C577.953 609.992 579.246 611.309 578.891 612.019C578.503 612.794 577.13 613.498 576.365 613.838C575.656 614.153 575.01 615.284 574.298 615.326C573.538 615.371 572.33 615.388 571.818 614.747C571.433 614.267 571.385 613.063 572.314 613.011C573.351 612.953 573.471 611.724 573.471 610.944C573.471 610.56 572.545 610.485 572.314 610.163C571.882 609.564 571.251 609.165 570.826 608.583C569.4 606.632 567.692 604.666 566.563 602.521C566.013 601.475 565.427 600.705 565.213 599.526C565.104 598.928 565.483 597.277 564.873 596.972" stroke="#F1F1F1" stroke-width="2" stroke-linecap="round"/>
<path d="M637.461 595.648C636.497 595.648 635.345 596.233 634.944 597.137C634.515 598.102 633.885 598.955 632.748 598.955C631.673 598.955 630.67 600.132 631.435 601.105C632.093 601.943 634.366 602.262 635.348 602.262C637.391 602.262 640.884 602.195 641.438 599.699C641.678 598.62 641.727 597.177 640.52 596.641C639.532 596.202 638.339 596.253 637.461 595.814" stroke="#F1F1F1" stroke-width="2" stroke-linecap="round"/>
<path d="M641.101 601.27C640.856 601.236 641.701 600.774 641.927 600.774C642.448 600.774 643.05 600.444 643.498 600.196C644.794 599.476 645.964 600.856 646.888 601.399C647.733 601.896 647.714 602.782 647.714 603.668C647.714 604.797 648.441 604.994 649.129 605.744C649.536 606.188 650.154 606.498 650.434 607.058C650.718 607.627 651.044 608.203 651.481 608.674C652.356 609.62 653.502 611.422 653.502 612.762C653.502 614.257 653.026 614.43 651.756 615.031C650.789 615.489 649.521 615.041 648.707 614.498" stroke="#F1F1F1" stroke-width="2" stroke-linecap="round"/>
<path d="M640.77 605.575C640.678 606.31 639.277 606.819 639.126 607.652C638.893 608.93 638.926 610.561 637.959 611.528C635.606 613.881 638.561 618.156 639.521 620.622C639.913 621.632 640.108 622.688 640.108 623.764C640.108 624.554 640.015 625.454 640.604 626.079C641.51 627.037 643.234 626.74 644.417 626.74C646.052 626.74 647.735 627.102 649.377 626.896C653.269 626.41 650.669 622.311 649.781 620.044C648.719 617.33 648.045 615.107 648.045 612.189C648.045 610.05 647.023 607.052 645.482 605.511C645.054 605.083 643.819 604.914 643.25 604.914C642.078 604.914 641.531 606.237 640.605 606.237" stroke="#F1F1F1" stroke-width="2" stroke-linecap="round"/>
<path d="M641.596 609.867C642.197 609.867 644.407 610.602 644.407 609.784C644.407 607.725 642.668 609.987 642.257 609.371" stroke="#F1F1F1" stroke-width="2" stroke-linecap="round"/>
<path d="M641.43 614.995C641.527 615.771 643.41 616.153 644.039 616.153C644.629 616.153 646.5 615.675 645.563 614.738C644.956 614.13 641.975 613.36 641.595 614.499" stroke="#F1F1F1" stroke-width="2" stroke-linecap="round"/>
<path d="M645.233 620.118C644.283 620.118 642.588 620.57 642.588 621.772C642.588 622.928 645.236 622.652 645.932 622.231C646.144 622.103 648.57 620.77 647.677 620.412C647.187 620.216 646.807 619.953 646.262 619.953C645.87 619.953 644.81 620.521 644.737 620.449" stroke="#F1F1F1" stroke-width="2" stroke-linecap="round"/>
<path d="M640.438 612.844C640.438 614.395 639.996 616.37 641.264 617.639" stroke="#F1F1F1" stroke-width="2" stroke-linecap="round"/>
<path d="M633.493 602.094C632.78 602.094 632.731 604.899 633.328 605.272C633.589 605.436 633.972 605.685 634.191 605.86C634.506 606.112 635.107 605.652 635.312 606.062" stroke="#F1F1F1" stroke-width="2" stroke-linecap="round"/>
<path d="M641.099 601.602C639.233 601.835 638.113 604.212 637.296 605.643C636.634 606.801 634.092 606.051 632.996 606.599C631.344 607.425 631.087 610.733 632.758 611.688C633.605 612.172 634.498 612.312 633.529 613.378C632.66 614.334 632.467 615.154 631.021 615.335C630.614 615.386 629.82 615.571 629.451 615.739C629.097 615.9 628.388 616.258 628.036 616.308C626.945 616.464 625.651 616.788 624.564 617.108C622.71 617.653 621.409 619.862 623.324 621.352C624.042 621.91 625.257 621.849 626.144 621.765C627.027 621.681 627.971 621.546 628.789 621.186C629.222 620.996 629.801 620.85 630.186 620.58C630.525 620.341 630.909 619.836 631.343 619.79C632.31 619.688 634.312 618.826 635.054 618.219C635.456 617.89 636.272 616.589 636.129 617.089C635.966 617.661 635.535 618.249 635.275 618.798C634.896 619.597 634.725 621.703 635.183 622.472C635.773 623.464 636.995 625.317 638.205 625.586C639.959 625.976 638.141 626.289 637.369 626.569C635.941 627.089 635.282 628.306 634.283 629.344C633.359 630.302 631.94 631.221 631.472 632.485C631.066 633.581 629.86 634.531 630.268 635.838C630.626 636.984 632.149 638.123 632.996 638.971C633.65 639.624 634.686 640.557 634.981 641.442C635.248 642.244 635.642 643.104 636.386 643.518C637.375 644.067 639.047 643.296 639.776 642.608C640.544 641.883 641.323 641.118 640.566 640.128C639.774 639.092 638.952 637.816 638.04 636.904C637.616 636.48 636.699 635.051 637.048 634.423C637.434 633.727 638.993 633.148 639.739 632.889C640.765 632.534 642.051 631.734 642.844 630.942C643.193 630.593 644.847 628.526 644.24 628.223" stroke="#F1F1F1" stroke-width="2" stroke-linecap="round"/>
<path d="M642.752 631.864C642.752 634.041 642.826 635.897 643.496 637.982C644.253 640.336 646.137 642.626 648.052 644.183C649.628 645.463 650.868 648.068 653.132 648.068C655.008 648.068 655.481 646.641 654.492 645.129C653.559 643.702 652.701 642.232 651.598 640.885C650.536 639.587 649.697 638.253 649.697 636.567C649.697 634.579 649.201 632.689 649.201 630.707C649.201 629.635 649.689 627.694 648.539 627.234" stroke="#F1F1F1" stroke-width="2" stroke-linecap="round"/>
<path d="M636.966 643.762C636.966 644.258 637.408 645.616 637.039 645.985C636.662 646.362 635.096 646.103 634.577 646.251C633.735 646.492 632.774 647.176 633.659 648.061C634.451 648.853 636.111 648.586 637.131 648.557C638.309 648.523 642.753 647.95 642.753 646.49C642.753 645.403 640.746 644.212 640.273 643.266" stroke="#F1F1F1" stroke-width="2" stroke-linecap="round"/>
<path d="M652.673 648.398C652.05 648.398 651.808 649.096 651.268 649.216C650.622 649.359 650.102 649.399 649.532 649.684C648.849 650.025 648.91 650.675 649.605 651.117C650.393 651.619 651.608 651.375 652.508 651.375C653.335 651.375 654.143 651.044 654.988 651.044C655.688 651.044 655.753 650.598 656.228 650.217C657.076 649.539 655.427 647.952 655.153 647.406" stroke="#F1F1F1" stroke-width="2" stroke-linecap="round"/>
<path d="M616.957 619.959C616.973 619.829 620.474 620.167 620.852 620.253C622.307 620.586 623.744 619.803 624.269 621.576C624.626 622.781 624.398 624.316 624.398 625.572C624.398 627.902 624.398 630.232 624.398 632.562C624.398 635.642 624.25 639.113 625.381 642.033C625.619 642.648 625.812 643.341 626.015 643.971C626.195 644.533 626.259 644.351 626.051 643.935" stroke="#F1F1F1" stroke-width="2" stroke-linecap="round"/>
<path d="M618.282 619.625C617.992 619.625 616.571 620.364 616.472 620.709C616.138 621.88 618.62 622.147 619.347 622.28C620.043 622.406 620.52 622.932 621.258 622.932C622.094 622.932 622.97 623.217 623.279 624.053C623.959 625.889 624.17 627.712 624.482 629.647C624.893 632.192 625.392 634.9 625.392 637.474C625.392 639.104 625.598 640.884 625.925 642.48C626.059 643.135 626.267 643.78 626.467 644.418C626.661 645.042 626.879 645.459 626.384 644.593" stroke="#F1F1F1" stroke-width="2" stroke-linecap="round"/>
<path d="M542.551 585.727C541.383 585.727 540.134 586.32 538.913 586.388C538.193 586.428 535.38 587.169 537.259 588.005C538.333 588.482 540.488 587.218 541.356 587.913C542.811 589.077 542.055 593.023 542.055 594.692C542.055 599.464 542.55 604.499 543.708 609.133C543.888 609.852 544.445 611.104 544.939 609.693C545.454 608.222 545.098 605.591 544.7 604.117C543.745 600.578 543.708 596.777 543.708 593.131C543.708 591.471 544.34 589.126 543.708 587.545" stroke="#F1F1F1" stroke-width="2" stroke-linecap="round"/>
<path d="M518.409 563.575C518.289 563.56 517.684 563.217 517.619 563.282C517.402 563.499 518.383 564.903 518.501 565.073C519.649 566.713 521.282 568.041 522.874 569.234C524.43 570.401 526.298 571.154 527.761 572.422C529.214 573.681 530.697 574.847 532.308 575.894C535.758 578.137 539.323 580.211 543.294 581.433C544.603 581.836 545.814 582.358 547.015 582.958C547.945 583.423 548.5 583.395 548.668 584.575" stroke="#F1F1F1" stroke-width="2" stroke-linecap="round"/>
<path d="M571.982 593.172C572.045 593.733 572.792 594.725 573.066 595.248C573.784 596.617 575.097 597.67 576.116 598.803C578.192 601.11 580.694 602.917 582.895 605.077C583.967 606.128 585.363 607.052 586.616 607.888C587.949 608.777 589.099 609.858 590.345 610.855C592.194 612.334 594.721 613.387 596.95 614.171C601.478 615.764 606.065 617.473 610.417 619.462C611.8 620.095 613.369 620.247 614.734 620.868C615.431 621.185 617.723 621.447 616.957 621.447" stroke="#F1F1F1" stroke-width="2" stroke-linecap="round"/>
<path d="M651.518 624.422C651.518 625.72 653.734 627.231 654.586 628.06C656.211 629.641 658.616 630.578 660.814 630.962C663.625 631.454 666.686 632.022 669.55 631.853C671.157 631.759 675.946 631.201 674.336 631.201" stroke="#F1F1F1" stroke-width="2" stroke-linecap="round"/>
<path d="M445.738 507.352C445.827 508.152 446.968 509.56 447.401 510.236C448.228 511.528 449.022 512.829 449.955 514.048C451.722 516.36 452.793 519.108 454.245 521.608C455.903 524.465 457.786 527.354 460.114 529.683C460.524 530.092 463.607 533.432 463.927 532.154" stroke="#F1F1F1" stroke-width="2" stroke-linecap="round"/>
<path d="M501.131 558.773C500.152 558.773 501.724 559.227 502.059 559.279C502.647 559.369 504.372 559.766 503.777 559.766" stroke="#F1F1F1" stroke-width="2" stroke-linecap="round"/>
<path d="M422.425 415.172C422.425 419.426 421.464 423.66 421.433 427.922C421.413 430.617 421.463 433.312 421.433 436.006C421.397 439.293 420.772 442.568 420.772 445.863C420.772 448.917 420.8 451.903 420.349 454.929C419.91 457.875 419.431 460.877 419.293 463.858C419.154 466.839 419.118 469.829 419.118 472.815C419.118 476.984 418.334 481.137 418.659 485.317C418.876 488.119 419.274 491.246 420.147 493.933C420.756 495.807 421.833 497.532 422.425 499.371C423.297 502.078 425.489 504.331 428.139 505.214C429.727 505.743 432.417 506.327 433.999 505.535C434.992 505.039 435.488 504.368 436.066 503.468C436.686 502.504 437.368 502.334 436.48 501.319" stroke="#F1F1F1" stroke-width="2" stroke-linecap="round"/>
<path d="M333.316 188.379C333.316 180.564 334.129 203.989 334.767 211.777C336.021 227.072 337.819 242.279 339.535 257.515C341.387 273.969 342.022 290.021 342.022 306.593C342.022 322.721 341.533 339.48 345.753 355.186C349.409 368.794 355.206 382.187 361.183 394.914C365.34 403.764 368.837 417.705 378.064 422.78C381.255 424.535 383.669 425.498 387.299 425.498C388.42 425.498 392.537 426.03 393.011 425.083" stroke="#F1F1F1" stroke-width="2" stroke-linecap="round"/>
<path d="M477.914 591.772C476.662 591.616 472.694 586.372 471.367 585.403C467.914 582.879 465.65 578.621 461.99 576.468C457.229 573.667 462.182 571.679 463.759 568.683C464.818 566.671 463.166 561.491 464.555 560.102C466.523 558.134 472.512 562.19 474.729 562.313C478.865 562.543 477.914 559.059 477.914 555.944C477.914 553.678 474.154 549.298 475.702 547.363C476.258 546.667 480.139 542.092 477.914 543.205" stroke="#F1F1F1" stroke-width="2" stroke-linecap="round"/>
<path d="M458.805 558.328C459.538 558.42 459.332 558.587 459.601 559.124" stroke="#F1F1F1" stroke-width="2" stroke-linecap="round"/>
<path d="M458.805 558.328C457.154 561.837 462.914 570.72 461.193 564.698" stroke="#F1F1F1" stroke-width="2" stroke-linecap="round"/>
<path d="M461.193 554.352C463.067 556.459 464.129 559.308 465.97 561.517" stroke="#F1F1F1" stroke-width="2" stroke-linecap="round"/>
<path d="M463.584 550.367C464.619 551.89 469.164 559.915 469.953 559.125" stroke="#F1F1F1" stroke-width="2" stroke-linecap="round"/>
<path d="M466.768 546.383C468.178 549.048 473.153 559.855 473.933 556.733" stroke="#F1F1F1" stroke-width="2" stroke-linecap="round"/>
<path d="M468.359 542.406C471.553 545.599 474.017 549.712 476.321 553.553" stroke="#F1F1F1" stroke-width="2" stroke-linecap="round"/>
<path d="M473.137 539.219C474.842 542.093 476.692 544.557 478.71 547.181" stroke="#F1F1F1" stroke-width="2" stroke-linecap="round"/>
<path d="M322.659 298.773C316.662 299.44 307.425 312.998 312.309 317.882C315.106 320.679 322.169 313.408 324.251 311.557C326.155 309.865 328.546 308.813 330.621 307.355C331.545 306.705 334.326 305.939 333.805 305.939" stroke="#F1F1F1" stroke-width="2" stroke-linecap="round"/>
<path d="M266.926 358.482C267.149 356.922 277.11 366.64 277.32 366.842C278.854 368.314 290.008 379.014 284.442 371.221" stroke="#F1F1F1" stroke-width="2" stroke-linecap="round"/>
<path d="M273.295 349.727C280.745 352.878 295.225 372.885 291.607 365.65" stroke="#F1F1F1" stroke-width="2" stroke-linecap="round"/>
<path d="M278.072 340.172C282.354 344.454 286.574 348.808 290.944 352.999C292.627 354.614 297.755 359.766 293.996 354.503" stroke="#F1F1F1" stroke-width="2" stroke-linecap="round"/>
<path d="M279.664 334.602C283.919 337.202 287.162 342.958 290.457 346.544C291.32 347.484 302.974 360.639 297.18 352.914" stroke="#F1F1F1" stroke-width="2" stroke-linecap="round"/>
<path d="M282.85 329.828C288.785 335.764 294.409 341.973 300.056 348.185C301.876 350.187 310.739 358.514 304.347 352.121" stroke="#F1F1F1" stroke-width="2" stroke-linecap="round"/>
<path d="M279.664 317.086C288.131 325.885 311.974 353.691 304.346 344.156" stroke="#F1F1F1" stroke-width="2" stroke-linecap="round"/>
<path d="M282.85 305.938C288.96 313.469 295.402 320.596 302.091 327.611C303.669 329.267 306.374 331.995 302.754 329.823" stroke="#F1F1F1" stroke-width="2" stroke-linecap="round"/>
<path d="M282.85 301.164C288.451 308.899 296.249 315.414 303.373 321.688C305.716 323.751 313.847 331.365 307.531 325.05" stroke="#F1F1F1" stroke-width="2" stroke-linecap="round"/>
<path d="M289.219 299.57C292.175 302.526 295.151 305.464 298.065 308.461C300.864 311.34 303.558 314.32 306.381 317.175C308.015 318.828 309.438 319.91 306.735 317.883" stroke="#F1F1F1" stroke-width="2" stroke-linecap="round"/>
<path d="M291.607 293.992C295.469 294.219 299.125 299.886 301.516 302.352C305.066 306.015 308.383 309.83 312.308 313.101" stroke="#F1F1F1" stroke-width="2" stroke-linecap="round"/>
<path d="M280.461 395.109C282.743 395.363 298.174 409.638 292.404 403.867" stroke="#F1F1F1" stroke-width="2" stroke-linecap="round"/>
<path d="M282.85 388.742C284.826 389.886 294.793 398.297 292.404 395.908" stroke="#F1F1F1" stroke-width="2" stroke-linecap="round"/>
<path d="M282.85 382.367C285.882 382.704 294.878 390.566 293.2 391.125" stroke="#F1F1F1" stroke-width="2" stroke-linecap="round"/>
<path d="M276.479 395.906C279.715 399.143 288.484 409.441 292.402 409.441" stroke="#F1F1F1" stroke-width="2" stroke-linecap="round"/>
<path d="M63.1016 251C63.1016 256.901 67.6114 265.02 72.4788 268.339C74.8541 269.959 80.5055 276.977 81.7676 271.568C82.1071 270.113 82.7207 258.308 81.4138 258.962" stroke="#F1F1F1" stroke-width="2" stroke-linecap="round"/>
<path d="M41.9902 269.289C42.4977 273.856 44.6068 278.804 46.0617 283.168C47.4154 287.229 48.822 291.246 50.4588 295.201C51.3239 297.292 52.7317 302.452 52.0874 296.975" stroke="#F1F1F1" stroke-width="2" stroke-linecap="round"/>
<path d="M45.8984 261.469C48.5641 268.739 51.9698 275.857 55.0365 282.966C56.9435 287.387 58.9451 291.76 61.0984 296.067C62.0033 297.877 63.0645 299.631 63.487 301.532" stroke="#F1F1F1" stroke-width="2" stroke-linecap="round"/>
<path d="M53.0645 250.398C53.0645 254.446 54.2981 258.373 55.2721 262.269C58.06 273.42 61.8222 284.276 65.7492 295.076C68.7347 303.286 72.045 311.253 76.6244 318.708C77.64 320.361 78.6043 322.008 79.4473 323.756C80.1183 325.148 80.447 326.732 81.7273 325.964" stroke="#F1F1F1" stroke-width="2" stroke-linecap="round"/>
<path d="M67.3945 270.922C68.5021 276.128 70.6926 281.146 72.624 286.086C76.0835 294.934 80.0751 303.488 84.3678 311.962C89.0974 321.298 92.9547 331.02 97.9755 340.208C99.7847 343.52 101.539 346.872 103.422 350.143C103.854 350.893 104.319 351.523 104.526 352.35" stroke="#F1F1F1" stroke-width="2" stroke-linecap="round"/>
<path d="M1 409.441C1 406.965 2.65943 405.751 3.38858 403.381C4.94795 398.313 5.15065 393.861 5.95403 388.74C7.67878 377.745 1 367.549 1 356.495C1 351.263 1.62598 344.133 3.21165 339.2C5.38084 332.451 10.7373 326.48 14.3582 320.445C17.5204 315.175 18.2558 308.599 22.0989 303.902C24.9911 300.367 26.5921 294.378 27.6722 290.057C28.8314 285.42 30.1084 280.236 30.4588 275.505C30.8035 270.852 34.4686 269.616 37.4475 266.747C42.2783 262.095 45.1692 259.423 48.4614 253.345C50.495 249.59 55.3415 238.739 60.758 239.19C67.1646 239.724 72.6716 246.728 77.6106 250.204C78.5694 250.879 80.6184 252.909 80.6184 251.443C80.6184 248.169 80.6184 244.896 80.6184 241.623C80.6184 234.957 79.0261 228.609 79.0261 221.895C79.0261 214.73 79.0261 207.564 79.0261 200.398C79.0261 194.677 80.9469 187.271 83.8032 182.351C85.253 179.854 85.5179 177.204 87.386 174.92C88.7113 173.301 90.9339 171.261 91.765 169.391C93.2983 165.941 99.1718 162.158 99.7268 158.643C100.664 152.709 101.944 146.889 102.735 140.861C103.556 134.6 104.631 127.11 103.664 120.824C102.759 114.943 102.702 113.148 106.848 108.483C114.293 100.108 119.471 91.1301 124.585 81.413C130.714 69.7696 139.622 60.3087 145.065 48.0617C146.547 44.7269 155.174 14.0574 159.441 16.3028C162.065 17.684 163.097 21.7061 164.616 24.0435C166.097 26.3218 168.275 28.145 170.189 30.0591C176.389 36.2593 186.648 18.7136 189.563 15.5066C194.036 10.5858 198.926 3.43091 205.442 1.17534C210.361 -0.527211 216.308 10.6541 218.535 13.7374C227.417 26.0353 236.952 36.6473 248.79 46.3809C260.097 55.678 272.499 72.3757 272.499 87.7382C272.499 100.315 273.966 113.01 279.664 124.407C282.046 129.17 285.238 135.233 285.238 140.684C285.238 146.314 288.422 150.933 288.422 156.785C288.422 164.903 288.901 170.649 293.2 177.574C296.074 182.205 297.485 185.983 298.95 191.109C300.205 195.503 300.043 201.425 300.321 206.016C300.669 211.758 302.424 215.018 304.346 220.303C305.803 224.308 308.953 227.126 310.096 231.273C311.608 236.753 311.094 244.859 310.096 250.469C309.292 254.994 313.861 252.132 315.095 256.574C317.116 263.852 317.085 270.91 317.085 278.38C317.085 284.523 323.115 284.006 328.055 286.829C334.33 290.415 333.461 294.035 334.734 300.187C336.298 307.747 345.12 312.046 349.552 317.88C354.747 324.719 361.031 332.223 364.679 339.996C371.459 354.44 370.883 371.866 378.568 385.732C386.745 400.485 390.291 413.72 393.165 430.142C394.025 435.056 395.111 439.507 395.111 444.517C395.111 453.35 400.826 460.595 405.683 467.43C408.983 472.074 410.787 477.289 414.396 481.894C420.015 489.062 428.512 492.912 432.532 501.621C434.839 506.62 436.896 511.8 438.901 516.926C440.753 521.659 441.067 526.766 442.971 531.39C446.748 540.562 452.649 549.064 454.073 559.035C454.544 562.334 459.019 555.477 459.248 554.966C460.65 551.833 460.774 548.19 461.991 544.969C464.033 539.564 464.2 535.747 470.129 534.265C473.16 533.507 474.746 536.198 476.764 538.025C479.607 540.597 483.416 542.306 486.628 544.394C490.299 546.78 496.543 548.987 498.173 553.285C499.941 557.946 499.006 562.005 498.659 566.687C497.979 575.867 497.837 582.104 501.004 590.971C502.805 596.015 506.563 600.213 507.55 605.479C508.009 607.925 510.074 618.041 512.15 618.041" stroke="#F1F1F1" stroke-width="2" stroke-linecap="round"/>
<path d="M36.8281 318.672C42.3792 324.223 48.6071 332.992 55.6269 336.232C58.647 337.626 60.7143 337.471 63.8984 337.825C67.4759 338.222 68.5407 343.319 69.2947 346.184C70.0551 349.074 70.4502 351.829 71.8602 354.5C72.4441 355.606 73.8479 356.787 74.1161 357.995C74.3333 358.972 66.5402 357.001 66.0216 356.844C60.097 355.056 54.0222 352.316 47.5766 353.748C42.4999 354.876 52.4765 362.701 53.1057 363.17C59.3581 367.823 65.4513 372.506 71.8602 376.97C78.644 381.696 85.4951 385.677 92.561 389.886C99.0434 393.748 104.715 399.594 111.36 403.023C115.447 405.133 119.872 405.807 124.364 405.058C127.621 404.515 130.81 401.692 134.14 402.271C139.799 403.255 142.474 413.084 145.463 417.354C147.268 419.934 152.266 427.809 153.071 422.176" stroke="#F1F1F1" stroke-width="2" stroke-linecap="round"/>
<path d="M117.242 169.793C120.212 169.793 123.354 172.139 125.956 173.332C131.401 175.827 138.047 177.544 143.737 179.657C148.271 181.341 154.273 181.772 158.246 184.523C164.652 188.958 154.79 181.89 153.203 180.63C148.044 176.533 143.867 171.101 139.933 165.857C136.71 161.558 144.124 163.834 146.347 165.06C151.853 168.098 156.658 172.11 162.271 175.013C168.386 178.176 176.81 181.001 182.087 185.319C185.911 188.448 188.086 194.507 190.314 198.81C193.593 205.14 198.424 211.424 203.407 216.591C206.75 220.058 212.705 226.579 217.561 227.119C223.434 227.771 227.768 225.085 231.893 230.126C236.648 235.938 242.399 240.055 249.851 242.069C251.472 242.507 256.416 243.148 254.186 244.635" stroke="#F1F1F1" stroke-width="2" stroke-linecap="round"/>
<path d="M111.669 127.587C107.632 123.55 115.544 138.984 115.739 139.397C119.184 146.698 122.702 153.797 126.62 160.85C127.879 163.116 130.539 168.351 128.389 162.619" stroke="#F1F1F1" stroke-width="2" stroke-linecap="round"/>
<path d="M113.262 114.852C125.544 128.361 147.736 178.586 142.721 161.03" stroke="#F1F1F1" stroke-width="2" stroke-linecap="round"/>
<path d="M122.02 102.906C128.651 115.244 136.702 126.762 143.472 139.044C146.434 144.417 151.439 155.163 155.459 157.843" stroke="#F1F1F1" stroke-width="2" stroke-linecap="round"/>
<path d="M122.02 94.9531C132.411 112.85 144.13 130.014 154.928 147.678C156.367 150.032 166.458 162.12 158.644 156.259" stroke="#F1F1F1" stroke-width="2" stroke-linecap="round"/>
<path d="M128.389 88.5781C130.724 90.3533 131.797 92.5281 133.343 95.0361C138.89 104.037 144.981 112.674 150.815 121.487C155.946 129.239 160.949 137.078 165.854 144.975C167.567 147.733 170.213 150.631 168.994 153.069" stroke="#F1F1F1" stroke-width="2" stroke-linecap="round"/>
<path d="M136.352 82.2109C144.892 94.797 154.126 106.871 162.98 119.234C165.142 122.253 184.138 149.075 184.919 148.294" stroke="#F1F1F1" stroke-width="2" stroke-linecap="round"/>
<path d="M151.479 88.5781C162.738 103.489 172.156 121.999 186.511 133.961" stroke="#F1F1F1" stroke-width="2" stroke-linecap="round"/>
<path d="M135.555 71.8594C135.717 70.397 138.808 68.0451 140.332 68.8516C142.322 69.9052 142.707 73.3234 143.34 75.2211C144.321 78.1664 146.809 88.3013 151.655 86.81C156.298 85.3814 161.877 84.3519 165.81 86.81C170.696 89.8637 168.312 99.9045 171.206 103.884C172.367 105.48 173.856 106.18 175.364 107.688C178.114 110.438 177.849 114.74 179.168 118.038C181.413 123.651 186.745 127.269 191.288 131.573C194.093 134.231 199.509 141.374 195.888 145.285C192.178 149.292 188.02 153.07 182.53 153.07" stroke="#F1F1F1" stroke-width="2" stroke-linecap="round"/>
<path d="M126 184.922C126.135 186 134.363 190.355 135.554 190.495C138.062 190.79 145.034 192.898 147.055 194.918C151.468 199.332 151.167 206.018 154.043 211.196C156.076 214.854 167.9 204.107 170.188 202.836C174.492 200.445 177.653 209.656 178.548 212.788C180.318 218.983 186.363 227.096 190.668 231.72C197.034 238.558 204.924 240.38 212.032 245.83C218.96 251.141 234.346 272.6 229.504 265.336" stroke="#F1F1F1" stroke-width="2" stroke-linecap="round"/>
<path d="M209.6 8.16406C207.508 8.4256 206.513 15.9743 206.416 17.7183C206.132 22.8273 212.343 24.4419 215.572 27.6706C216.953 29.0516 218.917 29.0012 219.951 30.8111C221.239 33.0661 220.937 34.0062 221.72 36.6498C223.404 42.3319 220.916 47.5518 219.907 53.1042C217.35 67.1634 218.769 80.297 226.32 93.1788C230.585 100.454 233.039 90.8713 233.442 85.8362C234.187 76.5256 233.486 66.8709 233.486 57.5275C233.486 56.0504 233.34 48.701 233.663 49.9195C234.687 53.7897 237.018 56.5611 238.882 59.916C240.074 62.0617 242.477 62.5647 243.659 64.6931C245.093 67.2746 246.745 69.6081 248.171 72.2569C250.33 76.2664 255.641 80.4096 255.779 85.3939C256.079 96.1906 256.044 105.873 258.168 116.489C259.974 125.52 264.752 128.299 271.703 132.767C277.635 136.58 279.123 142.845 278.868 149.708C278.775 152.22 277.038 155.992 275.684 158.024C274.555 159.716 272.839 164.906 271.26 165.809C269.555 166.783 267.825 169.372 266.572 170.984C265.03 172.966 268.362 187.269 269.314 177.751" stroke="#F1F1F1" stroke-width="2" stroke-linecap="round"/>
<path d="M193.676 33.6406C194.057 36.6864 197.951 41.4387 199.382 43.8141C202.618 49.1866 205.827 54.5696 208.803 60.0916C210.457 63.1598 213.653 69.4702 210.396 62.3033" stroke="#F1F1F1" stroke-width="2" stroke-linecap="round"/>
<path d="M194.473 20.1094C194.864 30.0981 201.731 40.4974 205.973 49.3028C208.541 54.6328 216.582 69.8319 210.396 55.1415" stroke="#F1F1F1" stroke-width="2" stroke-linecap="round"/>
<path d="M198.453 21.7031C198.998 29.6048 205.351 37.7991 208.98 44.6155C209.826 46.2033 218.157 60.9926 213.581 52.7543" stroke="#F1F1F1" stroke-width="2" stroke-linecap="round"/>
<path d="M201.639 25.6797C205.756 30.7123 210.124 36.2738 213.67 41.7361C215.296 44.241 219.63 51.8224 215.174 45.5843" stroke="#F1F1F1" stroke-width="2" stroke-linecap="round"/>
<path d="M208.805 28.0703C213.607 33.0576 216.616 39.4066 219.951 45.4094C220.623 46.6186 225.092 52.2287 221.544 49.5673" stroke="#F1F1F1" stroke-width="2" stroke-linecap="round"/>
<path d="M235.078 92.5597C235.078 91.854 235.134 92.2891 235.432 92.7366C237.964 96.5343 240.708 100.199 243.571 103.751C246.652 107.573 249.931 111.215 253.125 114.941C254.557 116.612 250.491 110.519 250.206 110.076" stroke="#F1F1F1" stroke-width="2" stroke-linecap="round"/>
<path d="M233.486 80.6172C236.688 88.7675 242.947 96.1746 247.641 103.53C249.692 106.744 251.593 109.596 249.41 104.503" stroke="#F1F1F1" stroke-width="2" stroke-linecap="round"/>
<path d="M235.875 75.0469C239.738 82.4215 244.168 89.3366 248.879 96.19C251.047 99.3432 251.893 101.012 249.41 96.5438" stroke="#F1F1F1" stroke-width="2" stroke-linecap="round"/>
<path d="M239.059 71.8594C243.58 79.6508 248.852 87.0339 254.009 94.4179C256.588 98.1101 255.236 95.8062 254.186 93.3564" stroke="#F1F1F1" stroke-width="2" stroke-linecap="round"/>
<path d="M238.262 67.0859C244.766 75.7581 253.109 85.0739 255.778 95.7486" stroke="#F1F1F1" stroke-width="2" stroke-linecap="round"/>
<path d="M248.615 311.514C248.143 307.745 244.68 294.761 252.197 296.431C256.007 297.278 257.304 307.52 257.373 310.541C257.525 317.251 259.752 323.956 260.911 330.578C262.031 336.977 263.09 342.875 265.379 348.979C268.185 356.464 272.852 349.563 273.916 345.573C275.52 339.557 274.092 331.19 274.092 324.961C274.092 318.341 273.296 311.809 273.296 305.145C273.296 295.45 273.887 292.406 283.249 292.406C290.746 292.406 293.896 282.055 301.561 282.055C303.012 282.055 309.125 279.664 309.125 282.454C309.125 285.132 307.544 289.137 305.144 290.637C303.466 291.685 301.163 294.793 301.163 296.785C301.163 298.872 307.77 300.109 303.551 301.164" stroke="#F1F1F1" stroke-width="2" stroke-linecap="round"/>
<path d="M251.001 357.686C248.358 358.064 255.455 360.926 256.751 363.259C257.773 365.099 260.143 366.229 257.37 367.859C255.594 368.904 254.353 368.833 252.195 368.833C249.442 368.833 260.12 376.867 261.749 377.591C266.336 379.629 269.697 384.527 274.09 386.968C278.479 389.406 281.836 391.922 274.709 391.922C270.964 391.922 264.988 392.562 266.172 397.893C266.799 400.711 272.073 402.098 274.09 403.555C278.29 406.588 281.802 410.761 286.033 413.817C288.881 415.874 291.647 418.007 294.393 420.142C296.676 421.918 297.782 422.305 297.002 418.992C296.163 415.427 289.879 409.927 293.375 406.43C294.581 405.224 295.587 402.416 295.587 400.68C295.587 398.248 293.199 397.056 296.826 397.539C298.235 397.727 303.645 400.847 304.301 397.893C304.938 395.026 301.12 394.663 299.17 393.912C298.008 393.465 292.826 393.603 292.446 392.276C291.855 390.205 293.995 388.417 293.995 386.349C293.995 381.739 291.84 377.821 291.606 373.61C291.337 368.759 294.935 367.56 296.383 363.215C298.048 358.222 302.042 368.833 306.336 368.833C311.202 368.833 309.122 349.635 309.122 354.501" stroke="#F1F1F1" stroke-width="2" stroke-linecap="round"/>
<path d="M263.741 369.634C261.392 369.373 260.902 367.009 264.581 370.872C268.776 375.277 273.411 379.304 277.718 383.611C281.871 387.764 278.054 383.376 276.48 381.576" stroke="#F1F1F1" stroke-width="2" stroke-linecap="round"/>
<path d="M260.557 358.488C255.889 353.042 270.667 368.67 275.862 373.616C276.951 374.653 289.981 385.131 282.85 379.189" stroke="#F1F1F1" stroke-width="2" stroke-linecap="round"/>
<path d="M47.1784 297.977C45.3998 298.199 54.2696 305.864 55.1403 306.735C58.6537 310.248 61.7892 314.18 65.3137 317.704C69.5767 321.967 72.4982 327.07 76.6372 331.416C81.2906 336.302 86.1915 341.265 86.1915 348.136C86.1915 353.429 82.9213 353.754 89.3762 356.894C95.7362 359.988 100.538 362.179 106.096 366.625C111.569 371.004 113.898 377.694 118.835 382.372C119.353 382.863 129.05 389.902 124.408 388.742" stroke="#F1F1F1" stroke-width="2" stroke-linecap="round"/>
<path d="M153.522 234.594C152.996 238.797 152.171 243.969 152.828 248.561C153.47 253.057 153.986 257.383 158.668 257.383C164.953 257.383 159.498 249.997 157.524 247.459C154.777 243.927 155.891 236.799 151.316 236.799" stroke="#F1F1F1" stroke-width="2" stroke-linecap="round"/>
<path d="M82.3789 278.414C82.6604 282.778 84.5645 286.906 86.197 290.9C90.5382 301.52 95.4911 311.873 100.547 322.168C104.802 330.833 108.966 339.566 113.448 348.117C114.878 350.845 115.746 352.426 117.23 354.993C117.561 355.564 117.901 356.13 118.244 356.694C118.263 356.727 118.186 356.554 118.207 356.585" stroke="#F1F1F1" stroke-width="2" stroke-linecap="round"/>
<path d="M86.2871 267.984C86.4405 269.595 87.4078 271.318 88.0242 272.725C92.8933 283.842 98.4491 294.572 104.455 305.116C111.866 318.128 119.565 330.999 127.707 343.568C135.479 355.565 143.833 366.578 153.058 377.424" stroke="#F1F1F1" stroke-width="2" stroke-linecap="round"/>
<path d="M91.8229 268.962C91.3241 268.089 92.3134 270.923 92.7277 271.839C98.113 283.747 105.055 295.063 112.017 306.093C127.499 330.622 145.332 353.515 162.177 377.099" stroke="#F1F1F1" stroke-width="2" stroke-linecap="round"/>
<path d="M86.9375 249.422C89.9493 253.576 92.3589 258.137 95.008 262.523C103.048 275.834 111.867 288.65 120.721 301.428C132.315 318.159 144.766 334.299 156.315 351.045" stroke="#F1F1F1" stroke-width="2" stroke-linecap="round"/>
<path d="M85.3091 224.344C85.0431 225.104 85.1453 225.835 85.4539 226.588C90.307 238.426 98.1369 249.608 105.033 260.281C123.403 288.711 145.204 314.756 165.76 341.601" stroke="#F1F1F1" stroke-width="2" stroke-linecap="round"/>
<path d="M87.2636 213.59C86.6607 212.963 83.1145 207.977 85.0198 210.586C91.9182 220.03 97.9445 230.171 104.454 239.882C120.07 263.176 137.056 285.346 154.361 307.395" stroke="#F1F1F1" stroke-width="2" stroke-linecap="round"/>
<path d="M84.332 195.023C97.2747 215.214 109.728 235.47 124.142 254.701C135.664 270.075 147.799 284.95 159.898 299.867C162.076 302.552 164.22 305.162 166.086 308.046" stroke="#F1F1F1" stroke-width="2" stroke-linecap="round"/>
<path d="M89.5439 191.118C89.0509 190.625 88.448 189.93 89.2362 191.227C95.6686 201.809 103.641 211.716 111.15 221.518C129.462 245.423 150.552 267.431 167.39 292.415" stroke="#F1F1F1" stroke-width="2" stroke-linecap="round"/>
<path d="M89.2168 184.93C98.9764 194.225 107.124 205.38 115.563 215.836C127.285 230.359 139.575 244.447 149.148 260.495" stroke="#F1F1F1" stroke-width="2" stroke-linecap="round"/>
<path d="M93.127 176.461C93.2226 177.417 94.0512 178.291 94.6108 178.994C98.6759 184.106 103.399 188.672 107.965 193.326C121.678 207.301 135.367 221.533 149.801 234.764" stroke="#F1F1F1" stroke-width="2" stroke-linecap="round"/>
<path d="M100.943 176.133C116.227 191.416 131.69 206.395 147.846 220.756" stroke="#F1F1F1" stroke-width="2" stroke-linecap="round"/>
<path d="M168.085 280.508C167.099 280.631 170.507 286.531 171.101 287.295C173.147 289.925 172.429 294.11 172.429 297.34C172.429 305.483 172.962 315.367 168.387 322.557C167.266 324.317 166.517 328.212 165.943 330.219C165.465 331.891 172.119 333.408 173.243 334.532C175.566 336.856 175.543 339.291 173.243 341.591C170.434 344.4 168.483 349.956 168.055 353.808C167.587 358.019 167.212 362.071 168.206 366.296C169.193 370.491 170.916 371.971 174.6 374.018C177.144 375.431 180.852 377.646 182.081 380.413C183.424 383.433 179.492 385.299 177.195 385.299C175.425 385.299 173.655 385.299 171.886 385.299C170.398 385.299 169.682 384.213 168.206 384.213C163.866 384.213 163.541 385.875 164.827 390.307C167.764 400.424 172.326 410.816 177.074 420.049C177.576 421.026 178.284 422.857 178.401 423.849C178.605 425.586 180.5 427.004 177.858 426.564" stroke="#F1F1F1" stroke-width="2" stroke-linecap="round"/>
<path d="M120.305 358.703C118.558 358.703 117.595 358.714 118.435 360.875C120.228 365.487 122.558 369.946 125.071 374.208C130.404 383.25 134.014 393.323 139.852 402.08C141.793 404.991 143.883 407.781 145.764 410.737C147.308 413.164 147.75 413.246 146.367 410.827" stroke="#F1F1F1" stroke-width="2" stroke-linecap="round"/>
<path d="M124.648 356.531C125.522 358.891 127.085 360.608 128.69 362.564C136.995 372.683 145.372 382.758 153.818 392.759C161.2 401.502 168.616 410.242 176.712 418.338C179.635 421.261 177.814 419.852 176.23 418.972" stroke="#F1F1F1" stroke-width="2" stroke-linecap="round"/>
<path d="M129.534 366.844C128.914 367.34 169.679 420.763 177.858 424.398" stroke="#F1F1F1" stroke-width="2" stroke-linecap="round"/>
<path d="M25.7715 460.296C26.1966 463.696 31.2026 467.277 33.1202 469.858C38.1147 476.582 42.8725 483.183 46.0468 490.974C53.1598 508.433 56.5801 531.468 69.4211 545.736C74.5599 551.446 90.2133 529.338 93.5036 525.682C97.6538 521.07 102.676 517.08 106.253 511.914C110.222 506.181 112.035 499.588 114.576 493.055C116.098 489.14 115.834 484.605 116.568 480.571C117.501 475.439 110.845 472.857 107.847 469.858C101.035 463.046 98.8822 451.348 91.1573 445.554C86.1342 441.787 83.5193 433.84 77.6109 431.255C72.9966 429.236 67.4348 428.422 62.4265 428.422C56.4075 428.422 51.7264 430.812 45.6927 430.812" stroke="#F1F1F1" stroke-width="2" stroke-linecap="round"/>
<path d="M29.166 454.545C30.3766 454.393 31.0979 452.298 31.7304 451.438C32.9537 449.774 34.3959 447.734 35.3796 445.915C36.8041 443.279 38.7318 440.116 39.4727 437.235C39.7239 436.258 39.9599 433.17 40.7056 432.797" stroke="#F1F1F1" stroke-width="2" stroke-linecap="round"/>
<path d="M31.8283 453.211C29.1877 453.541 36.2666 470.058 36.2666 472.296" stroke="#F1F1F1" stroke-width="2" stroke-linecap="round"/>
<path d="M37.1543 450.992C37.7905 453.446 44.8009 480.456 46.9186 479.397" stroke="#F1F1F1" stroke-width="2" stroke-linecap="round"/>
<path d="M41.5918 441.672C45.1914 460.699 52.7015 479.606 60.6765 497.151" stroke="#F1F1F1" stroke-width="2" stroke-linecap="round"/>
<path d="M50.4688 486.945C50.4688 491.038 52.8161 495.547 54.2413 499.348C56.1461 504.427 59.2136 509.045 61.3179 514.019C63.616 519.451 65.5668 525.131 68.1233 530.441C69.0974 532.464 69.6596 534.647 70.663 536.654C71.5328 538.394 72.3805 540.604 71.3288 537.098" stroke="#F1F1F1" stroke-width="2" stroke-linecap="round"/>
<path d="M62.8965 502.922C62.8965 504.111 63.9334 505.026 64.4252 506.078C65.5493 508.482 66.8177 510.796 67.8772 513.229C69.5438 517.056 71.519 520.749 73.2032 524.571C74.5572 527.644 75.7859 530.973 77.4442 533.891C78.3336 535.457 82.21 542.398 79.3182 537.097" stroke="#F1F1F1" stroke-width="2" stroke-linecap="round"/>
<path d="M46.9179 437.68C45.7196 437.531 52.7687 460.879 53.7479 463.201C57.8336 472.885 61.3789 482.81 65.756 492.37C69.3921 500.312 73.6678 507.997 77.5668 515.794C78.6656 517.992 80.2489 520.114 81.5366 522.23C81.8266 522.706 83.7558 526.778 83.7558 525.115" stroke="#F1F1F1" stroke-width="2" stroke-linecap="round"/>
<path d="M52.6875 435.461C52.6875 443.125 56.9014 451.289 59.6408 458.294C64.09 469.67 68.7656 481.26 74.09 492.271C76.9561 498.199 79.8492 503.835 83.2131 509.482C85.027 512.527 87.4841 516.416 89.9692 518.901" stroke="#F1F1F1" stroke-width="2" stroke-linecap="round"/>
<path d="M60.2344 435.906C60.2344 441.206 63.7921 446.924 65.659 451.736C69.4102 461.406 74.2275 470.623 78.0862 480.24C81.2334 488.084 84.6568 495.618 88.1956 503.27C89.0666 505.153 90.1514 506.968 91.3024 508.694C92.1172 509.916 93.5494 513.077 94.4093 511.357" stroke="#F1F1F1" stroke-width="2" stroke-linecap="round"/>
<path d="M64.2285 435.461C64.2285 438.332 65.6913 441.126 66.7929 443.696C68.8135 448.411 70.744 453.191 72.6613 457.948C76.2533 466.862 79.7569 475.693 83.757 484.43C85.2508 487.693 87.1621 490.781 89.083 493.8C90.5546 496.112 91.414 498.847 93.0775 501.049C96.3568 505.389 98.6021 511.111 102.398 514.907" stroke="#F1F1F1" stroke-width="2" stroke-linecap="round"/>
<path d="M69.5547 434.57C69.5547 437.039 70.7889 439.459 71.6012 441.746C73.6882 447.62 76.5105 453.217 78.8751 458.981C82.1607 466.99 86.8262 474.139 90.316 481.961C92.709 487.325 95.7928 492.369 98.157 497.742C98.7782 499.154 99.9204 500.223 100.623 501.589C100.997 502.315 102.378 505.603 102.842 505.139" stroke="#F1F1F1" stroke-width="2" stroke-linecap="round"/>
<path d="M74.4355 433.68C74.7067 438.832 78.4521 445.039 80.6492 449.633C85.5878 459.959 90.3024 470.3 95.5175 480.504C98.0013 485.363 99.6735 490.508 102.397 495.273C103.394 497.018 107.167 504.692 108.61 504.692" stroke="#F1F1F1" stroke-width="2" stroke-linecap="round"/>
<path d="M82.8691 441.669C82.8691 440.572 83.5133 442.946 83.7568 443.444C85.4787 446.97 87.1356 450.534 88.8362 454.072C92.0919 460.843 95.5692 467.568 98.6004 474.439C100.347 478.398 102.52 482.656 104.715 486.397C106.024 488.626 107.466 492.008 109.055 493.597" stroke="#F1F1F1" stroke-width="2" stroke-linecap="round"/>
<path d="M94.4082 452.766C94.4817 454.678 95.6111 455.808 96.4054 457.5C97.6516 460.155 98.9026 462.798 100.178 465.439C101.914 469.036 103.163 472.754 105.035 476.264C106.291 478.618 107.418 481.005 108.611 483.39C109.25 484.669 110.575 488.145 111.718 488.716" stroke="#F1F1F1" stroke-width="2" stroke-linecap="round"/>
<path d="M109.943 477.181C109.943 475.546 110.847 478.207 111.053 478.734C111.881 480.85 113.566 482.494 113.938 484.726" stroke="#F1F1F1" stroke-width="2" stroke-linecap="round"/>
<path d="M176.518 541.09C176.862 537.989 177.538 534.733 177.874 531.548C178.213 528.327 178.439 524.177 179.402 521.093C180.394 517.92 181.294 515.171 184.26 518.676C186.405 521.211 188.651 525.918 191.83 527.331C193.998 528.295 193.791 530.671 196.145 528.317C198.241 526.221 198.343 523.717 199.498 521.118C200.871 518.028 202.515 519.759 204.824 517.912C207.496 515.774 207.586 509.188 207.586 506.126C207.586 502.387 208.473 498.943 208.473 495.153C208.473 489.318 214.38 492.15 216.906 494.956C221.276 499.811 225.42 503.135 231.133 506.496C236.378 509.581 241.705 512.321 246.865 515.57C251.072 518.219 268.924 525.781 260.401 531.868C259.517 532.5 257.458 533.416 256.949 534.432C256.235 535.862 261.315 539.748 262.275 541.188C264.684 544.801 268.319 547.509 270.609 551.298C274.117 557.101 277.347 563.076 279.486 569.495" stroke="#F1F1F1" stroke-width="2" stroke-linecap="round"/>
<path d="M124.588 549.965C124.588 546.226 125.244 539.966 129.569 545.526C131.812 548.411 133.986 551.13 136.769 553.515C141.061 557.194 144.304 562.135 148.308 566.14C152.193 570.024 157.434 569.666 162.535 570.8C164.534 571.244 164.807 575.39 165.42 576.94C166.917 580.721 173.009 591.328 171.19 587.69" stroke="#F1F1F1" stroke-width="2" stroke-linecap="round"/>
<path d="M124.145 561.508C124.145 566.355 124.479 572.113 125.254 576.919C125.691 579.626 124.769 585.815 128.336 586.905C130.481 587.56 133.068 587.025 135.043 587.743C141.583 590.121 144.954 597.92 150.232 602.143C152.144 603.673 153.061 604.936 155.015 602.981C157.338 600.658 160.417 601.445 162.314 598.789" stroke="#F1F1F1" stroke-width="2" stroke-linecap="round"/>
<path d="M127.695 573.492C129.823 575.885 131.377 579.483 133.021 582.27C134.131 584.151 135.308 586.046 136.547 587.843C137.455 589.159 137.979 589.546 136.572 588.139" stroke="#F1F1F1" stroke-width="2" stroke-linecap="round"/>
<path d="M128.584 568.167C128.584 566.948 128.889 568.301 129.225 568.808C131.498 572.246 134.004 575.536 136.425 578.869C139.886 583.632 143.047 588.4 147.225 592.578" stroke="#F1F1F1" stroke-width="2" stroke-linecap="round"/>
<path d="M128.14 558.842C125.102 553.145 134.939 569.828 138.644 575.115C143.472 582.004 148.994 588.392 153.882 595.236" stroke="#F1F1F1" stroke-width="2" stroke-linecap="round"/>
<path d="M130.359 553.961C134.844 562.93 141.884 571.338 148.285 578.988C151.361 582.664 154.019 586.686 157.088 590.355C158.376 591.895 159.688 593.319 160.885 594.941C161.29 595.49 162.29 596.593 162.315 596.569" stroke="#F1F1F1" stroke-width="2" stroke-linecap="round"/>
<path d="M145.006 569.055C148.662 572.71 152.493 576.184 155.855 580.126C157.815 582.424 161.242 587.634 164.091 588.583" stroke="#F1F1F1" stroke-width="2" stroke-linecap="round"/>
<path d="M156.988 573.93C160.827 577.994 165.584 582.688 168.084 587.688" stroke="#F1F1F1" stroke-width="2" stroke-linecap="round"/>
<path d="M195.158 562.391C195.35 565.659 195.909 569.411 196.712 572.623C197.142 574.343 197.821 576.374 197.821 578.147C197.821 580.053 197.403 579.89 196.268 581.278C194.577 583.345 196.635 586.83 197.821 588.675C198.799 590.196 199.597 591.838 199.597 593.656C199.597 594.682 200.04 600.875 200.04 597.009" stroke="#F1F1F1" stroke-width="2" stroke-linecap="round"/>
<path d="M215.574 555.292C216.373 554.759 217.112 562.514 217.35 563.7C218.143 567.669 222.3 568.343 225.684 568.952C227.938 569.358 229.357 570.227 231.306 571.467C232.639 572.316 231.762 574.285 231.453 575.609C230.766 578.565 227.837 580.58 228.001 583.697C228.109 585.749 230.686 588.388 231.996 589.886C232.919 590.941 235.77 596.238 235.103 595.236" stroke="#F1F1F1" stroke-width="2" stroke-linecap="round"/>
<path d="M196.488 563.728C196.488 562.133 198.657 561.581 200.039 561.509C200.808 561.468 201.743 560.954 202.455 561.262C204.079 561.964 205.825 563.488 207.584 563.728C211.158 564.215 212.158 559.53 213.798 557.07" stroke="#F1F1F1" stroke-width="2" stroke-linecap="round"/>
<path d="M192.051 550.858C190.536 549.153 193.962 553.584 194.221 553.915C194.787 554.636 199.694 561.411 200.04 561.066" stroke="#F1F1F1" stroke-width="2" stroke-linecap="round"/>
<path d="M191.164 545.531C191.337 547.256 193.18 549.119 194.098 550.463C195.729 552.85 197.423 555.208 199.153 557.515" stroke="#F1F1F1" stroke-width="2" stroke-linecap="round"/>
<path d="M189.389 541.094C192.851 545.201 195.909 549.696 199.153 553.965" stroke="#F1F1F1" stroke-width="2" stroke-linecap="round"/>
<path d="M188.943 536.211C193.137 540.404 196.221 545.729 199.151 550.857" stroke="#F1F1F1" stroke-width="2" stroke-linecap="round"/>
<path d="M191.164 533.547C194.824 536.37 203.309 547.467 200.041 544.199" stroke="#F1F1F1" stroke-width="2" stroke-linecap="round"/>
<path d="M219.125 556.18C222.679 559.733 224.809 564.526 228.445 568.163" stroke="#F1F1F1" stroke-width="2" stroke-linecap="round"/>
<path d="M216.018 545.086C222.241 551.433 227.477 558.475 232.883 565.502" stroke="#F1F1F1" stroke-width="2" stroke-linecap="round"/>
<path d="M217.35 539.758C222.491 546.067 227.413 552.347 232.243 558.892C234.208 561.556 239.69 569.793 238.21 566.831" stroke="#F1F1F1" stroke-width="2" stroke-linecap="round"/>
<path d="M218.236 536.211C223.699 541.876 228.624 548.398 233.351 554.679C235.766 557.888 238.148 561.121 240.576 564.32C241.638 565.72 242.129 566.478 240.428 565.06" stroke="#F1F1F1" stroke-width="2" stroke-linecap="round"/>
<path d="M216.461 529.553C216.461 528.986 217.179 530.325 217.349 530.539C221.822 536.184 226.571 541.601 231.181 547.133C235.672 552.522 247.144 570.187 243.535 564.171" stroke="#F1F1F1" stroke-width="2" stroke-linecap="round"/>
<path d="M220.012 528.664C226.988 537.235 234.995 544.928 242.105 553.42C244.617 556.421 247.078 559.473 249.625 562.444C251.356 564.464 249.308 562.011 248.861 561.507" stroke="#F1F1F1" stroke-width="2" stroke-linecap="round"/>
<path d="M227.113 528.664C232.504 534.055 237.155 540.271 242.154 546.023C245.258 549.594 248.477 553.077 251.549 556.675C252.654 557.969 252.903 558.233 251.524 557.957" stroke="#F1F1F1" stroke-width="2" stroke-linecap="round"/>
<path d="M234.658 532.656C241.104 539.724 247.899 546.477 254.631 553.27C255.989 554.64 262.702 562.153 258.181 557.067" stroke="#F1F1F1" stroke-width="2" stroke-linecap="round"/>
<path d="M241.316 534.43C247.152 540.265 252.987 546.101 258.823 551.936C260.076 553.19 267.494 559.301 266.615 561.059" stroke="#F1F1F1" stroke-width="2" stroke-linecap="round"/>
<path d="M257.738 545.086C263.55 550.196 269.549 556.178 272.828 563.283" stroke="#F1F1F1" stroke-linecap="round"/>
<path d="M217.793 586.805C221.058 589.707 224.45 592.575 227.557 595.681" stroke="#F1F1F1" stroke-width="2" stroke-linecap="round"/>
<path d="M216.461 581.922C219.569 583.721 222.446 586.502 225.116 588.875C226.017 589.677 228.444 591.548 228.444 592.574" stroke="#F1F1F1" stroke-width="2" stroke-linecap="round"/>
<path d="M218.682 579.258C220.803 580.436 228.365 587.509 228.002 587.691" stroke="#F1F1F1" stroke-width="2" stroke-linecap="round"/>
<path d="M218.236 573.047C219.651 574.251 226.329 582.315 228.001 581.48" stroke="#F1F1F1" stroke-width="2" stroke-linecap="round"/>
<path d="M222.676 570.828C226.418 573.621 230.674 576.621 232.44 581.036" stroke="#F1F1F1" stroke-width="2" stroke-linecap="round"/>
</svg>
